<svg width="797" height="127" viewBox="0 0 797 127" fill="none" xmlns="http://www.w3.org/2000/svg">
<path d="M60.312 8.57774C61.402 6.18774 63.542 -1.27226 67.342 0.187745C68.5886 0.661078 69.4686 1.47441 69.982 2.62775C74.0286 11.6877 78.1053 20.7344 82.212 29.7677C85.222 36.3777 89.672 41.3677 96.672 42.0977C112.725 43.7777 123.645 44.9511 129.432 45.6178C133.802 46.1178 133.942 50.0878 131.142 52.6178C124.509 58.6244 117.869 64.6211 111.222 70.6077C104.362 76.7877 100.312 81.9377 102.212 90.9077C104.305 100.821 106.329 110.744 108.282 120.678C108.509 121.831 108.572 122.991 108.472 124.158C108.434 124.637 108.243 125.092 107.929 125.456C107.614 125.821 107.192 126.077 106.722 126.188C105.329 126.514 103.939 126.284 102.552 125.498C94.6186 121.024 86.6853 116.544 78.752 112.058C69.372 106.758 64.142 106.368 55.132 111.568C43.4253 118.321 35.0853 123.081 30.112 125.848C28.6853 126.641 27.1953 126.731 25.642 126.118C25.3286 125.998 25.102 125.784 24.962 125.478C24.3353 124.104 24.152 122.748 24.412 121.408C25.9386 113.501 28.1086 103.248 30.922 90.6478C31.8153 86.6611 31.4286 82.8611 29.762 79.2477C28.7753 77.1211 26.7286 74.6611 23.622 71.8678C16.9686 65.8878 10.272 59.9544 3.53196 54.0677C2.1653 52.8744 1.0853 51.5277 0.291966 50.0277C-0.0108584 49.4479 -0.0811789 48.7744 0.0953377 48.1445C0.271854 47.5146 0.681923 46.9758 1.24197 46.6377C2.28197 46.0111 3.5953 45.6144 5.18197 45.4477C13.6753 44.5411 22.1686 43.6411 30.662 42.7477C35.9953 42.1877 39.7453 41.3611 41.912 40.2677C45.6786 38.3744 48.4286 35.4244 50.162 31.4177C53.462 23.7711 56.8453 16.1577 60.312 8.57774Z" fill="#FFBC37"/>
<path d="M192.962 126.628C192.549 126.695 192.124 126.631 191.749 126.444C191.374 126.258 191.068 125.958 190.872 125.588C190.032 124.008 189.835 122.188 190.282 120.128C192.449 110.181 194.635 100.234 196.842 90.2877C197.682 86.4944 197.262 82.8344 195.582 79.3077C194.522 77.0877 192.262 74.4277 188.802 71.3277C182.149 65.3877 175.472 59.4711 168.772 53.5777C167.539 52.4911 166.615 51.1911 166.002 49.6777C165.786 49.1444 165.763 48.5521 165.939 48.0039C166.114 47.4558 166.476 46.9865 166.962 46.6777C167.802 46.1444 168.882 45.8011 170.202 45.6477C179.095 44.6411 187.992 43.6544 196.892 42.6877C202.212 42.1077 205.935 41.2411 208.062 40.0877C211.629 38.1544 214.312 35.1544 216.112 31.0877C220.219 21.7877 224.342 12.4944 228.482 3.20774C230.312 -0.902261 234.122 -1.05226 236.012 3.13774C240.272 12.6177 244.515 22.1077 248.742 31.6077C252.142 39.2677 258.252 41.6277 266.762 42.5177C276.242 43.5111 285.715 44.5377 295.182 45.5977C300.212 46.1677 299.402 50.4577 296.542 53.0177C288.682 60.0711 280.832 67.1344 272.992 74.2077C267.082 79.5477 267.142 86.5777 268.812 94.5977C270.685 103.611 272.562 112.624 274.442 121.638C275.492 126.668 271.162 127.138 267.822 125.228C259.842 120.688 251.852 116.164 243.852 111.658C234.992 106.678 229.622 106.568 221.162 111.408C213.269 115.934 205.399 120.491 197.552 125.078C196.245 125.838 194.715 126.354 192.962 126.628Z" fill="#FFBC37"/>
<path d="M356.242 120.418C357.992 111.588 359.992 102.798 361.842 93.9878C364.002 83.6878 362.772 78.4878 355.252 71.8078C347.972 65.3478 340.702 58.8811 333.442 52.4078C332.169 51.2678 331.615 49.8111 331.782 48.0378C331.809 47.6911 331.955 47.4044 332.222 47.1778C333.315 46.2244 334.602 45.6711 336.082 45.5178C344.915 44.5911 353.749 43.6578 362.582 42.7178C367.595 42.1844 371.082 41.4444 373.042 40.4978C378.002 38.1178 380.232 34.7878 382.612 29.4378C386.619 20.4111 390.642 11.3944 394.682 2.38777C396.432 -1.51223 400.382 0.00775981 401.832 3.21776C405.659 11.6911 409.479 20.1711 413.292 28.6578C415.185 32.8844 416.982 35.8311 418.682 37.4978C421.455 40.2244 424.702 41.7778 428.422 42.1578C445.322 43.8844 456.242 45.0411 461.182 45.6278C466.572 46.2778 464.622 51.0778 461.972 53.4378C454.165 60.3844 446.405 67.3744 438.692 74.4078C435.912 76.9411 434.225 80.1244 433.632 83.9578C433.272 86.2644 433.572 89.7011 434.532 94.2678C436.412 103.228 438.282 112.191 440.142 121.158C441.372 127.108 436.932 127.128 433.132 124.948C425.485 120.561 417.822 116.211 410.142 111.898C401.332 106.958 396.012 106.288 387.462 111.168C379.442 115.748 371.435 120.341 363.442 124.948C358.512 127.788 354.952 126.938 356.242 120.418Z" fill="#FFBC37"/>
<path d="M548.602 29.0077C552.542 20.2277 556.152 11.0377 560.482 2.45771C562.102 -0.772291 565.872 -0.722298 567.352 2.4977C569.912 8.0577 574.285 17.8544 580.472 31.8877C583.259 38.2077 588.492 41.7277 596.172 42.4477C606.352 43.4077 616.519 44.481 626.672 45.6677C628.412 45.8744 629.659 46.6877 630.412 48.1077C630.579 48.4225 630.618 48.7911 630.522 49.1377C630.075 50.7177 629.095 52.1877 627.582 53.5477C620.255 60.141 612.925 66.7277 605.592 73.3077C598.352 79.8177 598.622 86.3277 600.702 95.9977C603.222 107.691 604.955 115.994 605.902 120.908C606.135 122.094 606.045 123.478 605.632 125.058C605.594 125.212 605.524 125.358 605.426 125.485C605.328 125.613 605.204 125.719 605.062 125.798C603.522 126.631 601.899 126.571 600.192 125.618C592.445 121.284 584.722 116.914 577.022 112.508C568.672 107.728 562.762 105.748 554.482 110.488C545.802 115.454 537.115 120.408 528.422 125.348C521.922 129.048 521.152 124.198 522.242 119.168C524.022 110.908 525.785 102.641 527.532 94.3677C529.822 83.5677 528.632 78.5977 520.782 71.6277C513.795 65.4277 506.802 59.2344 499.802 53.0477C498.649 52.0344 497.892 50.7377 497.532 49.1577C497.42 48.6667 497.47 48.1532 497.674 47.695C497.878 47.2368 498.225 46.8586 498.662 46.6177C499.602 46.091 500.782 45.7477 502.202 45.5877C510.869 44.6277 519.539 43.6777 528.212 42.7377C539.662 41.4977 544.062 39.1077 548.602 29.0077Z" fill="#FFBC37"/>
<path d="M714.128 28.9489C718.068 20.1689 721.678 10.9789 726.008 2.39887C727.628 -0.831129 731.398 -0.781136 732.878 2.43886C735.438 7.99886 739.812 17.7955 745.998 31.8289C748.785 38.1489 754.018 41.6689 761.698 42.3889C771.878 43.3489 782.045 44.4222 792.198 45.6089C793.938 45.8155 795.185 46.6289 795.938 48.0489C796.105 48.3636 796.145 48.7322 796.048 49.0789C795.602 50.6589 794.622 52.1289 793.108 53.4889C785.782 60.0822 778.452 66.6689 771.118 73.2489C763.878 79.7589 764.148 86.2689 766.228 95.9389C768.748 107.632 770.482 115.936 771.428 120.849C771.662 122.036 771.572 123.419 771.158 124.999C771.121 125.154 771.05 125.299 770.952 125.426C770.854 125.554 770.73 125.66 770.588 125.739C769.048 126.572 767.425 126.512 765.718 125.559C757.972 121.226 750.248 116.856 742.548 112.449C734.198 107.669 728.288 105.689 720.008 110.429C711.328 115.396 702.642 120.349 693.948 125.289C687.448 128.989 686.678 124.139 687.768 119.109C689.548 110.849 691.312 102.582 693.058 94.3089C695.348 83.5089 694.158 78.5389 686.308 71.5689C679.322 65.3689 672.328 59.1755 665.328 52.9889C664.175 51.9755 663.418 50.6789 663.058 49.0989C662.947 48.6078 662.996 48.0944 663.2 47.6362C663.404 47.1779 663.751 46.7998 664.188 46.5589C665.128 46.0322 666.308 45.6889 667.728 45.5289C676.395 44.5689 685.065 43.6189 693.738 42.6789C705.188 41.4389 709.588 39.0489 714.128 28.9489Z" fill="#FFBC37"/>
<path d="M715.865 33.926C719.476 26.3661 722.785 18.4532 726.754 11.0655C728.239 8.28437 731.694 8.32741 733.051 11.0999C735.397 15.8873 739.406 24.3226 745.077 36.4058C747.631 41.8475 752.428 44.8783 759.467 45.4983C768.798 46.3249 778.117 47.2491 787.424 48.2708C789.019 48.4488 790.161 49.1491 790.852 50.3718C791.005 50.6428 791.041 50.9601 790.953 51.2586C790.543 52.6191 789.645 53.8848 788.258 55.0558C781.542 60.7329 774.824 66.4042 768.102 72.0698C761.466 77.6752 761.713 83.2805 763.62 91.6067C765.929 101.675 767.518 108.825 768.386 113.055C768.6 114.077 768.517 115.268 768.138 116.628C768.104 116.762 768.039 116.887 767.95 116.997C767.86 117.106 767.746 117.198 767.616 117.266C766.204 117.983 764.716 117.931 763.152 117.111C756.052 113.379 748.972 109.617 741.914 105.822C734.261 101.707 728.844 100.002 721.254 104.083C713.298 108.36 705.336 112.625 697.367 116.878C691.409 120.064 690.704 115.888 691.703 111.557C693.334 104.445 694.951 97.3269 696.552 90.2032C698.651 80.9041 697.56 76.6247 690.365 70.6233C683.961 65.2849 677.55 59.9522 671.134 54.6253C670.077 53.7528 669.383 52.6363 669.054 51.2758C668.951 50.853 668.997 50.411 669.183 50.0164C669.37 49.6219 669.688 49.2963 670.089 49.0888C670.951 48.6353 672.033 48.3397 673.334 48.2019C681.278 47.3753 689.225 46.5574 697.175 45.748C707.67 44.6803 711.703 42.6224 715.865 33.926Z" fill="white"/>
</svg>
