<svg width="797" height="127" viewBox="0 0 797 127" fill="none" xmlns="http://www.w3.org/2000/svg">
<path d="M60.312 8.57774C61.402 6.18774 63.542 -1.27226 67.342 0.187745C68.5886 0.661078 69.4686 1.47441 69.982 2.62775C74.0286 11.6877 78.1053 20.7344 82.212 29.7677C85.222 36.3777 89.672 41.3677 96.672 42.0977C112.725 43.7777 123.645 44.9511 129.432 45.6178C133.802 46.1178 133.942 50.0878 131.142 52.6178C124.509 58.6244 117.869 64.6211 111.222 70.6077C104.362 76.7877 100.312 81.9377 102.212 90.9077C104.305 100.821 106.329 110.744 108.282 120.678C108.509 121.831 108.572 122.991 108.472 124.158C108.434 124.637 108.243 125.092 107.929 125.456C107.614 125.821 107.192 126.077 106.722 126.188C105.329 126.514 103.939 126.284 102.552 125.498C94.6186 121.024 86.6853 116.544 78.752 112.058C69.372 106.758 64.142 106.368 55.132 111.568C43.4253 118.321 35.0853 123.081 30.112 125.848C28.6853 126.641 27.1953 126.731 25.642 126.118C25.3286 125.998 25.102 125.784 24.962 125.478C24.3353 124.104 24.152 122.748 24.412 121.408C25.9386 113.501 28.1086 103.248 30.922 90.6478C31.8153 86.6611 31.4286 82.8611 29.762 79.2477C28.7753 77.1211 26.7286 74.6611 23.622 71.8678C16.9686 65.8878 10.272 59.9544 3.53196 54.0677C2.1653 52.8744 1.0853 51.5277 0.291966 50.0277C-0.0108584 49.4479 -0.0811789 48.7744 0.0953377 48.1445C0.271854 47.5146 0.681923 46.9758 1.24197 46.6377C2.28197 46.0111 3.5953 45.6144 5.18197 45.4477C13.6753 44.5411 22.1686 43.6411 30.662 42.7477C35.9953 42.1877 39.7453 41.3611 41.912 40.2677C45.6786 38.3744 48.4286 35.4244 50.162 31.4177C53.462 23.7711 56.8453 16.1577 60.312 8.57774Z" fill="#FFBC37"/>
<path d="M192.962 126.628C192.549 126.695 192.124 126.631 191.749 126.444C191.374 126.258 191.068 125.958 190.872 125.588C190.032 124.008 189.835 122.188 190.282 120.128C192.449 110.181 194.635 100.234 196.842 90.2877C197.682 86.4944 197.262 82.8344 195.582 79.3077C194.522 77.0877 192.262 74.4277 188.802 71.3277C182.149 65.3877 175.472 59.4711 168.772 53.5777C167.539 52.4911 166.615 51.1911 166.002 49.6777C165.786 49.1444 165.763 48.5521 165.939 48.0039C166.114 47.4558 166.476 46.9865 166.962 46.6777C167.802 46.1444 168.882 45.8011 170.202 45.6477C179.095 44.6411 187.992 43.6544 196.892 42.6877C202.212 42.1077 205.935 41.2411 208.062 40.0877C211.629 38.1544 214.312 35.1544 216.112 31.0877C220.219 21.7877 224.342 12.4944 228.482 3.20774C230.312 -0.902261 234.122 -1.05226 236.012 3.13774C240.272 12.6177 244.515 22.1077 248.742 31.6077C252.142 39.2677 258.252 41.6277 266.762 42.5177C276.242 43.5111 285.715 44.5377 295.182 45.5977C300.212 46.1677 299.402 50.4577 296.542 53.0177C288.682 60.0711 280.832 67.1344 272.992 74.2077C267.082 79.5477 267.142 86.5777 268.812 94.5977C270.685 103.611 272.562 112.624 274.442 121.638C275.492 126.668 271.162 127.138 267.822 125.228C259.842 120.688 251.852 116.164 243.852 111.658C234.992 106.678 229.622 106.568 221.162 111.408C213.269 115.934 205.399 120.491 197.552 125.078C196.245 125.838 194.715 126.354 192.962 126.628Z" fill="#FFBC37"/>
<path d="M356.242 120.418C357.992 111.588 359.992 102.798 361.842 93.9878C364.002 83.6878 362.772 78.4878 355.252 71.8078C347.972 65.3478 340.702 58.8811 333.442 52.4078C332.169 51.2678 331.615 49.8111 331.782 48.0378C331.809 47.6911 331.955 47.4044 332.222 47.1778C333.315 46.2244 334.602 45.6711 336.082 45.5178C344.915 44.5911 353.749 43.6578 362.582 42.7178C367.595 42.1844 371.082 41.4444 373.042 40.4978C378.002 38.1178 380.232 34.7878 382.612 29.4378C386.619 20.4111 390.642 11.3944 394.682 2.38777C396.432 -1.51223 400.382 0.00775981 401.832 3.21776C405.659 11.6911 409.479 20.1711 413.292 28.6578C415.185 32.8844 416.982 35.8311 418.682 37.4978C421.455 40.2244 424.702 41.7778 428.422 42.1578C445.322 43.8844 456.242 45.0411 461.182 45.6278C466.572 46.2778 464.622 51.0778 461.972 53.4378C454.165 60.3844 446.405 67.3744 438.692 74.4078C435.912 76.9411 434.225 80.1244 433.632 83.9578C433.272 86.2644 433.572 89.7011 434.532 94.2678C436.412 103.228 438.282 112.191 440.142 121.158C441.372 127.108 436.932 127.128 433.132 124.948C425.485 120.561 417.822 116.211 410.142 111.898C401.332 106.958 396.012 106.288 387.462 111.168C379.442 115.748 371.435 120.341 363.442 124.948C358.512 127.788 354.952 126.938 356.242 120.418Z" fill="#FFBC37"/>
<path d="M548.602 29.0078C552.542 20.2278 556.152 11.0378 560.482 2.45777C562.102 -0.77223 565.872 -0.722237 567.352 2.49776C569.912 8.05776 574.285 17.8544 580.472 31.8878C583.259 38.2078 588.492 41.7278 596.172 42.4478C606.352 43.4078 616.519 44.4811 626.672 45.6678C628.412 45.8744 629.659 46.6878 630.412 48.1078C630.579 48.4225 630.618 48.7911 630.522 49.1378C630.075 50.7178 629.095 52.1878 627.582 53.5478C620.255 60.1411 612.925 66.7278 605.592 73.3078C598.352 79.8178 598.622 86.3278 600.702 95.9978C603.222 107.691 604.955 115.994 605.902 120.908C606.135 122.094 606.045 123.478 605.632 125.058C605.594 125.212 605.524 125.358 605.426 125.485C605.328 125.613 605.204 125.719 605.062 125.798C603.522 126.631 601.899 126.571 600.192 125.618C592.445 121.284 584.722 116.914 577.022 112.508C568.672 107.728 562.762 105.748 554.482 110.488C545.802 115.454 537.115 120.408 528.422 125.348C521.922 129.048 521.152 124.198 522.242 119.168C524.022 110.908 525.785 102.641 527.532 94.3678C529.822 83.5678 528.632 78.5978 520.782 71.6278C513.795 65.4278 506.802 59.2344 499.802 53.0478C498.649 52.0344 497.892 50.7378 497.532 49.1578C497.42 48.6667 497.47 48.1533 497.674 47.6951C497.878 47.2368 498.225 46.8587 498.662 46.6178C499.602 46.0911 500.782 45.7478 502.202 45.5878C510.869 44.6278 519.539 43.6778 528.212 42.7378C539.662 41.4978 544.062 39.1078 548.602 29.0078Z" fill="#FFBC37"/>
<path d="M729.692 0.217727L729.732 107.748C726.412 107.914 723.902 108.474 722.202 109.428C713.202 114.488 704.252 119.621 695.352 124.828C693.892 125.681 692.409 126.281 690.902 126.628C690.314 126.761 689.698 126.68 689.166 126.399C688.634 126.118 688.221 125.657 688.002 125.098C687.535 123.931 687.465 122.538 687.792 120.918C689.619 111.951 691.492 102.998 693.412 94.0577C695.482 84.4177 694.622 78.8877 687.512 72.4677C680.299 65.9677 673.042 59.5111 665.742 53.0977C663.062 50.7377 661.782 46.2377 666.942 45.6577C676.089 44.6377 685.242 43.6477 694.402 42.6877C705.242 41.5477 709.852 39.1477 714.162 29.5577C718.109 20.7711 722.032 11.9744 725.932 3.16773C726.562 1.74773 727.902 -0.242273 729.692 0.217727Z" fill="#FFBC37"/>
<path d="M763.814 44.0484L763.813 44.0482C759.632 43.574 755.786 42.7092 752.532 40.9377C749.237 39.1434 746.616 36.4552 744.851 32.4765C744.851 32.4763 744.851 32.4761 744.851 32.4759L746.222 31.8678C741.909 22.1544 737.629 12.4344 733.382 2.70777C732.879 1.55607 732.149 0.80373 731.192 0.450763L763.814 44.0484ZM763.814 44.0484C772.962 45.0759 782.12 46.0334 791.287 46.9208L791.288 46.9209C793.588 47.1423 794.409 48.0038 794.599 48.5679C794.788 49.1273 794.658 50.2962 792.963 51.8381L792.962 51.8384C786.218 57.9766 779.456 64.1015 772.678 70.2131C768.754 73.7472 766.061 76.9029 764.694 80.583C763.317 84.2916 763.36 88.3246 764.455 93.4606C766.441 102.791 768.404 112.122 770.343 121.452C770.628 122.827 770.517 123.63 770.339 124.061C770.188 124.427 769.954 124.623 769.588 124.735C769.164 124.864 768.538 124.878 767.745 124.698C766.967 124.522 766.126 124.181 765.336 123.721L765.335 123.721C756.396 118.531 747.428 113.398 738.429 108.321C736.483 107.219 734.062 106.58 731.231 106.337L731.193 2.15269M763.814 44.0484L731.193 2.15269M731.193 2.15269C731.478 2.38224 731.76 2.74256 732.007 3.30796L731.193 2.15269Z" fill="#FFBC37" stroke="#FFBC37" stroke-width="3"/>
</svg>
