<svg xmlns="http://www.w3.org/2000/svg" viewBox="0 0 198 300" xmlns:v="https://vecta.io/nano"><style><![CDATA[.B{stroke:#89d3da}.C{stroke:#196166}.D{stroke:#105e65}.E{stroke:#453f3d}.F{stroke:#b1d7de}.G{stroke:#44afbc}.H{stroke:#868888}.I{stroke:#86807f}.J{stroke:#b6a1cb}.K{stroke:#326e70}.L{stroke:#5a8c8b}.M{stroke:#594d46}.N{stroke:#87766f}.O{stroke:#725a50}.P{stroke:#e9c6b6}.Q{stroke:#488a8f}.R{stroke:#a2b4c8}.S{stroke:#575756}.T{stroke:#5e4d47}.U{stroke:#574239}.V{stroke:#704f43}.W{stroke:#9c7cb5}]]></style><g fill="none" stroke-width="2"><path vector-effect="non-scaling-stroke" d="M26.18 0l-6.02 14.77q-.01.01.01.02l.27.12q.2.1.3-.1l3.15-6.18q.02-.04.05-.02l.24.08q.24.09.15.32l-8.99 23.74q-.17.42.01.84.45 1.06 1.59 1.96" class="B"/><path vector-effect="non-scaling-stroke" d="M16.94 35.55q-1.08 1.12-.35 2.15.26.37.71.3l1.1-.19" class="G"/><path vector-effect="non-scaling-stroke" d="M18.4 37.81q3.24-.29 5.06-2.83" class="B"/><path vector-effect="non-scaling-stroke" d="M23.46 34.98q.77.07 1.39-1.24" class="G"/><path vector-effect="non-scaling-stroke" d="M24.85 33.74l2.62-4.89q.24-.46.75-.46l7.06-.12q.51-.01.58.5l1.36 10.01a1.62 1.6-79.5 0 0 .81 1.19l.47.26a.46.46 0 0 0 .68-.48l-1.1-6.45a.4.4 0 0 1 .39-.47h.48q.68 0 .68.68-.03 4.15 1.79 7.87.36.74.97.18c3.81-3.53 3.07-9.78 2.35-14.32a1.89 1.88-17.9 0 1 1.01-1.97l4.78-2.42a.89.89 0 0 0 .46-1.01q-1.29-5.19-6.52-4.63a.87.86-4.1 0 1-.95-.82Q43.07 7.8 40.81 0" class="B"/><path vector-effect="non-scaling-stroke" d="M0 158.5l12.12-.07" class="K"/><path vector-effect="non-scaling-stroke" d="M12.12 158.43L7.39 182.1" class="B"/><path vector-effect="non-scaling-stroke" d="M7.39 182.1l-6.2 1.17q-.22.04-.16.26l.08.33q.07.27.35.23l5.44-.89" class="D"/><path vector-effect="non-scaling-stroke" d="M6.9 183.2l-1.09 12.29a.62.62 0 0 0 .53.67q7.37.95 13.26-3.52a.85.84-55.4 0 0-.27-1.48q-.97-.29-1.44-1.13a.28.28 0 0 1 .38-.38l1.18.68a.48.47-70.1 0 0 .7-.33l1.8-10.01a1.1 1.1 0 0 1 1.74-.69c3.17 2.38 6.74 5.03 10.73 2.13.67-.49.74-1.06.9-1.83q.11-.52.51-.87 3.09-2.78 5.19-6.33a.59.59 0 0 1 1.1.38l-2.37 18.77a1.33 1.31 22.1 0 0 .52 1.21q6.02 4.48 12.99 1.38.66-.3.79-1c.55-3.07 1.45-6.27 1.83-9.22q1.68-13.23 1.01-26.41" class="B"/><path vector-effect="non-scaling-stroke" d="M56.89 157.51q.41-.05.65-.3a.77.77 0 0 0-.45-1.3l-2.41-.3" class="D"/><path vector-effect="non-scaling-stroke" d="M54.68 155.61c-1.55-1.64-4.35-4.49-6.77-4.3q-2 .16-2.95 1.13-6.89 7-13.94 13.94a.42.42 0 0 1-.7-.19c-2.05-8.04-4.58-14.13-12.84-17.62" class="B"/><path vector-effect="non-scaling-stroke" d="M17.48 148.57q1.04-1.33 2.33-1.86" class="K"/><path vector-effect="non-scaling-stroke" d="M19.81 146.71q6.11.6 9.96-3.43" class="L"/><path vector-effect="non-scaling-stroke" d="M29.77 143.28q2.55-.08 4.61-2.13" class="K"/><path vector-effect="non-scaling-stroke" d="M34.38 141.15q.81.32 1.89.26" class="L"/><path vector-effect="non-scaling-stroke" d="M36.27 141.41l2.95.9" class="C"/><path vector-effect="non-scaling-stroke" d="M39.22 142.31q5.53 3.54 11.26 5.71c2.42.91 4.32 2.02 4.98 4.4q.6 2.19 1.38.06c.62-1.71-.64-3.88-.68-5.65q-.06-2.54-.33-4.87" class="L"/><path vector-effect="non-scaling-stroke" d="M55.83 141.96l-.22-2.17" class="C"/><path vector-effect="non-scaling-stroke" d="M55.61 139.79q2.91-4.96 2.2-11.31c-.16-1.5-1.54-2.68-1.6-4.74q-.13-5.25.15-10.44" class="L"/><path vector-effect="non-scaling-stroke" d="M56.36 113.3l-.07-.51" class="C"/><path vector-effect="non-scaling-stroke" d="M56.29 112.79q.22-.03.28-.54.86-6.75-1.25-12.51" class="Q"/><path vector-effect="non-scaling-stroke" d="M55.32 99.74l-.88-4.05" class="K"/><path vector-effect="non-scaling-stroke" d="M54.44 95.69q.49-3.11.44-7.19-.02-1.53 1.12-2.47" class="Q"/><path vector-effect="non-scaling-stroke" d="M56 86.03q5.39 5.48 12.56 3.97c5.11-1.08 6.74-6.04 8.71-11 3.2-8.05 4.07-19.07-1.39-26.45q-.32-.42-.77-.16l-.91.53a.84.83-17 0 1-1.25-.66q-.3-4.56-4.12-6.89-.42-.26-.81.05-2.74 2.21-4.45 5.38" class="B"/><path vector-effect="non-scaling-stroke" d="M63.57 50.8q-.73-.57-.61-1.59.06-.52-.33-.88-.96-.87-2.66-.68" class="G"/><path vector-effect="non-scaling-stroke" d="M59.97 47.65c3.46-5.48-.27-8.76-5.73-7.64q-.5.1-.75.55l-5.62 9.88" class="B"/><path vector-effect="non-scaling-stroke" d="M47.87 50.44c-2.13-1.84-5.04.51-6.88 1.82" class="G"/><path vector-effect="non-scaling-stroke" d="M40.99 52.26q-1.03-4.73-5.59-5.66a.7.7 0 0 1-.41-.25l-2.67-3.13a.9.89 36.9 0 0-1.5.21L20.14 67.16q-.41.92-.44-.09-.25-7.33.8-14.6c1.02-7.05-4.91-8.7-10.42-8.64q-.51.01-.67.5c-3.94 12.03-2.48 27.91-.15 40.15a1.45 1.45 0 0 0 2.4.8l3.1-2.84a.56.56 0 0 1 .81.06l.9 1.09q.39.48 1 .59c2.88.56 5.84-3.26 7.42-5.41" class="B"/><path vector-effect="non-scaling-stroke" d="M24.89 78.77q3.96 1.09 8.36.23 1.72-.34 2.87.4" class="G"/><path vector-effect="non-scaling-stroke" d="M36.12 79.4c2.44 5.98-22.87 15.04-26.85 16.41-2.29.79-6.57-1.8-9.27-2.12M194.69 1.5a.21.21 0 0 0-.21.33q1.03 1.51 2.66 2.33a.5.5 0 0 0 .63-.74q-1.14-1.55-3.08-1.92m-83.31 10.47q.18-.19.27-.44a.16.16 0 0 0-.21-.2q-.87.33-1.26 1.21a.31.3-89 0 0 .39.41q.44-.18.61-.65.07-.18.2-.33m28.07 4q1.27-1.95-.52-3.36-.85-.67-1.37-.18a2.51 1.83-27.8 0 0-.77 1.57q-.03 3.15-1.26 6.04-.63 1.46.95 1.27l1.27-.16a2.35 2.34 4.3 0 0 1.98-1.7q.4-1.42-.3-2.56-.28-.47.02-.92" class="C"/><path vector-effect="non-scaling-stroke" d="M52.603 14.842a1.79.52 35.2 0 0-1.163-1.457 1.79.52 35.2 0 0-1.762-.607 1.79.52 35.2 0 0 1.163 1.457 1.79.52 35.2 0 0 1.762.607" class="D"/><path vector-effect="non-scaling-stroke" d="M61.36 17.61a.41.41 0 0 1 .81.1l.06 2.8q.01.55.54.66.26.05.52-.07a.54.54 0 0 0 .29-.38l1.46-7.19a.74.72 37.5 0 0-.07-.48q-.27-.5-.73-.56-.62-.07-.52.54.22 1.37-.36 2.6a.47.47 0 0 1-.82.05q-.49-.76-.54-1.62-.04-.49-.52-.51-.47-.01-.57.44-.7 3.35-1.38 6.75-.09.46.38.41l.25-.02a.29.28 4.3 0 0 .25-.21l.95-3.31m22.38-2.43q-.32-1.1-.99-2.01a.45.44 19.8 0 0-.79.37L83 17.68a.95.91-35.1 0 1-.14.73q-.6.88-.6 1.08-.01 3.18 1.38.41l3.2-6.39a.44.43 19.4 0 0-.3-.62l-.43-.1a.55.55 0 0 0-.61.31l-.96 2.14q-.48 1.07-.8-.06m39.26 3.5q.33-1.24 1.5-1.7a.42.42 0 0 0 .04-.76l-.31-.17a.67.67 0 0 1-.22-1q.67-.86 1.66-1.05 1.37-.26.28-1.12-.79-.63-1.97.31a1.5 1.48 80 0 0-.52.75l-1.69 5.63a.94.94 0 0 0 1.07 1.19l2-.36q.52-.1.49-.63l-.03-.34a.38.38 0 0 0-.42-.35l-1.42.15a.44.43-84.9 0 1-.46-.55m-50.58-2.9l.32-2.58q.02-.15-.13-.15l-.58-.03q-.17 0-.19.16l-1.13 7.79q-.07.53.47.52l.43-.01a.45.45 0 0 0 .42-.33l.86-3.15a.49.49 0 0 1 .94.01l.57 2.22q.93 3.63 2.05.05l2.09-6.65q.17-.52-.39-.53l-.37-.01q-.42 0-.52.4l-1.24 4.73q-.36 1.37-.9.07-.7-1.67.41-4.31a.61.61 0 0 0-.31-.79l-.24-.11a.29.28 25.1 0 0-.37.13L73.11 16a.37.37 0 0 1-.69-.22M163.39 19q.11-1.21 1.01-1.92.53-.42.14-.97-.65-.92.45-1.39 2.29-.98.05-1.76-.24-.08-1.14.44-.43.25-.58.73l-1.82 5.88a.66.66 0 0 0 .47.84q1.79.45 3.61-.5.52-.27.22-.81-.21-.38-.63-.29l-1.19.27q-.64.15-.59-.52m10.23-.47l.68-3.71a.87.86 17.5 0 0-.5-.95l-.34-.16a.39.39 0 0 0-.55.28l-1.14 5.78a.78.78 0 0 0 .74.93l7.15.27a.46.46 0 0 0 .35-.77q-.68-.72-1.72-.7a.46.46 0 0 1-.39-.71q.73-1.16 2.01-1.7a.39.38 34.6 0 0-.14-.74q-.87-.04-.96-.84a.79.79 0 0 1 .37-.75l1.44-.9a.4.4 0 0 0-.23-.74l-1.66.07q-.57.02-.73.57l-1.43 5.03q-.29 1.02-1.34.85l-.95-.16q-.81-.14-.66-.95m-85.393 2.733a4.16 2 105.8 0 0 3.057-3.458 4.16 2 105.8 0 0-.792-4.547 4.16 2 105.8 0 0-3.057 3.458 4.16 2 105.8 0 0 .792 4.547M99.7 15.45q-.07-.61.13-1.37.04-.17-.11-.27l-.43-.29q-.37-.25-.5.19l-1.7 6.01a.47.47 0 0 0 .41.59l.41.04a.69.68 7.4 0 0 .73-.56l.4-2.05a.53.53 0 0 1 1.04.01l.53 3.08q.07.4.48.41h.38a.49.49 0 0 0 .5-.48q.03-1.89-.65-3.66a1.04 1.02 51 0 1 .09-.91l1.4-2.26a.32.32 0 0 0-.07-.42l-.23-.18q-.09-.08-.19-.01-1.23.91-1.95 2.26-.54 1-.67-.13m9 .02l-1.1 4.73a.3.3 0 0 0 .39.36l.79-.26a.59.58 81.5 0 0 .39-.54q.05-2.86 1.6-5.23.77-1.17-.58-.78-1.26.36-2.27-.39-.4-.29-.72.09l-.18.22q-.13.16.01.3.58.62 1.37.93.4.16.3.57m3.137 5.399a3.99.75 105.3 0 0 1.776-3.651 3.99.75 105.3 0 0 .329-4.046 3.99.75 105.3 0 0-1.776 3.651 3.99.75 105.3 0 0-.329 4.047m7.433-1.8l-.81 2.18a.35.34-86.2 0 0 .4.46q1.22-.3 1.29-1.73.17-3.22 1.43-5.62a.74.74 0 0 0-.3-.99l-.27-.15a.45.44-63.4 0 0-.62.21c-.52 1.11-1.33 3.77-2.72 4.1a.44.44 0 0 1-.55-.46l.22-3.21q.01-.22-.17-.33-.16-.09-.35-.07-.55.07-.7.6l-1.79 6.24a.35.34-17.4 0 0 .6.31l.75-.91q.48-.57 1.21-.73l1.95-.4q.67-.14.43.5m9.53-.34l-.57.02q-.6.02-.8.59-.15.4-.08.84a.65.64-1.6 0 0 .59.55q1.85.16 2.76-1.41.28-.48-.02-.96l-1.51-2.35a.77.77 0 0 1 1.1-1.04q.36.27.83.3a.57.57 0 0 0 .62-.63q-.1-.81-.83-1.31a1.36 1.36 0 0 0-1.7.15q-2.05 1.97.04 4.19a.63.63 0 0 1-.43 1.06m24.61-3.49a.25.25 0 0 1 .08.26l-1.59 5.55a.25.25 0 0 0 .33.31l.59-.21a.25.25 0 0 0 .15-.15l2.76-7.26a.25.25 0 0 0-.26-.34l-3.18.38a.25.25 0 0 0-.13.44l1.25 1.02m15.65 3.49l.98-4.72q.16-.75-.6-.77l-.28-.01a.94.94 0 0 0-.96.77l-1.05 5.92a.77.77 0 0 0 .85.91l2.06-.22a.52.52 0 0 0 .08-1.01l-.66-.18q-.54-.15-.42-.69m-74.48.04l.27 2.75a.48.47 74 0 0 .68.38l.42-.2q.48-.24.29-.74-.99-2.65.58-4.95a1.38 1.38 0 0 0-.62-2.05l-.5-.2q-1.41-.57-1.85.89l-1.7 5.64q-.08.27.2.24l.45-.05q.19-.02.23-.21.21-1.11.93-1.75.55-.48.62.25m47.92.42q.18-.77.75-1.33a1.02 1-27.7 0 0 .29-.91q-.44-2.3 1.61-2.34.41-.01.54-.39.05-.15 0-.3-.08-.22-.41-.31-1.07-.31-2.14-.03-.48.12-.59.61-.47 2.11-1.05 4.2c-.43 1.56-.14 2.95 1.82 2.75a.39.39 0 0 0 .23-.67q-.23-.21-.53-.32a.83.83 0 0 1-.52-.96m5.07-.1l.17-.33q.17-.34-.17-.51l-.22-.11a.57.56 29 0 0-.74.21q-.68 1.12.15 2.21a1.06 1.04-16.3 0 0 .78.42q2.04.11 2.76-1.75a1.03 1.02-53.3 0 0-.14-.98q-.57-.75-.96-1.57-.79-1.71 1.24-.94.7.26.61-.48l-.16-1.25a.67.67 0 0 0-.86-.56q-1.62.49-2.28 2.03-.26.6.08 1.15l.92 1.52q.33.53-.05 1.03-.25.32-.63.46-.95.35-.5-.55m11.2-4.29q1.04-.21 1.45.73a.42.41-48.2 0 0 .78-.05l.29-.92a.59.59 0 0 0-.49-.76l-2.4-.31a1.12 1.12 0 0 0-1.13 1.64l1.63 3.02a.37.37 0 0 1-.37.54q-.68-.08-1.27-.42a.65.65 0 0 0-.96.43l-.06.35q-.16.8.58 1.15c1.03.5 2.47.39 3.04-.77q.8-1.62-1.36-3.72-.73-.71.27-.91m25.04 2.6q.68-1.27.87.16l.53 3.92a.46.45 85.8 0 0 .46.4l.29-.01q.53-.01.5-.53l-.26-4.36q-.03-.57.35-1.01l.87-1a.56.56 0 0 0-.16-.86q-1.66-.91-3.6-.58-.72.12-.87.83l-1.32 6.11a.45.45 0 0 0 .52.54l.32-.05q.66-.11.76-.77.31-1.98.74-2.79M66.43 19.46q1.01-1.72 1.09-3.7.02-.53.46-.81.57-.36.78-.37 2.36-.13.08-.76-.88-.24-1.77-.07-.45.09-.55.54l-1.29 6.26a.57.57 0 0 0 .58.69l1.8-.07a.45.45 0 0 0 .23-.83q-.49-.32-1.1-.33a.37.37 0 0 1-.31-.55" class="C"/><path vector-effect="non-scaling-stroke" d="M9.65 17.32l-.02 1.01q-.01.56.45.87 2.61 1.78 5.19.02a1.43 1.42-34.5 0 0 .37-1.99c-1.95-2.82-3.51-1.03-5.94-1.37a.55.52 67.3 0 1-.27-.12q-.73-.56-1.64-.83a.34.34 0 0 0-.27.61l1.74 1.07q.4.25.39.73" class="D"/><path vector-effect="non-scaling-stroke" d="M149.89 24.88c0-.43-.02-1.21-.1-1.58q-.09-.43-.44-.17-.24.17-.22.62.02.83.48 1.25.28.25.28-.12m-18.15.559a.53.53 0 0 0-.528-.532l-72.639-.254a.53.53 0 0 0-.532.528l-.001.28a.53.53 0 0 0 .528.532l72.64.254a.53.53 0 0 0 .532-.528l.001-.28" class="C"/><path vector-effect="non-scaling-stroke" d="M12.72 34.25q-.32.95.26 1.26a.52.51 7.5 0 0 .75-.57q-.24-1 .12-1.97.28-.77-.39-.3-.42.29-.54.81-.14.62-.2.77" class="G"/><path vector-effect="non-scaling-stroke" d="M107.55 63.61q1.63-2.1.79.42-3.72 11.16-6.27 22.68-.56 2.54 1.96 1.91l2.6-.65a5.09 5.07-89.6 0 0 3.66-3.62q1.82-6.88 3.64-10.36 5.15-9.86 7.59-20.71c1.03-4.59.42-5.46-3.63-7.77q-.42-.24-.86-.03c-1.68.84-3.26.77-4.75 1.88q-5.83 4.32-10.78 9.68a.49.49 0 0 1-.85-.32c-.12-5.86-3.23-10.2-9.38-10.19q-2.6 0-3.05 1.96-3.51 15.37-8.46 30.33-.53 1.6-.14 6.14.04.49.52.42c2.13-.33 3.34.99 5 .88 4.83-.3 6.32-10.11 7.67-13.8a.55.55 0 0 1 .78-.3l.72.39q.48.27 1.03.24 1.66-.1 2.99.89a2.16 2.15 32.5 0 0 3.17-.7q2.95-5.37 6.05-9.37m16.95 4.25q-.3.71.12 1.46a1 .97-49.5 0 1 .06.88q-2.46 5.9-4.97 11.79c-.56 1.31.02 3.48-.59 5.38q-.35 1.08-.61 2.28a.62.62 0 0 0 .46.73q2.54.64 4.34-1.83 3.74-5.16 6.32-11.22a1.39 1.38 13.1 0 1 1.36-.84l4.71.29a.74.73.4 0 1 .69.7l.64 11.74q.03.48.5.36c3.54-.91 5.93-1.49 6.75-5.57q1.86-9.19 1.67-19.57c-.11-5.64-1.46-11.68-2.39-17.55q-.04-.31-.35-.29l-.59.03q-.19.01-.17.21l.46 3.57a.41.41 0 0 1-.74.28l-1.83-2.77q-.26-.39-.73-.43l-5.55-.5q-.44-.04-.72.31c-3.67 4.53-5.72 10.27-7.79 14.36q-2.75 5.44-5.46 10.91c-2.41 4.83-3.88 10.11-5.82 15.23q-.34.91.46 1.45l.28.19a.65.65 0 0 0 1-.4c.5-2.39.53-5.08 1.24-7.34q2.43-7.75 6.69-14.14a.32.32 0 0 1 .56.3m52.97 4.83a.33.33 0 0 1-.64 0c-2.88-9.81-1.86-18.92-12.69-23.87q-.41-.19-.79.09c-4.28 3.14-6.39 14.25-7.2 19.86-.84 5.77-2.25 10.22-3.91 15.4q-.17.51-.63.78l-.77.45q-.56.33-.12.81 1.15 1.27 1.31 2.98.05.63.67.52 1.89-.35 3.39.88.42.34.82-.02 2.63-2.33 3.71-5.78c1.48-4.74 2.79-9.73 5.17-14.12q.97-1.8 1.26.23c.55 3.98 1.27 7.77 2.9 11.64q1.53 3.64 3.04 7.31.21.52.72.74 4.32 1.84 8.01-.83.42-.3.57-.79 3.36-10.73 6.73-21.45c1.13-3.58 3.28-10.37 1.31-13.81q-1.75-3.06-4.66-5.26-.44-.34-.94-.1-2.44 1.16-1.49 3.78.19.53.03 1.07l-5.8 19.49m-49.98 55.6q2.43 4.64 2.34 10.42c-.05 3.39 3.42 2.93 5.55 3.23q.49.06.83-.29c3.79-3.94 4.41-8.73 6.59-13.06q3.19-6.35 3.26-6.52c2.66-6.82 6.11-16.23 4.27-23.67a.77.77 0 0 0-.75-.58c-2.1 0-4.86-1.09-5.83 1.7q-4.02 11.54-8.19 23a.4.39-53.7 0 1-.68.11q-.26-.35-.36-.88-1.16-6.41-1.53-12.88c-.24-4.09-.85-7.3-5.59-7.06q-2.11.11-2.73 2.11c-.55 1.75-1.59 3.62-2.03 5.5-2.91 12.5-5.61 22.06-9.69 32.61a1.58 1.58 0 0 0 1.07 2.1q1.01.27 1.7-.39 6.86-6.61 10.71-15.41.49-1.12 1.06-.04m-35.09 7.87q.14-3.96-1.79-7.43a2.05 2.05 0 0 0-2.99-.67c-6.46 4.62-2.09 14.31 4.99 15.59q.6.11.74-.48l.43-1.71q.1-.42.54-.48c7.98-.96 12.1-8.91 11.08-16.35q-.49-3.56-1.4-7.04c-.69-2.64-.48-4.89-.46-7.53 0-1.21-.57-2.05-.99-3.14a.48.47 78.9 0 1 .43-.64q.56-.02.94.56 1.75 2.7 4.93 2.35a1.17 1.16 13.3 0 0 .85-.52q1.25-1.9 1.81-4.1.12-.5-.12-.95c-1.84-3.39-10.14-4.45-12.77-1.51-5.51 6.15-3.66 12.2-2.42 19.39q1.03 6.02-2.01 14.42-.25.68-1.27.74-.54.04-.52-.5m-12.08 1.12q1.34-5.95 4.94-27.3 1.46-8.68-7.61-8.83-.41-.01-.65.34-1.84 2.61-2.57 5.73c-2.36 10.16-5.18 18.5-7.18 30.28-1.64 9.67 11.28 7.79 13.07-.22m75.87-29.51q-1.5 1.96-3.01 3.87c-5.84 7.38-11.43 23.06-2.1 30.03 13.86 10.36 28.92-10.12 26.82-22.68-.81-4.81-1.4-8.51-6.46-11.17q-4.21-2.22-11.22-3.62c-1.53-.31-4.5.47-3.86 2.67q.14.49-.17.9m-78.26 78.55a1.03 1.03 0 0 1 .68.94l.29 10.38a1.54 1.54 0 0 0 1.03 1.41c2.07.73 4.47 1.91 6.64 1.49 3.96-.77 5.46-1.77 5.13-6.11-.42-5.56-1.46-11.73 2.93-15.84q.36-.34.19-.81c-1.29-3.59-2.39-4.81-6.04-6.08a.87.86-85 0 1-.57-.69c-.53-3.94-.96-7.92-2.69-11.45q-1.96-4.02-4.76-7.85a.79.79 0 0 0-1.37.17c-.93 2.33-7.8 5.16-10.18 6.07q-.52.2-.69.73-5.9 18.14-9.21 36.92a2.34 2.33-77.2 0 0 1.66 2.65q4.23 1.2 8.57.64a2.28 2.28 0 0 0 1.8-1.37q1.95-4.59 3.32-9.42.76-2.7 3.27-1.78m-3.16-33.51q-1.13-.85-2.51-.81a2.13 2.13 0 0 0-1.89 1.28l-1.33 3.03a.64.64 0 0 0 .89.82l7.85-4.22q.2-.11.09-.31l-.2-.36q-.11-.18-.32-.14-.85.18-1.56.71a.84.84 0 0 1-1.02 0m34.91 41.75q-3.2 2.31-7.06 1.94a.85.84-80.1 0 0-.9.64l-.07.31q-.37 1.49 1.17 1.56l7.35.31a1.78 1.76 5.5 0 0 1.82-1.49l3.71-23.61a.7.7 0 0 1 1.08-.47q1.13.77 2.25 1.45.22.13.46.05.48-.16.22-.6-.81-1.4-.57-2.19.56-1.84 1.27-.15c2.05 4.85 3.48 10.15 5.6 15.06 1.45 3.36 1.79 5.76 1.43 9.18a.92.92 0 0 0 1.39.88c3-1.84 6.05.78 8.8-2.56 4.11-4.99 4.93-13.41 5.96-19.61q.42-2.54.04-6.03-.51-4.72-.43-11.98.04-3.62-3.96-4.54-.44-.1-.82.13c-1.45.85-4.05 1.43-4.3 3.34q-.91 6.9-2.3 12.26c-.61 2.34-.78 4.61-1.17 6.97q-.12.7-.56 1.03a.5.49-27.4 0 1-.78-.24c-.47-1.47-.76-2.79-1.8-4.05q-5.08-6.12-6.24-14c-.51-3.48-3.01-4.01-5.86-4.98-1.86-.63-3.83-.16-5.84-.4q-.51-.06-.73.41-.7 1.5-1.49 2.96c-2.14 3.93-2.25 10.47-2.08 14.86q.14 3.69-2.84 13.49-1.12 3.71-.38 10.72.05.44.47.54c3.25.8 4.49-.4 7.05-1.39q.83-.32.11.2m-86.62 51.89l-10.95.33q-.54.02-.82.48l-.47.77q-.28.45-.76.64-1.13.43-1.55 1.54-.19.5.07.97 1.32 2.33.89 4.32-3 14-5.9 28.02c-.9 4.37 2.94 5.43 6.37 4.86 5.55-.94 16.3-2.68 17.72-9q.13-.57-.29-.97-1.3-1.27-1.84-3a.55.55 0 0 0-.7-.36l-10.87 3.73q-.84.29-.66-.58l.87-4.1a.79.79 0 0 1 .85-.62c4.68.42 14.51-.55 8.39-8.2q-.29-.35-.74-.32l-6 .36q-.71.04-.55-.66l1.13-4.9q.13-.59.7-.78 5.7-1.92 9.16-6.79a1.7 1.68-42.3 0 0 .09-1.81l-1.85-3.28" class="B"/><path stroke="#358da6" vector-effect="non-scaling-stroke" d="M25.35 247.1q1.75-1.39 4.24-1.46 3.84-.11 4.32-.19c6.24-1.1 14.51-2.69 17.84-8.95.95-1.79 2.1-3.06 2.73-4.92 1.12-3.29 2.38-6.65 2.53-10.15.43-9.87-5.14-18.57-13.51-22.89q-14.38-7.42-26.97 2.98-12.34 10.18-8.15 26.45c2.33 9.03 7.95 12.08 14.7 16.69q.95.65-.02 1.79"/><path vector-effect="non-scaling-stroke" d="M25.35 247.1q-1.28-.82-2.29-.65" class="R"/><path vector-effect="non-scaling-stroke" d="M100.82 197.4l-.19-.28q-.13-.21-.34-.07-3.7 2.55-7.68 4.58-.4.2-.46.46-.11.48.55.86a.89.88-52.3 0 0 1.06-.14q3.13-3.08 7-5.16.16-.09.06-.25" class="D"/><path stroke="#358da6" vector-effect="non-scaling-stroke" d="M71.774 204.898a2.62.49-6.4 0 0-2.658-.195 2.62.49-6.4 0 0-2.549.779 2.62.49-6.4 0 0 2.658.195 2.62.49-6.4 0 0 2.549-.779"/><path vector-effect="non-scaling-stroke" d="M82.87 231.49q.44 2.02.89 6.36.05.44.49.49 3.94.45 4.69-2.94c.96-4.41 2.5-23.95-4.09-26.58q-1.41-.56-2.34.64-.92 1.19-1.53 2.73-4.75 11.97-9.25 24.05-.4 1.06-.43 4.83 0 .54.5.35c3.14-1.17 6.71-7.73 7.68-10.2q2.14-5.49 3.39.27m75.32-9.5q.62-3.36.06-6.72a.58.58 0 0 1 .46-.67c3.22-.65 10.87-1.57 8.56-5.46a.79.79 0 0 0-.68-.39c-4.23.01-7.22 2.14-11.07 2.27q-1.63.06-1.94 1.65l-4.47 22.42a1.38 1.38 0 0 0 .54 1.38q6.85 5.05 11.57-1.75.3-.44.27-.98-.1-1.7-1.04-3.11-.79-1.19-2.44-.12-.9.57-1.2-.45-.75-2.56 1.51-3.51c2.29-.96 4.04-1.69 2.77-4.42q-.26-.56-.84-.35l-1.61.59q-.56.2-.45-.38m-15.03-.47l-.41-2.09a.43.31 35.2 0 0-.05-.14l-4.76-8.6a.6.6 0 0 0-.72-.28q-1.02.33-.99 1.61c.12 4.02 1.02 10.22.82 15.21q-.13 3.26-.44 6.45a2.12 2.11 11.9 0 0 1.45 2.21c3.23 1.07 5.57-.36 7.12-3.32q4.41-8.4 3.58-18.08a.51.5 73.1 0 0-.74-.4c-1.94 1.05-3.24 5.43-3.84 7.47a.53.52-42.7 0 1-1.02-.04m30.03 7.7l2.14-10.32q.7-3.37-1.36-6.13l-.59-.78q-1.97-2.62-3.11.45-3.12 8.42-4.31 18.06-.18 1.49-1.53 4.45-.22.47.2.79 3.52 2.69 7.72 1.61c3.63-.93 13.09-4.46 12.12-9.52a1.33 1.33 0 0 0-1.71-1.02l-9.04 2.89a.42.41 86.8 0 1-.53-.48m-67.26 2.25a.32.32 0 0 1 .6.01q.84 2.37 2.9 3.8a.85.83 20.9 0 1 .36.79l-.19 1.7q-.07.65.52.37c8.49-3.97 10.16-18.6 8.76-26.4q-.2-1.11-.77-.14-3.36 5.71-5.14 12.13-.35 1.24-.78.02l-4.24-11.98a.85.85 0 0 0-1.36-.36q-1.41 1.24-2.05 3.22c-2.28 6.93-5.4 14.31-6.02 21.63a.52.52 0 0 0 .7.53l4.89-1.88q.55-.21.77-.76l1.05-2.68m21.64-16.36q-.41-.97-.36-1.19.51-2.81-1.15-.48c-3.77 5.27-10.72 21.04-2.15 25.23 3.61 1.77 7.13.76 8.65-3.14 2.84-7.26 1.84-14.37-4.26-19.45q-.49-.41-.73-.97" class="D"/><path vector-effect="non-scaling-stroke" d="M95.74 232.23q.79.49 1.71.66.54.1.55-.45l.01-.65a1.1 1.1 0 0 0-1.04-1.12q-1.63-.1-1.53 1.07a.65.65 0 0 0 .3.49m-35.05 7.18a.37.37 0 0 0-.66.03q-.24.55.03 1.1a.42.41-50.7 0 0 .77-.08q.16-.55-.14-1.05" class="C"/><path vector-effect="non-scaling-stroke" d="M59.93 243.18q1.45.52 1.92.45 1.12-.17.37-.83-1.01-.88-2.24-.57a.5.5 0 0 0-.05.95" class="D"/><path vector-effect="non-scaling-stroke" d="M81.4 256.48q.01-1.52 1.52-1.32c4.9.67 10.19-.27 12.22-5.36.79-1.99-.29-3.53-1.88-4.59a1.08 1.06-33.1 0 0-.79-.16q-7.85 1.48-15.31 4.38-.54.21-.72.76-1.05 3.26-2.28 8.94-2.48 11.41-4.74 22.91-.09.46.34.65l3.56 1.49a.85.84 34.2 0 0 .92-.17c3.29-3.12 4.89-9.79 6.12-14.08a.65.65 0 0 1 .7-.47c3.45.37 8.56 1.49 8.32-4.1q-.07-1.77-2.14-3.52-.33-.28-.74-.18l-3.91.97q-1.24.3-1.23-.98l.04-5.17m-45.27 2.17l-4.68 17.98q-.14.5.19.9l2.84 3.47q.34.42.88.37 2.65-.28 3.9-2.11c4.39-6.43 5.83-14.1 5.33-22.11a1.17 1.16-28.2 0 1 .24-.79l3.51-4.5q.69-.87.13-1.83-.87-1.48-.71-3.17.05-.53-.46-.42-7.66 1.59-14.46 5.43-1.61.91-.59 2.45 1.39 2.1 3.52 3.42.51.32.36.91m83.69 8.2c6.19-.81 10.16-9.72 6.65-14.82-3.69-5.36-15.18-9.34-17.57.47q-1.32 5.43-3.03 10.78-.17.52.04 1.03.68 1.64 1.9 2.91.41.43.26 1l-3.73 13.92q-.14.51-.66.41l-1.7-.32q-.47-.09-.81.24-.83.8-.25 1.83c1.37 2.45 5.61 5.06 7.11.67q2.32-6.77 5.14-12.63.85-1.77 1.48.09c1.65 4.83 4.01 12.14 9.08 14.6a1.45 1.44 16.9 0 0 2.07-1.1c.77-5.53-3.49-13.53-6.41-18.15a.61.6 70 0 1 .43-.93" class="B"/><path vector-effect="non-scaling-stroke" d="M60.67 273.51l.57-.05" class="G"/><path vector-effect="non-scaling-stroke" d="M61.24 273.46l-.73 12.96q-.03.55.51.42 5.77-1.39 6.41-7.82 1.6-15.95-5.36-29.64-.64-1.26-.9.13l-.59 3.12q-.45 2.36-1.67.29l-.87-1.48a.68.68 0 0 0-1.21.07q-6.03 13.45-11.02 25.51-.52 1.26-1.03 3.59-.11.54.27.94 1.8 1.91 4.24 2.92.51.22.84-.23 2.92-4.01 5.78-8.08c.99-1.41 1.93-2 3.6-2.07q.82-.03 1.16-.58" class="B"/><path vector-effect="non-scaling-stroke" d="M61.24 273.46q.2-2.82-.78-5.6a.43.43 0 0 0-.67-.2l-.28.23q-.73.58-.56 1.5.5 2.7 1.72 4.12" class="F"/><path vector-effect="non-scaling-stroke" d="M142.63 272.35l1.64-8.04a.19.19 0 0 0-.18-.22l-.29-.01a.51.5-78.3 0 0-.48.32l-5.81 15.06q-1.24 3.22-2.16-.1c-1.31-4.68 1.66-12.23 3.24-16.84q2.19-6.4-.75-12.8a.64.64 0 0 0-1.13-.06q-6.76 11.57-7.66 25.34-.76 11.67 11.29 13.61.45.07.84-.15c4.84-2.81 8.72-12.39 10.09-17.5 1.03-3.82.77-7.98.71-12.02a.27.27 0 0 0-.44-.21c-4.71 3.74-5.88 8.43-7.69 13.95a.632.632 0 0 1-1.22-.33m37.78.62q-.42 6.1-2.63 12.77-.48 1.47.1 3.09a1.38 1.36 6.6 0 0 .59.73c2.59 1.56 6.13 3.58 8.5.39 2.16-2.9 3.1-9.31 3.76-14.42q.84-6.54 2.91-12.81c2.1-6.4-2.22-9.32-7.68-10.78a1.2 1.17-55.8 0 0-1.03.21c-4.07 3.18-7.86 8.02-10.52 12.27a.47.47 0 0 1-.86-.17c-.64-3.88-4.68-16.4-10.92-13.08q-1.19.63-1.85 2.45-5.56 15.42-8.46 32.28a1.94 1.94 0 0 0 1.17 2.12c2.41 1 .81 4.28 3.7 4.47q.46.03.75-.31c5.98-6.85 7.17-13.74 8.42-22.13a.59.59 0 0 1 .45-.49q.3-.06.39.24 1.96 6.59 8.68 7.3a2.25 2.25 0 0 0 2.26-1.27l1.45-3.07q.98-2.07.82.21" class="B"/><path vector-effect="non-scaling-stroke" d="M24.85 33.74q-2.78-.33-4.78 1.74-.63.65.24.4l3.15-.9m-5.06 2.83l.43-1.18q.19-.5-.34-.58-.92-.14-1.55-.5" class="F"/><path vector-effect="non-scaling-stroke" d="M32.38 17.28l-1.64 2.56a.43.43 0 0 0 .13.59l.09.06a1.86 1.84 32.8 0 0 2.56-.54l.12-.18a1.86 1.84 32.8 0 0-.57-2.56l-.09-.06a.43.43 0 0 0-.6.13" class="B"/><path vector-effect="non-scaling-stroke" d="M137.84 13.9q-.39.64 0 1.33a.5.49-44.3 0 0 .86.01q.46-.78-.1-1.4a.48.48 0 0 0-.76.06m-.85 5.26q-.15.4.14.7.68.71 1.26-.46.54-1.06-.15-2.03-.38-.53-.6.08l-.65 1.71m-48.612.95a2.8.85 107.5 0 0 1.653-2.415 2.8.85 107.5 0 0 .031-2.926 2.8.85 107.5 0 0-1.653 2.415 2.8.85 107.5 0 0-.031 2.926m6.402-3.69q-.38.26.17.39a.07.06-49.7 0 0 .06-.01q1.1-.72.92-2.01a.43.43 0 0 0-.72-.26q-.72.66-.43 1.87.01.01 0 .02" class="C"/><path vector-effect="non-scaling-stroke" d="M14.849 17.503a2.05 1-1.6 0 0-2.077-.942 2.05 1-1.6 0 0-2.021 1.057 2.05 1-1.6 0 0 2.077.942 2.05 1-1.6 0 0 2.021-1.057" class="D"/><path vector-effect="non-scaling-stroke" d="M59.97 47.65q-6.31 10.92-9.92 23.38" class="F"/><path vector-effect="non-scaling-stroke" d="M50.05 71.03l-13.54 7.85" class="H"/><path vector-effect="non-scaling-stroke" d="M36.51 78.88l-3.44-16.24q-.75-3.56-1.66-.04c-.56 2.15-1.16 5.14-3.04 7.13a1.06 1.02-28.1 0 0-.27.83c.3 2.52-1.87 5.94-3.21 8.21m16.1-26.51l1.2 8.89q.21 1.6.87.12l4.81-10.83" class="F"/><path stroke="#b5b1b1" vector-effect="non-scaling-stroke" d="M56 86.03l.4-3.01"/><path vector-effect="non-scaling-stroke" d="M56.4 83.02l1.43-3.74" class="H"/><path stroke="#c9bfba" vector-effect="non-scaling-stroke" d="M57.83 79.28q1.22-3.32 3.96-5.93"/><path vector-effect="non-scaling-stroke" d="M61.79 73.35l1.71-1.79" class="H"/><path vector-effect="non-scaling-stroke" d="M63.5 71.56c.05 3.06-1.4 7.83-.51 10.37q.2.59.68.2c3.74-2.99 5.29-11.42 5.53-16.12" class="B"/><path vector-effect="non-scaling-stroke" d="M69.2 66.01q3.3-5.09 8.23-8.81.22-.16.22-.37 0-.37-.28-.12l-8.12 7.38" class="H"/><path vector-effect="non-scaling-stroke" d="M69.25 64.09c-.43-1.1 0-1.85-.29-2.53q-.06-.15-.18-.24-.44-.35-.74.12-.61.97-.58 2.22" class="F"/><path vector-effect="non-scaling-stroke" d="M67.46 63.66c-1.42 2.87-7.75 4.24-11.55 5.19" class="H"/><path vector-effect="non-scaling-stroke" d="M55.91 68.85q2.21-9.79 7.66-18.05" class="F"/><path vector-effect="non-scaling-stroke" d="M133.55 70.11a.4.4 0 0 0 .29.57l2.43.44a.4.4 0 0 0 .47-.34l1.1-7.46a.4.4 0 0 0-.75-.24l-3.54 7.03" class="B"/><path stroke="#41656a" vector-effect="non-scaling-stroke" d="M55.91 68.85l-5.86 2.18"/><path vector-effect="non-scaling-stroke" d="M69.2 66.01l-5.7 5.55" class="C"/><path vector-effect="non-scaling-stroke" d="M61.79 73.35q-1.29-.37-.6-1.56a.51.51 0 0 0-.61-.74l-6.73 2.43" class="M"/><path vector-effect="non-scaling-stroke" d="M53.85 73.48q-2.54 1.61-1.26 5.89a1.05 1.05 0 0 0 1.49.62l1.69-.88" class="E"/><path vector-effect="non-scaling-stroke" d="M55.77 79.11l2.06.17" class="M"/><path vector-effect="non-scaling-stroke" d="M56.4 83.02q-.99.46-2.05.44-.46-.01-.76-.37l-3.36-3.94a1 .99 40.9 0 0-1.6.11q-2.03 3.21-5.78 1.98-.77-.26-1.23.41-1.84 2.6-5.09 2.28a.89.88 20.4 0 0-.78.35q-3.96 5.39-9.25 7.64-3.5 1.49-5.27 2.8" class="E"/><path stroke="#2f241e" vector-effect="non-scaling-stroke" d="M21.23 94.72q-.68-.67-2.13.04-.66.31-1.58 1.22-1.9 1.88-4.42 3.46"/><path vector-effect="non-scaling-stroke" d="M13.1 99.44l-2.07.87q-.56.23-.52.83l.58 8.8a.83.83 0 0 0 .61.76l3.55 1.02q.33.1.56-.14l.39-.4q.42-.43.92-.1 1.92 1.21 4.14.69a.16.15 84.5 0 1 .19.16l-.01.57q-.01.24-.26.25-1.9.11-2.33.22-3.24.8-.03 1.7.96.27 1.48 1.58" class="E"/><path vector-effect="non-scaling-stroke" d="M20.3 116.25c-3.13-.42-5.98 1.1-9.03.5q-4.03-.81-8.85-.92" class="M"/><path vector-effect="non-scaling-stroke" d="M2.42 115.83q2.7-1.86 6.71-1.21a1.31 1.31 0 0 0 1.49-1.58q-.33-1.45-1.81-.85-1.18.48-2.2.81-1.72.55-.93-1.07.59-1.21-.35-1.95-.46-.36-.25-.91.6-1.54 1.92-2.47.16-.11.31 0l.26.19q.28.21 0 .42-1.35 1.03-1 2.6a.94.94 0 0 0 .58.67q.92.35 1.81.03.61-.22.57-.87l-.43-8.1q-.04-.67-.55-.23-1.36 1.18-3.03.64a.87.87 0 0 0-1.09.54q-1.13 3.15-.6 6.49a.62.61-11.8 0 1-.46.69q-2.25.58-2.95 2.55" class="E"/><path vector-effect="non-scaling-stroke" d="M.42 112.22q-.24-.18-.42-.47" class="C"/><path vector-effect="non-scaling-stroke" d="M36.12 79.4q.09-.4.39-.52m30.95-15.22q.92-.04 1.79.43" stroke="#41656a"/><path vector-effect="non-scaling-stroke" d="M36.94 82.73c1.36-.15 3.45-.27 3.81-1.97a.48.48 0 0 0-.51-.58l-2.97.29a.63.63 0 0 0-.57.51l-.23 1.23a.43.43 0 0 0 .47.52" class="S"/><path vector-effect="non-scaling-stroke" d="M12.75 97a.47.47 0 0 0-.32-.87q-1.14.21-2.17.65-2.13.92.28 1.29.22.03 2.21-1.07" class="E"/><path vector-effect="non-scaling-stroke" d="M55.77 79.11q-1.67-1.05-2.1-2.62-.14-.51.08-1 .57-1.27.1-2.01" class="N"/><path vector-effect="non-scaling-stroke" d="M54.44 95.69q-.51-.98-1.29-.69" class="T"/><path vector-effect="non-scaling-stroke" d="M53.15 95l.47-6.86a1.34 1.33 2.5 0 0-1.31-1.42q-3.77-.08-5.32 3.22a.58.57-59.2 0 1-.86.22q-1.65-1.21-2.53-3.04-.22-.45-.72-.48-.44-.03-.79.31a1.03 1.03 0 0 0-.11 1.36l1.07 1.43a.31.31 0 0 1-.25.49q-1.87-.01-3.35 1.25a1.75 1.69 79.5 0 0-.51.77q-.32 1.05-.96 1.46-1.73 1.11-.11 2.02" class="N"/><path vector-effect="non-scaling-stroke" d="M37.87 95.73q-8.7 1.21-16.64-1.01" class="T"/><path vector-effect="non-scaling-stroke" d="M53.15 95l-15.28.73" class="O"/><path vector-effect="non-scaling-stroke" d="M55.32 99.74L53.2 97.3q-.36-.4-.9-.42-7.94-.18-15.84.56c-3.22.31-6.59.15-9.88.33-1.09.06-1.83.71-2.99.64-2.13-.14-3.05-.05-4.8.25-2.01.34-3.23 2.11-5.69.78" class="T"/><path vector-effect="non-scaling-stroke" d="M56.29 112.79q-.26-.5-.76-.54" class="E"/><path vector-effect="non-scaling-stroke" d="M55.53 112.25q.52-.75 0-1.38" class="I"/><path vector-effect="non-scaling-stroke" d="M55.53 110.87q.31-.18.32-.61a.51.5-89.4 0 0-.5-.52l-3.84-.01" class="E"/><path vector-effect="non-scaling-stroke" d="M51.51 109.73q.26-1.57-.61-2.48-.36-.38-.87-.28-5.25 1.01-8.11-.41c-3.96-1.96-7.72.35-10.98.43q-1.1.03-1.38 1.09l-.16.63q-.29 1.08.83 1.14l11.96.68" class="I"/><path vector-effect="non-scaling-stroke" d="M42.19 110.53q-.15.37.1.87" class="E"/><path vector-effect="non-scaling-stroke" d="M42.29 111.4q-5.79 1.05-11.62.16a.49.49 0 0 0-.54.62l.1.3a.23.23 0 0 0 .19.17q3.5.53 6.63 2.11" class="I"/><path vector-effect="non-scaling-stroke" d="M37.05 114.76c-.54 1.78 1.31 2.38 2.52 3.06q.31.17.1.45l-.18.26q-.19.25-.45.09-1.95-1.14-3.93-.72" class="E"/><path vector-effect="non-scaling-stroke" d="M35.11 117.9c-2.87-1.67-5.4-.13-8.15-.44q-3.41-.38-6.66-1.21" class="N"/><path vector-effect="non-scaling-stroke" d="M14.78 105.95l-.85.93a.81.8 65.8 0 0-.21.57q.02.9.68 1.33.45.3 1.27.17 2.84-.44 5.69-.98.48-.09.79-.47.69-.84 1.6-.48 2.01.8 3.76 1a.75.75 0 0 0 .69-1.18q-1.82-2.55-4.88-3.45-.46-.13-.82.2l-2.29 2.11q-.91.84-1.72-.1-1.6-1.88-2.06-4.22-.11-.53-.65-.59-.52-.06-1.02.08a.85.84 85.2 0 0-.63.75q-.11 1.3-1.32 1.65-1.15.34-.05.81l1.78.77q.88.39.24 1.1" class="I"/><path vector-effect="non-scaling-stroke" d="M134.22 129.42q-2.06.8-3.34 2.52a.17.17 0 0 0 .22.26q1.9-.99 3.28-2.55.4-.45-.16-.23" class="F"/><path vector-effect="non-scaling-stroke" d="M2.42 115.83q-.84.25-2.19 1.52" class="N"/><path vector-effect="non-scaling-stroke" d="M.23 117.35l.19-5.13" class="Q"/><path vector-effect="non-scaling-stroke" d="M167.03 115.35q-.3-.84.49-1.04a.48.48 0 0 0 .18-.83l-4.13-3.42q-.57-.48-.69.26c-.75 4.8-3.78 8.55-5.7 12.91-2.14 4.86-2.58 9.12-1.56 14.12q.14.67.51.89a1.41.93 40.7 0 0 1.19.15q7.88-4.15 10.75-12.36c1.19-3.4-1.35-5.98 1.12-9.46a.51.5 27.1 0 0-.25-.77q-.59-.19-1.21-.07-.52.11-.7-.38" class="B"/><path vector-effect="non-scaling-stroke" d="M172.94 122.02q1.34-.4 2.42-1.35a.16.15 13.7 0 0-.16-.26q-1.3.51-2.36 1.43-.39.33.1.18" class="F"/><path vector-effect="non-scaling-stroke" d="M51.51 109.73l-9.32.8m13.34.34l-13.24.53m13.24.85q-1.23.17-2.15.92a.41.41 0 0 0 .26.73l2.17.02" class="S"/><path stroke="#98837b" vector-effect="non-scaling-stroke" d="M55.81 113.92q-.3 1.58-1.85 2.31-.47.22-.23.68c1.26 2.41-1.04 3.91-2.34 5.53q-.34.42-.01.85.77.99 1.03 1.96"/><path vector-effect="non-scaling-stroke" d="M52.41 125.25l-5.56-.8q-.53-.08-.59-.61-.38-3.6-2.06-6.86-.22-.44-.7-.53-.74-.15-1.49-.01a1.28 1.27-30.4 0 1-1.05-.27q-1.65-1.38-3.91-1.41" class="S"/><path vector-effect="non-scaling-stroke" d="M51.798 112.804a1.2.65-32 0 0-1.362.085 1.2.65-32 0 0-.673 1.187 1.2.65-32 0 0 1.362-.085 1.2.65-32 0 0 .673-1.187m-1.232 6.502a1.02.65 45.4 0 0-.253-1.183 1.02.65 45.4 0 0-1.179-.27 1.02.65 45.4 0 0 .253 1.183 1.02.65 45.4 0 0 1.179.27" class="I"/><path stroke="#5c9798" vector-effect="non-scaling-stroke" d="M.23 117.35q.11.25-.23.15"/><path vector-effect="non-scaling-stroke" d="M56.36 113.3q-.04.47-.55.62m-.2 25.87c-4.12-.13-7.53-1.61-11.42-.25-2.7.95-5.26.98-7.92 1.87" class="U"/><path vector-effect="non-scaling-stroke" d="M34.38 141.15q-4.01-.9-7.74.14c-2.05.57-3.07.28-4.17-1.43a.74.73-26.5 0 0-.88-.29q-1.88.72-3.68-.19a1.73 1.72 29 0 1-.7-2.42l3.28-5.47q.25-.42.65-.14 1.15.83 1.77-.24a1.39 1.36-83.3 0 1 .78-.63q7.6-2.41 15.57-2.44" class="V"/><path vector-effect="non-scaling-stroke" d="M39.26 128.04q1.19.36 2.14-.12.47-.23.52-.74.25-2.21.4-4.43.06-.94 1.06-.53.48.2.62.7l.81 2.84a1.47 1.45 85.1 0 0 1.23 1.05l5.18.63q.5.06.78-.37.58-.87.41-1.82" class="U"/><path stroke="#2f241e" vector-effect="non-scaling-stroke" d="M39.26 128.04q.62-3.93-1.62-6.82"/><path vector-effect="non-scaling-stroke" d="M37.64 121.22q-.23-1.8-2.53-3.32m6.01 2.56q-.02.35.25.61.45.45.43-.19l-.07-2.36a.31.31 0 0 0-.57-.14q-.51.86-.09 1.81.06.12.05.27" class="M"/><path vector-effect="non-scaling-stroke" d="M37.64 121.22q-.37 1.02-.02 1.86.2.49-.21.81l-1.27 1.01a.66.65 51.7 0 1-.93-.11q-.82-1.05-1.79-.15a.98.98 0 0 1-.86.24q-1.83-.38-3.55.28-.46.18-.94.1-2.3-.37-4.4.57-.74.33-1.16-.37l-.29-.49q-.46-.76.4-.99 1.23-.34 2.24-1.08.11-.08.06-.2l-.1-.27q-.11-.26-.37-.15c-3.56 1.57-4.5-2.02-7.67-2.87q-.46-.12-.16.25c1.96 2.4 3.71 3.17 4.79 6.2q.53 1.49-.92.86-3.23-1.4-6.39-.19-.53.2-1.09.14l-7.19-.72a.17.16-25.4 0 0-.11.3l2.6 1.65q1.15.72-.17 1.02-2.45.55-4.25-.98-.39-.34-.91-.28l-2.98.35" class="O"/><path vector-effect="non-scaling-stroke" d="M29.77 143.28q-5.87-.97-11.8-.3-.51.06-.92-.26l-2.16-1.66a.44.43-64.8 0 0-.69.25q-.78 3.53-4.39 2.32a1.43 1.42 82.8 0 1-.74-.58l-.35-.53q-.36-.56-.59.07l-.19.51q-.21.56-.8.64l-4.23.56q-.5.07-.85-.3-.52-.57-.36-1.15" class="V"/><path vector-effect="non-scaling-stroke" d="M1.7 142.85l4.87-.48a1.2 1.2 0 0 0 1.02-.83q1.21-3.68.78-7.54-.04-.39.18-.7l.21-.29q.33-.45.09-.95c-1.28-2.7-6.28-2.42-8.85-2.71" class="O"/><path stroke="#99786b" vector-effect="non-scaling-stroke" d="M1.7 142.85q-1.08-.67-1.7-.5"/><path vector-effect="non-scaling-stroke" d="M2.89 136.93q1.56.2 3.22-.34c1.14-.38 1.79-1.6.96-2.57a1.1 1.1 0 0 0-1.76.12q-.92 1.41-2.51 1.99-1.63.59.09.8" class="O"/><path vector-effect="non-scaling-stroke" d="M55.83 141.96q-4.65-1.43-8.79.11-.48.17-.99.18l-6.83.06" class="U"/><g class="V"><path vector-effect="non-scaling-stroke" d="M19.81 146.71q.17-3.37-2.11-1.75-.38.27-.57.69l-2.24 4.82a.87.86-82.5 0 1-.63.49l-7.65 1.37a.66.65 6.6 0 0-.49.38q-.37.83.49 1.15 1.15.43 1.54.63 1.73.87-.12 1.45-3.94 1.23-8.03.04"/><path vector-effect="non-scaling-stroke" d="M2.001 149.889a.96.79 108.8 0 0 1.057-.654.96.79 108.8 0 0-.438-1.163.96.79 108.8 0 0-1.057.654.96.79 108.8 0 0 .438 1.163"/></g><path stroke="#9f9692" vector-effect="non-scaling-stroke" d="M17.48 148.57q-2.68 3.15-3.49 5.18-1.09 2.73-1.87 4.68"/><path vector-effect="non-scaling-stroke" d="M54.68 155.61c-8.07.03-16.06 3.64-17.97 11.71q-.12.52-.62.71c-4.11 1.54-8.03 2.46-11.41 5.39-2.49 2.16-8.42 6-9.49 8.87a.9.88-83.1 0 1-.71.57q-3.67.48-7.09-.76m49.5-24.59q-2.56-.95-4.74-.26" stroke="#7d8587"/><path stroke="#4e5455" vector-effect="non-scaling-stroke" d="M52.15 157.25q-2.91.24-4.42 2.35-.3.41-.81.49-1.87.27-3.5 1.43"/><path stroke="#7d8587" vector-effect="non-scaling-stroke" d="M43.42 161.52q-3.26 1.56-4.6 5.26c-1.19 3.26-5.1 4.13-7.98 5.31-3.31 1.36-5.36 3.29-7.88 5.62-2.13 1.96-3.67 4.88-6.22 7q-.4.33-.86.1c-2.93-1.43-5.62 0-8.98-1.61"/><path stroke="#c7c9ca" vector-effect="non-scaling-stroke" d="M43.42 161.52l8.43-1.56q.55-.1.5-.65l-.2-2.06"/><path vector-effect="non-scaling-stroke" d="M55.72 220.73a23.58 23.58 0 1 0-47.16 0 23.58 23.58 0 1 0 47.16 0" class="R"/><path vector-effect="non-scaling-stroke" d="M31.69 204.34c2.16.57 3.77-.57 5.62.73a.42.42 0 0 0 .66-.32q.14-2.08-.9-3.85-.29-.48-.83-.34-1.52.39-2.95-.28a.79.79 0 0 0-.98.26q-1.63 2.35-4.58 1.63a.59.59 0 0 0-.73.59l.05 1.54q.02.75.76.62l3.38-.6a1.09 1.05 46.1 0 1 .5.02" class="P"/><path vector-effect="non-scaling-stroke" d="M18.3 214.69q.07-.03.27.05.17.07.11.24-2.73 8.47 2 14.54c11 14.09 32.23.07 24.27-15.25-5.72-11.02-19.66-10.32-25.84-.18q-.31.5-.68.12" class="J"/><path vector-effect="non-scaling-stroke" d="M18.43 214.21q-.34-.68.25-1.79c1.93-3.65 3.75-4.17 6.78-6.33q.55-.4.11-.91-.47-.54-1.21-.45a.7.69-16.9 0 1-.72-.38l-1.72-3.46q-.13-.26-.39-.15l-.25.12q-.35.15-.23.51c1 2.84-.61 3.98-2.88 5.04q-.54.25-.7.83-.45 1.63-1.91 2.51a.85.85 0 0 0-.37.97q.47 1.58 1.64 2.71a.31.31 0 0 1-.08.51l-.37.18a.67.67 0 0 1-.76-.11q-.55-.52-.75-1.27a1.76 1.76 0 0 0-2.89-.85c-3.67 3.35 2.33 5.49 4.54 6.58q.49.23.45-.3l-.03-.58a.8.78-82.8 0 0-.52-.69q-2.34-.86-4.26-2.41a.94.93-54.5 0 1-.2-1.23q.72-1.12 1.43.3 1.62 3.22 4.91 1.13" class="P"/><path stroke="#a96d85" vector-effect="non-scaling-stroke" d="M18.43 214.21q-.15.2-.13.48"/><path vector-effect="non-scaling-stroke" d="M43.19 204l.67-1.71a.38.38 0 0 0-.68-.33q-1.44 2.48-3.72 4.22-.77.59.19.74 2.14.34 3.81 1.74.42.35.91.09.44-.24.86-.53.33-.24.58-.26.29-.02.52.09.53.25.2.73-.24.35-.64.64a1.44 1.44 0 0 0 .46 2.54q.74.21 1.4-.15a.37.37 0 0 0-.1-.69q-.36-.07-.64-.32a.68.67 48.6 0 1 .06-1.05l1.02-.72a.61.61 0 0 0 .17-.82q-1.71-2.75-4.81-3.67-.43-.13-.26-.54m6.02 8.26q-.65.66-1.55.83-.61.11-.42.7l1.51 4.65a.8.8 0 0 0 1.27.38l2.07-1.7a.91.91 0 0 0 .11-1.31l-1.28-1.47a.98.97 29.7 0 1-.23-.83q.48-2.5-1.64-3.56a.57.57 0 0 0-.79.3l-.12.33a.42.42 0 0 0 .23.54l.67.29a.53.52 34.1 0 1 .17.85m-35.36 19.66l5.85.24a.15.15 0 0 0 .16-.14v-.09a2.94 2.8 2.4 0 0-2.82-2.92l-.28-.01a2.94 2.8 2.4 0 0-3.05 2.67v.09a.15.15 0 0 0 .14.16m30.68.27l5.78-.06a.24.24 0 0 0 .24-.24v-.12a2.94 2.8-.5 0 0-2.96-2.77h-.38a2.94 2.8-.5 0 0-2.92 2.83v.12a.24.24 0 0 0 .24.24" class="P"/><path vector-effect="non-scaling-stroke" d="M41.324 238.866a.88.88 0 0 0-.868-.892l-16.258-.227a.88.88 0 0 0-.892.868l-.011.76a.88.88 0 0 0 .868.892l16.258.227a.88.88 0 0 0 .892-.868l.011-.76" class="J"/><path vector-effect="non-scaling-stroke" d="M17.506 211.708a1.19.74 86.8 0 0 .672-1.229 1.19.74 86.8 0 0-.805-1.147 1.19.74 86.8 0 0-.672 1.229 1.19.74 86.8 0 0 .805 1.147" class="P"/><path vector-effect="non-scaling-stroke" d="M25.48 213.34l-3.11 2q-.37.24-.37.68v10.91a.61.61 0 0 0 .69.6l7-.95a.92.83-64.5 0 0 .39-.16c1.64-1.23 4.95.11 6.86.22" class="W"/><path vector-effect="non-scaling-stroke" d="M36.94 226.64q2.3.86 4.7.55.46-.06.46-.53l.01-10.65q0-.54-.48-.78l-1.22-.62" class="J"/><path vector-effect="non-scaling-stroke" d="M40.41 214.61q-.89-.31-1.41-.86" class="W"/><path vector-effect="non-scaling-stroke" d="M39 213.75q-.24-.68-.75-.68-2.64-.03-4.91 1.68a1.34 1.33-13.4 0 0-.48.77l-.39 1.79" class="J"/><path vector-effect="non-scaling-stroke" d="M32.47 217.31q-.12.07-.69-.04" class="W"/><path vector-effect="non-scaling-stroke" d="M31.78 217.27c.39-3.15-4.06-4.72-6.3-3.93" class="J"/><path vector-effect="non-scaling-stroke" d="M31.78 217.27l.21 7.07q.03 1.25-1.1.71l-3.93-1.91a2.19 2.17-78.2 0 1-1.22-1.88l-.26-7.92m14.93 1.27l.89 10.94a.68.68 0 0 1-.82.73q-2.07-.42-3.54.36M39 213.75l.02 8.68q0 .28-.26.38l-5.64 2.22a.19.19 0 0 1-.26-.17l-.39-7.55" stroke="#dcd5e6"/><path stroke="#376269" vector-effect="non-scaling-stroke" d="M82.31 225.83q-.91-.04-1.06.81a.53.52-6.6 0 0 .73.57q.57-.26.71-.89a.41.4-83.4 0 0-.38-.49"/><path vector-effect="non-scaling-stroke" d="M126.68 234.86c3.05-4.17 3.57-9.98 2.42-14.87q-.28-1.14-1.72-1.45-.43-.09-.52.34c-1.31 6.17-2.33 10.54-1.32 15.73a.64.63-32.3 0 0 1.14.25" class="D"/><path vector-effect="non-scaling-stroke" d="M116.14 260.57a.74.74 0 0 0 1.23.48l4.16-3.78a.74.74 0 0 0 .24-.47l.3-3.14a.74.74 0 0 0-.74-.81h-5.13a.74.74 0 0 0-.74.81l.68 6.91" class="B"/><path vector-effect="non-scaling-stroke" d="M136.76 263.88a.58.47 17.5 0 0 .18-.07q.42-.26-.02-.74-.55-.58-1.29-.43-.67.15-.31.73.43.7 1.44.51" class="R"/></g><g fill="#1cabb8"><path d="M0 0h26.18l-6.02 14.77q-.01.01.01.02l.27.12q.2.1.3-.1l3.15-6.18q.02-.04.05-.02l.24.08q.24.09.15.32l-8.99 23.74q-.17.42.01.84.45 1.06 1.59 1.96-1.08 1.12-.35 2.15.26.37.71.3l1.1-.19q3.24-.29 5.06-2.83.77.07 1.39-1.24l2.62-4.89q.24-.46.75-.46l7.06-.12q.51-.01.58.5l1.36 10.01a1.62 1.6-79.5 0 0 .81 1.19l.47.26a.46.46 0 0 0 .68-.48l-1.1-6.45a.4.4 0 0 1 .39-.47h.48q.68 0 .68.68-.03 4.15 1.79 7.87.36.74.97.18c3.81-3.53 3.07-9.78 2.35-14.32a1.89 1.88-17.9 0 1 1.01-1.97l4.78-2.42a.89.89 0 0 0 .46-1.01q-1.29-5.19-6.52-4.63a.87.86-4.1 0 1-.95-.82Q43.07 7.8 40.81 0H198v300H0V158.5l12.12-.07-4.73 23.67-6.2 1.17q-.22.04-.16.26l.08.33q.07.27.35.23l5.44-.89-1.09 12.29a.62.62 0 0 0 .53.67q7.37.95 13.26-3.52a.85.84-55.4 0 0-.27-1.48q-.97-.29-1.44-1.13a.28.28 0 0 1 .38-.38l1.18.68a.48.47-70.1 0 0 .7-.33l1.8-10.01a1.1 1.1 0 0 1 1.74-.69c3.17 2.38 6.74 5.03 10.73 2.13.67-.49.74-1.06.9-1.83q.11-.52.51-.87 3.09-2.78 5.19-6.33a.59.59 0 0 1 1.1.38l-2.37 18.77a1.33 1.31 22.1 0 0 .52 1.21q6.02 4.48 12.99 1.38.66-.3.79-1c.55-3.07 1.45-6.27 1.83-9.22q1.68-13.23 1.01-26.41.41-.05.65-.3a.77.77 0 0 0-.45-1.3l-2.41-.3c-1.55-1.64-4.35-4.49-6.77-4.3q-2 .16-2.95 1.13-6.89 7-13.94 13.94a.42.42 0 0 1-.7-.19c-2.05-8.04-4.58-14.13-12.84-17.62q1.04-1.33 2.33-1.86 6.11.6 9.96-3.43 2.55-.08 4.61-2.13.81.32 1.89.26l2.95.9q5.53 3.54 11.26 5.71c2.42.91 4.32 2.02 4.98 4.4q.6 2.19 1.38.06c.62-1.71-.64-3.88-.68-5.65q-.06-2.54-.33-4.87l-.22-2.17q2.91-4.96 2.2-11.31c-.16-1.5-1.54-2.68-1.6-4.74q-.13-5.25.15-10.44l-.07-.51q.22-.03.28-.54.86-6.75-1.25-12.51l-.88-4.05q.49-3.11.44-7.19-.02-1.53 1.12-2.47 5.39 5.48 12.56 3.97c5.11-1.08 6.74-6.04 8.71-11 3.2-8.05 4.07-19.07-1.39-26.45q-.32-.42-.77-.16l-.91.53a.84.83-17 0 1-1.25-.66q-.3-4.56-4.12-6.89-.42-.26-.81.05-2.74 2.21-4.45 5.38-.73-.57-.61-1.59.06-.52-.33-.88-.96-.87-2.66-.68c3.46-5.48-.27-8.76-5.73-7.64q-.5.1-.75.55l-5.62 9.88c-2.13-1.84-5.04.51-6.88 1.82q-1.03-4.73-5.59-5.66a.7.7 0 0 1-.41-.25l-2.67-3.13a.9.89 36.9 0 0-1.5.21L20.14 67.16q-.41.92-.44-.09-.25-7.33.8-14.6c1.02-7.05-4.91-8.7-10.42-8.64q-.51.01-.67.5c-3.94 12.03-2.48 27.91-.15 40.15a1.45 1.45 0 0 0 2.4.8l3.1-2.84a.56.56 0 0 1 .81.06l.9 1.09q.39.48 1 .59c2.88.56 5.84-3.26 7.42-5.41q3.96 1.09 8.36.23 1.72-.34 2.87.4c2.44 5.98-22.87 15.04-26.85 16.41-2.29.79-6.57-1.8-9.27-2.12V0zm194.69 1.5a.21.21 0 0 0-.21.33q1.03 1.51 2.66 2.33a.5.5 0 0 0 .63-.74q-1.14-1.55-3.08-1.92zm-83.31 10.47q.18-.19.27-.44a.16.16 0 0 0-.21-.2q-.87.33-1.26 1.21a.31.3-89 0 0 .39.41q.44-.18.61-.65.07-.18.2-.33zm28.07 4q1.27-1.95-.52-3.36-.85-.67-1.37-.18a2.51 1.83-27.8 0 0-.77 1.57q-.03 3.15-1.26 6.04-.63 1.46.95 1.27l1.27-.16a2.35 2.34 4.3 0 0 1.98-1.7q.4-1.42-.3-2.56-.28-.47.02-.92zm-86.847-1.128a1.79.52 35.2 0 0-1.163-1.457 1.79.52 35.2 0 0-1.762-.607 1.79.52 35.2 0 0 1.163 1.457 1.79.52 35.2 0 0 1.762.607zm8.757 2.768a.41.41 0 0 1 .81.1l.06 2.8q.01.55.54.66.26.05.52-.07a.54.54 0 0 0 .29-.38l1.46-7.19a.74.72 37.5 0 0-.07-.48q-.27-.5-.73-.56-.62-.07-.52.54.22 1.37-.36 2.6a.47.47 0 0 1-.82.05q-.49-.76-.54-1.62-.04-.49-.52-.51-.47-.01-.57.44-.7 3.35-1.38 6.75-.09.46.38.41l.25-.02a.29.28 4.3 0 0 .25-.21l.95-3.31zm22.38-2.43q-.32-1.1-.99-2.01a.45.44 19.8 0 0-.79.37L83 17.68a.95.91-35.1 0 1-.14.73q-.6.88-.6 1.08-.01 3.18 1.38.41l3.2-6.39a.44.43 19.4 0 0-.3-.62l-.43-.1a.55.55 0 0 0-.61.31l-.96 2.14q-.48 1.07-.8-.06zm39.26 3.5q.33-1.24 1.5-1.7a.42.42 0 0 0 .04-.76l-.31-.17a.67.67 0 0 1-.22-1q.67-.86 1.66-1.05 1.37-.26.28-1.12-.79-.63-1.97.31a1.5 1.48 80 0 0-.52.75l-1.69 5.63a.94.94 0 0 0 1.07 1.19l2-.36q.52-.1.49-.63l-.03-.34a.38.38 0 0 0-.42-.35l-1.42.15a.44.43-84.9 0 1-.46-.55zm-50.58-2.9l.32-2.58q.02-.15-.13-.15l-.58-.03q-.17 0-.19.16l-1.13 7.79q-.07.53.47.52l.43-.01a.45.45 0 0 0 .42-.33l.86-3.15a.49.49 0 0 1 .94.01l.57 2.22q.93 3.63 2.05.05l2.09-6.65q.17-.52-.39-.53l-.37-.01q-.42 0-.52.4l-1.24 4.73q-.36 1.37-.9.07-.7-1.67.41-4.31a.61.61 0 0 0-.31-.79l-.24-.11a.29.28 25.1 0 0-.37.13L73.11 16a.37.37 0 0 1-.69-.22zM163.39 19q.11-1.21 1.01-1.92.53-.42.14-.97-.65-.92.45-1.39 2.29-.98.05-1.76-.24-.08-1.14.44-.43.25-.58.73l-1.82 5.88a.66.66 0 0 0 .47.84q1.79.45 3.61-.5.52-.27.22-.81-.21-.38-.63-.29l-1.19.27q-.64.15-.59-.52zm10.23-.47l.68-3.71a.87.86 17.5 0 0-.5-.95l-.34-.16a.39.39 0 0 0-.55.28l-1.14 5.78a.78.78 0 0 0 .74.93l7.15.27a.46.46 0 0 0 .35-.77q-.68-.72-1.72-.7a.46.46 0 0 1-.39-.71q.73-1.16 2.01-1.7a.39.38 34.6 0 0-.14-.74q-.87-.04-.96-.84a.79.79 0 0 1 .37-.75l1.44-.9a.4.4 0 0 0-.23-.74l-1.66.07q-.57.02-.73.57l-1.43 5.03q-.29 1.02-1.34.85l-.95-.16q-.81-.14-.66-.95zm-85.393 2.733a4.16 2 105.8 0 0 3.057-3.458 4.16 2 105.8 0 0-.792-4.547 4.16 2 105.8 0 0-3.057 3.458 4.16 2 105.8 0 0 .792 4.547zM99.7 15.45q-.07-.61.13-1.37.04-.17-.11-.27l-.43-.29q-.37-.25-.5.19l-1.7 6.01a.47.47 0 0 0 .41.59l.41.04a.69.68 7.4 0 0 .73-.56l.4-2.05a.53.53 0 0 1 1.04.01l.53 3.08q.07.4.48.41h.38a.49.49 0 0 0 .5-.48q.03-1.89-.65-3.66a1.04 1.02 51 0 1 .09-.91l1.4-2.26a.32.32 0 0 0-.07-.42l-.23-.18q-.09-.08-.19-.01-1.23.91-1.95 2.26-.54 1-.67-.13zm9 .02l-1.1 4.73a.3.3 0 0 0 .39.36l.79-.26a.59.58 81.5 0 0 .39-.54q.05-2.86 1.6-5.23.77-1.17-.58-.78-1.26.36-2.27-.39-.4-.29-.72.09l-.18.22q-.13.16.01.3.58.62 1.37.93.4.16.3.57zm3.137 5.399a3.99.75 105.3 0 0 1.776-3.651 3.99.75 105.3 0 0 .329-4.046 3.99.75 105.3 0 0-1.776 3.651 3.99.75 105.3 0 0-.329 4.047zm7.433-1.799l-.81 2.18a.35.34-86.2 0 0 .4.46q1.22-.3 1.29-1.73.17-3.22 1.43-5.62a.74.74 0 0 0-.3-.99l-.27-.15a.45.44-63.4 0 0-.62.21c-.52 1.11-1.33 3.77-2.72 4.1a.44.44 0 0 1-.55-.46l.22-3.21q.01-.22-.17-.33-.16-.09-.35-.07-.55.07-.7.6l-1.79 6.24a.35.34-17.4 0 0 .6.31l.75-.91q.48-.57 1.21-.73l1.95-.4q.67-.14.43.5zm9.53-.34l-.57.02q-.6.02-.8.59-.15.4-.08.84a.65.64-1.6 0 0 .59.55q1.85.16 2.76-1.41.28-.48-.02-.96l-1.51-2.35a.77.77 0 0 1 1.1-1.04q.36.27.83.3a.57.57 0 0 0 .62-.63q-.1-.81-.83-1.31a1.36 1.36 0 0 0-1.7.15q-2.05 1.97.04 4.19a.63.63 0 0 1-.43 1.06zm24.61-3.49a.25.25 0 0 1 .08.26l-1.59 5.55a.25.25 0 0 0 .33.31l.59-.21a.25.25 0 0 0 .15-.15l2.76-7.26a.25.25 0 0 0-.26-.34l-3.18.38a.25.25 0 0 0-.13.44l1.25 1.02zm15.65 3.49l.98-4.72q.16-.75-.6-.77l-.28-.01a.94.94 0 0 0-.96.77l-1.05 5.92a.77.77 0 0 0 .85.91l2.06-.22a.52.52 0 0 0 .08-1.01l-.66-.18q-.54-.15-.42-.69zm-74.48.04l.27 2.75a.48.47 74 0 0 .68.38l.42-.2q.48-.24.29-.74-.99-2.65.58-4.95a1.38 1.38 0 0 0-.62-2.05l-.5-.2q-1.41-.57-1.85.89l-1.7 5.64q-.08.27.2.24l.45-.05q.19-.02.23-.21.21-1.11.93-1.75.55-.48.62.25zm47.92.42q.18-.77.75-1.33a1.02 1-27.7 0 0 .29-.91q-.44-2.3 1.61-2.34.41-.01.54-.39.05-.15 0-.3-.08-.22-.41-.31-1.07-.31-2.14-.03-.48.12-.59.61-.47 2.11-1.05 4.2c-.43 1.56-.14 2.95 1.82 2.75a.39.39 0 0 0 .23-.67q-.23-.21-.53-.32a.83.83 0 0 1-.52-.96zm5.07-.1l.17-.33q.17-.34-.17-.51l-.22-.11a.57.56 29 0 0-.74.21q-.68 1.12.15 2.21a1.06 1.04-16.3 0 0 .78.42q2.04.11 2.76-1.75a1.03 1.02-53.3 0 0-.14-.98q-.57-.75-.96-1.57-.79-1.71 1.24-.94.7.26.61-.48l-.16-1.25a.67.67 0 0 0-.86-.56q-1.62.49-2.28 2.03-.26.6.08 1.15l.92 1.52q.33.53-.05 1.03-.25.32-.63.46-.95.35-.5-.55zm11.2-4.29q1.04-.21 1.45.73a.42.41-48.2 0 0 .78-.05l.29-.92a.59.59 0 0 0-.49-.76l-2.4-.31a1.12 1.12 0 0 0-1.13 1.64l1.63 3.02a.37.37 0 0 1-.37.54q-.68-.08-1.27-.42a.65.65 0 0 0-.96.43l-.06.35q-.16.8.58 1.15c1.03.5 2.47.39 3.04-.77q.8-1.62-1.36-3.72-.73-.71.27-.91zm25.04 2.6q.68-1.27.87.16l.53 3.92a.46.45 85.8 0 0 .46.4l.29-.01q.53-.01.5-.53l-.26-4.36q-.03-.57.35-1.01l.87-1a.56.56 0 0 0-.16-.86q-1.66-.91-3.6-.58-.72.12-.87.83l-1.32 6.11a.45.45 0 0 0 .52.54l.32-.05q.66-.11.76-.77.31-1.98.74-2.79zM66.43 19.46q1.01-1.72 1.09-3.7.02-.53.46-.81.57-.36.78-.37 2.36-.13.08-.76-.88-.24-1.77-.07-.45.09-.55.54l-1.29 6.26a.57.57 0 0 0 .58.69l1.8-.07a.45.45 0 0 0 .23-.83q-.49-.32-1.1-.33a.37.37 0 0 1-.31-.55zM9.65 17.32l-.02 1.01q-.01.56.45.87 2.61 1.78 5.19.02a1.43 1.42-34.5 0 0 .37-1.99c-1.95-2.82-3.51-1.03-5.94-1.37a.55.52 67.3 0 1-.27-.12q-.73-.56-1.64-.83a.34.34 0 0 0-.27.61l1.74 1.07q.4.25.39.73zm140.24 7.56c0-.43-.02-1.21-.1-1.58q-.09-.43-.44-.17-.24.17-.22.62.02.83.48 1.25.28.25.28-.12zm-18.15.559a.53.53 0 0 0-.528-.532l-72.639-.254a.53.53 0 0 0-.532.528l-.001.28a.53.53 0 0 0 .528.532l72.64.254a.53.53 0 0 0 .532-.528l.001-.28zM12.72 34.25q-.32.95.26 1.26a.52.51 7.5 0 0 .75-.57q-.24-1 .12-1.97.28-.77-.39-.3-.42.29-.54.81-.14.62-.2.77zm94.83 29.36q1.63-2.1.79.42-3.72 11.16-6.27 22.68-.56 2.54 1.96 1.91l2.6-.65a5.09 5.07-89.6 0 0 3.66-3.62q1.82-6.88 3.64-10.36 5.15-9.86 7.59-20.71c1.03-4.59.42-5.46-3.63-7.77q-.42-.24-.86-.03c-1.68.84-3.26.77-4.75 1.88q-5.83 4.32-10.78 9.68a.49.49 0 0 1-.85-.32c-.12-5.86-3.23-10.2-9.38-10.19q-2.6 0-3.05 1.96-3.51 15.37-8.46 30.33-.53 1.6-.14 6.14.04.49.52.42c2.13-.33 3.34.99 5 .88 4.83-.3 6.32-10.11 7.67-13.8a.55.55 0 0 1 .78-.3l.72.39q.48.27 1.03.24 1.66-.1 2.99.89a2.16 2.15 32.5 0 0 3.17-.7q2.95-5.37 6.05-9.37zm16.95 4.25q-.3.71.12 1.46a1 .97-49.5 0 1 .06.88q-2.46 5.9-4.97 11.79c-.56 1.31.02 3.48-.59 5.38q-.35 1.08-.61 2.28a.62.62 0 0 0 .46.73q2.54.64 4.34-1.83 3.74-5.16 6.32-11.22a1.39 1.38 13.1 0 1 1.36-.84l4.71.29a.74.73.4 0 1 .69.7l.64 11.74q.03.48.5.36c3.54-.91 5.93-1.49 6.75-5.57q1.86-9.19 1.67-19.57c-.11-5.64-1.46-11.68-2.39-17.55q-.04-.31-.35-.29l-.59.03q-.19.01-.17.21l.46 3.57a.41.41 0 0 1-.74.28l-1.83-2.77q-.26-.39-.73-.43l-5.55-.5q-.44-.04-.72.31c-3.67 4.53-5.72 10.27-7.79 14.36q-2.75 5.44-5.46 10.91c-2.41 4.83-3.88 10.11-5.82 15.23q-.34.91.46 1.45l.28.19a.65.65 0 0 0 1-.4c.5-2.39.53-5.08 1.24-7.34q2.43-7.75 6.69-14.14a.32.32 0 0 1 .56.3zm52.97 4.83a.33.33 0 0 1-.64 0c-2.88-9.81-1.86-18.92-12.69-23.87q-.41-.19-.79.09c-4.28 3.14-6.39 14.25-7.2 19.86-.84 5.77-2.25 10.22-3.91 15.4q-.17.51-.63.78l-.77.45q-.56.33-.12.81 1.15 1.27 1.31 2.98.05.63.67.52 1.89-.35 3.39.88.42.34.82-.02 2.63-2.33 3.71-5.78c1.48-4.74 2.79-9.73 5.17-14.12q.97-1.8 1.26.23c.55 3.98 1.27 7.77 2.9 11.64q1.53 3.64 3.04 7.31.21.52.72.74 4.32 1.84 8.01-.83.42-.3.57-.79 3.36-10.73 6.73-21.45c1.13-3.58 3.28-10.37 1.31-13.81q-1.75-3.06-4.66-5.26-.44-.34-.94-.1-2.44 1.16-1.49 3.78.19.53.03 1.07l-5.8 19.49zm-49.98 55.6q2.43 4.64 2.34 10.42c-.05 3.39 3.42 2.93 5.55 3.23q.49.06.83-.29c3.79-3.94 4.41-8.73 6.59-13.06q3.19-6.35 3.26-6.52c2.66-6.82 6.11-16.23 4.27-23.67a.77.77 0 0 0-.75-.58c-2.1 0-4.86-1.09-5.83 1.7q-4.02 11.54-8.19 23a.4.39-53.7 0 1-.68.11q-.26-.35-.36-.88-1.16-6.41-1.53-12.88c-.24-4.09-.85-7.3-5.59-7.06q-2.11.11-2.73 2.11c-.55 1.75-1.59 3.62-2.03 5.5-2.91 12.5-5.61 22.06-9.69 32.61a1.58 1.58 0 0 0 1.07 2.1q1.01.27 1.7-.39 6.86-6.61 10.71-15.41.49-1.12 1.06-.04zm-35.09 7.87q.14-3.96-1.79-7.43a2.05 2.05 0 0 0-2.99-.67c-6.46 4.62-2.09 14.31 4.99 15.59q.6.11.74-.48l.43-1.71q.1-.42.54-.48c7.98-.96 12.1-8.91 11.08-16.35q-.49-3.56-1.4-7.04c-.69-2.64-.48-4.89-.46-7.53 0-1.21-.57-2.05-.99-3.14a.48.47 78.9 0 1 .43-.64q.56-.02.94.56 1.75 2.7 4.93 2.35a1.17 1.16 13.3 0 0 .85-.52q1.25-1.9 1.81-4.1.12-.5-.12-.95c-1.84-3.39-10.14-4.45-12.77-1.51-5.51 6.15-3.66 12.2-2.42 19.39q1.03 6.02-2.01 14.42-.25.68-1.27.74-.54.04-.52-.5zm-12.08 1.12q1.34-5.95 4.94-27.3 1.46-8.68-7.61-8.83-.41-.01-.65.34-1.84 2.61-2.57 5.73c-2.36 10.16-5.18 18.5-7.18 30.28-1.64 9.67 11.28 7.79 13.07-.22zm75.87-29.51q-1.5 1.96-3.01 3.87c-5.84 7.38-11.43 23.06-2.1 30.03 13.86 10.36 28.92-10.12 26.82-22.68-.81-4.81-1.4-8.51-6.46-11.17q-4.21-2.22-11.22-3.62c-1.53-.31-4.5.47-3.86 2.67q.14.49-.17.9zm-78.26 78.55a1.03 1.03 0 0 1 .68.94l.29 10.38a1.54 1.54 0 0 0 1.03 1.41c2.07.73 4.47 1.91 6.64 1.49 3.96-.77 5.46-1.77 5.13-6.11-.42-5.56-1.46-11.73 2.93-15.84q.36-.34.19-.81c-1.29-3.59-2.39-4.81-6.04-6.08a.87.86-85 0 1-.57-.69c-.53-3.94-.96-7.92-2.69-11.45q-1.96-4.02-4.76-7.85a.79.79 0 0 0-1.37.17c-.93 2.33-7.8 5.16-10.18 6.07q-.52.2-.69.73-5.9 18.14-9.21 36.92a2.34 2.33-77.2 0 0 1.66 2.65q4.23 1.2 8.57.64a2.28 2.28 0 0 0 1.8-1.37q1.95-4.59 3.32-9.42.76-2.7 3.27-1.78zm-3.16-33.51q-1.13-.85-2.51-.81a2.13 2.13 0 0 0-1.89 1.28l-1.33 3.03a.64.64 0 0 0 .89.82l7.85-4.22q.2-.11.09-.31l-.2-.36q-.11-.18-.32-.14-.85.18-1.56.71a.84.84 0 0 1-1.02 0zm34.91 41.75q-3.2 2.31-7.06 1.94a.85.84-80.1 0 0-.9.64l-.07.31q-.37 1.49 1.17 1.56l7.35.31a1.78 1.76 5.5 0 0 1.82-1.49l3.71-23.61a.7.7 0 0 1 1.08-.47q1.13.77 2.25 1.45.22.13.46.05.48-.16.22-.6-.81-1.4-.57-2.19.56-1.84 1.27-.15c2.05 4.85 3.48 10.15 5.6 15.06 1.45 3.36 1.79 5.76 1.43 9.18a.92.92 0 0 0 1.39.88c3-1.84 6.05.78 8.8-2.56 4.11-4.99 4.93-13.41 5.96-19.61q.42-2.54.04-6.03-.51-4.72-.43-11.98.04-3.62-3.96-4.54-.44-.1-.82.13c-1.45.85-4.05 1.43-4.3 3.34q-.91 6.9-2.3 12.26c-.61 2.34-.78 4.61-1.17 6.97q-.12.7-.56 1.03a.5.49-27.4 0 1-.78-.24c-.47-1.47-.76-2.79-1.8-4.05q-5.08-6.12-6.24-14c-.51-3.48-3.01-4.01-5.86-4.98-1.86-.63-3.83-.16-5.84-.4q-.51-.06-.73.41-.7 1.5-1.49 2.96c-2.14 3.93-2.25 10.47-2.08 14.86q.14 3.69-2.84 13.49-1.12 3.71-.38 10.72.05.44.47.54c3.25.8 4.49-.4 7.05-1.39q.83-.32.11.2zm-86.62 51.89l-10.95.33q-.54.02-.82.48l-.47.77q-.28.45-.76.64-1.13.43-1.55 1.54-.19.5.07.97 1.32 2.33.89 4.32-3 14-5.9 28.02c-.9 4.37 2.94 5.43 6.37 4.86 5.55-.94 16.3-2.68 17.72-9q.13-.57-.29-.97-1.3-1.27-1.84-3a.55.55 0 0 0-.7-.36l-10.87 3.73q-.84.29-.66-.58l.87-4.1a.79.79 0 0 1 .85-.62c4.68.42 14.51-.55 8.39-8.2q-.29-.35-.74-.32l-6 .36q-.71.04-.55-.66l1.13-4.9q.13-.59.7-.78 5.7-1.92 9.16-6.79a1.7 1.68-42.3 0 0 .09-1.81l-1.85-3.28q1.75-1.39 4.24-1.46 3.84-.11 4.32-.19c6.24-1.1 14.51-2.69 17.84-8.95.95-1.79 2.1-3.06 2.73-4.92 1.12-3.29 2.38-6.65 2.53-10.15.43-9.87-5.14-18.57-13.51-22.89q-14.38-7.42-26.97 2.98-12.34 10.18-8.15 26.45c2.33 9.03 7.95 12.08 14.7 16.69q.95.65-.02 1.79zm77.76-49.05l-.19-.28q-.13-.21-.34-.07-3.7 2.55-7.68 4.58-.4.2-.46.46-.11.48.55.86a.89.88-52.3 0 0 1.06-.14q3.13-3.08 7-5.16.16-.09.06-.25zm-29.046 7.498a2.62.49-6.4 0 0-2.658-.195 2.62.49-6.4 0 0-2.549.779 2.62.49-6.4 0 0 2.658.195 2.62.49-6.4 0 0 2.549-.779zM82.87 231.49q.44 2.02.89 6.36.05.44.49.49 3.94.45 4.69-2.94c.96-4.41 2.5-23.95-4.09-26.58q-1.41-.56-2.34.64-.92 1.19-1.53 2.73-4.75 11.97-9.25 24.05-.4 1.06-.43 4.83 0 .54.5.35c3.14-1.17 6.71-7.73 7.68-10.2q2.14-5.49 3.39.27zm75.32-9.5q.62-3.36.06-6.72a.58.58 0 0 1 .46-.67c3.22-.65 10.87-1.57 8.56-5.46a.79.79 0 0 0-.68-.39c-4.23.01-7.22 2.14-11.07 2.27q-1.63.06-1.94 1.65l-4.47 22.42a1.38 1.38 0 0 0 .54 1.38q6.85 5.05 11.57-1.75.3-.44.27-.98-.1-1.7-1.04-3.11-.79-1.19-2.44-.12-.9.57-1.2-.45-.75-2.56 1.51-3.51c2.29-.96 4.04-1.69 2.77-4.42q-.26-.56-.84-.35l-1.61.59q-.56.2-.45-.38zm-15.03-.47l-.41-2.09a.43.31 35.2 0 0-.05-.14l-4.76-8.6a.6.6 0 0 0-.72-.28q-1.02.33-.99 1.61c.12 4.02 1.02 10.22.82 15.21q-.13 3.26-.44 6.45a2.12 2.11 11.9 0 0 1.45 2.21c3.23 1.07 5.57-.36 7.12-3.32q4.41-8.4 3.58-18.08a.51.5 73.1 0 0-.74-.4c-1.94 1.05-3.24 5.43-3.84 7.47a.53.52-42.7 0 1-1.02-.04zm30.03 7.7l2.14-10.32q.7-3.37-1.36-6.13l-.59-.78q-1.97-2.62-3.11.45-3.12 8.42-4.31 18.06-.18 1.49-1.53 4.45-.22.47.2.79 3.52 2.69 7.72 1.61c3.63-.93 13.09-4.46 12.12-9.52a1.33 1.33 0 0 0-1.71-1.02l-9.04 2.89a.42.41 86.8 0 1-.53-.48zm-67.26 2.25a.32.32 0 0 1 .6.01q.84 2.37 2.9 3.8a.85.83 20.9 0 1 .36.79l-.19 1.7q-.07.65.52.37c8.49-3.97 10.16-18.6 8.76-26.4q-.2-1.11-.77-.14-3.36 5.71-5.14 12.13-.35 1.24-.78.02l-4.24-11.98a.85.85 0 0 0-1.36-.36q-1.41 1.24-2.05 3.22c-2.28 6.93-5.4 14.31-6.02 21.63a.52.52 0 0 0 .7.53l4.89-1.88q.55-.21.77-.76l1.05-2.68zm21.64-16.36q-.41-.97-.36-1.19.51-2.81-1.15-.48c-3.77 5.27-10.72 21.04-2.15 25.23 3.61 1.77 7.13.76 8.65-3.14 2.84-7.26 1.84-14.37-4.26-19.45q-.49-.41-.73-.97zm-31.83 17.12q.79.49 1.71.66.54.1.55-.45l.01-.65a1.1 1.1 0 0 0-1.04-1.12q-1.63-.1-1.53 1.07a.65.65 0 0 0 .3.49zm-35.05 7.18a.37.37 0 0 0-.66.03q-.24.55.03 1.1a.42.41-50.7 0 0 .77-.08q.16-.55-.14-1.05zm-.76 3.77q1.45.52 1.92.45 1.12-.17.37-.83-1.01-.88-2.24-.57a.5.5 0 0 0-.05.95zm21.47 13.3q.01-1.52 1.52-1.32c4.9.67 10.19-.27 12.22-5.36.79-1.99-.29-3.53-1.88-4.59a1.08 1.06-33.1 0 0-.79-.16q-7.85 1.48-15.31 4.38-.54.21-.72.76-1.05 3.26-2.28 8.94-2.48 11.41-4.74 22.91-.09.46.34.65l3.56 1.49a.85.84 34.2 0 0 .92-.17c3.29-3.12 4.89-9.79 6.12-14.08a.65.65 0 0 1 .7-.47c3.45.37 8.56 1.49 8.32-4.1q-.07-1.77-2.14-3.52-.33-.28-.74-.18l-3.91.97q-1.24.3-1.23-.98l.04-5.17zm-45.27 2.17l-4.68 17.98q-.14.5.19.9l2.84 3.47q.34.42.88.37 2.65-.28 3.9-2.11c4.39-6.43 5.83-14.1 5.33-22.11a1.17 1.16-28.2 0 1 .24-.79l3.51-4.5q.69-.87.13-1.83-.87-1.48-.71-3.17.05-.53-.46-.42-7.66 1.59-14.46 5.43-1.61.91-.59 2.45 1.39 2.1 3.52 3.42.51.32.36.91zm83.69 8.2c6.19-.81 10.16-9.72 6.65-14.82-3.69-5.36-15.18-9.34-17.57.47q-1.32 5.43-3.03 10.78-.17.52.04 1.03.68 1.64 1.9 2.91.41.43.26 1l-3.73 13.92q-.14.51-.66.41l-1.7-.32q-.47-.09-.81.24-.83.8-.25 1.83c1.37 2.45 5.61 5.06 7.11.67q2.32-6.77 5.14-12.63.85-1.77 1.48.09c1.65 4.83 4.01 12.14 9.08 14.6a1.45 1.44 16.9 0 0 2.07-1.1c.77-5.53-3.49-13.53-6.41-18.15a.61.6 70 0 1 .43-.93zm-59.15 6.66l.57-.05-.73 12.96q-.03.55.51.42 5.77-1.39 6.41-7.82 1.6-15.95-5.36-29.64-.64-1.26-.9.13l-.59 3.12q-.45 2.36-1.67.29l-.87-1.48a.68.68 0 0 0-1.21.07q-6.03 13.45-11.02 25.51-.52 1.26-1.03 3.59-.11.54.27.94 1.8 1.91 4.24 2.92.51.22.84-.23 2.92-4.01 5.78-8.08c.99-1.41 1.93-2 3.6-2.07q.82-.03 1.16-.58zm81.96-1.16l1.64-8.04a.19.19 0 0 0-.18-.22l-.29-.01a.51.5-78.3 0 0-.48.32l-5.81 15.06q-1.24 3.22-2.16-.1c-1.31-4.68 1.66-12.23 3.24-16.84q2.19-6.4-.75-12.8a.64.64 0 0 0-1.13-.06q-6.76 11.57-7.66 25.34-.76 11.67 11.29 13.61.45.07.84-.15c4.84-2.81 8.72-12.39 10.09-17.5 1.03-3.82.77-7.98.71-12.02a.27.27 0 0 0-.44-.21c-4.71 3.74-5.88 8.43-7.69 13.95a.632.632 0 0 1-1.22-.33zm37.78.62q-.42 6.1-2.63 12.77-.48 1.47.1 3.09a1.38 1.36 6.6 0 0 .59.73c2.59 1.56 6.13 3.58 8.5.39 2.16-2.9 3.1-9.31 3.76-14.42q.84-6.54 2.91-12.81c2.1-6.4-2.22-9.32-7.68-10.78a1.2 1.17-55.8 0 0-1.03.21c-4.07 3.18-7.86 8.02-10.52 12.27a.47.47 0 0 1-.86-.17c-.64-3.88-4.68-16.4-10.92-13.08q-1.19.63-1.85 2.45-5.56 15.42-8.46 32.28a1.94 1.94 0 0 0 1.17 2.12c2.41 1 .81 4.28 3.7 4.47q.46.03.75-.31c5.98-6.85 7.17-13.74 8.42-22.13a.59.59 0 0 1 .45-.49q.3-.06.39.24 1.96 6.59 8.68 7.3a2.25 2.25 0 0 0 2.26-1.27l1.45-3.07q.98-2.07.82.21zM137.84 13.9a.48.48 0 0 1 .76-.06q.56.62.1 1.4a.5.49-44.3 0 1-.86-.01q-.39-.69 0-1.33zm-43.06 2.5q-.29-1.21.43-1.87a.43.43 0 0 1 .72.26q.18 1.29-.92 2.01a.07.06-49.7 0 1-.06.01q-.55-.13-.17-.39.01-.01 0-.02z"/><ellipse cx="0" cy="0" transform="matrix(-.300706 .953717 -.953717 -.300706 89.22 17.44)" rx="2.8" ry=".85"/><ellipse cx="0" cy="0" transform="matrix(.99961 -.027922 .027922 .99961 12.8 17.56)" rx="2.05" ry="1"/><path d="M32.38 17.28a.43.43 0 0 1 .6-.13l.09.06a1.86 1.84 32.8 0 1 .57 2.56l-.12.18a1.86 1.84 32.8 0 1-2.56.54l-.09-.06a.43.43 0 0 1-.13-.59l1.64-2.56zm104.61 1.88l.65-1.71q.22-.61.6-.08.69.97.15 2.03-.58 1.17-1.26.46-.29-.3-.14-.7zm-3.44 50.95l3.54-7.03a.4.4 0 0 1 .75.24l-1.1 7.46a.4.4 0 0 1-.47.34l-2.43-.44a.4.4 0 0 1-.29-.57zm-64.35-4.1c-.24 4.7-1.79 13.13-5.53 16.12q-.48.39-.68-.2c-.89-2.54.56-7.31.51-10.37l5.7-5.55zm98.53 49.72q.62-.12 1.21.07a.51.5 27.1 0 1 .25.77c-2.47 3.48.07 6.06-1.12 9.46q-2.87 8.21-10.75 12.36a1.41.93 40.7 0 1-1.19-.15q-.37-.22-.51-.89c-1.02-5-.58-9.26 1.56-14.12 1.92-4.36 4.95-8.11 5.7-12.91q.12-.74.69-.26l4.13 3.42a.48.48 0 0 1-.18.83q-.79.2-.49 1.04.18.49.7.38zM0 111.75q.18.29.42.47l-.19 5.13q.11.25-.23.15v-5.75zm129.1 108.24c1.15 4.89.63 10.7-2.42 14.87a.64.63-32.3 0 1-1.14-.25c-1.01-5.19.01-9.56 1.32-15.73q.09-.43.52-.34 1.44.31 1.72 1.45zm-12.96 40.58l-.68-6.91a.74.74 0 0 1 .74-.81h5.13a.74.74 0 0 1 .74.81l-.3 3.14a.74.74 0 0 1-.24.47l-4.16 3.78a.74.74 0 0 1-1.23-.48z"/></g><g fill="#f6fafc"><path d="M26.18 0h14.63q2.26 7.8 2.71 16.39a.87.86-4.1 0 0 .95.82q5.23-.56 6.52 4.63a.89.89 0 0 1-.46 1.01l-4.78 2.42a1.89 1.88-17.9 0 0-1.01 1.97c.72 4.54 1.46 10.79-2.35 14.32q-.61.56-.97-.18-1.82-3.72-1.79-7.87 0-.68-.68-.68h-.48a.4.4 0 0 0-.39.47l1.1 6.45a.46.46 0 0 1-.68.48l-.47-.26a1.62 1.6-79.5 0 1-.81-1.19l-1.36-10.01q-.07-.51-.58-.5l-7.06.12q-.51 0-.75.46l-2.62 4.89q-2.78-.33-4.78 1.74-.63.65.24.4l3.15-.9q-1.82 2.54-5.06 2.83l.43-1.18q.19-.5-.34-.58-.92-.14-1.55-.5-1.14-.9-1.59-1.96-.18-.42-.01-.84l8.99-23.74q.09-.23-.15-.32l-.24-.08q-.03-.02-.05.02l-3.15 6.18q-.1.2-.3.1l-.27-.12q-.02-.01-.01-.02L26.18 0zm6.2 17.28l-1.64 2.56a.43.43 0 0 0 .13.59l.09.06a1.86 1.84 32.8 0 0 2.56-.54l.12-.18a1.86 1.84 32.8 0 0-.57-2.56l-.09-.06a.43.43 0 0 0-.6.13zm27.59 30.37q-6.31 10.92-9.92 23.38l-13.54 7.85-3.44-16.24q-.75-3.56-1.66-.04c-.56 2.15-1.16 5.14-3.04 7.13a1.06 1.02-28.1 0 0-.27.83c.3 2.52-1.87 5.94-3.21 8.21-1.58 2.15-4.54 5.97-7.42 5.41q-.61-.11-1-.59l-.9-1.09a.56.56 0 0 0-.81-.06l-3.1 2.84a1.45 1.45 0 0 1-2.4-.8c-2.33-12.24-3.79-28.12.15-40.15q.16-.49.67-.5c5.51-.06 11.44 1.59 10.42 8.64q-1.05 7.27-.8 14.6.03 1.01.44.09l10.68-23.73a.9.89 36.9 0 1 1.5-.21l2.67 3.13a.7.7 0 0 0 .41.25q4.56.93 5.59 5.66l1.2 8.89q.21 1.6.87.12l4.81-10.83 5.62-9.88q.25-.45.75-.55c5.46-1.12 9.19 2.16 5.73 7.64zM56 86.03l.4-3.01 1.43-3.74q1.22-3.32 3.96-5.93l1.71-1.79c.05 3.06-1.4 7.83-.51 10.37q.2.59.68.2c3.74-2.99 5.29-11.42 5.53-16.12q3.3-5.09 8.23-8.81.22-.16.22-.37 0-.37-.28-.12l-8.12 7.38c-.43-1.1 0-1.85-.29-2.53q-.06-.15-.18-.24-.44-.35-.74.12-.61.97-.58 2.22c-1.42 2.87-7.75 4.24-11.55 5.19q2.21-9.79 7.66-18.05 1.71-3.17 4.45-5.38.39-.31.81-.05 3.82 2.33 4.12 6.89a.84.83-17 0 0 1.25.66l.91-.53q.45-.26.77.16c5.46 7.38 4.59 18.4 1.39 26.45-1.97 4.96-3.6 9.92-8.71 11Q61.39 91.51 56 86.03zm51.55-22.42q-3.1 4-6.05 9.37a2.16 2.15 32.5 0 1-3.17.7q-1.33-.99-2.99-.89-.55.03-1.03-.24l-.72-.39a.55.55 0 0 0-.78.3c-1.35 3.69-2.84 13.5-7.67 13.8-1.66.11-2.87-1.21-5-.88q-.48.07-.52-.42-.39-4.54.14-6.14 4.95-14.96 8.46-30.33.45-1.96 3.05-1.96c6.15-.01 9.26 4.33 9.38 10.19a.49.49 0 0 0 .85.32q4.95-5.36 10.78-9.68c1.49-1.11 3.07-1.04 4.75-1.88q.44-.21.86.03c4.05 2.31 4.66 3.18 3.63 7.77q-2.44 10.85-7.59 20.71-1.82 3.48-3.64 10.36a5.09 5.07-89.6 0 1-3.66 3.62l-2.6.65q-2.52.63-1.96-1.91 2.55-11.52 6.27-22.68.84-2.52-.79-.42zm16.95 4.25a.32.32 0 0 0-.56-.3q-4.26 6.39-6.69 14.14c-.71 2.26-.74 4.95-1.24 7.34a.65.65 0 0 1-1 .4l-.28-.19q-.8-.54-.46-1.45c1.94-5.12 3.41-10.4 5.82-15.23q2.71-5.47 5.46-10.91c2.07-4.09 4.12-9.83 7.79-14.36q.28-.35.72-.31l5.55.5q.47.04.73.43l1.83 2.77a.41.41 0 0 0 .74-.28l-.46-3.57q-.02-.2.17-.21l.59-.03q.31-.02.35.29c.93 5.87 2.28 11.91 2.39 17.55q.19 10.38-1.67 19.57c-.82 4.08-3.21 4.66-6.75 5.57q-.47.12-.5-.36l-.64-11.74a.74.73.4 0 0-.69-.7l-4.71-.29a1.39 1.38 13.1 0 0-1.36.84q-2.58 6.06-6.32 11.22-1.8 2.47-4.34 1.83a.62.62 0 0 1-.46-.73q.26-1.2.61-2.28c.61-1.9.03-4.07.59-5.38q2.51-5.89 4.97-11.79a1 .97-49.5 0 0-.06-.88q-.42-.75-.12-1.46zm9.05 2.25a.4.4 0 0 0 .29.57l2.43.44a.4.4 0 0 0 .47-.34l1.1-7.46a.4.4 0 0 0-.75-.24l-3.54 7.03zm43.92 2.58l5.8-19.49q.16-.54-.03-1.07-.95-2.62 1.49-3.78.5-.24.94.1 2.91 2.2 4.66 5.26c1.97 3.44-.18 10.23-1.31 13.81q-3.37 10.72-6.73 21.45-.15.49-.57.79-3.69 2.67-8.01.83-.51-.22-.72-.74-1.51-3.67-3.04-7.31c-1.63-3.87-2.35-7.66-2.9-11.64q-.29-2.03-1.26-.23c-2.38 4.39-3.69 9.38-5.17 14.12q-1.08 3.45-3.71 5.78-.4.36-.82.02-1.5-1.23-3.39-.88-.62.11-.67-.52-.16-1.71-1.31-2.98-.44-.48.12-.81l.77-.45q.46-.27.63-.78c1.66-5.18 3.07-9.63 3.91-15.4.81-5.61 2.92-16.72 7.2-19.86q.38-.28.79-.09c10.83 4.95 9.81 14.06 12.69 23.87a.33.33 0 0 0 .64 0zm-49.98 55.6q-.57-1.08-1.06.04-3.85 8.8-10.71 15.41-.69.66-1.7.39a1.58 1.58 0 0 1-1.07-2.1c4.08-10.55 6.78-20.11 9.69-32.61.44-1.88 1.48-3.75 2.03-5.5q.62-2 2.73-2.11c4.74-.24 5.35 2.97 5.59 7.06q.37 6.47 1.53 12.88.1.53.36.88a.4.39-53.7 0 0 .68-.11q4.17-11.46 8.19-23c.97-2.79 3.73-1.7 5.83-1.7a.77.77 0 0 1 .75.58c1.84 7.44-1.61 16.85-4.27 23.67q-.07.17-3.26 6.52c-2.18 4.33-2.8 9.12-6.59 13.06q-.34.35-.83.29c-2.13-.3-5.6.16-5.55-3.23q.09-5.78-2.34-10.42zm6.73 1.13q-2.06.8-3.34 2.52a.17.17 0 0 0 .22.26q1.9-.99 3.28-2.55.4-.45-.16-.23zm-41.3 7.24q1.02-.06 1.27-.74 3.04-8.4 2.01-14.42c-1.24-7.19-3.09-13.24 2.42-19.39 2.63-2.94 10.93-1.88 12.77 1.51q.24.45.12.95-.56 2.2-1.81 4.1a1.17 1.16 13.3 0 1-.85.52q-3.18.35-4.93-2.35-.38-.58-.94-.56a.48.47 78.9 0 0-.43.64c.42 1.09.99 1.93.99 3.14-.02 2.64-.23 4.89.46 7.53q.91 3.48 1.4 7.04c1.02 7.44-3.1 15.39-11.08 16.35q-.44.06-.54.48l-.43 1.71q-.14.59-.74.48c-7.08-1.28-11.45-10.97-4.99-15.59a2.05 2.05 0 0 1 2.99.67q1.93 3.47 1.79 7.43-.02.54.52.5zm-12.6.62c-1.79 8.01-14.71 9.89-13.07.22 2-11.78 4.82-20.12 7.18-30.28q.73-3.12 2.57-5.73.24-.35.65-.34 9.07.15 7.61 8.83-3.6 21.35-4.94 27.3zm76.04-30.41c-.64-2.2 2.33-2.98 3.86-2.67q7.01 1.4 11.22 3.62c5.06 2.66 5.65 6.36 6.46 11.17 2.1 12.56-12.96 33.04-26.82 22.68-9.33-6.97-3.74-22.65 2.1-30.03q1.51-1.91 3.01-3.87.31-.41.17-.9zm10.67 8.48q-.3-.84.49-1.04a.48.48 0 0 0 .18-.83l-4.13-3.42q-.57-.48-.69.26c-.75 4.8-3.78 8.55-5.7 12.91-2.14 4.86-2.58 9.12-1.56 14.12q.14.67.51.89a1.41.93 40.7 0 0 1.19.15q7.88-4.15 10.75-12.36c1.19-3.4-1.35-5.98 1.12-9.46a.51.5 27.1 0 0-.25-.77q-.59-.19-1.21-.07-.52.11-.7-.38zm5.91 6.67q1.34-.4 2.42-1.35a.16.15 13.7 0 0-.16-.26q-1.3.51-2.36 1.43-.39.33.1.18zM17.48 148.57c8.26 3.49 10.79 9.58 12.84 17.62a.42.42 0 0 0 .7.19q7.05-6.94 13.94-13.94.95-.97 2.95-1.13c2.42-.19 5.22 2.66 6.77 4.3-8.07.03-16.06 3.64-17.97 11.71q-.12.52-.62.71c-4.11 1.54-8.03 2.46-11.41 5.39-2.49 2.16-8.42 6-9.49 8.87a.9.88-83.1 0 1-.71.57q-3.67.48-7.09-.76l4.73-23.67q.78-1.95 1.87-4.68.81-2.03 3.49-5.18zm60.45 37.75q-2.51-.92-3.27 1.78-1.37 4.83-3.32 9.42a2.28 2.28 0 0 1-1.8 1.37q-4.34.56-8.57-.64a2.34 2.33-77.2 0 1-1.66-2.65q3.31-18.78 9.21-36.92.17-.53.69-.73c2.38-.91 9.25-3.74 10.18-6.07a.79.79 0 0 1 1.37-.17q2.8 3.83 4.76 7.85c1.73 3.53 2.16 7.51 2.69 11.45a.87.86-85 0 0 .57.69c3.65 1.27 4.75 2.49 6.04 6.08q.17.47-.19.81c-4.39 4.11-3.35 10.28-2.93 15.84.33 4.34-1.17 5.34-5.13 6.11-2.17.42-4.57-.76-6.64-1.49a1.54 1.54 0 0 1-1.03-1.41l-.29-10.38a1.03 1.03 0 0 0-.68-.94zm-2.14-33.51q.71-.53 1.56-.71.21-.04.32.14l.2.36q.11.2-.09.31l-7.85 4.22a.64.64 0 0 1-.89-.82l1.33-3.03a2.13 2.13 0 0 1 1.89-1.28q1.38-.04 2.51.81a.84.84 0 0 0 1.02 0zm33.78 41.55c-2.56.99-3.8 2.19-7.05 1.39q-.42-.1-.47-.54-.74-7.01.38-10.72 2.98-9.8 2.84-13.49c-.17-4.39-.06-10.93 2.08-14.86q.79-1.46 1.49-2.96.22-.47.73-.41c2.01.24 3.98-.23 5.84.4 2.85.97 5.35 1.5 5.86 4.98q1.16 7.88 6.24 14c1.04 1.26 1.33 2.58 1.8 4.05a.5.49-27.4 0 0 .78.24q.44-.33.56-1.03c.39-2.36.56-4.63 1.17-6.97q1.39-5.36 2.3-12.26c.25-1.91 2.85-2.49 4.3-3.34q.38-.23.82-.13 4 .92 3.96 4.54-.08 7.26.43 11.98.38 3.49-.04 6.03c-1.03 6.2-1.85 14.62-5.96 19.61-2.75 3.34-5.8.72-8.8 2.56a.92.92 0 0 1-1.39-.88c.36-3.42.02-5.82-1.43-9.18-2.12-4.91-3.55-10.21-5.6-15.06q-.71-1.69-1.27.15-.24.79.57 2.19.26.44-.22.6-.24.08-.46-.05-1.12-.68-2.25-1.45a.7.7 0 0 0-1.08.47l-3.71 23.61a1.78 1.76 5.5 0 1-1.82 1.49l-7.35-.31q-1.54-.07-1.17-1.56l.07-.31a.85.84-80.1 0 1 .9-.64q3.86.37 7.06-1.94.72-.52-.11-.2zm-52.68-36.85q.67 13.18-1.01 26.41c-.38 2.95-1.28 6.15-1.83 9.22q-.13.7-.79 1-6.97 3.1-12.99-1.38a1.33 1.31 22.1 0 1-.52-1.21l2.37-18.77a.59.59 0 0 0-1.1-.38q-2.1 3.55-5.19 6.33-.4.35-.51.87c-.16.77-.23 1.34-.9 1.83-3.99 2.9-7.56.25-10.73-2.13a1.1 1.1 0 0 0-1.74.69L20.15 190a.48.47-70.1 0 1-.7.33l-1.18-.68a.28.28 0 0 0-.38.38q.47.84 1.44 1.13a.85.84-55.4 0 1 .27 1.48q-5.89 4.47-13.26 3.52a.62.62 0 0 1-.53-.67L6.9 183.2c3.36 1.61 6.05.18 8.98 1.61q.46.23.86-.1c2.55-2.12 4.09-5.04 6.22-7 2.52-2.33 4.57-4.26 7.88-5.62 2.88-1.18 6.79-2.05 7.98-5.31q1.34-3.7 4.6-5.26l8.43-1.56q.55-.1.5-.65l-.2-2.06q2.18-.69 4.74.26zm-1.17 63.22a23.58 23.58 0 1 1-47.16 0 23.58 23.58 0 1 1 47.16 0zm-24.03-16.39c2.16.57 3.77-.57 5.62.73a.42.42 0 0 0 .66-.32q.14-2.08-.9-3.85-.29-.48-.83-.34-1.52.39-2.95-.28a.79.79 0 0 0-.98.26q-1.63 2.35-4.58 1.63a.59.59 0 0 0-.73.59l.05 1.54q.02.75.76.62l3.38-.6a1.09 1.05 46.1 0 1 .5.02zM18.3 214.69q.07-.03.27.05.17.07.11.24-2.73 8.47 2 14.54c11 14.09 32.23.07 24.27-15.25-5.72-11.02-19.66-10.32-25.84-.18q-.31.5-.68.12-.34-.68.25-1.79c1.93-3.65 3.75-4.17 6.78-6.33q.55-.4.11-.91-.47-.54-1.21-.45a.7.69-16.9 0 1-.72-.38l-1.72-3.46q-.13-.26-.39-.15l-.25.12q-.35.15-.23.51c1 2.84-.61 3.98-2.88 5.04q-.54.25-.7.83-.45 1.63-1.91 2.51a.85.85 0 0 0-.37.97q.47 1.58 1.64 2.71a.31.31 0 0 1-.08.51l-.37.18a.67.67 0 0 1-.76-.11q-.55-.52-.75-1.27a1.76 1.76 0 0 0-2.89-.85c-3.67 3.35 2.33 5.49 4.54 6.58q.49.23.45-.3l-.03-.58a.8.78-82.8 0 0-.52-.69q-2.34-.86-4.26-2.41a.94.93-54.5 0 1-.2-1.23q.72-1.12 1.43.3 1.62 3.22 4.91 1.13zM43.19 204l.67-1.71a.38.38 0 0 0-.68-.33q-1.44 2.48-3.72 4.22-.77.59.19.74 2.14.34 3.81 1.74.42.35.91.09.44-.24.86-.53.33-.24.58-.26.29-.02.52.09.53.25.2.73-.24.35-.64.64a1.44 1.44 0 0 0 .46 2.54q.74.21 1.4-.15a.37.37 0 0 0-.1-.69q-.36-.07-.64-.32a.68.67 48.6 0 1 .06-1.05l1.02-.72a.61.61 0 0 0 .17-.82q-1.71-2.75-4.81-3.67-.43-.13-.26-.54zm6.02 8.26q-.65.66-1.55.83-.61.11-.42.7l1.51 4.65a.8.8 0 0 0 1.27.38l2.07-1.7a.91.91 0 0 0 .11-1.31l-1.28-1.47a.98.97 29.7 0 1-.23-.83q.48-2.5-1.64-3.56a.57.57 0 0 0-.79.3l-.12.33a.42.42 0 0 0 .23.54l.67.29a.53.52 34.1 0 1 .17.85zm-35.36 19.66l5.85.24a.15.15 0 0 0 .16-.14v-.09a2.94 2.8 2.4 0 0-2.82-2.92l-.28-.01a2.94 2.8 2.4 0 0-3.05 2.67v.09a.15.15 0 0 0 .14.16zm30.68.27l5.78-.06a.24.24 0 0 0 .24-.24v-.12a2.94 2.8-.5 0 0-2.96-2.77h-.38a2.94 2.8-.5 0 0-2.92 2.83v.12a.24.24 0 0 0 .24.24zm-3.206 6.676a.88.88 0 0 0-.868-.892l-16.258-.227a.88.88 0 0 0-.892.868l-.011.76a.88.88 0 0 0 .868.892l16.258.227a.88.88 0 0 0 .892-.868l.011-.76z"/><ellipse cx="0" cy="0" transform="matrix(.055822 .998441 -.998441 .055822 17.44 210.52)" rx="1.19" ry=".74"/><path d="M31.78 217.27l.21 7.07q.03 1.25-1.1.71l-3.93-1.91a2.19 2.17-78.2 0 1-1.22-1.88l-.26-7.92c2.24-.79 6.69.78 6.3 3.93zm7.22-3.52l.02 8.68q0 .28-.26.38l-5.64 2.22a.19.19 0 0 1-.26-.17l-.39-7.55.39-1.79a1.34 1.33-13.4 0 1 .48-.77q2.27-1.71 4.91-1.68.51 0 .75.68zm1.41.86l1.22.62q.48.24.48.78l-.01 10.65q0 .47-.46.53-2.4.31-4.7-.55 1.47-.78 3.54-.36a.68.68 0 0 0 .82-.73l-.89-10.94zm42.18 48.02l3.91-.97q.41-.1.74.18 2.07 1.75 2.14 3.52c.24 5.59-4.87 4.47-8.32 4.1a.65.65 0 0 0-.7.47c-1.23 4.29-2.83 10.96-6.12 14.08a.85.84 34.2 0 1-.92.17l-3.56-1.49q-.43-.19-.34-.65 2.26-11.5 4.74-22.91 1.23-5.68 2.28-8.94.18-.55.72-.76 7.46-2.9 15.31-4.38a1.08 1.06-33.1 0 1 .79.16c1.59 1.06 2.67 2.6 1.88 4.59-2.03 5.09-7.32 6.03-12.22 5.36q-1.51-.2-1.52 1.32l-.04 5.17q-.01 1.28 1.23.98zM25.35 247.1l1.85 3.28a1.7 1.68-42.3 0 1-.09 1.81q-3.46 4.87-9.16 6.79-.57.19-.7.78l-1.13 4.9q-.16.7.55.66l6-.36q.45-.03.74.32c6.12 7.65-3.71 8.62-8.39 8.2a.79.79 0 0 0-.85.62l-.87 4.1q-.18.87.66.58l10.87-3.73a.55.55 0 0 1 .7.36q.54 1.73 1.84 3 .42.4.29.97c-1.42 6.32-12.17 8.06-17.72 9-3.43.57-7.27-.49-6.37-4.86q2.9-14.02 5.9-28.02.43-1.99-.89-4.32-.26-.47-.07-.97.42-1.11 1.55-1.54.48-.19.76-.64l.47-.77q.28-.46.82-.48l10.95-.33q1.01-.17 2.29.65zm10.42 10.64q-2.13-1.32-3.52-3.42-1.02-1.54.59-2.45 6.8-3.84 14.46-5.43.51-.11.46.42-.16 1.69.71 3.17.56.96-.13 1.83l-3.51 4.5a1.17 1.16-28.2 0 0-.24.79c.5 8.01-.94 15.68-5.33 22.11q-1.25 1.83-3.9 2.11-.54.05-.88-.37l-2.84-3.47q-.33-.4-.19-.9l4.68-17.98q.15-.59-.36-.91zm84.05 9.11a.61.6 70 0 0-.43.93c2.92 4.62 7.18 12.62 6.41 18.15a1.45 1.44 16.9 0 1-2.07 1.1c-5.07-2.46-7.43-9.77-9.08-14.6q-.63-1.86-1.48-.09-2.82 5.86-5.14 12.63c-1.5 4.39-5.74 1.78-7.11-.67q-.58-1.03.25-1.83.34-.33.81-.24l1.7.32q.52.1.66-.41l3.73-13.92q.15-.57-.26-1-1.22-1.27-1.9-2.91-.21-.51-.04-1.03 1.71-5.35 3.03-10.78c2.39-9.81 13.88-5.83 17.57-.47 3.51 5.1-.46 14.01-6.65 14.82zm-3.68-6.28a.74.74 0 0 0 1.23.48l4.16-3.78a.74.74 0 0 0 .24-.47l.3-3.14a.74.74 0 0 0-.74-.81h-5.13a.74.74 0 0 0-.74.81l.68 6.91zm-54.9 12.89q.2-2.82-.78-5.6a.43.43 0 0 0-.67-.2l-.28.23q-.73.58-.56 1.5.5 2.7 1.72 4.12-.34.55-1.16.58c-1.67.07-2.61.66-3.6 2.07q-2.86 4.07-5.78 8.08-.33.45-.84.23-2.44-1.01-4.24-2.92-.38-.4-.27-.94.51-2.33 1.03-3.59 4.99-12.06 11.02-25.51a.68.68 0 0 1 1.21-.07l.87 1.48q1.22 2.07 1.67-.29l.59-3.12q.26-1.39.9-.13 6.96 13.69 5.36 29.64-.64 6.43-6.41 7.82-.54.13-.51-.42l.73-12.96zm81.39-1.11a.632.632 0 0 0 1.22.33c1.81-5.52 2.98-10.21 7.69-13.95a.27.27 0 0 1 .44.21c.06 4.04.32 8.2-.71 12.02-1.37 5.11-5.25 14.69-10.09 17.5q-.39.22-.84.15-12.05-1.94-11.29-13.61.9-13.77 7.66-25.34a.64.64 0 0 1 1.13.06q2.94 6.4.75 12.8c-1.58 4.61-4.55 12.16-3.24 16.84q.92 3.32 2.16.1l5.81-15.06a.51.5-78.3 0 1 .48-.32l.29.01a.19.19 0 0 1 .18.22l-1.64 8.04zm-5.87-8.47a.58.47 17.5 0 0 .18-.07q.42-.26-.02-.74-.55-.58-1.29-.43-.67.15-.31.73.43.7 1.44.51zm43.65 9.09q.16-2.28-.82-.21l-1.45 3.07a2.25 2.25 0 0 1-2.26 1.27q-6.72-.71-8.68-7.3-.09-.3-.39-.24a.59.59 0 0 0-.45.49c-1.25 8.39-2.44 15.28-8.42 22.13q-.29.34-.75.31c-2.89-.19-1.29-3.47-3.7-4.47a1.94 1.94 0 0 1-1.17-2.12q2.9-16.86 8.46-32.28.66-1.82 1.85-2.45c6.24-3.32 10.28 9.2 10.92 13.08a.47.47 0 0 0 .86.17c2.66-4.25 6.45-9.09 10.52-12.27a1.2 1.17-55.8 0 1 1.03-.21c5.46 1.46 9.78 4.38 7.68 10.78q-2.07 6.27-2.91 12.81c-.66 5.11-1.6 11.52-3.76 14.42-2.37 3.19-5.91 1.17-8.5-.39a1.38 1.36 6.6 0 1-.59-.73q-.58-1.62-.1-3.09 2.21-6.67 2.63-12.77z"/></g><g fill="#031011"><ellipse cx="0" cy="0" transform="matrix(.817145 .576432 -.576432 .817145 51.14 13.81)" rx="1.79" ry=".52"/><path d="M9.26 16.59l-1.74-1.07a.34.34 0 0 1 .27-.61q.91.27 1.64.83a.55.52 67.3 0 0 .27.12c2.43.34 3.99-1.45 5.94 1.37a1.43 1.42-34.5 0 1-.37 1.99q-2.58 1.76-5.19-.02-.46-.31-.45-.87l.02-1.01q.01-.48-.39-.73zm5.589.913a2.05 1-1.6 0 0-2.077-.942 2.05 1-1.6 0 0-2.021 1.057 2.05 1-1.6 0 0 2.077.942 2.05 1-1.6 0 0 2.021-1.057zM54.68 155.61l2.41.3a.77.77 0 0 1 .45 1.3q-.24.25-.65.3-2.56-.95-4.74-.26-2.91.24-4.42 2.35-.3.41-.81.49-1.87.27-3.5 1.43-3.26 1.56-4.6 5.26c-1.19 3.26-5.1 4.13-7.98 5.31-3.31 1.36-5.36 3.29-7.88 5.62-2.13 1.96-3.67 4.88-6.22 7q-.4.33-.86.1c-2.93-1.43-5.62 0-8.98-1.61l-5.44.89q-.28.04-.35-.23l-.08-.33q-.06-.22.16-.26l6.2-1.17q3.42 1.24 7.09.76a.9.88-83.1 0 0 .71-.57c1.07-2.87 7-6.71 9.49-8.87 3.38-2.93 7.3-3.85 11.41-5.39q.5-.19.62-.71c1.91-8.07 9.9-11.68 17.97-11.71zm46.08 42.04q-3.87 2.08-7 5.16a.89.88-52.3 0 1-1.06.14q-.66-.38-.55-.86.06-.26.46-.46 3.98-2.03 7.68-4.58.21-.14.34.07l.19.28q.1.16-.06.25zm-17.89 33.84q-1.25-5.76-3.39-.27c-.97 2.47-4.54 9.03-7.68 10.2q-.5.19-.5-.35.03-3.77.43-4.83 4.5-12.08 9.25-24.05.61-1.54 1.53-2.73.93-1.2 2.34-.64c6.59 2.63 5.05 22.17 4.09 26.58q-.75 3.39-4.69 2.94-.44-.05-.49-.49-.45-4.34-.89-6.36zm-.56-5.66q-.91-.04-1.06.81a.53.52-6.6 0 0 .73.57q.57-.26.71-.89a.41.4-83.4 0 0-.38-.49zm76.33-3.46l1.61-.59q.58-.21.84.35c1.27 2.73-.48 3.46-2.77 4.42q-2.26.95-1.51 3.51.3 1.02 1.2.45 1.65-1.07 2.44.12.94 1.41 1.04 3.11.03.54-.27.98-4.72 6.8-11.57 1.75a1.38 1.38 0 0 1-.54-1.38l4.47-22.42q.31-1.59 1.94-1.65c3.85-.13 6.84-2.26 11.07-2.27a.79.79 0 0 1 .68.39c2.31 3.89-5.34 4.81-8.56 5.46a.58.58 0 0 0-.46.67q.56 3.36-.06 6.72-.11.58.45.38zm-15.48-.85a.53.52-42.7 0 0 1.02.04c.6-2.04 1.9-6.42 3.84-7.47a.51.5 73.1 0 1 .74.4q.83 9.68-3.58 18.08c-1.55 2.96-3.89 4.39-7.12 3.32a2.12 2.11 11.9 0 1-1.45-2.21q.31-3.19.44-6.45c.2-4.99-.7-11.19-.82-15.21q-.03-1.28.99-1.61a.6.6 0 0 1 .72.28l4.76 8.6a.43.31 35.2 0 1 .05.14l.41 2.09zm30.56 8.18l9.04-2.89a1.33 1.33 0 0 1 1.71 1.02c.97 5.06-8.49 8.59-12.12 9.52q-4.2 1.08-7.72-1.61-.42-.32-.2-.79 1.35-2.96 1.53-4.45 1.19-9.64 4.31-18.06 1.14-3.07 3.11-.45l.59.78q2.06 2.76 1.36 6.13l-2.14 10.32a.42.41 86.8 0 0 .53.48zm-67.79 1.77l-1.05 2.68q-.22.55-.77.76l-4.89 1.88a.52.52 0 0 1-.7-.53c.62-7.32 3.74-14.7 6.02-21.63q.64-1.98 2.05-3.22a.85.85 0 0 1 1.36.36l4.24 11.98q.43 1.22.78-.02 1.78-6.42 5.14-12.13.57-.97.77.14c1.4 7.8-.27 22.43-8.76 26.4q-.59.28-.52-.37l.19-1.7a.85.83 20.9 0 0-.36-.79q-2.06-1.43-2.9-3.8a.32.32 0 0 0-.6-.01zm22.37-15.39c6.1 5.08 7.1 12.19 4.26 19.45-1.52 3.9-5.04 4.91-8.65 3.14-8.57-4.19-1.62-19.96 2.15-25.23q1.66-2.33 1.15.48-.05.22.36 1.19.24.56.73.97zm-1.62 18.78c3.05-4.17 3.57-9.98 2.42-14.87q-.28-1.14-1.72-1.45-.43-.09-.52.34c-1.31 6.17-2.33 10.54-1.32 15.73a.64.63-32.3 0 0 1.14.25zm-66.75 8.32a.5.5 0 0 1 .05-.95q1.23-.31 2.24.57.75.66-.37.83-.47.07-1.92-.45z"/></g><path d="M61.79 73.35q-2.74 2.61-3.96 5.93l-2.06-.17q-1.67-1.05-2.1-2.62-.14-.51.08-1 .57-1.27.1-2.01l6.73-2.43a.51.51 0 0 1 .61.74q-.69 1.19.6 1.56zM53.15 95l-15.28.73q-1.62-.91.11-2.02.64-.41.96-1.46a1.75 1.69 79.5 0 1 .51-.77q1.48-1.26 3.35-1.25a.31.31 0 0 0 .25-.49l-1.07-1.43a1.03 1.03 0 0 1 .11-1.36q.35-.34.79-.31.5.03.72.48.88 1.83 2.53 3.04a.58.57-59.2 0 0 .86-.22q1.55-3.3 5.32-3.22a1.34 1.33 2.5 0 1 1.31 1.42L53.15 95zM2.42 115.83q4.82.11 8.85.92c3.05.6 5.9-.92 9.03-.5q3.25.83 6.66 1.21c2.75.31 5.28-1.23 8.15.44q2.3 1.52 2.53 3.32-.37 1.02-.02 1.86.2.49-.21.81l-1.27 1.01a.66.65 51.7 0 1-.93-.11q-.82-1.05-1.79-.15a.98.98 0 0 1-.86.24q-1.83-.38-3.55.28-.46.18-.94.1-2.3-.37-4.4.57-.74.33-1.16-.37l-.29-.49q-.46-.76.4-.99 1.23-.34 2.24-1.08.11-.08.06-.2l-.1-.27q-.11-.26-.37-.15c-3.56 1.57-4.5-2.02-7.67-2.87q-.46-.12-.16.25c1.96 2.4 3.71 3.17 4.79 6.2q.53 1.49-.92.86-3.23-1.4-6.39-.19-.53.2-1.09.14l-7.19-.72a.17.16-25.4 0 0-.11.3l2.6 1.65q1.15.72-.17 1.02-2.45.55-4.25-.98-.39-.34-.91-.28l-2.98.35V117.5q.34.1.23-.15 1.35-1.27 2.19-1.52zm38.65 4.36q-.42-.95.09-1.81a.31.31 0 0 1 .57.14l.07 2.36q.02.64-.43.19-.27-.26-.25-.61.01-.15-.05-.27zM0 129.35c2.57.29 7.57.01 8.85 2.71q.24.5-.09.95l-.21.29q-.22.31-.18.7.43 3.86-.78 7.54a1.2 1.2 0 0 1-1.02.83l-4.87.48q-1.08-.67-1.7-.5v-13zm2.89 7.58q1.56.2 3.22-.34c1.14-.38 1.79-1.6.96-2.57a1.1 1.1 0 0 0-1.76.12q-.92 1.41-2.51 1.99-1.63.59.09.8z" fill="#9b8378"/><g fill="#76489a"><path d="M18.3 214.69q-.02-.28.13-.48.37.38.68-.12c6.18-10.14 20.12-10.84 25.84.18 7.96 15.32-13.27 29.34-24.27 15.25q-4.73-6.07-2-14.54.06-.17-.11-.24-.2-.08-.27-.05zm7.18-1.35l-3.11 2q-.37.24-.37.68v10.91a.61.61 0 0 0 .69.6l7-.95a.92.83-64.5 0 0 .39-.16c1.64-1.23 4.95.11 6.86.22q2.3.86 4.7.55.46-.06.46-.53l.01-10.65q0-.54-.48-.78l-1.22-.62q-.89-.31-1.41-.86-.24-.68-.75-.68-2.64-.03-4.91 1.68a1.34 1.33-13.4 0 0-.48.77l-.39 1.79q-.12.07-.69-.04c.39-3.15-4.06-4.72-6.3-3.93z"/><rect x="-9.01" y="-1.26" transform="matrix(.999903 .013962 -.013962 .999903 32.31 239.12)" width="18.02" height="2.52" rx=".88"/></g><g fill="#483128"><path d="M21.23 94.72q7.94 2.22 16.64 1.01L53.15 95q.78-.29 1.29.69l.88 4.05-2.12-2.44q-.36-.4-.9-.42-7.94-.18-15.84.56c-3.22.31-6.59.15-9.88.33-1.09.06-1.83.71-2.99.64-2.13-.14-3.05-.05-4.8.25-2.01.34-3.23 2.11-5.69.78q2.52-1.58 4.42-3.46.92-.91 1.58-1.22 1.45-.71 2.13-.04zm16.41 26.5q2.24 2.89 1.62 6.82-7.97.03-15.57 2.44a1.39 1.36-83.3 0 0-.78.63q-.62 1.07-1.77.24-.4-.28-.65.14l-3.28 5.47a1.73 1.72 29 0 0 .7 2.42q1.8.91 3.68.19a.74.73-26.5 0 1 .88.29c1.1 1.71 2.12 2 4.17 1.43q3.73-1.04 7.74-.14-2.06 2.05-4.61 2.13-5.87-.97-11.8-.3-.51.06-.92-.26l-2.16-1.66a.44.43-64.8 0 0-.69.25q-.78 3.53-4.39 2.32a1.43 1.42 82.8 0 1-.74-.58l-.35-.53q-.36-.56-.59.07l-.19.51q-.21.56-.8.64l-4.23.56q-.5.07-.85-.3-.52-.57-.36-1.15l4.87-.48a1.2 1.2 0 0 0 1.02-.83q1.21-3.68.78-7.54-.04-.39.18-.7l.21-.29q.33-.45.09-.95c-1.28-2.7-6.28-2.42-8.85-2.71v-1.34l2.98-.35q.52-.06.91.28 1.8 1.53 4.25.98 1.32-.3.17-1.02l-2.6-1.65a.17.16-25.4 0 1 .11-.3l7.19.72q.56.06 1.09-.14 3.16-1.21 6.39.19 1.45.63.92-.86c-1.08-3.03-2.83-3.8-4.79-6.2q-.3-.37.16-.25c3.17.85 4.11 4.44 7.67 2.87q.26-.11.37.15l.1.27q.05.12-.06.2-1.01.74-2.24 1.08-.86.23-.4.99l.29.49q.42.7 1.16.37 2.1-.94 4.4-.57.48.08.94-.1 1.72-.66 3.55-.28a.98.98 0 0 0 .86-.24q.97-.9 1.79.15a.66.65 51.7 0 0 .93.11l1.27-1.01q.41-.32.21-.81-.35-.84.02-1.86zM2.89 136.93q-1.72-.21-.09-.8 1.59-.58 2.51-1.99a1.1 1.1 0 0 1 1.76-.12c.83.97.18 2.19-.96 2.57q-1.66.54-3.22.34zm16.92 9.78q-1.29.53-2.33 1.86-2.68 3.15-3.49 5.18-1.09 2.73-1.87 4.68L0 158.5v-2.52q4.09 1.19 8.03-.04 1.85-.58.12-1.45-.39-.2-1.54-.63-.86-.32-.49-1.15a.66.65 6.6 0 1 .49-.38l7.65-1.37a.87.86-82.5 0 0 .63-.49l2.24-4.82q.19-.42.57-.69 2.28-1.62 2.11 1.75z"/><ellipse cx="0" cy="0" transform="matrix(-.322266 .946649 -.946649 -.322266 2.31 148.98)" rx=".96" ry=".79"/></g><g fill="#736866"><path d="M53.85 73.48q.47.74-.1 2.01-.22.49-.08 1 .43 1.57 2.1 2.62l-1.69.88a1.05 1.05 0 0 1-1.49-.62q-1.28-4.28 1.26-5.89zm2.55 9.54l-.4 3.01q-1.14.94-1.12 2.47.05 4.08-.44 7.19-.51-.98-1.29-.69l.47-6.86a1.34 1.33 2.5 0 0-1.31-1.42q-3.77-.08-5.32 3.22a.58.57-59.2 0 1-.86.22q-1.65-1.21-2.53-3.04-.22-.45-.72-.48-.44-.03-.79.31a1.03 1.03 0 0 0-.11 1.36l1.07 1.43a.31.31 0 0 1-.25.49q-1.87-.01-3.35 1.25a1.75 1.69 79.5 0 0-.51.77q-.32 1.05-.96 1.46-1.73 1.11-.11 2.02-8.7 1.21-16.64-1.01 1.77-1.31 5.27-2.8 5.29-2.25 9.25-7.64a.89.88 20.4 0 1 .78-.35q3.25.32 5.09-2.28.46-.67 1.23-.41 3.75 1.23 5.78-1.98a1 .99 40.9 0 1 1.6-.11l3.36 3.94q.3.36.76.37 1.06.02 2.05-.44zM12.75 97q-1.99 1.1-2.21 1.07-2.41-.37-.28-1.29 1.03-.44 2.17-.65a.47.47 0 0 1 .32.87zm42.57 2.74q2.11 5.76 1.25 12.51-.06.51-.28.54-.26-.5-.76-.54.52-.75 0-1.38.31-.18.32-.61a.51.5-89.4 0 0-.5-.52l-3.84-.01q.26-1.57-.61-2.48-.36-.38-.87-.28-5.25 1.01-8.11-.41c-3.96-1.96-7.72.35-10.98.43q-1.1.03-1.38 1.09l-.16.63q-.29 1.08.83 1.14l11.96.68q-.15.37.1.87-5.79 1.05-11.62.16a.49.49 0 0 0-.54.62l.1.3a.23.23 0 0 0 .19.17q3.5.53 6.63 2.11c-.54 1.78 1.31 2.38 2.52 3.06q.31.17.1.45l-.18.26q-.19.25-.45.09-1.95-1.14-3.93-.72c-2.87-1.67-5.4-.13-8.15-.44q-3.41-.38-6.66-1.21-.52-1.31-1.48-1.58-3.21-.9.03-1.7.43-.11 2.33-.22.25-.01.26-.25l.01-.57a.16.15 84.5 0 0-.19-.16q-2.22.52-4.14-.69-.5-.33-.92.1l-.39.4q-.23.24-.56.14l-3.55-1.02a.83.83 0 0 1-.61-.76l-.58-8.8q-.04-.6.52-.83l2.07-.87c2.46 1.33 3.68-.44 5.69-.78 1.75-.3 2.67-.39 4.8-.25 1.16.07 1.9-.58 2.99-.64 3.29-.18 6.66-.02 9.88-.33q7.9-.74 15.84-.56.54.02.9.42l2.12 2.44zm-40.54 6.21l-.85.93a.81.8 65.8 0 0-.21.57q.02.9.68 1.33.45.3 1.27.17 2.84-.44 5.69-.98.48-.09.79-.47.69-.84 1.6-.48 2.01.8 3.76 1a.75.75 0 0 0 .69-1.18q-1.82-2.55-4.88-3.45-.46-.13-.82.2l-2.29 2.11q-.91.84-1.72-.1-1.6-1.88-2.06-4.22-.11-.53-.65-.59-.52-.06-1.02.08a.85.84 85.2 0 0-.63.75q-.11 1.3-1.32 1.65-1.15.34-.05.81l1.78.77q.88.39.24 1.1zm-12.36 9.88q-.84.25-2.19 1.52l.19-5.13q.7-1.97 2.95-2.55a.62.61-11.8 0 0 .46-.69q-.53-3.34.6-6.49a.87.87 0 0 1 1.09-.54q1.67.54 3.03-.64.51-.44.55.23l.43 8.1q.04.65-.57.87-.89.32-1.81-.03a.94.94 0 0 1-.58-.67q-.35-1.57 1-2.6.28-.21 0-.42l-.26-.19q-.15-.11-.31 0-1.32.93-1.92 2.47-.21.55.25.91.94.74.35 1.95-.79 1.62.93 1.07 1.02-.33 2.2-.81 1.48-.6 1.81.85a1.31 1.31 0 0 1-1.49 1.58q-4.01-.65-6.71 1.21z"/><ellipse cx="0" cy="0" transform="matrix(.848048 -.529919 .529919 .848048 50.78 113.44)" rx="1.2" ry=".65"/><ellipse cx="0" cy="0" transform="matrix(.702153 .712026 -.712026 .702153 49.85 118.58)" rx="1.02" ry=".65"/></g><path d="M56.36 113.3q-.28 5.19-.15 10.44c.06 2.06 1.44 3.24 1.6 4.74q.71 6.35-2.2 11.31c-4.12-.13-7.53-1.61-11.42-.25-2.7.95-5.26.98-7.92 1.87q-1.08.06-1.89-.26-4.01-.9-7.74.14c-2.05.57-3.07.28-4.17-1.43a.74.73-26.5 0 0-.88-.29q-1.88.72-3.68-.19a1.73 1.72 29 0 1-.7-2.42l3.28-5.47q.25-.42.65-.14 1.15.83 1.77-.24a1.39 1.36-83.3 0 1 .78-.63q7.6-2.41 15.57-2.44 1.19.36 2.14-.12.47-.23.52-.74.25-2.21.4-4.43.06-.94 1.06-.53.48.2.62.7l.81 2.84a1.47 1.45 85.1 0 0 1.23 1.05l5.18.63q.5.06.78-.37.58-.87.41-1.82-.26-.97-1.03-1.96-.33-.43.01-.85c1.3-1.62 3.6-3.12 2.34-5.53q-.24-.46.23-.68 1.55-.73 1.85-2.31.51-.15.55-.62zm-26.59 29.98q-3.85 4.03-9.96 3.43.17-3.37-2.11-1.75-.38.27-.57.69l-2.24 4.82a.87.86-82.5 0 1-.63.49l-7.65 1.37a.66.65 6.6 0 0-.49.38q-.37.83.49 1.15 1.15.43 1.54.63 1.73.87-.12 1.45-3.94 1.23-8.03.04v-13.63q.62-.17 1.7.5-.16.58.36 1.15.35.37.85.3l4.23-.56q.59-.08.8-.64l.19-.51q.23-.63.59-.07l.35.53a1.43 1.42 82.8 0 0 .74.58q3.61 1.21 4.39-2.32a.44.43-64.8 0 1 .69-.25l2.16 1.66q.41.32.92.26 5.93-.67 11.8.3zm-27.769 6.609a.96.79 108.8 0 0 1.057-.654.96.79 108.8 0 0-.438-1.163.96.79 108.8 0 0-1.057.654.96.79 108.8 0 0 .438 1.163zm53.829-7.929q.27 2.33.33 4.87c.04 1.77 1.3 3.94.68 5.65q-.78 2.13-1.38-.06c-.66-2.38-2.56-3.49-4.98-4.4q-5.73-2.17-11.26-5.71l6.83-.06q.51-.01.99-.18 4.14-1.54 8.79-.11z" fill="#976d5e"/><path d="M40.75 80.76c-.36 1.7-2.45 1.82-3.81 1.97a.43.43 0 0 1-.47-.52l.23-1.23a.63.63 0 0 1 .57-.51l2.97-.29a.48.48 0 0 1 .51.58zm-26.21 24.09l-1.78-.77q-1.1-.47.05-.81 1.21-.35 1.32-1.65a.85.84 85.2 0 1 .63-.75q.5-.14 1.02-.08.54.06.65.59.46 2.34 2.06 4.22.81.94 1.72.1l2.29-2.11q.36-.33.82-.2 3.06.9 4.88 3.45a.75.75 0 0 1-.69 1.18q-1.75-.2-3.76-1-.91-.36-1.6.48-.31.38-.79.47-2.85.54-5.69.98-.82.13-1.27-.17-.66-.43-.68-1.33a.81.8 65.8 0 1 .21-.57l.85-.93q.64-.71-.24-1.1zm36.97 4.88l-9.32.8-11.96-.68q-1.12-.06-.83-1.14l.16-.63q.28-1.06 1.38-1.09c3.26-.08 7.02-2.39 10.98-.43q2.86 1.42 8.11.41.51-.1.87.28.87.91.61 2.48zm4.02 1.14q.52.63 0 1.38-1.23.17-2.15.92a.41.41 0 0 0 .26.73l2.17.02q-.3 1.58-1.85 2.31-.47.22-.23.68c1.26 2.41-1.04 3.91-2.34 5.53q-.34.42-.01.85.77.99 1.03 1.96l-5.56-.8q-.53-.08-.59-.61-.38-3.6-2.06-6.86-.22-.44-.7-.53-.74-.15-1.49-.01a1.28 1.27-30.4 0 1-1.05-.27q-1.65-1.38-3.91-1.41-3.13-1.58-6.63-2.11a.23.23 0 0 1-.19-.17l-.1-.3a.49.49 0 0 1 .54-.62q5.83.89 11.62-.16l13.24-.53zm-3.732 1.934a1.2.65-32 0 0-1.362.085 1.2.65-32 0 0-.673 1.187 1.2.65-32 0 0 1.362-.085 1.2.65-32 0 0 .673-1.187zm-1.231 6.502a1.02.65 45.4 0 0-.253-1.183 1.02.65 45.4 0 0-1.179-.27 1.02.65 45.4 0 0 .253 1.183 1.02.65 45.4 0 0 1.179.27zm1.583 37.944l.2 2.06q.05.55-.5.65l-8.43 1.56q1.63-1.16 3.5-1.43.51-.08.81-.49 1.51-2.11 4.42-2.35z" fill="#989898"/><g fill="#4d6e93"><path d="M25.35 247.1q-1.28-.82-2.29-.65.97-1.14.02-1.79c-6.75-4.61-12.37-7.66-14.7-16.69q-4.19-16.27 8.15-26.45 12.59-10.4 26.97-2.98c8.37 4.32 13.94 13.02 13.51 22.89-.15 3.5-1.41 6.86-2.53 10.15-.63 1.86-1.78 3.13-2.73 4.92-3.33 6.26-11.6 7.85-17.84 8.95q-.48.08-4.32.19-2.49.07-4.24 1.46zm30.37-26.37a23.58 23.58 0 1 0-47.16 0 23.58 23.58 0 1 0 47.16 0z"/><ellipse cx="0" cy="0" transform="matrix(.993768 -.111469 .111469 .993768 69.17 205.19)" rx="2.62" ry=".49"/><path d="M136.76 263.88q-1.01.19-1.44-.51-.36-.58.31-.73.74-.15 1.29.43.44.48.02.74a.58.47 17.5 0 1-.18.07z"/></g><path d="M37.31 205.07c-1.85-1.3-3.46-.16-5.62-.73a1.09 1.05 46.1 0 0-.5-.02l-3.38.6q-.74.13-.76-.62l-.05-1.54a.59.59 0 0 1 .73-.59q2.95.72 4.58-1.63a.79.79 0 0 1 .98-.26q1.43.67 2.95.28.54-.14.83.34 1.04 1.77.9 3.85a.42.42 0 0 1-.66.32zm-18.88 9.14q-.15.2-.13.48-3.29 2.09-4.91-1.13-.71-1.42-1.43-.3a.94.93-54.5 0 0 .2 1.23q1.92 1.55 4.26 2.41a.8.78-82.8 0 1 .52.69l.03.58q.04.53-.45.3c-2.21-1.09-8.21-3.23-4.54-6.58a1.76 1.76 0 0 1 2.89.85q.2.75.75 1.27a.67.67 0 0 0 .76.11l.37-.18a.31.31 0 0 0 .08-.51q-1.17-1.13-1.64-2.71a.85.85 0 0 1 .37-.97q1.46-.88 1.91-2.51.16-.58.7-.83c2.27-1.06 3.88-2.2 2.88-5.04q-.12-.36.23-.51l.25-.12q.26-.11.39.15l1.72 3.46a.7.69-16.9 0 0 .72.38q.74-.09 1.21.45.44.51-.11.91c-3.03 2.16-4.85 2.68-6.78 6.33q-.59 1.11-.25 1.79zm-.924-2.502a1.19.74 86.8 0 0 .672-1.229 1.19.74 86.8 0 0-.805-1.147 1.19.74 86.8 0 0-.672 1.229 1.19.74 86.8 0 0 .805 1.147zm25.944-7.168q3.1.92 4.81 3.67a.61.61 0 0 1-.17.82l-1.02.72a.68.67 48.6 0 0-.06 1.05q.28.25.64.32a.37.37 0 0 1 .1.69q-.66.36-1.4.15a1.44 1.44 0 0 1-.46-2.54q.4-.29.64-.64.33-.48-.2-.73-.23-.11-.52-.09-.25.02-.58.26-.42.29-.86.53-.49.26-.91-.09-1.67-1.4-3.81-1.74-.96-.15-.19-.74 2.28-1.74 3.72-4.22a.38.38 0 0 1 .68.33l-.67 1.71q-.17.41.26.54zm5.59 6.87l-.67-.29a.42.42 0 0 1-.23-.54l.12-.33a.57.57 0 0 1 .79-.3q2.12 1.06 1.64 3.56a.98.97 29.7 0 0 .23.83l1.28 1.47a.91.91 0 0 1-.11 1.31l-2.07 1.7a.8.8 0 0 1-1.27-.38l-1.51-4.65q-.19-.59.42-.7.9-.17 1.55-.83a.53.52 34.1 0 0-.17-.85zm-35.19 20.51a.15.15 0 0 1-.14-.16v-.09a2.94 2.8 2.4 0 1 3.05-2.67l.28.01a2.94 2.8 2.4 0 1 2.82 2.92v.09a.15.15 0 0 1-.16.14l-5.85-.24zm30.68.27a.24.24 0 0 1-.24-.24v-.12a2.94 2.8-.5 0 1 2.92-2.83h.38a2.94 2.8-.5 0 1 2.96 2.77v.12a.24.24 0 0 1-.24.24l-5.78.06z" fill="#dc916f"/><path fill="#c1afd0" d="M25.48 213.34l.26 7.92a2.19 2.17-78.2 0 0 1.22 1.88l3.93 1.91q1.13.54 1.1-.71l-.21-7.07q.57.11.69.04l.39 7.55a.19.19 0 0 0 .26.17l5.64-2.22q.26-.1.26-.38l-.02-8.68q.52.55 1.41.86l.89 10.94a.68.68 0 0 1-.82.73q-2.07-.42-3.54.36c-1.91-.11-5.22-1.45-6.86-.22a.92.83-64.5 0 1-.39.16l-7 .95a.61.61 0 0 1-.69-.6v-10.91q0-.44.37-.68l3.11-2z"/><g fill="#161614"><path d="M194.69 1.5q1.94.37 3.08 1.92a.5.5 0 0 1-.63.74q-1.63-.82-2.66-2.33a.21.21 0 0 1 .21-.33zm-83.51 10.8q-.17.47-.61.65a.31.3-89 0 1-.39-.41q.39-.88 1.26-1.21a.16.16 0 0 1 .21.2q-.09.25-.27.44-.13.15-.2.33zm28.25 4.59q.7 1.14.3 2.56a2.35 2.34 4.3 0 1-1.98 1.7l-1.27.16q-1.58.19-.95-1.27 1.23-2.89 1.26-6.04a2.51 1.83-27.8 0 1 .77-1.57q.52-.49 1.37.18 1.79 1.41.52 3.36-.3.45-.02.92zm-1.59-2.99q-.39.64 0 1.33a.5.49-44.3 0 0 .86.01q.46-.78-.1-1.4a.48.48 0 0 0-.76.06zm-.85 5.26q-.15.4.14.7.68.71 1.26-.46.54-1.06-.15-2.03-.38-.53-.6.08l-.65 1.71zm-75.63-1.55l-.95 3.31a.29.28 4.3 0 1-.25.21l-.25.02q-.47.05-.38-.41.68-3.4 1.38-6.75.1-.45.57-.44.48.02.52.51.05.86.54 1.62a.47.47 0 0 0 .82-.05q.58-1.23.36-2.6-.1-.61.52-.54.46.06.73.56a.74.72 37.5 0 1 .07.48l-1.46 7.19a.54.54 0 0 1-.29.38q-.26.12-.52.07-.53-.11-.54-.66l-.06-2.8a.41.41 0 0 0-.81-.1zm23.18-2.37l.96-2.14a.55.55 0 0 1 .61-.31l.43.1a.44.43 19.4 0 1 .3.62l-3.2 6.39q-1.39 2.77-1.38-.41 0-.2.6-1.08a.95.91-35.1 0 0 .14-.73l-1.04-4.14a.45.44 19.8 0 1 .79-.37q.67.91.99 2.01.32 1.13.8.06zm38.92 3.99l1.42-.15a.38.38 0 0 1 .42.35l.03.34q.03.53-.49.63l-2 .36a.94.94 0 0 1-1.07-1.19l1.69-5.63a1.5 1.48 80 0 1 .52-.75q1.18-.94 1.97-.31 1.09.86-.28 1.12-.99.19-1.66 1.05a.67.67 0 0 0 .22 1l.31.17a.42.42 0 0 1-.04.76q-1.17.46-1.5 1.7a.44.43-84.9 0 0 .46.55zM73.11 16l1.5-2.79a.29.28 25.1 0 1 .37-.13l.24.11a.61.61 0 0 1 .31.79q-1.11 2.64-.41 4.31.54 1.3.9-.07l1.24-4.73q.1-.4.52-.4l.37.01q.56.01.39.53l-2.09 6.65q-1.12 3.58-2.05-.05l-.57-2.22a.49.49 0 0 0-.94-.01l-.86 3.15a.45.45 0 0 1-.42.33l-.43.01q-.54.01-.47-.52l1.13-7.79q.02-.16.19-.16l.58.03q.15 0 .13.15l-.32 2.58a.37.37 0 0 0 .69.22zm90.87 3.52l1.19-.27q.42-.09.63.29.3.54-.22.81-1.82.95-3.61.5a.66.66 0 0 1-.47-.84l1.82-5.88q.15-.48.58-.73.9-.52 1.14-.44 2.24.78-.05 1.76-1.1.47-.45 1.39.39.55-.14.97-.9.71-1.01 1.92-.05.67.59.52zm9.64-.99q-.15.81.66.95l.95.16q1.05.17 1.34-.85l1.43-5.03q.16-.55.73-.57l1.66-.07a.4.4 0 0 1 .23.74l-1.44.9a.79.79 0 0 0-.37.75q.09.8.96.84a.39.38 34.6 0 1 .14.74q-1.28.54-2.01 1.7a.46.46 0 0 0 .39.71q1.04-.02 1.72.7a.46.46 0 0 1-.35.77l-7.15-.27a.78.78 0 0 1-.74-.93l1.14-5.78a.39.39 0 0 1 .55-.28l.34.16a.87.86 17.5 0 1 .5.95l-.68 3.71zm-85.393 2.733a4.16 2 105.8 0 1-.792-4.547 4.16 2 105.8 0 1 3.057-3.458 4.16 2 105.8 0 1 .792 4.547 4.16 2 105.8 0 1-3.057 3.458zm.151-1.152a2.8.85 107.5 0 0 1.653-2.415 2.8.85 107.5 0 0 .031-2.926 2.8.85 107.5 0 0-1.653 2.415 2.8.85 107.5 0 0-.031 2.926zm11.992-4.531q.72-1.35 1.95-2.26.1-.07.19.01l.23.18a.32.32 0 0 1 .07.42l-1.4 2.26a1.04 1.02 51 0 0-.09.91q.68 1.77.65 3.66a.49.49 0 0 1-.5.48h-.38q-.41-.01-.48-.41l-.53-3.08a.53.53 0 0 0-1.04-.01l-.4 2.05a.69.68 7.4 0 1-.73.56l-.41-.04a.47.47 0 0 1-.41-.59l1.7-6.01q.13-.44.5-.19l.43.29q.15.1.11.27-.2.76-.13 1.37.13 1.13.67.13zm8.03-.68q-.79-.31-1.37-.93-.14-.14-.01-.3l.18-.22q.32-.38.72-.09 1.01.75 2.27.39 1.35-.39.58.78-1.55 2.37-1.6 5.23a.59.58 81.5 0 1-.39.54l-.79.26a.3.3 0 0 1-.39-.36l1.1-4.73q.1-.41-.3-.57z"/><ellipse cx="0" cy="0" transform="matrix(-.263873 .964557 -.964557 -.263873 112.89 17.02)" rx="3.99" ry=".75"/><path d="M119.27 19.07q.24-.64-.43-.5l-1.95.4q-.73.16-1.21.73l-.75.91a.35.34-17.4 0 1-.6-.31l1.79-6.24q.15-.53.7-.6.19-.02.35.07.18.11.17.33l-.22 3.21a.44.44 0 0 0 .55.46c1.39-.33 2.2-2.99 2.72-4.1a.45.44-63.4 0 1 .62-.21l.27.15a.74.74 0 0 1 .3.99q-1.26 2.4-1.43 5.62-.07 1.43-1.29 1.73a.35.34-86.2 0 1-.4-.46l.81-2.18zm9.53-.34a.63.63 0 0 0 .43-1.06q-2.09-2.22-.04-4.19a1.36 1.36 0 0 1 1.7-.15q.73.5.83 1.31a.57.57 0 0 1-.62.63q-.47-.03-.83-.3a.77.77 0 0 0-1.1 1.04l1.51 2.35q.3.48.02.96-.91 1.57-2.76 1.41a.65.64-1.6 0 1-.59-.55q-.07-.44.08-.84.2-.57.8-.59l.57-.02zm24.61-3.49l-1.25-1.02a.25.25 0 0 1 .13-.44l3.18-.38a.25.25 0 0 1 .26.34L152.97 21a.25.25 0 0 1-.15.15l-.59.21a.25.25 0 0 1-.33-.31l1.59-5.55a.25.25 0 0 0-.08-.26zm16.07 4.18l.66.18a.52.52 0 0 1-.08 1.01l-2.06.22a.77.77 0 0 1-.85-.91L168.2 14a.94.94 0 0 1 .96-.77l.28.01q.76.02.6.77l-.98 4.72q-.12.54.42.69zm-75.52-.9q-.72.64-.93 1.75-.04.19-.23.21l-.45.05q-.28.03-.2-.24l1.7-5.64q.44-1.46 1.85-.89l.5.2a1.38 1.38 0 0 1 .62 2.05q-1.57 2.3-.58 4.95.19.5-.29.74l-.42.2a.48.47 74 0 1-.68-.38l-.27-2.75q-.07-.73-.62-.25zm.82-2.1q-.38.26.17.39a.07.06-49.7 0 0 .06-.01q1.1-.72.92-2.01a.43.43 0 0 0-.72-.26q-.72.66-.43 1.87.01.01 0 .02zm48.24 3.73q.3.11.53.32a.39.39 0 0 1-.23.67c-1.96.2-2.25-1.19-1.82-2.75q.58-2.09 1.05-4.2.11-.49.59-.61 1.07-.28 2.14.03.33.09.41.31.05.15 0 .3-.13.38-.54.39-2.05.04-1.61 2.34a1.02 1-27.7 0 1-.29.91q-.57.56-.75 1.33a.83.83 0 0 0 .52.96zm5.05-.51q.38-.14.63-.46.38-.5.05-1.03l-.92-1.52q-.34-.55-.08-1.15.66-1.54 2.28-2.03a.67.67 0 0 1 .86.56l.16 1.25q.09.74-.61.48-2.03-.77-1.24.94.39.82.96 1.57a1.03 1.02-53.3 0 1 .14.98q-.72 1.86-2.76 1.75a1.06 1.04-16.3 0 1-.78-.42q-.83-1.09-.15-2.21a.57.56 29 0 1 .74-.21l.22.11q.34.17.17.51l-.17.33q-.45.9.5.55zm10.7-4.84q-1 .2-.27.91 2.16 2.1 1.36 3.72c-.57 1.16-2.01 1.27-3.04.77q-.74-.35-.58-1.15l.06-.35a.65.65 0 0 1 .96-.43q.59.34 1.27.42a.37.37 0 0 0 .37-.54l-1.63-3.02a1.12 1.12 0 0 1 1.13-1.64l2.4.31a.59.59 0 0 1 .49.76l-.29.92a.42.41-48.2 0 1-.78.05q-.41-.94-1.45-.73zm25.04 2.6q-.43.81-.74 2.79-.1.66-.76.77l-.32.05a.45.45 0 0 1-.52-.54l1.32-6.11q.15-.71.87-.83 1.94-.33 3.6.58a.56.56 0 0 1 .16.86l-.87 1q-.38.44-.35 1.01l.26 4.36q.03.52-.5.53l-.29.01a.46.45 85.8 0 1-.46-.4l-.53-3.92q-.19-1.43-.87-.16zM66.74 20.01q.61.01 1.1.33a.45.45 0 0 1-.23.83l-1.8.07a.57.57 0 0 1-.58-.69l1.29-6.26q.1-.45.55-.54.89-.17 1.77.07 2.28.63-.08.76-.21.01-.78.37-.44.28-.46.81-.08 1.98-1.09 3.7a.37.37 0 0 0 .31.55zm83.05 3.29c.08.37.1 1.15.1 1.58q0 .37-.28.12-.46-.42-.48-1.25-.02-.45.22-.62.35-.26.44.17z"/><rect x="-36.85" y="-.67" transform="matrix(.999994 .003491 -.003491 .999994 94.89 25.45)" width="73.7" height="1.34" rx=".53"/><path d="M69.2 66.01l-5.7 5.55-1.71 1.79q-1.29-.37-.6-1.56a.51.51 0 0 0-.61-.74l-6.73 2.43q-2.54 1.61-1.26 5.89a1.05 1.05 0 0 0 1.49.62l1.69-.88 2.06.17-1.43 3.74q-.99.46-2.05.44-.46-.01-.76-.37l-3.36-3.94a1 .99 40.9 0 0-1.6.11q-2.03 3.21-5.78 1.98-.77-.26-1.23.41-1.84 2.6-5.09 2.28a.89.88 20.4 0 0-.78.35q-3.96 5.39-9.25 7.64-3.5 1.49-5.27 2.8-.68-.67-2.13.04-.66.31-1.58 1.22-1.9 1.88-4.42 3.46l-2.07.87q-.56.23-.52.83l.58 8.8a.83.83 0 0 0 .61.76l3.55 1.02q.33.1.56-.14l.39-.4q.42-.43.92-.1 1.92 1.21 4.14.69a.16.15 84.5 0 1 .19.16l-.01.57q-.01.24-.26.25-1.9.11-2.33.22-3.24.8-.03 1.7.96.27 1.48 1.58c-3.13-.42-5.98 1.1-9.03.5q-4.03-.81-8.85-.92 2.7-1.86 6.71-1.21a1.31 1.31 0 0 0 1.49-1.58q-.33-1.45-1.81-.85-1.18.48-2.2.81-1.72.55-.93-1.07.59-1.21-.35-1.95-.46-.36-.25-.91.6-1.54 1.92-2.47.16-.11.31 0l.26.19q.28.21 0 .42-1.35 1.03-1 2.6a.94.94 0 0 0 .58.67q.92.35 1.81.03.61-.22.57-.87l-.43-8.1q-.04-.67-.55-.23-1.36 1.18-3.03.64a.87.87 0 0 0-1.09.54q-1.13 3.15-.6 6.49a.62.61-11.8 0 1-.46.69q-2.25.58-2.95 2.55-.24-.18-.42-.47V93.69c2.7.32 6.98 2.91 9.27 2.12 3.98-1.37 29.29-10.43 26.85-16.41q.09-.4.39-.52l13.54-7.85 5.86-2.18c3.8-.95 10.13-2.32 11.55-5.19q.92-.04 1.79.43l8.12-7.38q.28-.25.28.12 0 .21-.22.37-4.93 3.72-8.23 8.81zM36.94 82.73c1.36-.15 3.45-.27 3.81-1.97a.48.48 0 0 0-.51-.58l-2.97.29a.63.63 0 0 0-.57.51l-.23 1.23a.43.43 0 0 0 .47.52zM12.75 97a.47.47 0 0 0-.32-.87q-1.14.21-2.17.65-2.13.92.28 1.29.22.03 2.21-1.07zm38.76 12.73l3.84.01a.51.5-89.4 0 1 .5.52q-.01.43-.32.61l-13.24.53q-.25-.5-.1-.87l9.32-.8zm4.02 2.52q.5.04.76.54l.07.51q-.04.47-.55.62l-2.17-.02a.41.41 0 0 1-.26-.73q.92-.75 2.15-.92zm-18.48 2.51q2.26.03 3.91 1.41a1.28 1.27-30.4 0 0 1.05.27q.75-.14 1.49.01.48.09.7.53 1.68 3.26 2.06 6.86.06.53.59.61l5.56.8q.17.95-.41 1.82-.28.43-.78.37l-5.18-.63a1.47 1.45 85.1 0 1-1.23-1.05l-.81-2.84q-.14-.5-.62-.7-1-.41-1.06.53-.15 2.22-.4 4.43-.05.51-.52.74-.95.48-2.14.12.62-3.93-1.62-6.82-.23-1.8-2.53-3.32 1.98-.42 3.93.72.26.16.45-.09l.18-.26q.21-.28-.1-.45c-1.21-.68-3.06-1.28-2.52-3.06zm4.07 5.7q-.02.35.25.61.45.45.43-.19l-.07-2.36a.31.31 0 0 0-.57-.14q-.51.86-.09 1.81.06.12.05.27zm14.49 19.33l.22 2.17q-4.65-1.43-8.79.11-.48.17-.99.18l-6.83.06-2.95-.9c2.66-.89 5.22-.92 7.92-1.87 3.89-1.36 7.3.12 11.42.25zm40.13 92.44a.65.65 0 0 1-.3-.49q-.1-1.17 1.53-1.07a1.1 1.1 0 0 1 1.04 1.12l-.01.65q-.01.55-.55.45-.92-.17-1.71-.66zm-35.05 7.18q.3.5.14 1.05a.42.41-50.7 0 1-.77.08q-.27-.55-.03-1.1a.37.37 0 0 1 .66-.03z"/></g><path d="M12.92 33.48q.12-.52.54-.81.67-.47.39.3-.36.97-.12 1.97a.52.51 7.5 0 1-.75.57q-.58-.31-.26-1.26.06-.15.2-.77zm11.93.26q-.62 1.31-1.39 1.24l-3.15.9q-.87.25-.24-.4 2-2.07 4.78-1.74zm-7.91 1.81q.63.36 1.55.5.53.08.34.58l-.43 1.18-1.1.19q-.45.07-.71-.3-.73-1.03.35-2.15zM63.57 50.8q-5.45 8.26-7.66 18.05l-5.86 2.18q3.61-12.46 9.92-23.38 1.7-.19 2.66.68.39.36.33.88-.12 1.02.61 1.59zm-15.7-.36l-4.81 10.83q-.66 1.48-.87-.12l-1.2-8.89c1.84-1.31 4.75-3.66 6.88-1.82zM36.51 78.88q-.3.12-.39.52-1.15-.74-2.87-.4-4.4.86-8.36-.23c1.34-2.27 3.51-5.69 3.21-8.21a1.06 1.02-28.1 0 1 .27-.83c1.88-1.99 2.48-4.98 3.04-7.13q.91-3.52 1.66.04l3.44 16.24zm32.74-14.79q-.87-.47-1.79-.43-.03-1.25.58-2.22.3-.47.74-.12.12.09.18.24c.29.68-.14 1.43.29 2.53zm103.59 57.75q1.06-.92 2.36-1.43a.16.15 13.7 0 1 .16.26q-1.08.95-2.42 1.35-.49.15-.1-.18zm-38.46 7.81q-1.38 1.56-3.28 2.55a.17.17 0 0 1-.22-.26q1.28-1.72 3.34-2.52.56-.22.16.23zm-52.07 96.18a.41.4-83.4 0 1 .38.49q-.14.63-.71.89a.53.52-6.6 0 1-.73-.57q.15-.85 1.06-.81zm-21.07 47.63l-.57.05q-1.22-1.42-1.72-4.12-.17-.92.56-1.5l.28-.23a.43.43 0 0 1 .67.2q.98 2.78.78 5.6z" fill="#6bb3c0"/></svg>