<svg xmlns="http://www.w3.org/2000/svg" viewBox="0 0 198 300" xmlns:v="https://vecta.io/nano"><style><![CDATA[.B{stroke:#8f5b3b}.C{stroke:#9c7260}.D{stroke:#cd9d78}.E{stroke:#ab7c42}.F{stroke:#dca759}.G{stroke:#9f6e48}.H{stroke:#ebba67}.I{stroke:#d09860}.J{stroke:#a98d80}.K{stroke:#e7cfbd}]]></style><g fill="none" stroke-width="2"><path stroke="#ddb085" vector-effect="non-scaling-stroke" d="M38.08 0c-1.76 5.53-3.88 9.63-1.49 15.93 2.58 6.83 11.96 7.34 20.03 8.65 5.9.96 9.21 10.05 1.84 11.53-4.05.81-9.77-3.9-12.95-6.12q-5.32-3.7-13.89-4.11c-9.97-.47-11.98 9.22-9.04 16.58 1 2.5 3.95 6.02 3.59 8.68-.48 3.45-5.89 5.44-8.1 2.79q-.92-1.1-1.26-4.09c-.61-5.29-1.11-10.39-3.49-15.39-2.67-5.58-8.36-4.22-13.32-4.77"/><path vector-effect="non-scaling-stroke" d="M122.14 0c1.41 5.95 10.36 3 14.26 2.44 5.03-.73 11.75.51 14.89 4.76 3.17 4.31.67 10.88-3.07 14-3.51 2.93-9.55 3.59-13.23 5.77-2.94 1.74-4.77 4.3-2.64 7.18 4.97 6.7 10.67 5.05 15.57-.12 1.79-1.9 3.85-4.97 6.33-5.59 8.08-2.04 4.97 9.04 8.73 12.61 3.35 3.18 9.34.59 11.82-2.51 3.2-4.02.94-11.12 4.01-13.98 2.47-2.31 7.97-1.38 9.06 2.17 1.67 5.46 3.45 12.11 10.13 12.94" class="H"/><path vector-effect="non-scaling-stroke" d="M198 222.86l-1.48-.33" class="I"/><path vector-effect="non-scaling-stroke" d="M196.52 222.53q-3.14-3.29-7.54-4.85" class="G"/><path vector-effect="non-scaling-stroke" d="M188.98 217.68q.63-.03-.24-.15" class="I"/><path vector-effect="non-scaling-stroke" d="M188.74 217.53l1.15-3.94q.14-.47.59-.67.97-.45 1.97-.9c3.38-1.54.95-5.16-.07-7.33a1.46 1.44-52.1 0 1-.11-.92c.88-3.93 2.38-15.35-3.08-17.2-1.81-.62-3.47-.95-5.1-2.07-9.29-6.35-19.91-6.78-28.39 1.18-7.39 6.94-7.39 15.21-4.31 24.71q.16.49.06 1-1.05 5.22 4.08 5.82a.48.48 0 0 1 .34.74c-4.82 7.38-8.56 15.34-12.76 22.94q-.34.61-1.03.57-7.59-.39-15.08-.31-1.23.01-1.55-.05-2.65-.5-.03-1.45l1.4-.5a.91.9-17.1 0 0 .57-1.07q-1.82-7.39-7.62-12.25-.29-.25-.66-.13l-.59.19q-.8.27-.32-.43 4.99-7.16 5.61-15.96c.77-10.88-4.09-26.62-17.04-27.43q-9.61-.61-18.09 6.01a1.73 1.68-67.1 0 1-.83.35c-11.72 1.5-10.59 18.46-9.23 26.51q.09.49-.14.93c-1.44 2.81-2.32 7.25.72 9.12l1.15 1.03q.46.41.07.9-4.01 4.9-6.22 10.86a.52.51-61.8 0 0 .18.6l2.61 1.87q2.09 1.5-.48 1.4l-13.84-.6a.86.86 0 0 1-.75-.5c-3.74-7.96-7.74-17.49-13.65-23.8q-.39-.42.12-.69 1.67-.87 2.87-2.02.78-.74.18-1.07" class="G"/><path vector-effect="non-scaling-stroke" d="M51.44 212.97l-.01-1.9" class="I"/><path vector-effect="non-scaling-stroke" d="M51.43 211.07q.25-1.44 1.49-4.89 2.02-5.6.38-11.64c-3.31-12.1-15.07-17.98-27.18-14.7-3.69.99-6.81 3.83-10.6 5.47-6.86 2.97-6.17 11.56-4.57 17.57a1.52 1.52 0 0 1-.06.96c-1.68 4.2-3.78 5.18 1.63 7.84a1.37 1.37 0 0 1 .64.67l1.73 3.98" class="G"/><path vector-effect="non-scaling-stroke" d="M14.89 216.33l-9.15 6.98" class="H"/><path vector-effect="non-scaling-stroke" d="M5.74 223.31L0 229.76" class="G"/><path stroke="#ddb085" vector-effect="non-scaling-stroke" d="M46.87 54.19a5.91 5.91 0 1 0-11.82 0 5.91 5.91 0 1 0 11.82 0"/><path vector-effect="non-scaling-stroke" d="M178.65 64.05a7.33 7.33 0 0 0-14.66 0 7.33 7.33 0 0 0 14.66 0" class="H"/><g stroke="#efd5b6"><path vector-effect="non-scaling-stroke" d="M64.96 80.99l.35-4.17q.09-1.09-1-1.08l-3.6.03q-1.02 0-1 1.02l.33 15.67q.02.91.92.81l2.59-.26q.95-.1.95-1.06v-6.23q0-1.11 1.03-1.51l.51-.2q1.16-.45 1.01.79l-1.08 8.71q-.07.62.54.73l2.71.45q.45.08.62-.34C71.09 91.36 74.07 81 68.31 81c-.85.01-1.87.49-2.87.51q-.53.01-.48-.52m14.01-1.49a.42.42 0 0 0 .41-.33l.66-2.91a.42.42 0 0 0-.42-.51l-4.2.01a.42.42 0 0 0-.42.42v2.91a.42.42 0 0 0 .42.42l3.55-.01m3.07 15.15a.62.62 0 0 0 .61.59l3.09.01a.62.62 0 0 0 .62-.61l.36-18.24a.62.62 0 0 0-.71-.62l-4.14.61a.62.62 0 0 0-.53.64l.7 17.62m14.44-1.17l.24 1a.66.66 0 0 0 .75.5l2.41-.37a.63.63 0 0 0 .53-.61l.35-16.48q.02-1.01-.99-1.01l-3.27-.01q-1 0-1 1v2.51a.76.75 79.1 0 1-.47.7c-5.4 2.24-8.03 5.04-5.96 10.76q1.2 3.32 4.15 3.23.43-.01.83-.2.94-.47 1.67-1.23a.45.45 0 0 1 .76.21M53.44 81.06l.1 1.63q.06.85.9.71l2.89-.5a.98.97-9.9 0 0 .79-1.12q-.86-5.02-5.62-4.47c-9.92 1.15-11.35 18.52-.73 17.57q5.27-.47 6.06-5.58.09-.64-.54-.74l-2.03-.34q-.65-.11-.84.52l-.44 1.45q-1.49 4.93-3.5.19-1.79-4.22.49-9.65.17-.41.59-.52.65-.19 1.33.09.51.2.55.76m56.43 3.04q.45.3.55.87.15.9 1.06.79l2.23-.25q1-.12 1.03-1.12.09-3.19-2.73-4.3-.58-.23-1.07.14l-1.15.88a1.12 1.11-53.4 0 1-1.04.16q-2.23-.8-4.56-.38a.73.72-3.1 0 0-.6.66q-.49 5.92.83 11.69.23 1.04 1.3 1.02l2.23-.03q.89-.02.77-.9-.62-4.52.41-8.94a.48.48 0 0 1 .74-.29m10.71 6.93l-.1-2.44q-.02-.52.5-.55 1.64-.09 3.27-.1c4.91-.04 3.35-10.07-3.35-7.28-4.52 1.89-7.08 7.38-4.22 11.89 2.37 3.72 8 1.59 10.23-1.02a.56.56 0 0 0-.15-.85l-2.19-1.27a.7.7 0 0 0-.95.23q-.74 1.17-1.89 1.97a.74.73 71.7 0 1-1.15-.58m26.97-7.27q.32-.79 1.19-.74.46.02.69.43l.83 1.49a.78.78 0 0 0 1 .33l2.36-1.05a.95.95 0 0 0 .27-1.56c-7.6-7.22-16.23 3.49-5.72 7.52q1.38.53.43 1.66-.6.72-1.46.59a1.01 1.01 0 0 1-.81-.71q-.4-1.36-1.7-1.71a1.43 1.43 0 0 0-1.66 2c1.77 3.73 7.34 3.76 9.77.82 3.17-3.82-2.6-6.61-4.93-8.21q-.47-.33-.26-.86m-11.03 1.79l-.82 6.54a1.06 1.05-82.2 0 0 .89 1.18l2.87.44q.47.07.63-.38 1.66-4.58.74-9.3c-.59-3-2.94-4.24-5.58-2.37q-.43.31-.88.02-.28-.19-.39-.54-.17-.55-.75-.5l-3.83.3q-.61.04-.57.66l.86 12.61q.05.72.77.66l2.71-.22q.53-.05.54-.57l.17-8.19q.02-1.21 1.23-1.31l.43-.04a.91.9 1 0 1 .98 1.01M79.3 81.57a.74.74 0 0 0-.86-.79l-3.51.6a.74.74 0 0 0-.62.7l-.36 11.6a.74.74 0 0 0 .87.75l2.87-.51a.74.74 0 0 0 .61-.67l1-11.68m26.1 46.81a.77.77 0 0 0 .87.73l2.79-.39a.77.77 0 0 0 .66-.76l.07-17.75a.77.77 0 0 0-.86-.77l-3.72.44a.77.77 0 0 0-.68.8l.87 17.7m57.73-.23a1.02 1.02 0 0 0 1.21.96l2.22-.43a1.02 1.02 0 0 0 .82-.99l.26-17.19a1.02 1.02 0 0 0-1.14-1.03l-3.28.41a1.02 1.02 0 0 0-.9 1.06l.81 17.21M25.11 111.83a.82.82 0 0 0-.82-.83H20.8a.82.82 0 0 0-.82.85l.66 15.72a.82.82 0 0 0 .95.78l2.56-.39a.82.82 0 0 0 .69-.8l.27-15.33m22.08 12.03l.08-5.84q0-.68.66-.48 2.96.96 3.58-1.85a.56.55-83.5 0 0-.53-.67l-2.48-.04a.43.43 0 0 1-.42-.48l.26-1.94q.08-.6-.53-.63l-3.97-.21a.75.74-3.4 0 0-.78.87q.34 1.97-1.44 1.98-.49.01-.61.49-.43 1.79 1.27 2.3.54.16.42.71c-1 4.93.01 9.61 6.06 9.24q1.88-.12 2.65-2.71a1.69 1.68-70.9 0 0-.98-2.04l-1.1-.44q-1.25-.51-1.12.84.16 1.58-.47 1.52-.55-.06-.55-.62m70.88-9.56l.49-1.53a.62.62 0 0 0-.54-.81l-3.99-.31a.6.6 0 0 0-.64.51l-.33 2.09q-.07.48-.55.49l-1.03.03q-.49.01-.49.51 0 1.26 1.18 1.75a.66.65 13 0 1 .4.63c-.19 4.14-.42 9.15 4.79 9.78 2.68.33 4.69-1.69 4.1-4.33a1.45 1.45 0 0 0-2.7-.37l-.53 1.01q-.14.27-.46.28-.14 0-.29 0a.29.28.9 0 1-.3-.3l.36-5.55q.04-.62.66-.6l2.12.09q.78.03.91-.74l.2-1.15q.13-.77-.65-.78l-2.22-.01a.53.52-80.6 0 1-.49-.69m-46.06 3.91a.44.44 0 0 1 .77-.16q1.78 2.34 4.3.65.44-.29.44-.82.01-2.07-1.32-3.69-.38-.46-.97-.37-1.81.29-3.19 1.62-.41.38-.73-.08l-.45-.65a1.06 1.05-19.1 0 0-.94-.45l-3.13.21a.69.69 0 0 0-.65.74l.87 11.81q.05.71.76.72l3.28.01q.78.01.64-.77-.78-4.41.32-8.77m70.09-2.89c-1.75-.73-3.34-1.71-5.35-.6q-.47.26-.43.81l.97 10.92a1.42 1.41 87.6 0 0 1.41 1.3h2.37q1.1-.01.9-1.09-.78-4.16.11-8.3.13-.6.69-.37.55.23.77.78a.79.79 0 0 0 .73.49l2.7-.03q.47 0 .59-.46c.43-1.85-.34-5.1-2.76-5.02q-1.31.04-1.95 1.29-.25.49-.75.28m-83.77 9.8q-.97-1.35-.5-2.96.15-.53.7-.55l4-.15a1.06 1.05 16.5 0 0 .82-.44c1.39-1.92 1.68-4.73-.47-6.28q-1.54-1.11-2.93-.81-7.02 1.54-7.15 8.06c-.13 6.91 6.85 7.72 10.83 3.67a1.14 1.13 41.5 0 0-.11-1.69q-1.08-.85-2.46-.96a.65.64 7.3 0 0-.69.53q-.2 1.2-1.25 1.76-.48.25-.79-.18m96.86-4.96c-2.35.38-8.58.2-6.66 4.58q1.33 3.04 5.28 2.36a1.06 1.05 58.9 0 1 .83.21q1.46 1.13 3.31 1.1.49-.01.71-.45c1.6-3.31 3.58-12.42-1.64-13.77-2.09-.54-7.22.31-7.95 3.04q-.11.42.29.61l3.1 1.47a.3.3 0 0 0 .42-.18q.41-1.26 1.19-2.32a.72.72 0 0 1 1.25.18q.46 1.22.43 2.51a.68.67 86 0 1-.56.66m-120.05-1.39l-.85 7.58q-.07.62.55.67l3.37.3q.49.04.63-.43c.7-2.38 2.31-12.39-2.07-12.62-.98-.05-1.92.55-2.82.99a.61.61 0 0 1-.77-.2l-.36-.5q-.36-.52-.99-.45l-3.81.41a.68.68 0 0 0-.61.72l.83 12.7a.64.64 0 0 0 .71.6l2.77-.27q.66-.07.66-.73l-.02-7.17q0-1.24 1.08-1.86l.7-.4a.67.67 0 0 1 1 .66m50.34-1.56l.25 1.22a1 1 0 0 0 .87.79q1.81.2 3.08-.97a.98.97 60.4 0 0 .27-.99q-1.09-3.72-4.97-2.74-7.28 1.84-6.25 9.74c.74 5.71 7.7 4.12 10.56 1.41a1 .99 45.6 0 0 .01-1.44l-.71-.7q-.71-.7-1.47-.04l-2.04 1.78a.94.93 62 0 1-1.52-.47q-1.07-4.05.77-7.74a.61.61 0 0 1 1.15.15m10.34 6.31l.28-8.24a.67.67 0 0 0-.55-.68q-1.41-.24-2.82.01-.54.1-.75.6c-1.58 3.63-2.02 9.17 1.55 11.68q2.13 1.5 4.78.45c4.4-1.74 5.24-7.79 4.14-11.78q-.22-.77-1-.62l-3.02.55q-.86.16-.67 1.02c.57 2.6.7 5.19-.93 7.36a.56.56 0 0 1-1.01-.35m32.89 1.02q-.38-.08-.46-.54-.74-4.35-.07-8.46.18-1.1-.93-1.02l-2.28.15q-.87.06-1.12.91c-.98 3.38-1.82 13.41 4.41 12.36 5.81-.99 7.46-7.62 5.99-12.54q-.17-.59-.78-.48l-3.22.61q-.6.11-.52.71.49 3.95-.32 7.84a.59.59 0 0 1-.7.46m-34.14 22.2a.67.67 0 0 0 .65-.52l.59-2.63a.67.67 0 0 0-.68-.82l-3.74.15a.67.67 0 0 0-.65.67l.02 2.49a.67.67 0 0 0 .67.67l3.14-.01m21.87-.04a.62.62 0 0 0 .57-.47l.65-2.63a.62.62 0 0 0-.62-.76l-3.92.08a.62.62 0 0 0-.6.61l-.03 2.71a.62.62 0 0 0 .66.63l3.29-.17m-57.42 1.13l.29-1.48q.11-.56-.46-.63l-3.84-.54a.67.66 7 0 0-.76.59q-.22 2-2.09 2.65a1.03 1.03 0 0 0-.28 1.8l1.16.86a.91.91 0 0 1 .36.88c-.73 4.43.87 10.76 6.9 8.38 2.18-.86 2.99-3.57.21-4.74a.86.86 0 0 0-1.19.86q.06.83-.47 1.42a.52.52 0 0 1-.91-.38l.33-5.64a.65.64.9 0 1 .64-.61l2.54-.01q.93-.01.86-.94l-.07-.99a.91.9-2.6 0 0-.93-.84l-1.72.04a.57.57 0 0 1-.57-.68m11.74 3.47l.27.82q.33.98 1.35.86l2.08-.25a1.06 1.05-7.3 0 0 .92-1.18q-.31-2.32-1.9-3.98-.39-.41-.96-.35-1.61.14-2.37 1.57a.54.53-52 0 1-.87.11l-.46-.52q-.34-.38-.85-.38h-3.71q-.5 0-.46.49l.98 11.98q.07.87.94.88l3.04.04q.92.01.75-.9-.9-4.63.41-9.17a.44.44 0 0 1 .84-.02m11.76 2.55c-1.91.4-4.23-.15-5.7 1.41-1.48 1.57-1.33 4.24.82 5.17 1.99.86 4.44.39 6.82 1.57a1.28 1.28 0 0 0 1.77-.68q1.82-4.62 1.41-9.32c-.55-6.18-7.14-4.89-10.57-2.58a1.25 1.24 49.2 0 0-.14 1.95q1.07.98 2.51 1.41a.98.98 0 0 0 1.24-.73q.29-1.25 1.26-2.02.6-.49.9.22.59 1.39.37 2.87-.09.61-.69.73m22.06-1.3l-.73 7.2q-.08.71.64.79l3.04.3a.9.89 9.9 0 0 .95-.66c.77-2.97 1.34-7.52.11-10.43-.93-2.23-3.08-2.34-4.84-1.02q-.38.29-.81.08-.51-.27-.91-.68-.38-.42-.95-.39l-3.11.14a1.08 1.08 0 0 0-1.03 1.15l.87 12.74a.41.41 0 0 0 .46.38l2.98-.36q.48-.06.5-.54l.32-7.85q.04-1.18 1.15-1.57l.32-.1q1.16-.41 1.04.82m19.78-3.58l-.17-.65a.74.73-4.5 0 0-.64-.54q-2.18-.22-4.2.51a.92.91 78.4 0 0-.61.93l.82 12.33a.66.66 0 0 0 .74.61l2.47-.33q.97-.12.97-1.1l.01-6.7a2.36 2.35-17 0 1 1.04-1.95l.64-.43a.64.64 0 0 1 1 .6l-.91 7.47q-.1.79.7.85l3.29.24q.49.04.62-.43c.73-2.65 1.7-8.64-.03-11.09-1.3-1.86-3.49-1.25-4.99-.07q-.56.44-.75-.25m15.74 12.85l-.71 2.23a.6.6 0 0 1-.86.34q-.99-.54-.77-1.64.13-.63-.5-.76-2.8-.56-3.92 2.04-.25.58.11 1.09.83 1.14 2.83 1.66c10.49 2.69 8.89-11.17 7.96-16.82q-.19-1.12-1.1-1.39c-10.4-3.08-15.53 11.14-3.53 12.5q.7.08.49.75M95.09 149.5a1.15 1.15 0 0 0-1.23-1.27l-2.99.21a1.15 1.15 0 0 0-1.07 1.14l-.08 10.73a1.15 1.15 0 0 0 1.34 1.14l1.95-.33a1.15 1.15 0 0 0 .95-1.02l1.13-10.6m16.52 11.34a.73.73 0 0 0 .86.72l2.66-.46a.73.73 0 0 0 .6-.65l1.15-11.42a.73.73 0 0 0-.78-.81l-3.81.29a.73.73 0 0 0-.68.73v11.6"/><path vector-effect="non-scaling-stroke" d="M94.477 91.294a3.82 1.32 93.2 0 0 1.531-3.74 3.82 1.32 93.2 0 0-1.105-3.888 3.82 1.32 93.2 0 0-1.531 3.74 3.82 1.32 93.2 0 0 1.105 3.888m26.447-5.864a1.37.97 133.1 0 0 1.644-.338 1.37.97 133.1 0 0 .228-1.663 1.37.97 133.1 0 0-1.644.338 1.37.97 133.1 0 0-.228 1.663M58.65 119.369a1.52.91 107.6 0 0 1.327-1.174 1.52.91 107.6 0 0-.408-1.724 1.52.91 107.6 0 0-1.327 1.174 1.52.91 107.6 0 0 .408 1.724m95.3 3.581q-1.11 1.51.51 2.32a.69.68 14.7 0 0 1-.58l.05-1.19a.87.86-25.6 0 0-1.56-.55m-70.786 33.748a1.38 1.12-34 0 0-1.77-.157 1.38 1.12-34 0 0-.518 1.7 1.38 1.12-34 0 0 1.77.157 1.38 1.12-34 0 0 .518-1.7m57.316 1.252l-.64-7.03a.17.17 0 0 0-.18-.15h-.06a2.58 2.25 84.8 0 0-2.01 2.78l.21 2.23a2.58 2.25 84.8 0 0 2.47 2.36h.06a.17.17 0 0 0 .15-.19"/></g><path vector-effect="non-scaling-stroke" d="M51.43 211.07q-.62-.3-1.02-.86a.96.96 0 0 0-1.49-.09q-.43.46-.99.71-.62.29-.66-.4l-.8-15.17q-.03-.71-.69-.45-8.11 3.12-16.82 2.36a.44.44 0 0 1-.28-.74l.99-1.01q.09-.09.09-.17-.01-.12-.01-.25a.21.21 0 0 0-.25-.2q-5.3 1.05-9.96-1.66a.42.42 0 0 0-.63.36q-.1 7.78-5.01 13.75a.37.36 53 0 1-.62-.09l-.9-2.11q-.27-.65-.79-.17l-1.25 1.19a.68.67 42.4 0 0 .05 1.03l1.49 1.15q.9.69-.23.63l-1.05-.06a.39.38 7.9 0 0-.4.3l-.07.32a.37.36 20.1 0 0 .19.4l2.94 1.52q.39.2.52.62 1.49 4.68 4.5 8.48" class="B"/><path vector-effect="non-scaling-stroke" d="M18.28 220.46q-1.97-1.42-3.39-4.13" class="E"/><path vector-effect="non-scaling-stroke" d="M188.74 217.53L184.1 223q-.31.38-.38.86c-.67 4.59-4.31 8.82-9.09 8.73-6.19-.11-6.96-7.22-11.76-6.95a1.59 1.57 10.2 0 0-1.37.94l-5.82 13.4q-.39.92.58 1.13 4.6.99 8.24-1.15c3.06-1.8 6.76-2.23 9.76-1.87q7.09.86 14.26.61a.76.76 0 0 0 .59-.31q.34-.46.79-.16.41.28.91.23l5.2-.49" class="B"/><path vector-effect="non-scaling-stroke" d="M196.01 237.97q-9.02 1.79-17.27 1.24c-7.31-.5-12.94-1.84-18.39 4.43" class="C"/><path vector-effect="non-scaling-stroke" d="M160.35 243.64l.34-1.35a.44.44 0 0 0-.43-.55h-4.5q-.5 0-.68.47c-1.46 3.6-2.42 8.82-7.66 7.76-3.58-.73-5.47-3.71-4.34-7.29a.39.39 0 0 0-.37-.51l-17.92-.24" class="J"/><path vector-effect="non-scaling-stroke" d="M124.79 241.93q-.15.06-.39 0-.23-.07-.37-.27l-9.48-14.2q-.33-.5.18-.79 4.49-2.51 6.07-7.4.89-2.77-1.16-.82-.45.43-1.38 1.57-.76.94-.43-.22.42-1.43 1.23-2.67.39-.6-.11-1.11l-.25-.26q-.47-.48-.79.12-1.22 2.3-3.33 3.86-.09.06-.19.03-.13-.04-.18-.2-.03-.1.04-.17c1.15-1.37 3.47-2.91 2.94-4.97a.6.6 0 0 0-1.1-.16q-3.49 5.95-9.37 9.52a.74.74 0 0 0-.31.9q4.14 11.13 8.85 22.19 1.18 2.76 2.72 3.58c4.17 2.19 10.29-2.67 7.03-7.37" class="C"/><path vector-effect="non-scaling-stroke" d="M125.01 243.09c4.92-.21-.78 10.83-6.84 8.35-2.84-1.16-4.41-5.87-5.4-8.63q-.19-.53-.74-.54l-21.01-.45a1.03 1.02-79.4 0 0-.99.69c-1.53 4.38-3.47 10.33-9.52 8.33-3.5-1.16-5.05-4.38-3.58-7.8a.54.53 13 0 0-.47-.74l-12.94-.7a.66.66 0 0 0-.61.99c2.12 3.7.28 7.4-3.54 8.67-5.35 1.77-7.41-4.24-8.6-8.45q-.14-.49-.64-.54l-6.53-.67q-1.09-.11-.61.88 1.47 3.02-.23 3.74c-2.26.95-2.03 3.89-4.62 3.68" class="J"/><path vector-effect="non-scaling-stroke" d="M38.14 249.9q1.98-1.05 2.73-3.01a.91.9-89.2 0 1 .55-.54l1.03-.37a1.47 1.47 0 0 0 .76-2.14q-1.03-1.73-3.01-3.04" class="B"/><path vector-effect="non-scaling-stroke" d="M40.2 240.8q.68-.16 1.07.25 4.06.22 8.45.4.6.03.38-.54l-6.19-15.87" class="E"/><path vector-effect="non-scaling-stroke" d="M43.91 225.04q.27-.15.55.47 4.41 9.93 8.02 20.17 1.06 2.99 1.73 3.6c3.88 3.49 10.5.42 8.56-5.12" class="B"/><path vector-effect="non-scaling-stroke" d="M62.77 244.16l-.28-.62" class="C"/><path vector-effect="non-scaling-stroke" d="M62.49 243.54q-4.7-10.06-9.71-19.86c-1.51-2.95-5.71-9.2-9.78-7.7q-.57.21-.52.81.04.54.58.54 1.23 0 1.52.6.42.88-.53.65-4.3-1.06-6.19 2.8-.8 1.64.87.9 1.26-.56 3.15-1.36.93-.4 1.45.07.47.44-.18.45c-2.68.05-2.99 1.07-5.23 1.89q-.42.15-.51-.29c-.52-2.69 1.39-3.75 2.43-5.82" class="B"/><path vector-effect="non-scaling-stroke" d="M39.84 217.22l2.35-1.74" class="C"/><path vector-effect="non-scaling-stroke" d="M42.19 215.48c3.32-.59 6.77 1.04 9.25-2.51" class="B"/><path vector-effect="non-scaling-stroke" d="M79.2 224.99q2.26.63 4.23.02.51-.16.27-.64c-1.59-3.06-4.74-6.99.1-9.3a.53.53 0 0 0 .06-.92c-2.95-1.96-4.08-5.36-.72-7.7q.47-.33.87.08l1.22 1.25a.42.42 0 0 0 .69-.12q2.74-6.31 1.67-13.16-.08-.49.32-.79c2.67-1.97 8.68-5.07 10.85-1.15 1.42 2.57 2.03 4.99 5.25 5.92q4.04 1.16 8.23 1.44c3.86.25 5.08 2.89 6.43 6.05q.2.46.68.59c2.06.59 3 1.74 1.53 3.98" class="E"/><path vector-effect="non-scaling-stroke" d="M120.88 210.54q-.31.56-1.16.28-.47-.15-.18-.55l1.12-1.52q.35-.49-.15-.82-.34-.22-.75-.21-.54.02-.73.53-.12.31-.35.57-.54.6-.67-.19c-.65-3.91-1.22-7.5-5.51-8.04-4.61-.59-9.96-.26-12.8-4.71q-.72-1.13-1.43-2.29c-2.34-3.86-6.92-1.79-9.12.77a1.21 1.18-28.2 0 0-.28.89q.66 7.31-2.97 13.62-.35.61-.83.1l-1.37-1.45a.76.75 35.3 0 0-1.24.21q-1.83 4.13 2.17 5.91a.82.82 0 0 0 .65.02l.96-.38q.6-.23.93.31c4.45 7.33 13.74 16.09 21.93 7.77q4.26-4.33 6.39-7.68a1.07 1.05 10.6 0 1 .73-.49c1.83-.33 4.39.51 5.02-1.93" class="C"/><path vector-effect="non-scaling-stroke" d="M121.24 211.26q.15-.04.28.04.31.18.11.48-1 1.5-2.67 2.12a.39.38-38.7 0 0-.08.68q1.2.79 2.02 2a.6.59-55.3 0 0 1.07-.2q2.74-11.24-1.16-21.97-4.07-11.18-16.04-11.35c-7.94-.11-11.36 3.53-17.73 6.16q-3.6 1.49-4.94 3.05c-4.43 5.13-3.75 16.59-2.58 22.79a1.38 1.36-35 0 1-.17.94q-2.75 4.53-.15 8.99" class="E"/><path vector-effect="non-scaling-stroke" d="M162.99 214.09l2.4 1.4" class="B"/><path vector-effect="non-scaling-stroke" d="M165.39 215.49c4.93 3.78 2.68 5.66 3.59 10.52 1.12 6.01 7.99 3.59 11.44.71" class="C"/><path vector-effect="non-scaling-stroke" d="M180.42 226.72q-3.21 5.41-8.36 3.44-1.26-.49-.48.62.61.86 2.17 1.09c4.34.65 8.14-3.57 9.25-7.37q.16-.56-.4-.42-1.26.32-2.33 1.34" class="B"/><path vector-effect="non-scaling-stroke" d="M180.27 225.42q-4.77 1.56-9.8 1.36-.04 0-.04-.04v-.25a.26.25-90 0 1 .25-.26q3.98-.1 6.97-.85c7.02-1.78 8.93-6.44 11.96-12.26a1.72 1.72 0 0 1 .66-.69q1.16-.65 2.34-1.23.26-.13.35-.31.17-.35-.01-.7a.6.59-11.2 0 0-.47-.31q-.7-.05-1.14-.51a.52.52 0 0 1 .4-.88l1.04.03a.46.45-8.4 0 0 .45-.6q-.41-1.27-1.5-2.06a.61.6-58.7 0 0-.89.22l-.94 1.83q-.38.75-.88.07-4.37-5.96-4.8-13.36-.04-.75-.69-.38-4.56 2.62-9.75 1.45a.4.4 0 0 0-.4.65q.43.51.61 1.16.16.59-.46.62-8.46.39-16.34-2.68a.6.59 11.6 0 0-.81.53l-.56 14.37q-.02.67-.66.47l-1.32-.41q-.48-.15-.83.22c-2.53 2.72-.53 6.38 3.12 6.07q.47-.04.84-.34 2.59-2.09 6.02-2.26" class="C"/><path vector-effect="non-scaling-stroke" d="M180.27 225.42l.15 1.3m-15.03-11.23q.74-.96.95-1.02 2.37-.6.23-1.78-.93-.51-2.19-.85-.43-.11-.73-.01-.36.12-.59.37-.37.39-.04.81.7.86-.03 1.08" class="D"/><path vector-effect="non-scaling-stroke" d="M84.53 220.42q-.89-1.2-1.22-1.9-1.05-2.17-1.38.22c-.37 2.8 4.15 6.65 6.15 8.07a.5.49-55.8 0 1 .12.67q-4.71 6.99-9.62 13.84c-6.15 8.59 6.33 12.03 8.55 6.31q4.38-11.22 8.97-22.33a.39.39 0 0 1 .59-.16l.23.18q.04.03.02.08-.31.93-.6 1.87a.76.75-63.5 0 0 .28.85q4.69 3.32 9.52.27.43-.27.37-.78-.15-1.21-.79-2.22-.31-.49-.87-.38c-7.99 1.57-14.39-4.18-18.19-10.81a.54.54 0 0 0-.84-.12l-.3.28a.74.73-41.2 0 0-.07 1l3.47 4.38q.11.14-.03.26l-.22.18a.11.11 0 0 1-.16-.01l-3.28-3.88q-.51-.6-1.22-.26l-.34.16a.59.58 59.4 0 0-.22.87q1.03 1.41 1.48 3.17.3 1.14-.4.19m80-.06q1.12-.14 2.71.98a.37.37 0 0 0 .58-.37q-.79-4.57-5.57-3.93a.33.33 0 0 1-.29-.55q.53-.58 1.32-.79.16-.04.16-.2 0-.12 0-.25.01-.3-.29-.3-3.89-.04-6.41 3.32c-4.33 5.77-6.78 10.88-9.76 16.86-1.61 3.21-5.08 7.61-3.1 11.41 1.69 3.24 7.3 4.37 8.81.21q4.46-12.31 8.14-20.41c1.33-2.91 4.61-.94 6.56-.12a.48.48 0 0 0 .66-.38q.4-3.3-3.59-5.02-.82-.36.07-.46" class="C"/><path vector-effect="non-scaling-stroke" d="M106.59 230.38c-3.82 2.09-6.86 2.71-10.89.64q-.18-.1-.28.08l-.15.26q-.04.07.03.11c3.11 1.94 8.68 2.55 11.52-.46q.06-.06.06-.13v-.33q0-.32-.29-.17" class="G"/><path stroke="#e9be7f" vector-effect="non-scaling-stroke" d="M121.24 211.26q-.38-.36-.36-.72"/><path vector-effect="non-scaling-stroke" d="M89.75 191c.4-.48.93-.87 1.27-1.39q.33-.51-.28-.45-1.45.14-2.18 1.37a.48.48 0 0 0 .36.72q.56.07.83-.25" class="E"/><path vector-effect="non-scaling-stroke" d="M106.45 202.2c1.53.16 2.61.53 3.95 1.36q.28.18.32-.15l.08-.66a.33.32 18.6 0 0-.17-.33q-1.96-1.09-4.05-.77-.12.01-.19.08-.11.12-.13.24-.01.2.19.23m-12.44.93q.66-.11 1.18-.5a.29.29 0 0 0-.18-.52q-2.09.05-3.67 1.45a.38.38 0 0 0 .44.62l1.21-.69q.48-.27 1.02-.36m13.469 5.072a1.85 1.07 95.3 0 0 1.236-1.743 1.85 1.07 95.3 0 0-.895-1.941 1.85 1.07 95.3 0 0-1.236 1.743 1.85 1.07 95.3 0 0 .895 1.941m-12.942.22a1.71 1.02 108.5 0 0 1.51-1.298 1.71 1.02 108.5 0 0-.425-1.945 1.71 1.02 108.5 0 0-1.51 1.298 1.71 1.02 108.5 0 0 .425 1.945m7.365 4.057a1.85.56 102.1 0 0 .935-1.692 1.85.56 102.1 0 0-.16-1.926 1.85.56 102.1 0 0-.935 1.692 1.85.56 102.1 0 0 .16 1.926" class="C"/><path vector-effect="non-scaling-stroke" d="M95.27 212.21a1.4 1.4 0 0 0-.7-2q-2-.79-4.05-.24a.99.98-14 0 0-.71 1.17c.59 2.63 4.16 3.34 5.46 1.07" class="D"/><path vector-effect="non-scaling-stroke" d="M107.32 213.02q-4.96 6.83-12.73 2.9-.06-.03-.1.02l-.2.22q-.24.25.07.41 8.36 4.19 13.86-3.03" class="C"/><path vector-effect="non-scaling-stroke" d="M108.22 213.54q1.22-.86 1.95-1 3.07-.63.44-2.32-1.82-1.17-4.09.05-.44.24-.42.75.06 1.1 1.22 2" class="D"/><path vector-effect="non-scaling-stroke" d="M108.22 213.54q-.24-.47-.9-.52" class="B"/><path vector-effect="non-scaling-stroke" d="M84.09 210.89l-.5-.74a.26.26 0 0 0-.47.12q-.11 1.49 1.31 1.69.46.06.34-.4-.07-.28-.34-.39-.21-.09-.34-.28m19.04 8.25q-1-.06-1.43.79a.28.28 0 0 0 .25.41q.96-.01 1.39-.83a.26.25 15.9 0 0-.21-.37" class="C"/><path vector-effect="non-scaling-stroke" d="M42.19 215.48q-1.89-2.77-5.42-2.1a1.25 1.25 0 0 0-.81 1.92q1.14 1.71 3.88 1.92m22.65 26.32c-2.73.64-4.2-.95-6.8 1.62a1.83 1.79-18.6 0 0-.51 1q-.36 2.39 1.83 1.74" class="D"/><path vector-effect="non-scaling-stroke" d="M57.01 247.9q2.76-.24 4.79-2.74" class="B"/><path vector-effect="non-scaling-stroke" d="M61.8 245.16l.97-1" class="D"/><path vector-effect="non-scaling-stroke" d="M43.91 225.04q.05-.32-.11-.48-.38-.37-.76 0c-1.56 1.52-1.57 3.34-4.48 2.43" class="B"/><path vector-effect="non-scaling-stroke" d="M38.56 226.99l-1.16-.62" class="F"/><path vector-effect="non-scaling-stroke" d="M37.4 226.37q.23-.46.24-.98.01-.84-.37-.1l-.22.42" class="B"/><path vector-effect="non-scaling-stroke" d="M37.05 225.71q.12-.4.08-.66-.11-.62-.65-.31-.68.39-1.05.96" class="F"/><g class="B"><path vector-effect="non-scaling-stroke" d="M35.43 225.7q-.76-.66-1.39.64a1.79 1.77-5.6 0 1-.54.65q-5.77 4.26-9.24-.97-1.19-1.8.74-.85 3.59 1.75 7.54.76.11-.03.1-.14l-.03-.26q0-.04-.04-.04-8.3.56-14.29-5.03m8.205-16.404a2.13.4 8.8 0 0-2.044-.721 2.13.4 8.8 0 0-2.166.069 2.13.4 8.8 0 0 2.044.721 2.13.4 8.8 0 0 2.166-.069m14.459 1.003a2.5.53 6.4 0 0-2.425-.805 2.5.53 6.4 0 0-2.544.248 2.5.53 6.4 0 0 2.425.805 2.5.53 6.4 0 0 2.544-.248"/><path vector-effect="non-scaling-stroke" d="M25.81 208.28l1.42 1.21a.21.21 0 0 0 .3-.29q-1.97-2.69-4.75-.53-.1.07-.04.18l.14.23q.02.03.04.01.87-.59 1.86-.98.56-.22 1.03.17m10.25 1.52c1.18-.41 2.68-.52 3.82.29q1 .72.3-.28-2.09-2.96-4.48-.58-1.06 1.05.36.57m-4.89 2.24l-.35.98a.33.33 0 0 0 .6.26q.52-1.06.37-2.29-.17-1.33-.52-.07-.1.37-.07.84a.61.51 56 0 1-.03.28"/></g><path vector-effect="non-scaling-stroke" d="M23.98 214a1.07 1.07 0 0 0-.02-1.92l-1.85-.87a1.07 1.07 0 0 0-.65-.09l-1.97.37a1.07 1.07 0 0 0-.61 1.76l1.47 1.67a1.07 1.07 0 0 0 1.28.25l2.35-1.17" class="D"/><path vector-effect="non-scaling-stroke" d="M48.66 213.33q1.22-.25 1.15-1.41a.34.34 0 0 0-.62-.17l-.79 1.19a.25.25 0 0 0 .26.39m-25.76 3.54c2.25 2.71 5.85 3.42 9.17 2.69q.16-.04.13-.19v-.01q-.04-.2-.2-.18-5.17.69-8.87-2.81-.01-.01-.03 0l-.18.17q-.16.16-.02.33m4.88 3.94q-.28-.09-.15.18.59 1.25 1.96.8a.23.23 0 0 0-.01-.44l-1.8-.54" class="B"/><path vector-effect="non-scaling-stroke" d="M178.8 202.33q1.37.46.38-.59-1.18-1.24-2.71-.55-1.77.8.17.8 1.13 0 2.16.34m-17.15 2.42l4.04-1.35a.17.17 0 0 0 .11-.21l-.02-.07a2.17 1.1-18.4 0 0-2.41-.36l-.24.09a2.17 1.1-18.4 0 0-1.72 1.72l.03.07a.17.17 0 0 0 .21.11m15.74 3.798a1.67 1.27 93.1 0 0 1.358-1.599 1.67 1.27 93.1 0 0-1.178-1.736 1.67 1.27 93.1 0 0-1.358 1.599 1.67 1.27 93.1 0 0 1.178 1.736m-12.609 1.312a1.66 1.13 88.6 0 0 1.089-1.687 1.66 1.13 88.6 0 0-1.17-1.632 1.66 1.13 88.6 0 0-1.089 1.687 1.66 1.13 88.6 0 0 1.17 1.632M179.61 215q-3.87 3.88-9.5 4.02-.23 0-.22.23l.02.28q.02.28.3.26 6.86-.45 11.05-5.66" class="C"/><path vector-effect="non-scaling-stroke" d="M181.26 214.13q1.53-1.54.77-3.1-.28-.58-.92-.56l-3.29.15a1.18 1.18 0 0 0-.75 2.05l2.54 2.33" class="D"/><path vector-effect="non-scaling-stroke" d="M181.26 214.13q-.86-.04-1.65.87" class="B"/><path vector-effect="non-scaling-stroke" d="M170.88 214.3q.42.81.69-.06.35-1.15.06-3.1a.36.36 0 0 0-.67-.13q-.93 1.63-.08 3.29m-16.95-.91q-.08-.32-.31-.69-.38-.6-.44.1l-.15 1.91q-.03.3.26.24l.68-.12q.22-.04.19-.27-.11-.68-.23-1.17m23.32 6.65q.69-.51-.17-.52-1.05 0-2.3.85a.3.3 0 0 0 .21.55q1.24-.13 2.26-.88" class="C"/><path vector-effect="non-scaling-stroke" d="M80.04 243.97q-.14.16-.27.33" class="D"/><path vector-effect="non-scaling-stroke" d="M79.77 244.3q-.56-.15-.93.02-.48.21-.36.73c.61 2.75 3.69 4.14 6.22 3.03q.25-.11.1-.34-.21-.33-.3-.15" class="C"/><path vector-effect="non-scaling-stroke" d="M84.5 247.59q-.49-.57-.21-.96" class="D"/><path vector-effect="non-scaling-stroke" d="M84.29 246.63q-2.07-3.3-4.25-2.66" class="C"/><path vector-effect="non-scaling-stroke" d="M84.29 246.63q-2.74-.64-4.25-2.66m-.27.33q-.43 1.23.73 2.14 2.23 1.72 4 1.15" class="B"/><path vector-effect="non-scaling-stroke" d="M124.79 241.93l.22 1.16" class="K"/><path vector-effect="non-scaling-stroke" d="M121.51 248.65q2.14-.14 2.26-2.25" class="C"/><path vector-effect="non-scaling-stroke" d="M123.77 246.4q.8-1.4-.19-2.26c-1.78-1.53-4.87 1.25-5.74 2.76a.91.88-46.4 0 0 .01.92q1.08 1.78 3.66.83" class="D"/><path vector-effect="non-scaling-stroke" d="M123.77 246.4q-1.42.93-2.26 2.25" class="B"/><path vector-effect="non-scaling-stroke" d="M150.24 246.02q-.75-3.69-3.29-2.04" class="D"/><path vector-effect="non-scaling-stroke" d="M146.95 243.98q-.66-.9-1.61-.92a.25.25 0 0 0-.24.18q-.04.13-.08.26a.6.6 0 0 0 .28.71q1.91 1.05 3.22 2.82.33.45.88.44.89-.02.84-1.45" class="C"/><path vector-effect="non-scaling-stroke" d="M146.95 243.98q.78 2.06 3.29 2.04" class="B"/><path vector-effect="non-scaling-stroke" d="M18.28 220.46q2.88 3.24 5.82 6.39 2.08 2.23 4.1 2.53 4.23.64 7.23-3.68m1.62.01c-2.56 5.45-8.96 8.24-13.68 3.7-1.18-1.13-1.88-2.77-2.61-4.28q-.04-.09-.13-.08-.17 0-.24.08-.06.08-.01.26c2.64 9.64 12.83 8.45 17.02.98m1.16.62q.03.44.36.68.25.18.7.13 2.35-.26 3.46-2.33.17-.32.53-.38l.3-.05" class="E"/><path vector-effect="non-scaling-stroke" d="M40.2 240.8q.76-.24-.16-.28" class="F"/><path vector-effect="non-scaling-stroke" d="M40.04 240.52q-3.29-3.53-8.04-3.36-14.94.54-18.92.54" class="E"/><path vector-effect="non-scaling-stroke" d="M13.08 237.7q-.03-.28-.52-.52" class="F"/><path vector-effect="non-scaling-stroke" d="M12.56 237.18l2.93-7.69q.01-.02-.01-.02l-.24-.08q-.22-.07-.31.16L12 237.28" class="E"/><path vector-effect="non-scaling-stroke" d="M12 237.28q-.75-.01-.95.13" class="F"/><path vector-effect="non-scaling-stroke" d="M11.05 237.41q-5.61-2.45-9.19-.14" class="E"/><path vector-effect="non-scaling-stroke" d="M1.86 237.27q-1.13 1.3-1.86.89" class="F"/><path vector-effect="non-scaling-stroke" d="M0 231.78l5.74-8.47" class="E"/><path vector-effect="non-scaling-stroke" d="M188.98 217.68l7.54 4.85" class="B"/><path vector-effect="non-scaling-stroke" d="M198 237.09l-1.99.88" class="D"/><path vector-effect="non-scaling-stroke" d="M194.532 229.545a.79.36 46.7 0 0-.28-.822.79.36 46.7 0 0-.804-.328.79.36 46.7 0 0 .28.822.79.36 46.7 0 0 .804.328m-5.312 7.425q.05-3.66-.98-6.59-.02-.05-.03-.06-.14-.02-.27-.04-.17-.04-.14.14l1.1 6.57q.29 1.72.32-.02m-176.66.21q-.08.66-.56.1m-.95.13c-2.21-.25-4.78-1.05-6.9-.51q-1.25.32-2.29.37m11.22.43q.97.48 2.67.52 8.59.21 14.27-.26 5.55-.46 10.02 2.56" class="B"/><path stroke="#dab797" vector-effect="non-scaling-stroke" d="M38.14 249.9q.22 1.9-1.65 2.64a1.97 1.96 52.7 0 1-1.9-.26l-6.87-5.17"/><path vector-effect="non-scaling-stroke" d="M27.72 247.11q-.62-1.08-1.47-1c-7.38.67-14.77 1.31-22.18 1.49" class="B"/><path vector-effect="non-scaling-stroke" d="M4.07 247.6c.56-2.57 2.01-7.94-1.22-9.01a.95.94 34.3 0 0-.87.16q-.93.72-1.98.89" class="D"/><path vector-effect="non-scaling-stroke" d="M40.547 246.088a2.26.3 46.8 0 0-1.328-1.853 2.26.3 46.8 0 0-1.766-1.442 2.26.3 46.8 0 0 1.328 1.853 2.26.3 46.8 0 0 1.766 1.442" class="B"/><path vector-effect="non-scaling-stroke" d="M198 248.29l-21.64-1.6a1.61 1.59-61.7 0 0-1.08.33l-7.24 5.61a1.3 1.29 58.2 0 1-1.96-.47l-.28-.58q-.86-1.79.79-2.89l4.12-2.74a.36.09-32.9 0 0 .24-.26l-.01-.01q-.09-.21-.31-.13c-1.95.73-4.51 2.43-5.45 4.36q-.26.53-1.19.32" class="C"/><path vector-effect="non-scaling-stroke" d="M163.99 250.23q-.45.21-.7-.45" class="K"/><path vector-effect="non-scaling-stroke" d="M163.29 249.78c-1.93-3.95.82-4.38 3.09-6.05q1.06-.79-.18-.33-2.31.84-3.76 2.81a1.38 1.38 0 0 1-2.38-.29q-.26-.6-.13-1.4" class="C"/><path vector-effect="non-scaling-stroke" d="M159.93 244.52q.05-1 .42-.88" class="K"/><path vector-effect="non-scaling-stroke" d="M4.07 247.6L0 244.99" class="C"/><g class="J"><path vector-effect="non-scaling-stroke" d="M159.93 244.52q-.76 1.97 1.15 2.79.47.2.78.61l1.43 1.86m.7.45q1.28.69 1.42 1.9a1.65 1.64-22 0 0 2.63 1.11l7.52-5.64q.66-.49 1.49-.43l20.95 1.71m0 14.03l-198-.19"/><path vector-effect="non-scaling-stroke" d="M0 246.5q2.32 1.87 4.5 1.77 5.21-.24 21-1.82.92-.09 2.22.66"/></g><path vector-effect="non-scaling-stroke" d="M61.8 245.16l-4.79 2.74m.15-2.54q.19.74 1.03.62.62-.09.14-.5-.35-.29-.81-.45-.48-.17-.36.33M198 263.7l-198-.23" class="C"/></g><g fill="#dfab6d"><path d="M38.08 0h84.06c1.41 5.95 10.36 3 14.26 2.44 5.03-.73 11.75.51 14.89 4.76 3.17 4.31.67 10.88-3.07 14-3.51 2.93-9.55 3.59-13.23 5.77-2.94 1.74-4.77 4.3-2.64 7.18 4.97 6.7 10.67 5.05 15.57-.12 1.79-1.9 3.85-4.97 6.33-5.59 8.08-2.04 4.97 9.04 8.73 12.61 3.35 3.18 9.34.59 11.82-2.51 3.2-4.02.94-11.12 4.01-13.98 2.47-2.31 7.97-1.38 9.06 2.17 1.67 5.46 3.45 12.11 10.13 12.94v183.19l-1.48-.33q-3.14-3.29-7.54-4.85.63-.03-.24-.15l1.15-3.94q.14-.47.59-.67.97-.45 1.97-.9c3.38-1.54.95-5.16-.07-7.33a1.46 1.44-52.1 0 1-.11-.92c.88-3.93 2.38-15.35-3.08-17.2-1.81-.62-3.47-.95-5.1-2.07-9.29-6.35-19.91-6.78-28.39 1.18-7.39 6.94-7.39 15.21-4.31 24.71q.16.49.06 1-1.05 5.22 4.08 5.82a.48.48 0 0 1 .34.74c-4.82 7.38-8.56 15.34-12.76 22.94q-.34.61-1.03.57-7.59-.39-15.08-.31-1.23.01-1.55-.05-2.65-.5-.03-1.45l1.4-.5a.91.9-17.1 0 0 .57-1.07q-1.82-7.39-7.62-12.25-.29-.25-.66-.13l-.59.19q-.8.27-.32-.43 4.99-7.16 5.61-15.96c.77-10.88-4.09-26.62-17.04-27.43q-9.61-.61-18.09 6.01a1.73 1.68-67.1 0 1-.83.35c-11.72 1.5-10.59 18.46-9.23 26.51q.09.49-.14.93c-1.44 2.81-2.32 7.25.72 9.12l1.15 1.03q.46.41.07.9-4.01 4.9-6.22 10.86a.52.51-61.8 0 0 .18.6l2.61 1.87q2.09 1.5-.48 1.4l-13.84-.6a.86.86 0 0 1-.75-.5c-3.74-7.96-7.74-17.49-13.65-23.8q-.39-.42.12-.69 1.67-.87 2.87-2.02.78-.74.18-1.07l-.01-1.9q.25-1.44 1.49-4.89 2.02-5.6.38-11.64c-3.31-12.1-15.07-17.98-27.18-14.7-3.69.99-6.81 3.83-10.6 5.47-6.86 2.97-6.17 11.56-4.57 17.57a1.52 1.52 0 0 1-.06.96c-1.68 4.2-3.78 5.18 1.63 7.84a1.37 1.37 0 0 1 .64.67l1.73 3.98-9.15 6.98L0 229.76V29.68c4.96.55 10.65-.81 13.32 4.77 2.38 5 2.88 10.1 3.49 15.39q.34 2.99 1.26 4.09c2.21 2.65 7.62.66 8.1-2.79.36-2.66-2.59-6.18-3.59-8.68-2.94-7.36-.93-17.05 9.04-16.58q8.57.41 13.89 4.11c3.18 2.22 8.9 6.93 12.95 6.12 7.37-1.48 4.06-10.57-1.84-11.53-8.07-1.31-17.45-1.82-20.03-8.65-2.39-6.3-.27-10.4 1.49-15.93zm8.79 54.19a5.91 5.91 0 1 0-11.82 0 5.91 5.91 0 1 0 11.82 0zm131.78 9.86a7.33 7.33 0 0 0-14.66 0 7.33 7.33 0 0 0 14.66 0zM64.96 80.99l.35-4.17q.09-1.09-1-1.08l-3.6.03q-1.02 0-1 1.02l.33 15.67q.02.91.92.81l2.59-.26q.95-.1.95-1.06v-6.23q0-1.11 1.03-1.51l.51-.2q1.16-.45 1.01.79l-1.08 8.71q-.07.62.54.73l2.71.45q.45.08.62-.34C71.09 91.36 74.07 81 68.31 81c-.85.01-1.87.49-2.87.51q-.53.01-.48-.52zm14.01-1.49a.42.42 0 0 0 .41-.33l.66-2.91a.42.42 0 0 0-.42-.51l-4.2.01a.42.42 0 0 0-.42.42v2.91a.42.42 0 0 0 .42.42l3.55-.01zm3.07 15.15a.62.62 0 0 0 .61.59l3.09.01a.62.62 0 0 0 .62-.61l.36-18.24a.62.62 0 0 0-.71-.62l-4.14.61a.62.62 0 0 0-.53.64l.7 17.62zm14.44-1.17l.24 1a.66.66 0 0 0 .75.5l2.41-.37a.63.63 0 0 0 .53-.61l.35-16.48q.02-1.01-.99-1.01l-3.27-.01q-1 0-1 1v2.51a.76.75 79.1 0 1-.47.7c-5.4 2.24-8.03 5.04-5.96 10.76q1.2 3.32 4.15 3.23.43-.01.83-.2.94-.47 1.67-1.23a.45.45 0 0 1 .76.21zM53.44 81.06l.1 1.63q.06.85.9.71l2.89-.5a.98.97-9.9 0 0 .79-1.12q-.86-5.02-5.62-4.47c-9.92 1.15-11.35 18.52-.73 17.57q5.27-.47 6.06-5.58.09-.64-.54-.74l-2.03-.34q-.65-.11-.84.52l-.44 1.45q-1.49 4.93-3.5.19-1.79-4.22.49-9.65.17-.41.59-.52.65-.19 1.33.09.51.2.55.76zm56.43 3.04q.45.3.55.87.15.9 1.06.79l2.23-.25q1-.12 1.03-1.12.09-3.19-2.73-4.3-.58-.23-1.07.14l-1.15.88a1.12 1.11-53.4 0 1-1.04.16q-2.23-.8-4.56-.38a.73.72-3.1 0 0-.6.66q-.49 5.92.83 11.69.23 1.04 1.3 1.02l2.23-.03q.89-.02.77-.9-.62-4.52.41-8.94a.48.48 0 0 1 .74-.29zm10.71 6.93l-.1-2.44q-.02-.52.5-.55 1.64-.09 3.27-.1c4.91-.04 3.35-10.07-3.35-7.28-4.52 1.89-7.08 7.38-4.22 11.89 2.37 3.72 8 1.59 10.23-1.02a.56.56 0 0 0-.15-.85l-2.19-1.27a.7.7 0 0 0-.95.23q-.74 1.17-1.89 1.97a.74.73 71.7 0 1-1.15-.58zm26.97-7.27q.32-.79 1.19-.74.46.02.69.43l.83 1.49a.78.78 0 0 0 1 .33l2.36-1.05a.95.95 0 0 0 .27-1.56c-7.6-7.22-16.23 3.49-5.72 7.52q1.38.53.43 1.66-.6.72-1.46.59a1.01 1.01 0 0 1-.81-.71q-.4-1.36-1.7-1.71a1.43 1.43 0 0 0-1.66 2c1.77 3.73 7.34 3.76 9.77.82 3.17-3.82-2.6-6.61-4.93-8.21q-.47-.33-.26-.86zm-11.03 1.79l-.82 6.54a1.06 1.05-82.2 0 0 .89 1.18l2.87.44q.47.07.63-.38 1.66-4.58.74-9.3c-.59-3-2.94-4.24-5.58-2.37q-.43.31-.88.02-.28-.19-.39-.54-.17-.55-.75-.5l-3.83.3q-.61.04-.57.66l.86 12.61q.05.72.77.66l2.71-.22q.53-.05.54-.57l.17-8.19q.02-1.21 1.23-1.31l.43-.04a.91.9 1 0 1 .98 1.01zM79.3 81.57a.74.74 0 0 0-.86-.79l-3.51.6a.74.74 0 0 0-.62.7l-.36 11.6a.74.74 0 0 0 .87.75l2.87-.51a.74.74 0 0 0 .61-.67l1-11.68zm26.1 46.81a.77.77 0 0 0 .87.73l2.79-.39a.77.77 0 0 0 .66-.76l.07-17.75a.77.77 0 0 0-.86-.77l-3.72.44a.77.77 0 0 0-.68.8l.87 17.7zm57.73-.23a1.02 1.02 0 0 0 1.21.96l2.22-.43a1.02 1.02 0 0 0 .82-.99l.26-17.19a1.02 1.02 0 0 0-1.14-1.03l-3.28.41a1.02 1.02 0 0 0-.9 1.06l.81 17.21zM25.11 111.83a.82.82 0 0 0-.82-.83H20.8a.82.82 0 0 0-.82.85l.66 15.72a.82.82 0 0 0 .95.78l2.56-.39a.82.82 0 0 0 .69-.8l.27-15.33zm22.08 12.03l.08-5.84q0-.68.66-.48 2.96.96 3.58-1.85a.56.55-83.5 0 0-.53-.67l-2.48-.04a.43.43 0 0 1-.42-.48l.26-1.94q.08-.6-.53-.63l-3.97-.21a.75.74-3.4 0 0-.78.87q.34 1.97-1.44 1.98-.49.01-.61.49-.43 1.79 1.27 2.3.54.16.42.71c-1 4.93.01 9.61 6.06 9.24q1.88-.12 2.65-2.71a1.69 1.68-70.9 0 0-.98-2.04l-1.1-.44q-1.25-.51-1.12.84.16 1.58-.47 1.52-.55-.06-.55-.62zm70.88-9.56l.49-1.53a.62.62 0 0 0-.54-.81l-3.99-.31a.6.6 0 0 0-.64.51l-.33 2.09q-.07.48-.55.49l-1.03.03q-.49.01-.49.51 0 1.26 1.18 1.75a.66.65 13 0 1 .4.63c-.19 4.14-.42 9.15 4.79 9.78 2.68.33 4.69-1.69 4.1-4.33a1.45 1.45 0 0 0-2.7-.37l-.53 1.01q-.14.27-.46.28-.14 0-.29 0a.29.28.9 0 1-.3-.3l.36-5.55q.04-.62.66-.6l2.12.09q.78.03.91-.74l.2-1.15q.13-.77-.65-.78l-2.22-.01a.53.52-80.6 0 1-.49-.69zm-46.06 3.91a.44.44 0 0 1 .77-.16q1.78 2.34 4.3.65.44-.29.44-.82.01-2.07-1.32-3.69-.38-.46-.97-.37-1.81.29-3.19 1.62-.41.38-.73-.08l-.45-.65a1.06 1.05-19.1 0 0-.94-.45l-3.13.21a.69.69 0 0 0-.65.74l.87 11.81q.05.71.76.72l3.28.01q.78.01.64-.77-.78-4.41.32-8.77zm70.09-2.89c-1.75-.73-3.34-1.71-5.35-.6q-.47.26-.43.81l.97 10.92a1.42 1.41 87.6 0 0 1.41 1.3h2.37q1.1-.01.9-1.09-.78-4.16.11-8.3.13-.6.69-.37.55.23.77.78a.79.79 0 0 0 .73.49l2.7-.03q.47 0 .59-.46c.43-1.85-.34-5.1-2.76-5.02q-1.31.04-1.95 1.29-.25.49-.75.28zm-83.77 9.8q-.97-1.35-.5-2.96.15-.53.7-.55l4-.15a1.06 1.05 16.5 0 0 .82-.44c1.39-1.92 1.68-4.73-.47-6.28q-1.54-1.11-2.93-.81-7.02 1.54-7.15 8.06c-.13 6.91 6.85 7.72 10.83 3.67a1.14 1.13 41.5 0 0-.11-1.69q-1.08-.85-2.46-.96a.65.64 7.3 0 0-.69.53q-.2 1.2-1.25 1.76-.48.25-.79-.18zm96.86-4.96c-2.35.38-8.58.2-6.66 4.58q1.33 3.04 5.28 2.36a1.06 1.05 58.9 0 1 .83.21q1.46 1.13 3.31 1.1.49-.01.71-.45c1.6-3.31 3.58-12.42-1.64-13.77-2.09-.54-7.22.31-7.95 3.04q-.11.42.29.61l3.1 1.47a.3.3 0 0 0 .42-.18q.41-1.26 1.19-2.32a.72.72 0 0 1 1.25.18q.46 1.22.43 2.51a.68.67 86 0 1-.56.66zm-120.05-1.39l-.85 7.58q-.07.62.55.67l3.37.3q.49.04.63-.43c.7-2.38 2.31-12.39-2.07-12.62-.98-.05-1.92.55-2.82.99a.61.61 0 0 1-.77-.2l-.36-.5q-.36-.52-.99-.45l-3.81.41a.68.68 0 0 0-.61.72l.83 12.7a.64.64 0 0 0 .71.6l2.77-.27q.66-.07.66-.73l-.02-7.17q0-1.24 1.08-1.86l.7-.4a.67.67 0 0 1 1 .66zm50.34-1.56l.25 1.22a1 1 0 0 0 .87.79q1.81.2 3.08-.97a.98.97 60.4 0 0 .27-.99q-1.09-3.72-4.97-2.74-7.28 1.84-6.25 9.74c.74 5.71 7.7 4.12 10.56 1.41a1 .99 45.6 0 0 .01-1.44l-.71-.7q-.71-.7-1.47-.04l-2.04 1.78a.94.93 62 0 1-1.52-.47q-1.07-4.05.77-7.74a.61.61 0 0 1 1.15.15zm10.34 6.31l.28-8.24a.67.67 0 0 0-.55-.68q-1.41-.24-2.82.01-.54.1-.75.6c-1.58 3.63-2.02 9.17 1.55 11.68q2.13 1.5 4.78.45c4.4-1.74 5.24-7.79 4.14-11.78q-.22-.77-1-.62l-3.02.55q-.86.16-.67 1.02c.57 2.6.7 5.19-.93 7.36a.56.56 0 0 1-1.01-.35zm32.89 1.02q-.38-.08-.46-.54-.74-4.35-.07-8.46.18-1.1-.93-1.02l-2.28.15q-.87.06-1.12.91c-.98 3.38-1.82 13.41 4.41 12.36 5.81-.99 7.46-7.62 5.99-12.54q-.17-.59-.78-.48l-3.22.61q-.6.11-.52.71.49 3.95-.32 7.84a.59.59 0 0 1-.7.46zm-34.14 22.2a.67.67 0 0 0 .65-.52l.59-2.63a.67.67 0 0 0-.68-.82l-3.74.15a.67.67 0 0 0-.65.67l.02 2.49a.67.67 0 0 0 .67.67l3.14-.01zm21.87-.04a.62.62 0 0 0 .57-.47l.65-2.63a.62.62 0 0 0-.62-.76l-3.92.08a.62.62 0 0 0-.6.61l-.03 2.71a.62.62 0 0 0 .66.63l3.29-.17zm-57.42 1.13l.29-1.48q.11-.56-.46-.63l-3.84-.54a.67.66 7 0 0-.76.59q-.22 2-2.09 2.65a1.03 1.03 0 0 0-.28 1.8l1.16.86a.91.91 0 0 1 .36.88c-.73 4.43.87 10.76 6.9 8.38 2.18-.86 2.99-3.57.21-4.74a.86.86 0 0 0-1.19.86q.06.83-.47 1.42a.52.52 0 0 1-.91-.38l.33-5.64a.65.64.9 0 1 .64-.61l2.54-.01q.93-.01.86-.94l-.07-.99a.91.9-2.6 0 0-.93-.84l-1.72.04a.57.57 0 0 1-.57-.68zm11.74 3.47l.27.82q.33.98 1.35.86l2.08-.25a1.06 1.05-7.3 0 0 .92-1.18q-.31-2.32-1.9-3.98-.39-.41-.96-.35-1.61.14-2.37 1.57a.54.53-52 0 1-.87.11l-.46-.52q-.34-.38-.85-.38h-3.71q-.5 0-.46.49l.98 11.98q.07.87.94.88l3.04.04q.92.01.75-.9-.9-4.63.41-9.17a.44.44 0 0 1 .84-.02zm11.76 2.55c-1.91.4-4.23-.15-5.7 1.41-1.48 1.57-1.33 4.24.82 5.17 1.99.86 4.44.39 6.82 1.57a1.28 1.28 0 0 0 1.77-.68q1.82-4.62 1.41-9.32c-.55-6.18-7.14-4.89-10.57-2.58a1.25 1.24 49.2 0 0-.14 1.95q1.07.98 2.51 1.41a.98.98 0 0 0 1.24-.73q.29-1.25 1.26-2.02.6-.49.9.22.59 1.39.37 2.87-.09.61-.69.73zm22.06-1.3l-.73 7.2q-.08.71.64.79l3.04.3a.9.89 9.9 0 0 .95-.66c.77-2.97 1.34-7.52.11-10.43-.93-2.23-3.08-2.34-4.84-1.02q-.38.29-.81.08-.51-.27-.91-.68-.38-.42-.95-.39l-3.11.14a1.08 1.08 0 0 0-1.03 1.15l.87 12.74a.41.41 0 0 0 .46.38l2.98-.36q.48-.06.5-.54l.32-7.85q.04-1.18 1.15-1.57l.32-.1q1.16-.41 1.04.82zm19.78-3.58l-.17-.65a.74.73-4.5 0 0-.64-.54q-2.18-.22-4.2.51a.92.91 78.4 0 0-.61.93l.82 12.33a.66.66 0 0 0 .74.61l2.47-.33q.97-.12.97-1.1l.01-6.7a2.36 2.35-17 0 1 1.04-1.95l.64-.43a.64.64 0 0 1 1 .6l-.91 7.47q-.1.79.7.85l3.29.24q.49.04.62-.43c.73-2.65 1.7-8.64-.03-11.09-1.3-1.86-3.49-1.25-4.99-.07q-.56.44-.75-.25zm15.74 12.85l-.71 2.23a.6.6 0 0 1-.86.34q-.99-.54-.77-1.64.13-.63-.5-.76-2.8-.56-3.92 2.04-.25.58.11 1.09.83 1.14 2.83 1.66c10.49 2.69 8.89-11.17 7.96-16.82q-.19-1.12-1.1-1.39c-10.4-3.08-15.53 11.14-3.53 12.5q.7.08.49.75zM95.09 149.5a1.15 1.15 0 0 0-1.23-1.27l-2.99.21a1.15 1.15 0 0 0-1.07 1.14l-.08 10.73a1.15 1.15 0 0 0 1.34 1.14l1.95-.33a1.15 1.15 0 0 0 .95-1.02l1.13-10.6zm16.52 11.34a.73.73 0 0 0 .86.72l2.66-.46a.73.73 0 0 0 .6-.65l1.15-11.42a.73.73 0 0 0-.78-.81l-3.81.29a.73.73 0 0 0-.68.73v11.6z"/><ellipse cx="0" cy="0" transform="matrix(-.683274 .730162 -.730162 -.683274 121.86 84.43)" rx="1.37" ry=".97"/><ellipse cx="0" cy="0" transform="matrix(-.055822 .998441 -.998441 -.055822 94.69 87.48)" rx="3.82" ry="1.32"/><ellipse cx="0" cy="0" transform="matrix(-.30237 .953191 -.953191 -.30237 59.11 117.92)" rx="1.52" ry=".91"/><path d="M153.95 122.95a.87.86-25.6 0 1 1.56.55l-.05 1.19a.69.68 14.7 0 1-1 .58q-1.62-.81-.51-2.32zm-13.47 35a.17.17 0 0 1-.15.19h-.06a2.58 2.25 84.8 0 1-2.47-2.36l-.21-2.23a2.58 2.25 84.8 0 1 2.01-2.78h.06a.17.17 0 0 1 .18.15l.64 7.03z"/><ellipse cx="0" cy="0" transform="matrix(.829038 -.559193 .559193 .829038 82.02 157.47)" rx="1.38" ry="1.12"/><path d="M95.7 231.02c4.03 2.07 7.07 1.45 10.89-.64q.29-.15.29.17v.33q0 .07-.06.13c-2.84 3.01-8.41 2.4-11.52.46q-.07-.04-.03-.11l.15-.26q.1-.18.28-.08z"/></g><g fill="#5e3023"><path d="M51.43 211.07q-.62-.3-1.02-.86a.96.96 0 0 0-1.49-.09q-.43.46-.99.71-.62.29-.66-.4l-.8-15.17q-.03-.71-.69-.45-8.11 3.12-16.82 2.36a.44.44 0 0 1-.28-.74l.99-1.01q.09-.09.09-.17-.01-.12-.01-.25a.21.21 0 0 0-.25-.2q-5.3 1.05-9.96-1.66a.42.42 0 0 0-.63.36q-.1 7.78-5.01 13.75a.37.36 53 0 1-.62-.09l-.9-2.11q-.27-.65-.79-.17l-1.25 1.19a.68.67 42.4 0 0 .05 1.03l1.49 1.15q.9.69-.23.63l-1.05-.06a.39.38 7.9 0 0-.4.3l-.07.32a.37.36 20.1 0 0 .19.4l2.94 1.52q.39.2.52.62 1.49 4.68 4.5 8.48-1.97-1.42-3.39-4.13l-1.73-3.98a1.37 1.37 0 0 0-.64-.67c-5.41-2.66-3.31-3.64-1.63-7.84a1.52 1.52 0 0 0 .06-.96c-1.6-6.01-2.29-14.6 4.57-17.57 3.79-1.64 6.91-4.48 10.6-5.47 12.11-3.28 23.87 2.6 27.18 14.7q1.64 6.04-.38 11.64-1.24 3.45-1.49 4.89zm137.31 6.46L184.1 223q-.31.38-.38.86c-.67 4.59-4.31 8.82-9.09 8.73-6.19-.11-6.96-7.22-11.76-6.95a1.59 1.57 10.2 0 0-1.37.94l-5.82 13.4q-.39.92.58 1.13 4.6.99 8.24-1.15c3.06-1.8 6.76-2.23 9.76-1.87q7.09.86 14.26.61a.76.76 0 0 0 .59-.31q.34-.46.79-.16.41.28.91.23l5.2-.49q-9.02 1.79-17.27 1.24c-7.31-.5-12.94-1.84-18.39 4.43l.34-1.35a.44.44 0 0 0-.43-.55h-4.5q-.5 0-.68.47c-1.46 3.6-2.42 8.82-7.66 7.76-3.58-.73-5.47-3.71-4.34-7.29a.39.39 0 0 0-.37-.51l-17.92-.24q-.15.06-.39 0-.23-.07-.37-.27l-9.48-14.2q-.33-.5.18-.79 4.49-2.51 6.07-7.4.89-2.77-1.16-.82-.45.43-1.38 1.57-.76.94-.43-.22.42-1.43 1.23-2.67.39-.6-.11-1.11l-.25-.26q-.47-.48-.79.12-1.22 2.3-3.33 3.86-.09.06-.19.03-.13-.04-.18-.2-.03-.1.04-.17c1.15-1.37 3.47-2.91 2.94-4.97a.6.6 0 0 0-1.1-.16q-3.49 5.95-9.37 9.52a.74.74 0 0 0-.31.9q4.14 11.13 8.85 22.19 1.18 2.76 2.72 3.58c4.17 2.19 10.29-2.67 7.03-7.37 4.92-.21-.78 10.83-6.84 8.35-2.84-1.16-4.41-5.87-5.4-8.63q-.19-.53-.74-.54l-21.01-.45a1.03 1.02-79.4 0 0-.99.69c-1.53 4.38-3.47 10.33-9.52 8.33-3.5-1.16-5.05-4.38-3.58-7.8a.54.53 13 0 0-.47-.74l-12.94-.7a.66.66 0 0 0-.61.99c2.12 3.7.28 7.4-3.54 8.67-5.35 1.77-7.41-4.24-8.6-8.45q-.14-.49-.64-.54l-6.53-.67q-1.09-.11-.61.88 1.47 3.02-.23 3.74c-2.26.95-2.03 3.89-4.62 3.68q1.98-1.05 2.73-3.01a.91.9-89.2 0 1 .55-.54l1.03-.37a1.47 1.47 0 0 0 .76-2.14q-1.03-1.73-3.01-3.04.68-.16 1.07.25 4.06.22 8.45.4.6.03.38-.54l-6.19-15.87q.27-.15.55.47 4.41 9.93 8.02 20.17 1.06 2.99 1.73 3.6c3.88 3.49 10.5.42 8.56-5.12l-.28-.62q-4.7-10.06-9.71-19.86c-1.51-2.95-5.71-9.2-9.78-7.7q-.57.21-.52.81.04.54.58.54 1.23 0 1.52.6.42.88-.53.65-4.3-1.06-6.19 2.8-.8 1.64.87.9 1.26-.56 3.15-1.36.93-.4 1.45.07.47.44-.18.45c-2.68.05-2.99 1.07-5.23 1.89q-.42.15-.51-.29c-.52-2.69 1.39-3.75 2.43-5.82l2.35-1.74c3.32-.59 6.77 1.04 9.25-2.51q.6.33-.18 1.07-1.2 1.15-2.87 2.02-.51.27-.12.69c5.91 6.31 9.91 15.84 13.65 23.8a.86.86 0 0 0 .75.5l13.84.6q2.57.1.48-1.4l-2.61-1.87a.52.51-61.8 0 1-.18-.6q2.21-5.96 6.22-10.86.39-.49-.07-.9l-1.15-1.03q2.26.63 4.23.02.51-.16.27-.64c-1.59-3.06-4.74-6.99.1-9.3a.53.53 0 0 0 .06-.92c-2.95-1.96-4.08-5.36-.72-7.7q.47-.33.87.08l1.22 1.25a.42.42 0 0 0 .69-.12q2.74-6.31 1.67-13.16-.08-.49.32-.79c2.67-1.97 8.68-5.07 10.85-1.15 1.42 2.57 2.03 4.99 5.25 5.92q4.04 1.16 8.23 1.44c3.86.25 5.08 2.89 6.43 6.05q.2.46.68.59c2.06.59 3 1.74 1.53 3.98q-.31.56-1.16.28-.47-.15-.18-.55l1.12-1.52q.35-.49-.15-.82-.34-.22-.75-.21-.54.02-.73.53-.12.31-.35.57-.54.6-.67-.19c-.65-3.91-1.22-7.5-5.51-8.04-4.61-.59-9.96-.26-12.8-4.71q-.72-1.13-1.43-2.29c-2.34-3.86-6.92-1.79-9.12.77a1.21 1.18-28.2 0 0-.28.89q.66 7.31-2.97 13.62-.35.61-.83.1l-1.37-1.45a.76.75 35.3 0 0-1.24.21q-1.83 4.13 2.17 5.91a.82.82 0 0 0 .65.02l.96-.38q.6-.23.93.31c4.45 7.33 13.74 16.09 21.93 7.77q4.26-4.33 6.39-7.68a1.07 1.05 10.6 0 1 .73-.49c1.83-.33 4.39.51 5.02-1.93q.15-.04.28.04.31.18.11.48-1 1.5-2.67 2.12a.39.38-38.7 0 0-.08.68q1.2.79 2.02 2a.6.59-55.3 0 0 1.07-.2q2.74-11.24-1.16-21.97-4.07-11.18-16.04-11.35c-7.94-.11-11.36 3.53-17.73 6.16q-3.6 1.49-4.94 3.05c-4.43 5.13-3.75 16.59-2.58 22.79a1.38 1.36-35 0 1-.17.94q-2.75 4.53-.15 8.99c-3.04-1.87-2.16-6.31-.72-9.12q.23-.44.14-.93c-1.36-8.05-2.49-25.01 9.23-26.51a1.73 1.68-67.1 0 0 .83-.35q8.48-6.62 18.09-6.01c12.95.81 17.81 16.55 17.04 27.43q-.62 8.8-5.61 15.96-.48.7.32.43l.59-.19q.37-.12.66.13 5.8 4.86 7.62 12.25a.91.9-17.1 0 1-.57 1.07l-1.4.5q-2.62.95.03 1.45.32.06 1.55.05 7.49-.08 15.08.31.69.04 1.03-.57c4.2-7.6 7.94-15.56 12.76-22.94a.48.48 0 0 0-.34-.74q-5.13-.6-4.08-5.82.1-.51-.06-1c-3.08-9.5-3.08-17.77 4.31-24.71 8.48-7.96 19.1-7.53 28.39-1.18 1.63 1.12 3.29 1.45 5.1 2.07 5.46 1.85 3.96 13.27 3.08 17.2a1.46 1.44-52.1 0 0 .11.92c1.02 2.17 3.45 5.79.07 7.33q-1 .45-1.97.9-.45.2-.59.67l-1.15 3.94zm-25.75-3.44l2.4 1.4c4.93 3.78 2.68 5.66 3.59 10.52 1.12 6.01 7.99 3.59 11.44.71q-3.21 5.41-8.36 3.44-1.26-.49-.48.62.61.86 2.17 1.09c4.34.65 8.14-3.57 9.25-7.37q.16-.56-.4-.42-1.26.32-2.33 1.34-4.77 1.56-9.8 1.36-.04 0-.04-.04v-.25a.26.25-90 0 1 .25-.26q3.98-.1 6.97-.85c7.02-1.78 8.93-6.44 11.96-12.26a1.72 1.72 0 0 1 .66-.69q1.16-.65 2.34-1.23.26-.13.35-.31.17-.35-.01-.7a.6.59-11.2 0 0-.47-.31q-.7-.05-1.14-.51a.52.52 0 0 1 .4-.88l1.04.03a.46.45-8.4 0 0 .45-.6q-.41-1.27-1.5-2.06a.61.6-58.7 0 0-.89.22l-.94 1.83q-.38.75-.88.07-4.37-5.96-4.8-13.36-.04-.75-.69-.38-4.56 2.62-9.75 1.45a.4.4 0 0 0-.4.65q.43.51.61 1.16.16.59-.46.62-8.46.39-16.34-2.68a.6.59 11.6 0 0-.81.53l-.56 14.37q-.02.67-.66.47l-1.32-.41q-.48-.15-.83.22c-2.53 2.72-.53 6.38 3.12 6.07q.47-.04.84-.34 2.59-2.09 6.02-2.26zm-78.46 6.33q-.89-1.2-1.22-1.9-1.05-2.17-1.38.22c-.37 2.8 4.15 6.65 6.15 8.07a.5.49-55.8 0 1 .12.67q-4.71 6.99-9.62 13.84c-6.15 8.59 6.33 12.03 8.55 6.31q4.38-11.22 8.97-22.33a.39.39 0 0 1 .59-.16l.23.18q.04.03.02.08-.31.93-.6 1.87a.76.75-63.5 0 0 .28.85q4.69 3.32 9.52.27.43-.27.37-.78-.15-1.21-.79-2.22-.31-.49-.87-.38c-7.99 1.57-14.39-4.18-18.19-10.81a.54.54 0 0 0-.84-.12l-.3.28a.74.73-41.2 0 0-.07 1l3.47 4.38q.11.14-.03.26l-.22.18a.11.11 0 0 1-.16-.01l-3.28-3.88q-.51-.6-1.22-.26l-.34.16a.59.58 59.4 0 0-.22.87q1.03 1.41 1.48 3.17.3 1.14-.4.19zm80-.06q1.12-.14 2.71.98a.37.37 0 0 0 .58-.37q-.79-4.57-5.57-3.93a.33.33 0 0 1-.29-.55q.53-.58 1.32-.79.16-.04.16-.2 0-.12 0-.25.01-.3-.29-.3-3.89-.04-6.41 3.32c-4.33 5.77-6.78 10.88-9.76 16.86-1.61 3.21-5.08 7.61-3.1 11.41 1.69 3.24 7.3 4.37 8.81.21q4.46-12.31 8.14-20.41c1.33-2.91 4.61-.94 6.56-.12a.48.48 0 0 0 .66-.38q.4-3.3-3.59-5.02-.82-.36.07-.46zm-57.94 10.02c-3.82 2.09-6.86 2.71-10.89.64q-.18-.1-.28.08l-.15.26q-.04.07.03.11c3.11 1.94 8.68 2.55 11.52-.46q.06-.06.06-.13v-.33q0-.32-.29-.17zM89.75 191q-.27.32-.83.25a.48.48 0 0 1-.36-.72q.73-1.23 2.18-1.37.61-.06.28.45c-.34.52-.87.91-1.27 1.39zm89.05 11.33q-1.03-.34-2.16-.34-1.94 0-.17-.8 1.53-.69 2.71.55.99 1.05-.38.59zm-68.4 1.23c-1.34-.83-2.42-1.2-3.95-1.36q-.2-.03-.19-.23.02-.12.13-.24.07-.07.19-.08 2.09-.32 4.05.77a.33.32 18.6 0 1 .17.33l-.08.66q-.04.33-.32.15zm-17.41-.07l-1.21.69a.38.38 0 0 1-.44-.62q1.58-1.4 3.67-1.45a.29.29 0 0 1 .18.52q-.52.39-1.18.5-.54.09-1.02.36zm68.66 1.26a.17.17 0 0 1-.21-.11l-.03-.07a2.17 1.1-18.4 0 1 1.72-1.72l.24-.09a2.17 1.1-18.4 0 1 2.41.36l.02.07a.17.17 0 0 1-.11.21l-4.04 1.35z"/><ellipse cx="0" cy="0" transform="matrix(.988228 .152986 -.152986 .988228 24.38 203.73)" rx="2.13" ry=".4"/><ellipse cx="0" cy="0" transform="matrix(.993768 .111469 -.111469 .993768 38.46 204.78)" rx="2.5" ry=".53"/><ellipse cx="0" cy="0" transform="matrix(-.092371 .995725 -.995725 -.092371 107.65 206.36)" rx="1.85" ry="1.07"/><ellipse cx="0" cy="0" transform="matrix(-.317305 .948324 -.948324 -.317305 95.08 206.8)" rx="1.71" ry="1.02"/><ellipse cx="0" cy="0" transform="matrix(-.054079 .998537 -.998537 -.054079 177.48 206.88)" rx="1.67" ry="1.27"/><ellipse cx="0" cy="0" transform="matrix(.024432 .999701 -.999701 .024432 164.74 208.2)" rx="1.66" ry="1.13"/><path d="M24.78 208.11q-.99.39-1.86.98-.02.02-.04-.01l-.14-.23q-.06-.11.04-.18 2.78-2.16 4.75.53a.21.21 0 0 1-.3.29l-1.42-1.21q-.47-.39-1.03-.17zm15.1 1.98c-1.14-.81-2.64-.7-3.82-.29q-1.42.48-.36-.57 2.39-2.38 4.48.58.7 1-.3.28z"/><ellipse cx="0" cy="0" transform="matrix(-.209619 .977783 -.977783 -.209619 102.29 210.67)" rx="1.85" ry=".56"/><path d="M84.43 211.17q.27.11.34.39.12.46-.34.4-1.42-.2-1.31-1.69a.26.26 0 0 1 .47-.12l.5.74q.13.19.34.28zm-53.23.59q-.03-.47.07-.84.35-1.26.52.07.15 1.23-.37 2.29a.33.33 0 0 1-.6-.26l.35-.98a.61.51 56 0 0 .03-.28zm139.68 2.54q-.85-1.66.08-3.29a.36.36 0 0 1 .67.13q.29 1.95-.06 3.1-.27.87-.69.06zm-122.22-.97a.25.25 0 0 1-.26-.39l.79-1.19a.34.34 0 0 1 .62.17q.07 1.16-1.15 1.41zm105.27.06q.12.49.23 1.17.03.23-.19.27l-.68.12q-.29.06-.26-.24l.15-1.91q.06-.7.44-.1.23.37.31.69zm-46.61-.37q.66.05.9.52-5.5 7.22-13.86 3.03-.31-.16-.07-.41l.2-.22q.04-.05.1-.02 7.77 3.93 12.73-2.9zm73.94 1.11q-4.19 5.21-11.05 5.66-.28.02-.3-.26l-.02-.28q-.01-.23.22-.23 5.63-.14 9.5-4.02.79-.91 1.65-.87zm-149.19 5.43c-3.32.73-6.92.02-9.17-2.69q-.14-.17.02-.33l.18-.17q.02-.01.03 0 3.7 3.5 8.87 2.81.16-.02.2.18v.01q.03.15-.13.19zm156.91-1.88q4.4 1.56 7.54 4.85l-7.54-4.85zm-85.85 1.46a.26.25 15.9 0 1 .21.37q-.43.82-1.39.83a.28.28 0 0 1-.25-.41q.43-.85 1.43-.79zm74.12.9q-1.02.75-2.26.88a.3.3 0 0 1-.21-.55q1.25-.85 2.3-.85.86.01.17.52zm-158.97.42q5.99 5.59 14.29 5.03.04 0 .04.04l.03.26q.01.11-.1.14-3.95.99-7.54-.76-1.93-.95-.74.85 3.47 5.23 9.24.97a1.79 1.77-5.6 0 0 .54-.65q.63-1.3 1.39-.64-3 4.32-7.23 3.68-2.02-.3-4.1-2.53-2.94-3.15-5.82-6.39zm9.5.35l1.8.54a.23.23 0 0 1 .01.44q-1.37.45-1.96-.8-.13-.27.15-.18zm-22.04 2.5L0 231.78v-2.02l5.74-6.45zm38.17 1.73l-.3.05q-.36.06-.53.38-1.11 2.07-3.46 2.33-.45.05-.7-.13-.33-.24-.36-.68c2.91.91 2.92-.91 4.48-2.43q.38-.37.76 0 .16.16.11.48zm-6.86.67l.22-.42q.38-.74.37.1-.01.52-.24.98c-4.19 7.47-14.38 8.66-17.02-.98q-.05-.18.01-.26.07-.08.24-.08.09-.01.13.08c.73 1.51 1.43 3.15 2.61 4.28 4.72 4.54 11.12 1.75 13.68-3.7z"/><ellipse cx="0" cy="0" transform="matrix(.685818 .727773 -.727773 .685818 193.99 228.97)" rx=".79" ry=".36"/><path d="M12.56 237.18q-.08.66-.56.1l2.93-7.73q.09-.23.31-.16l.24.08q.02 0 .01.02l-2.93 7.69zm176.34-.19l-1.1-6.57q-.03-.18.14-.14.13.02.27.04.01.01.03.06 1.03 2.93.98 6.59-.03 1.74-.32.02zm-177.85.42c-2.21-.25-4.78-1.05-6.9-.51q-1.25.32-2.29.37 3.58-2.31 9.19.14zm28.99 3.11q-4.47-3.02-10.02-2.56-5.68.47-14.27.26-1.7-.04-2.67-.52 3.98 0 18.92-.54 4.75-.17 8.04 3.36z"/><ellipse cx="0" cy="0" transform="matrix(.684547 .728969 -.728969 .684547 39 244.44)" rx="2.26" ry=".3"/><path d="M146.95 243.98q.78 2.06 3.29 2.04.05 1.43-.84 1.45-.55.01-.88-.44-1.31-1.77-3.22-2.82a.6.6 0 0 1-.28-.71q.04-.13.08-.26a.25.25 0 0 1 .24-.18q.95.02 1.61.92zm16.34 5.8l-1.43-1.86q-.31-.41-.78-.61-1.91-.82-1.15-2.79-.13.8.13 1.4a1.38 1.38 0 0 0 2.38.29q1.45-1.97 3.76-2.81 1.24-.46.18.33c-2.27 1.67-5.02 2.1-3.09 6.05zm-79-3.15q-2.74-.64-4.25-2.66 2.18-.64 4.25 2.66zm-4.52-2.33q-.43 1.23.73 2.14 2.23 1.72 4 1.15.09-.18.3.15.15.23-.1.34c-2.53 1.11-5.61-.28-6.22-3.03q-.12-.52.36-.73.37-.17.93-.02zm-22.25.73q.46.16.81.45.48.41-.14.5-.84.12-1.03-.62-.12-.5.36-.33zM0 244.99l4.07 2.61c7.41-.18 14.8-.82 22.18-1.49q.85-.08 1.47 1-1.3-.75-2.22-.66-15.79 1.58-21 1.82-2.18.1-4.5-1.77v-1.51zm61.8.17q-2.03 2.5-4.79 2.74l4.79-2.74zm136.2 3.13v.59l-20.95-1.71q-.83-.06-1.49.43l-7.52 5.64a1.65 1.64-22 0 1-2.63-1.11q-.14-1.21-1.42-1.9.93.21 1.19-.32c.94-1.93 3.5-3.63 5.45-4.36q.22-.08.31.13l.01.01a.36.09-32.9 0 1-.24.26l-4.12 2.74q-1.65 1.1-.79 2.89l.28.58a1.3 1.29 58.2 0 0 1.96.47l7.24-5.61a1.61 1.59-61.7 0 1 1.08-.33l21.64 1.6zm-74.23-1.89q-.12 2.11-2.26 2.25.84-1.32 2.26-2.25zM0 262.72l198 .19v.79l-198-.23v-.75z"/></g><path fill="#f3e9dc" d="M125.01 243.09l-.22-1.16 17.92.24a.39.39 0 0 1 .37.51c-1.13 3.58.76 6.56 4.34 7.29 5.24 1.06 6.2-4.16 7.66-7.76q.18-.47.68-.47h4.5a.44.44 0 0 1 .43.55l-.34 1.35q-.37-.12-.42.88-.76 1.97 1.15 2.79.47.2.78.61l1.43 1.86q.25.66.7.45 1.28.69 1.42 1.9a1.65 1.64-22 0 0 2.63 1.11l7.52-5.64q.66-.49 1.49-.43l20.95 1.71v14.03l-198-.19V246.5q2.32 1.87 4.5 1.77 5.21-.24 21-1.82.92-.09 2.22.66l6.87 5.17a1.97 1.96 52.7 0 0 1.9.26q1.87-.74 1.65-2.64c2.59.21 2.36-2.73 4.62-3.68q1.7-.72.23-3.74-.48-.99.61-.88l6.53.67q.5.05.64.54c1.19 4.21 3.25 10.22 8.6 8.45 3.82-1.27 5.66-4.97 3.54-8.67a.66.66 0 0 1 .61-.99l12.94.7a.54.53 13 0 1 .47.74c-1.47 3.42.08 6.64 3.58 7.8 6.05 2 7.99-3.95 9.52-8.33a1.03 1.02-79.4 0 1 .99-.69l21.01.45q.55.01.74.54c.99 2.76 2.56 7.47 5.4 8.63 6.06 2.48 11.76-8.56 6.84-8.35z"/><g fill="#dab49d"><path d="M8.08 0h30c-1.76 5.53-3.88 9.63-1.49 15.93 2.58 6.83 11.96 7.34 20.03 8.65 5.9.96 9.21 10.05 1.84 11.53-4.05.81-9.77-3.9-12.95-6.12q-5.32-3.7-13.89-4.11c-9.97-.47-11.98 9.22-9.04 16.58 1 2.5 3.95 6.02 3.59 8.68-.48 3.45-5.89 5.44-8.1 2.79q-.92-1.1-1.26-4.09c-.61-5.29-1.11-10.39-3.49-15.39-2.67-5.58-8.36-4.22-13.32-4.77V7.61Q2.48 1.83 8.08 0z"/><circle cx="40.96" cy="54.19" r="5.91"/><path d="M120.88 210.54q-.02.36.36.72c-.63 2.44-3.19 1.6-5.02 1.93a1.07 1.05 10.6 0 0-.73.49q-2.13 3.35-6.39 7.68c-8.19 8.32-17.48-.44-21.93-7.77q-.33-.54-.93-.31l-.96.38a.82.82 0 0 1-.65-.02q-4-1.78-2.17-5.91a.76.75 35.3 0 1 1.24-.21l1.37 1.45q.48.51.83-.1 3.63-6.31 2.97-13.62a1.21 1.18-28.2 0 1 .28-.89c2.2-2.56 6.78-4.63 9.12-.77q.71 1.16 1.43 2.29c2.84 4.45 8.19 4.12 12.8 4.71 4.29.54 4.86 4.13 5.51 8.04q.13.79.67.19.23-.26.35-.57.19-.51.73-.53.41-.01.75.21.5.33.15.82l-1.12 1.52q-.29.4.18.55.85.28 1.16-.28zm-14.43-8.34c1.53.16 2.61.53 3.95 1.36q.28.18.32-.15l.08-.66a.33.32 18.6 0 0-.17-.33q-1.96-1.09-4.05-.77-.12.01-.19.08-.11.12-.13.24-.01.2.19.23zm-12.44.93q.66-.11 1.18-.5a.29.29 0 0 0-.18-.52q-2.09.05-3.67 1.45a.38.38 0 0 0 .44.62l1.21-.69q.48-.27 1.02-.36zm13.469 5.072a1.85 1.07 95.3 0 0 1.236-1.743 1.85 1.07 95.3 0 0-.895-1.941 1.85 1.07 95.3 0 0-1.236 1.743 1.85 1.07 95.3 0 0 .895 1.941zm-12.942.22a1.71 1.02 108.5 0 0 1.51-1.298 1.71 1.02 108.5 0 0-.425-1.945 1.71 1.02 108.5 0 0-1.51 1.298 1.71 1.02 108.5 0 0 .425 1.945zm7.365 4.057a1.85.56 102.1 0 0 .935-1.692 1.85.56 102.1 0 0-.16-1.926 1.85.56 102.1 0 0-.935 1.692 1.85.56 102.1 0 0 .16 1.926zm-6.632-.269a1.4 1.4 0 0 0-.7-2q-2-.79-4.05-.24a.99.98-14 0 0-.71 1.17c.59 2.63 4.16 3.34 5.46 1.07zm12.05.81q-4.96 6.83-12.73 2.9-.06-.03-.1.02l-.2.22q-.24.25.07.41 8.36 4.19 13.86-3.03 1.22-.86 1.95-1 3.07-.63.44-2.32-1.82-1.17-4.09.05-.44.24-.42.75.06 1.1 1.22 2zm-23.23-2.13l-.5-.74a.26.26 0 0 0-.47.12q-.11 1.49 1.31 1.69.46.06.34-.4-.07-.28-.34-.39-.21-.09-.34-.28zm19.04 8.25q-1-.06-1.43.79a.28.28 0 0 0 .25.41q.96-.01 1.39-.83a.26.25 15.9 0 0-.21-.37zm77.14 6.28l.15 1.3c-3.45 2.88-10.32 5.3-11.44-.71-.91-4.86 1.34-6.74-3.59-10.52q.74-.96.95-1.02 2.37-.6.23-1.78-.93-.51-2.19-.85-.43-.11-.73-.01-.36.12-.59.37-.37.39-.04.81.7.86-.03 1.08-3.43.17-6.02 2.26-.37.3-.84.34c-3.65.31-5.65-3.35-3.12-6.07q.35-.37.83-.22l1.32.41q.64.2.66-.47l.56-14.37a.6.59 11.6 0 1 .81-.53q7.88 3.07 16.34 2.68.62-.03.46-.62-.18-.65-.61-1.16a.4.4 0 0 1 .4-.65q5.19 1.17 9.75-1.45.65-.37.69.38.43 7.4 4.8 13.36.5.68.88-.07l.94-1.83a.61.6-58.7 0 1 .89-.22q1.09.79 1.5 2.06a.46.45-8.4 0 1-.45.6l-1.04-.03a.52.52 0 0 0-.4.88q.44.46 1.14.51a.6.59-11.2 0 1 .47.31q.18.35.01.7-.09.18-.35.31-1.18.58-2.34 1.23a1.72 1.72 0 0 0-.66.69c-3.03 5.82-4.94 10.48-11.96 12.26q-2.99.75-6.97.85a.26.25 90 0 0-.25.26v.25q0 .04.04.04 5.03.2 9.8-1.36zm-1.47-23.09q1.37.46.38-.59-1.18-1.24-2.71-.55-1.77.8.17.8 1.13 0 2.16.34zm-17.15 2.42l4.04-1.35a.17.17 0 0 0 .11-.21l-.02-.07a2.17 1.1-18.4 0 0-2.41-.36l-.24.09a2.17 1.1-18.4 0 0-1.72 1.72l.03.07a.17.17 0 0 0 .21.11zm15.74 3.798a1.67 1.27 93.1 0 0 1.358-1.599 1.67 1.27 93.1 0 0-1.178-1.736 1.67 1.27 93.1 0 0-1.358 1.599 1.67 1.27 93.1 0 0 1.178 1.736zm-12.609 1.312a1.66 1.13 88.6 0 0 1.089-1.687 1.66 1.13 88.6 0 0-1.17-1.632 1.66 1.13 88.6 0 0-1.089 1.687 1.66 1.13 88.6 0 0 1.17 1.632zM179.61 215q-3.87 3.88-9.5 4.02-.23 0-.22.23l.02.28q.02.28.3.26 6.86-.45 11.05-5.66 1.53-1.54.77-3.1-.28-.58-.92-.56l-3.29.15a1.18 1.18 0 0 0-.75 2.05l2.54 2.33zm-8.73-.7q.42.81.69-.06.35-1.15.06-3.1a.36.36 0 0 0-.67-.13q-.93 1.63-.08 3.29zm-16.95-.91q-.08-.32-.31-.69-.38-.6-.44.1l-.15 1.91q-.03.3.26.24l.68-.12q.22-.04.19-.27-.11-.68-.23-1.17zm23.32 6.65q.69-.51-.17-.52-1.05 0-2.3.85a.3.3 0 0 0 .21.55q1.24-.13 2.26-.88zM23.98 214l-2.35 1.17a1.07 1.07 0 0 1-1.28-.25l-1.47-1.67a1.07 1.07 0 0 1 .61-1.76l1.97-.37a1.07 1.07 0 0 1 .65.09l1.85.87a1.07 1.07 0 0 1 .02 1.92zm18.21 1.48l-2.35 1.74q-2.74-.21-3.88-1.92a1.25 1.25 0 0 1 .81-1.92q3.53-.67 5.42 2.1zm42.74 4.75q-.45-1.76-1.48-3.17a.59.58 59.4 0 1 .22-.87l.34-.16q.71-.34 1.22.26l3.28 3.88a.11.11 0 0 0 .16.01l.22-.18q.14-.12.03-.26l-3.47-4.38a.74.73-41.2 0 1 .07-1l.3-.28a.54.54 0 0 1 .84.12c3.8 6.63 10.2 12.38 18.19 10.81q.56-.11.87.38.64 1.01.79 2.22.06.51-.37.78-4.83 3.05-9.52-.27a.76.75-63.5 0 1-.28-.85q.29-.94.6-1.87.02-.05-.02-.08l-.23-.18a.39.39 0 0 0-.59.16q-4.59 11.11-8.97 22.33c-2.22 5.72-14.7 2.28-8.55-6.31q4.91-6.85 9.62-13.84a.5.49-55.8 0 0-.12-.67c-2-1.42-6.52-5.27-6.15-8.07q.33-2.39 1.38-.22.33.7 1.22 1.9.7.95.4-.19zm-4.89 23.74q-.14.16-.27.33-.56-.15-.93.02-.48.21-.36.73c.61 2.75 3.69 4.14 6.22 3.03q.25-.11.1-.34-.21-.33-.3-.15-.49-.57-.21-.96-2.07-3.3-4.25-2.66z"/><path d="M124.79 241.93l.22 1.16c3.26 4.7-2.86 9.56-7.03 7.37q-1.54-.82-2.72-3.58-4.71-11.06-8.85-22.19a.74.74 0 0 1 .31-.9q5.88-3.57 9.37-9.52a.6.6 0 0 1 1.1.16c.53 2.06-1.79 3.6-2.94 4.97q-.07.07-.04.17.05.16.18.2.1.03.19-.03 2.11-1.56 3.33-3.86.32-.6.79-.12l.25.26q.5.51.11 1.11-.81 1.24-1.23 2.67-.33 1.16.43.22.93-1.14 1.38-1.57 2.05-1.95 1.16.82-1.58 4.89-6.07 7.4-.51.29-.18.79l9.48 14.2q.14.2.37.27.24.06.39 0zm-3.28 6.72q2.14-.14 2.26-2.25.8-1.4-.19-2.26c-1.78-1.53-4.87 1.25-5.74 2.76a.91.88-46.4 0 0 .01.92q1.08 1.78 3.66.83zm43.02-28.29q-.89.1-.07.46 3.99 1.72 3.59 5.02a.48.48 0 0 1-.66.38c-1.95-.82-5.23-2.79-6.56.12q-3.68 8.1-8.14 20.41c-1.51 4.16-7.12 3.03-8.81-.21-1.98-3.8 1.49-8.2 3.1-11.41 2.98-5.98 5.43-11.09 9.76-16.86q2.52-3.36 6.41-3.32.3 0 .29.3 0 .13 0 .25 0 .16-.16.2-.79.21-1.32.79a.33.33 0 0 0 .29.55q4.78-.64 5.57 3.93a.37.37 0 0 1-.58.37q-1.59-1.12-2.71-.98zm-14.29 25.66q-.75-3.69-3.29-2.04-.66-.9-1.61-.92a.25.25 0 0 0-.24.18q-.04.13-.08.26a.6.6 0 0 0 .28.71q1.91 1.05 3.22 2.82.33.45.88.44.89-.02.84-1.45zm47.76-8.93v11.2l-21.64-1.6a1.61 1.59-61.7 0 0-1.08.33l-7.24 5.61a1.3 1.29 58.2 0 1-1.96-.47l-.28-.58q-.86-1.79.79-2.89l4.12-2.74a.36.09-32.9 0 0 .24-.26l-.01-.01q-.09-.21-.31-.13c-1.95.73-4.51 2.43-5.45 4.36q-.26.53-1.19.32-.45.21-.7-.45c-1.93-3.95.82-4.38 3.09-6.05q1.06-.79-.18-.33-2.31.84-3.76 2.81a1.38 1.38 0 0 1-2.38-.29q-.26-.6-.13-1.4.05-1 .42-.88c5.45-6.27 11.08-4.93 18.39-4.43q8.25.55 17.27-1.24l1.99-.88zM4.07 247.6L0 244.99v-5.35q1.05-.17 1.98-.89a.95.94 34.3 0 1 .87-.16c3.23 1.07 1.78 6.44 1.22 9.01zm58.42-4.06l.28.62-.97 1-4.79 2.74q-2.19.65-1.83-1.74a1.83 1.79-18.6 0 1 .51-1c2.6-2.57 4.07-.98 6.8-1.62zm-5.33 1.82q.19.74 1.03.62.62-.09.14-.5-.35-.29-.81-.45-.48-.17-.36.33zM0 263.47l198 .23v28.69q-2.48 5.65-7.87 7.61H7.78q-5.92-2.37-7.78-8.1v-28.43z"/></g><g fill="#f7c860"><path d="M122.14 0h68.29q5.74 2.52 7.57 8.05v31.62c-6.68-.83-8.46-7.48-10.13-12.94-1.09-3.55-6.59-4.48-9.06-2.17-3.07 2.86-.81 9.96-4.01 13.98-2.48 3.1-8.47 5.69-11.82 2.51-3.76-3.57-.65-14.65-8.73-12.61-2.48.62-4.54 3.69-6.33 5.59-4.9 5.17-10.6 6.82-15.57.12-2.13-2.88-.3-5.44 2.64-7.18 3.68-2.18 9.72-2.84 13.23-5.77 3.74-3.12 6.24-9.69 3.07-14-3.14-4.25-9.86-5.49-14.89-4.76-3.9.56-12.85 3.51-14.26-2.44z"/><circle cx="171.32" cy="64.05" r="7.33"/><path d="M121.24 211.26q-.38-.36-.36-.72c1.47-2.24.53-3.39-1.53-3.98q-.48-.13-.68-.59c-1.35-3.16-2.57-5.8-6.43-6.05q-4.19-.28-8.23-1.44c-3.22-.93-3.83-3.35-5.25-5.92-2.17-3.92-8.18-.82-10.85 1.15q-.4.3-.32.79 1.07 6.85-1.67 13.16a.42.42 0 0 1-.69.12l-1.22-1.25q-.4-.41-.87-.08c-3.36 2.34-2.23 5.74.72 7.7a.53.53 0 0 1-.06.92c-4.84 2.31-1.69 6.24-.1 9.3q.24.48-.27.64-1.97.61-4.23-.02-2.6-4.46.15-8.99a1.38 1.36-35 0 0 .17-.94c-1.17-6.2-1.85-17.66 2.58-22.79q1.34-1.56 4.94-3.05c6.37-2.63 9.79-6.27 17.73-6.16q11.97.17 16.04 11.35 3.9 10.73 1.16 21.97a.6.59-55.3 0 1-1.07.2q-.82-1.21-2.02-2a.39.38-38.7 0 1 .08-.68q1.67-.62 2.67-2.12.2-.3-.11-.48-.13-.08-.28-.04zM89.75 191c.4-.48.93-.87 1.27-1.39q.33-.51-.28-.45-1.45.14-2.18 1.37a.48.48 0 0 0 .36.72q.56.07.83-.25zm-74.86 25.33q1.42 2.71 3.39 4.13 2.88 3.24 5.82 6.39 2.08 2.23 4.1 2.53 4.23.64 7.23-3.68.37-.57 1.05-.96.54-.31.65.31.04.26-.08.66c-2.56 5.45-8.96 8.24-13.68 3.7-1.18-1.13-1.88-2.77-2.61-4.28q-.04-.09-.13-.08-.17 0-.24.08-.06.08-.01.26c2.64 9.64 12.83 8.45 17.02.98l1.16.62q.03.44.36.68.25.18.7.13 2.35-.26 3.46-2.33.17-.32.53-.38l.3-.05 6.19 15.87q.22.57-.38.54-4.39-.18-8.45-.4-.39-.41-1.07-.25.76-.24-.16-.28-3.29-3.53-8.04-3.36-14.94.54-18.92.54-.03-.28-.52-.52l2.93-7.69q.01-.02-.01-.02l-.24-.08q-.22-.07-.31.16L12 237.28q-.75-.01-.95.13-5.61-2.45-9.19-.14-1.13 1.3-1.86.89v-6.38l5.74-8.47 9.15-6.98z"/></g><path d="M51.43 211.07l.01 1.9c-2.48 3.55-5.93 1.92-9.25 2.51q-1.89-2.77-5.42-2.1a1.25 1.25 0 0 0-.81 1.92q1.14 1.71 3.88 1.92c-1.04 2.07-2.95 3.13-2.43 5.82q.09.44.51.29c2.24-.82 2.55-1.84 5.23-1.89q.65-.01.18-.45-.52-.47-1.45-.07-1.89.8-3.15 1.36-1.67.74-.87-.9 1.89-3.86 6.19-2.8.95.23.53-.65-.29-.6-1.52-.6-.54 0-.58-.54-.05-.6.52-.81c4.07-1.5 8.27 4.75 9.78 7.7q5.01 9.8 9.71 19.86c-2.73.64-4.2-.95-6.8 1.62a1.83 1.79-18.6 0 0-.51 1q-.36 2.39 1.83 1.74 2.76-.24 4.79-2.74l.97-1c1.94 5.54-4.68 8.61-8.56 5.12q-.67-.61-1.73-3.6-3.61-10.24-8.02-20.17-.28-.62-.55-.47.05-.32-.11-.48-.38-.37-.76 0c-1.56 1.52-1.57 3.34-4.48 2.43l-1.16-.62q.23-.46.24-.98.01-.84-.37-.1l-.22.42q.12-.4.08-.66-.11-.62-.65-.31-.68.39-1.05.96-.76-.66-1.39.64a1.79 1.77-5.6 0 1-.54.65q-5.77 4.26-9.24-.97-1.19-1.8.74-.85 3.59 1.75 7.54.76.11-.03.1-.14l-.03-.26q0-.04-.04-.04-8.3.56-14.29-5.03-3.01-3.8-4.5-8.48-.13-.42-.52-.62l-2.94-1.52a.37.36 20.1 0 1-.19-.4l.07-.32a.39.38 7.9 0 1 .4-.3l1.05.06q1.13.06.23-.63l-1.49-1.15a.68.67 42.4 0 1-.05-1.03l1.25-1.19q.52-.48.79.17l.9 2.11a.37.36 53 0 0 .62.09q4.91-5.97 5.01-13.75a.42.42 0 0 1 .63-.36q4.66 2.71 9.96 1.66a.21.21 0 0 1 .25.2q0 .13.01.25 0 .08-.09.17l-.99 1.01a.44.44 0 0 0 .28.74q8.71.76 16.82-2.36.66-.26.69.45l.8 15.17q.04.69.66.4.56-.25.99-.71a.96.96 0 0 1 1.49.09q.4.56 1.02.86zm-24.945-7.014a2.13.4 8.8 0 0-2.044-.721 2.13.4 8.8 0 0-2.166.069 2.13.4 8.8 0 0 2.044.721 2.13.4 8.8 0 0 2.166-.069zm14.46 1.003a2.5.53 6.4 0 0-2.425-.805 2.5.53 6.4 0 0-2.544.248 2.5.53 6.4 0 0 2.425.805 2.5.53 6.4 0 0 2.544-.248zM25.81 208.28l1.42 1.21a.21.21 0 0 0 .3-.29q-1.97-2.69-4.75-.53-.1.07-.04.18l.14.23q.02.03.04.01.87-.59 1.86-.98.56-.22 1.03.17zm10.25 1.52c1.18-.41 2.68-.52 3.82.29q1 .72.3-.28-2.09-2.96-4.48-.58-1.06 1.05.36.57zm-4.89 2.24l-.35.98a.33.33 0 0 0 .6.26q.52-1.06.37-2.29-.17-1.33-.52-.07-.1.37-.07.84a.61.51 56 0 1-.03.28zM23.98 214a1.07 1.07 0 0 0-.02-1.92l-1.85-.87a1.07 1.07 0 0 0-.65-.09l-1.97.37a1.07 1.07 0 0 0-.61 1.76l1.47 1.67a1.07 1.07 0 0 0 1.28.25l2.35-1.17zm24.68-.67q1.22-.25 1.15-1.41a.34.34 0 0 0-.62-.17l-.79 1.19a.25.25 0 0 0 .26.39zm-25.76 3.54c2.25 2.71 5.85 3.42 9.17 2.69q.16-.04.13-.19v-.01q-.04-.2-.2-.18-5.17.69-8.87-2.81-.01-.01-.03 0l-.18.17q-.16.16-.02.33zm4.88 3.94q-.28-.09-.15.18.59 1.25 1.96.8a.23.23 0 0 0-.01-.44l-1.8-.54zm67.49-8.6c-1.3 2.27-4.87 1.56-5.46-1.07a.99.98-14 0 1 .71-1.17q2.05-.55 4.05.24a1.4 1.4 0 0 1 .7 2zm12.95 1.33q-.24-.47-.9-.52-1.16-.9-1.22-2-.02-.51.42-.75 2.27-1.22 4.09-.05 2.63 1.69-.44 2.32-.73.14-1.95 1zm73.04.59q-.86-.04-1.65.87l-2.54-2.33a1.18 1.18 0 0 1 .75-2.05l3.29-.15q.64-.02.92.56.76 1.56-.77 3.1zm-15.87 1.36l-2.4-1.4q.73-.22.03-1.08-.33-.42.04-.81.23-.25.59-.37.3-.1.73.01 1.26.34 2.19.85 2.14 1.18-.23 1.78-.21.06-.95 1.02zm23.35 2.04q.87.12.24.15l7.54 4.85 1.48.33v14.23l-1.99.88-5.2.49q-.5.05-.91-.23-.45-.3-.79.16a.76.76 0 0 1-.59.31q-7.17.25-14.26-.61c-3-.36-6.7.07-9.76 1.87q-3.64 2.14-8.24 1.15-.97-.21-.58-1.13l5.82-13.4a1.59 1.57 10.2 0 1 1.37-.94c4.8-.27 5.57 6.84 11.76 6.95 4.78.09 8.42-4.14 9.09-8.73q.07-.48.38-.86l4.64-5.47zm5.792 12.015a.79.36 46.7 0 0-.28-.822.79.36 46.7 0 0-.804-.328.79.36 46.7 0 0 .28.822.79.36 46.7 0 0 .804.328zm-5.312 7.425q.05-3.66-.98-6.59-.02-.05-.03-.06-.14-.02-.27-.04-.17-.04-.14.14l1.1 6.57q.29 1.72.32-.02zm-8.8-10.25l-.15-1.3q1.07-1.02 2.33-1.34.56-.14.4.42c-1.11 3.8-4.91 8.02-9.25 7.37q-1.56-.23-2.17-1.09-.78-1.11.48-.62 5.15 1.97 8.36-3.44zM11.05 237.41q.2-.14.95-.13.48.56.56-.1.49.24.52.52.97.48 2.67.52 8.59.21 14.27-.26 5.55-.46 10.02 2.56.92.04.16.28 1.98 1.31 3.01 3.04a1.47 1.47 0 0 1-.76 2.14l-1.03.37a.91.9-89.2 0 0-.55.54q-.75 1.96-2.73 3.01.22 1.9-1.65 2.64a1.97 1.96 52.7 0 1-1.9-.26l-6.87-5.17q-.62-1.08-1.47-1c-7.38.67-14.77 1.31-22.18 1.49.56-2.57 2.01-7.94-1.22-9.01a.95.94 34.3 0 0-.87.16q-.93.72-1.98.89v-1.48q.73.41 1.86-.89 1.04-.05 2.29-.37c2.12-.54 4.69.26 6.9.51zm29.497 8.678a2.26.3 46.8 0 0-1.328-1.853 2.26.3 46.8 0 0-1.766-1.442 2.26.3 46.8 0 0 1.328 1.853 2.26.3 46.8 0 0 1.766 1.442zm109.693-.068q-2.51.02-3.29-2.04 2.54-1.65 3.29 2.04zm-26.47.38q-1.42.93-2.26 2.25-2.58.95-3.66-.83a.91.88-46.4 0 1-.01-.92c.87-1.51 3.96-4.29 5.74-2.76q.99.86.19 2.26zm-44-2.1q.13-.17.27-.33 1.51 2.02 4.25 2.66-.28.39.21.96-1.77.57-4-1.15-1.16-.91-.73-2.14z" fill="#c08552"/><path d="M65.44 81.51c1-.02 2.02-.5 2.87-.51 5.76 0 2.78 10.36 1.53 13.35q-.17.42-.62.34l-2.71-.45q-.61-.11-.54-.73l1.08-8.71q.15-1.24-1.01-.79l-.51.2q-1.03.4-1.03 1.51v6.23q0 .96-.95 1.06l-2.59.26q-.9.1-.92-.81l-.33-15.67q-.02-1.02 1-1.02l3.6-.03q1.09-.01 1 1.08l-.35 4.17q-.05.53.48.52zm13.53-2.01l-3.55.01a.42.42 0 0 1-.42-.42v-2.91a.42.42 0 0 1 .42-.42l4.2-.01a.42.42 0 0 1 .42.51l-.66 2.91a.42.42 0 0 1-.41.33zm3.07 15.15l-.7-17.62a.62.62 0 0 1 .53-.64l4.14-.61a.62.62 0 0 1 .71.62l-.36 18.24a.62.62 0 0 1-.62.61l-3.09-.01a.62.62 0 0 1-.61-.59zm13.68-1.38q-.73.76-1.67 1.23-.4.19-.83.2-2.95.09-4.15-3.23c-2.07-5.72.56-8.52 5.96-10.76a.76.75 79.1 0 0 .47-.7V77.5q0-1 1-1l3.27.01q1.01 0 .99 1.01L100.41 94a.63.63 0 0 1-.53.61l-2.41.37a.66.66 0 0 1-.75-.5l-.24-1a.45.45 0 0 0-.76-.21zm-1.243-1.976a3.82 1.32 93.2 0 0 1.531-3.74 3.82 1.32 93.2 0 0-1.105-3.888 3.82 1.32 93.2 0 0-1.531 3.74 3.82 1.32 93.2 0 0 1.105 3.888zM52.89 80.3q-.68-.28-1.33-.09-.42.11-.59.52-2.28 5.43-.49 9.65 2.01 4.74 3.5-.19l.44-1.45q.19-.63.84-.52l2.03.34q.63.1.54.74-.79 5.11-6.06 5.58c-10.62.95-9.19-16.42.73-17.57q4.76-.55 5.62 4.47a.98.97-9.9 0 1-.79 1.12l-2.89.5q-.84.14-.9-.71l-.1-1.63q-.04-.56-.55-.76zm56.24 4.09q-1.03 4.42-.41 8.94.12.88-.77.9l-2.23.03q-1.07.02-1.3-1.02-1.32-5.77-.83-11.69a.73.72-3.1 0 1 .6-.66q2.33-.42 4.56.38a1.12 1.11-53.4 0 0 1.04-.16l1.15-.88q.49-.37 1.07-.14 2.82 1.11 2.73 4.3-.03 1-1.03 1.12l-2.23.25q-.91.11-1.06-.79-.1-.57-.55-.87a.48.48 0 0 0-.74.29zm11.45 6.64a.74.73 71.7 0 0 1.15.58q1.15-.8 1.89-1.97a.7.7 0 0 1 .95-.23l2.19 1.27a.56.56 0 0 1 .15.85c-2.23 2.61-7.86 4.74-10.23 1.02-2.86-4.51-.3-10 4.22-11.89 6.7-2.79 8.26 7.24 3.35 7.28q-1.63.01-3.27.1-.52.03-.5.55l.1 2.44zm.344-5.6a1.37.97 133.1 0 0 1.644-.338 1.37.97 133.1 0 0 .228-1.663 1.37.97 133.1 0 0-1.644.338 1.37.97 133.1 0 0-.228 1.663zm26.886-.81c2.33 1.6 8.1 4.39 4.93 8.21-2.43 2.94-8 2.91-9.77-.82a1.43 1.43 0 0 1 1.66-2q1.3.35 1.7 1.71a1.01 1.01 0 0 0 .81.71q.86.13 1.46-.59.95-1.13-.43-1.66c-10.51-4.03-1.88-14.74 5.72-7.52a.95.95 0 0 1-.27 1.56l-2.36 1.05a.78.78 0 0 1-1-.33l-.83-1.49q-.23-.41-.69-.43-.87-.05-1.19.74-.21.53.26.86zm-11.29.93a.91.9 1 0 0-.98-1.01l-.43.04q-1.21.1-1.23 1.31l-.17 8.19q-.01.52-.54.57l-2.71.22q-.72.06-.77-.66l-.86-12.61q-.04-.62.57-.66l3.83-.3q.58-.05.75.5.11.35.39.54.45.29.88-.02c2.64-1.87 4.99-.63 5.58 2.37q.92 4.72-.74 9.3-.16.45-.63.38l-2.87-.44a1.06 1.05-82.2 0 1-.89-1.18l.82-6.54zM79.3 81.57l-1 11.68a.74.74 0 0 1-.61.67l-2.87.51a.74.74 0 0 1-.87-.75l.36-11.6a.74.74 0 0 1 .62-.7l3.51-.6a.74.74 0 0 1 .86.79zm26.1 46.81l-.87-17.7a.77.77 0 0 1 .68-.8l3.72-.44a.77.77 0 0 1 .86.77l-.07 17.75a.77.77 0 0 1-.66.76l-2.79.39a.77.77 0 0 1-.87-.73zm57.73-.23l-.81-17.21a1.02 1.02 0 0 1 .9-1.06l3.28-.41a1.02 1.02 0 0 1 1.14 1.03l-.26 17.19a1.02 1.02 0 0 1-.82.99l-2.22.43a1.02 1.02 0 0 1-1.21-.96zM25.11 111.83l-.27 15.33a.82.82 0 0 1-.69.8l-2.56.39a.82.82 0 0 1-.95-.78l-.66-15.72a.82.82 0 0 1 .82-.85h3.49a.82.82 0 0 1 .82.83zm22.63 12.65q.63.06.47-1.52-.13-1.35 1.12-.84l1.1.44a1.69 1.68-70.9 0 1 .98 2.04q-.77 2.59-2.65 2.71c-6.05.37-7.06-4.31-6.06-9.24q.12-.55-.42-.71-1.7-.51-1.27-2.3.12-.48.61-.49 1.78-.01 1.44-1.98a.75.74-3.4 0 1 .78-.87l3.97.21q.61.03.53.63l-.26 1.94a.43.43 0 0 0 .42.48l2.48.04a.56.55-83.5 0 1 .53.67q-.62 2.81-3.58 1.85-.66-.2-.66.48l-.08 5.84q0 .56.55.62zm70.82-9.49l2.22.01q.78.01.65.78l-.2 1.15q-.13.77-.91.74l-2.12-.09q-.62-.02-.66.6l-.36 5.55a.29.28.9 0 0 .3.3q.15 0 .29 0 .32-.01.46-.28l.53-1.01a1.45 1.45 0 0 1 2.7.37c.59 2.64-1.42 4.66-4.1 4.33-5.21-.63-4.98-5.64-4.79-9.78a.66.65 13 0 0-.4-.63q-1.18-.49-1.18-1.75 0-.5.49-.51l1.03-.03q.48-.01.55-.49l.33-2.09a.6.6 0 0 1 .64-.51l3.99.31a.62.62 0 0 1 .54.81l-.49 1.53a.53.52-80.6 0 0 .49.69zm-46.55 3.22q-1.1 4.36-.32 8.77.14.78-.64.77l-3.28-.01q-.71-.01-.76-.72l-.87-11.81a.69.69 0 0 1 .65-.74l3.13-.21a1.06 1.05-19.1 0 1 .94.45l.45.65q.32.46.73.08 1.38-1.33 3.19-1.62.59-.09.97.37 1.33 1.62 1.32 3.69 0 .53-.44.82-2.52 1.69-4.3-.65a.44.44 0 0 0-.77.16zm70.84-3.17q.64-1.25 1.95-1.29c2.42-.08 3.19 3.17 2.76 5.02q-.12.46-.59.46l-2.7.03a.79.79 0 0 1-.73-.49q-.22-.55-.77-.78-.56-.23-.69.37-.89 4.14-.11 8.3.2 1.08-.9 1.09h-2.37a1.42 1.41 87.6 0 1-1.41-1.3l-.97-10.92q-.04-.55.43-.81c2.01-1.11 3.6-.13 5.35.6q.5.21.75-.28zM59.12 125.3q1.05-.56 1.25-1.76a.65.64 7.3 0 1 .69-.53q1.38.11 2.46.96a1.14 1.13 41.5 0 1 .11 1.69c-3.98 4.05-10.96 3.24-10.83-3.67q.13-6.52 7.15-8.06 1.39-.3 2.93.81c2.15 1.55 1.86 4.36.47 6.28a1.06 1.05 16.5 0 1-.82.44l-4 .15q-.55.02-.7.55-.47 1.61.5 2.96.31.43.79.18zm-.47-5.931a1.52.91 107.6 0 0 1.327-1.174 1.52.91 107.6 0 0-.408-1.724 1.52.91 107.6 0 0-1.327 1.174 1.52.91 107.6 0 0 .408 1.724zm97.1.131q.03-1.29-.43-2.51a.72.72 0 0 0-1.25-.18q-.78 1.06-1.19 2.32a.3.3 0 0 1-.42.18l-3.1-1.47q-.4-.19-.29-.61c.73-2.73 5.86-3.58 7.95-3.04 5.22 1.35 3.24 10.46 1.64 13.77q-.22.44-.71.45-1.85.03-3.31-1.1a1.06 1.05 58.9 0 0-.83-.21q-3.95.68-5.28-2.36c-1.92-4.38 4.31-4.2 6.66-4.58a.68.67 86 0 0 .56-.66zm-1.8 3.45q-1.11 1.51.51 2.32a.69.68 14.7 0 0 1-.58l.05-1.19a.87.86-25.6 0 0-1.56-.55zm-118.81-4.18a.67.67 0 0 0-1-.66l-.7.4q-1.08.62-1.08 1.86l.02 7.17q0 .66-.66.73l-2.77.27a.64.64 0 0 1-.71-.6l-.83-12.7a.68.68 0 0 1 .61-.72l3.81-.41q.63-.07.99.45l.36.5a.61.61 0 0 0 .77.2c.9-.44 1.84-1.04 2.82-.99 4.38.23 2.77 10.24 2.07 12.62q-.14.47-.63.43l-3.37-.3q-.62-.05-.55-.67l.85-7.58zm50.34-1.56a.61.61 0 0 0-1.15-.15q-1.84 3.69-.77 7.74a.94.93 62 0 0 1.52.47l2.04-1.78q.76-.66 1.47.04l.71.7a1 .99 45.6 0 1-.01 1.44c-2.86 2.71-9.82 4.3-10.56-1.41q-1.03-7.9 6.25-9.74 3.88-.98 4.97 2.74a.98.97 60.4 0 1-.27.99q-1.27 1.17-3.08.97a1 1 0 0 1-.87-.79l-.25-1.22zm10.34 6.31a.56.56 0 0 0 1.01.35c1.63-2.17 1.5-4.76.93-7.36q-.19-.86.67-1.02l3.02-.55q.78-.15 1 .62c1.1 3.99.26 10.04-4.14 11.78q-2.65 1.05-4.78-.45c-3.57-2.51-3.13-8.05-1.55-11.68q.21-.5.75-.6 1.41-.25 2.82-.01a.67.67 0 0 1 .55.68l-.28 8.24zm32.89 1.02a.59.59 0 0 0 .7-.46q.81-3.89.32-7.84-.08-.6.52-.71l3.22-.61q.61-.11.78.48c1.47 4.92-.18 11.55-5.99 12.54-6.23 1.05-5.39-8.98-4.41-12.36q.25-.85 1.12-.91l2.28-.15q1.11-.08.93 1.02-.67 4.11.07 8.46.08.46.46.54zm-34.14 22.2l-3.14.01a.67.67 0 0 1-.67-.67l-.02-2.49a.67.67 0 0 1 .65-.67l3.74-.15a.67.67 0 0 1 .68.82l-.59 2.63a.67.67 0 0 1-.65.52zm21.87-.04l-3.29.17a.62.62 0 0 1-.66-.63l.03-2.71a.62.62 0 0 1 .6-.61l3.92-.08a.62.62 0 0 1 .62.76l-.65 2.63a.62.62 0 0 1-.57.47zm-56.85 1.81l1.72-.04a.91.9-2.6 0 1 .93.84l.07.99q.07.93-.86.94l-2.54.01a.65.64.9 0 0-.64.61l-.33 5.64a.52.52 0 0 0 .91.38q.53-.59.47-1.42a.86.86 0 0 1 1.19-.86c2.78 1.17 1.97 3.88-.21 4.74-6.03 2.38-7.63-3.95-6.9-8.38a.91.91 0 0 0-.36-.88l-1.16-.86a1.03 1.03 0 0 1 .28-1.8q1.87-.65 2.09-2.65a.67.66 7 0 1 .76-.59l3.84.54q.57.07.46.63l-.29 1.48a.57.57 0 0 0 .57.68zm10.33 2.81q-1.31 4.54-.41 9.17.17.91-.75.9l-3.04-.04q-.87-.01-.94-.88l-.98-11.98q-.04-.49.46-.49h3.71q.51 0 .85.38l.46.52a.54.53-52 0 0 .87-.11q.76-1.43 2.37-1.57.57-.06.96.35 1.59 1.66 1.9 3.98a1.06 1.05-7.3 0 1-.92 1.18l-2.08.25q-1.02.12-1.35-.86l-.27-.82a.44.44 0 0 0-.84.02zm13.29 1.8q.22-1.48-.37-2.87-.3-.71-.9-.22-.97.77-1.26 2.02a.98.98 0 0 1-1.24.73q-1.44-.43-2.51-1.41a1.25 1.24 49.2 0 1 .14-1.95c3.43-2.31 10.02-3.6 10.57 2.58q.41 4.7-1.41 9.32a1.28 1.28 0 0 1-1.77.68c-2.38-1.18-4.83-.71-6.82-1.57-2.15-.93-2.3-3.6-.82-5.17 1.47-1.56 3.79-1.01 5.7-1.41q.6-.12.69-.73zm-.046 3.578a1.38 1.12-34 0 0-1.77-.157 1.38 1.12-34 0 0-.518 1.7 1.38 1.12-34 0 0 1.77.157 1.38 1.12-34 0 0 .518-1.7zm21.416-4.148q.12-1.23-1.04-.82l-.32.1q-1.11.39-1.15 1.57l-.32 7.85q-.02.48-.5.54l-2.98.36a.41.41 0 0 1-.46-.38l-.87-12.74a1.08 1.08 0 0 1 1.03-1.15l3.11-.14q.57-.03.95.39.4.41.91.68.43.21.81-.08c1.76-1.32 3.91-1.21 4.84 1.02 1.23 2.91.66 7.46-.11 10.43a.9.89 9.9 0 1-.95.66l-3.04-.3q-.72-.08-.64-.79l.73-7.2zm20.53-3.33c1.5-1.18 3.69-1.79 4.99.07 1.73 2.45.76 8.44.03 11.09q-.13.47-.62.43l-3.29-.24q-.8-.06-.7-.85l.91-7.47a.64.64 0 0 0-1-.6l-.64.43a2.36 2.35-17 0 0-1.04 1.95l-.01 6.7q0 .98-.97 1.1l-2.47.33a.66.66 0 0 1-.74-.61l-.82-12.33a.92.91 78.4 0 1 .61-.93q2.02-.73 4.2-.51a.74.73-4.5 0 1 .64.54l.17.65q.19.69.75.25zm14.5 11.85c-12-1.36-6.87-15.58 3.53-12.5q.91.27 1.1 1.39c.93 5.65 2.53 19.51-7.96 16.82q-2-.52-2.83-1.66-.36-.51-.11-1.09 1.12-2.6 3.92-2.04.63.13.5.76-.22 1.1.77 1.64a.6.6 0 0 0 .86-.34l.71-2.23q.21-.67-.49-.75zm.87-3.12l-.64-7.03a.17.17 0 0 0-.18-.15h-.06a2.58 2.25 84.8 0 0-2.01 2.78l.21 2.23a2.58 2.25 84.8 0 0 2.47 2.36h.06a.17.17 0 0 0 .15-.19zm-45.39-8.45l-1.13 10.6a1.15 1.15 0 0 1-.95 1.02l-1.95.33a1.15 1.15 0 0 1-1.34-1.14l.08-10.73a1.15 1.15 0 0 1 1.07-1.14l2.99-.21a1.15 1.15 0 0 1 1.23 1.27zm16.52 11.34v-11.6a.73.73 0 0 1 .68-.73l3.81-.29a.73.73 0 0 1 .78.81l-1.15 11.42a.73.73 0 0 1-.6.65l-2.66.46a.73.73 0 0 1-.86-.72z" fill="#fff"/></svg>