<svg width="198" height="300" viewBox="0 0 198 300" fill="none" xmlns="http://www.w3.org/2000/svg">
<g clip-path="url(#clip0_106_504)">
<mask id="mask0_106_504" style="mask-type:luminance" maskUnits="userSpaceOnUse" x="0" y="0" width="198" height="300">
<path d="M0.00524902 10.0554C0.00524902 4.53258 4.4824 0.0554199 10.0052 0.0554199H187.829C193.351 0.0554199 197.829 4.53257 197.829 10.0554V289.678C197.829 295.2 193.351 299.678 187.829 299.678H10.0053C4.4824 299.678 0.00524902 295.2 0.00524902 289.678V10.0554Z" fill="white"/>
</mask>
<g mask="url(#mask0_106_504)">
<path d="M0.00524902 10.0554C0.00524902 4.53258 4.4824 0.0554199 10.0052 0.0554199H187.829C193.351 0.0554199 197.829 4.53257 197.829 10.0554V289.678C197.829 295.2 193.351 299.678 187.829 299.678H10.0053C4.4824 299.678 0.00524902 295.2 0.00524902 289.678V10.0554Z" fill="white"/>
<path d="M0.00524902 10.0554C0.00524902 4.53258 4.4824 0.0554199 10.0052 0.0554199H187.829C193.351 0.0554199 197.829 4.53257 197.829 10.0554V289.678C197.829 295.2 193.351 299.678 187.829 299.678H10.0053C4.4824 299.678 0.00524902 295.2 0.00524902 289.678V10.0554Z" fill="#DFAB6D"/>
</g>
<mask id="mask1_106_504" style="mask-type:luminance" maskUnits="userSpaceOnUse" x="19" y="21" width="159" height="258">
<path d="M19.7794 21.2311H177.979V278.374H19.7794V21.2311Z" fill="white"/>
</mask>
<g mask="url(#mask1_106_504)">
<mask id="mask2_106_504" style="mask-type:luminance" maskUnits="userSpaceOnUse" x="19" y="21" width="159" height="258">
<path d="M176.201 22.1449C176.709 22.1449 177.127 22.5927 177.127 23.1365V276.468C177.127 277.014 176.709 277.46 176.201 277.46H21.5588C21.0496 277.46 20.6327 277.014 20.6327 276.468V23.1365C20.6327 22.5927 21.0496 22.1449 21.5588 22.1449H176.201ZM176.201 21.2311H21.5588C20.5782 21.2311 19.7794 22.0865 19.7794 23.1365V276.468C19.7794 277.519 20.5782 278.374 21.5588 278.374H176.201C177.181 278.374 177.979 277.519 177.979 276.468V23.1365C177.979 22.0865 177.181 21.2311 176.201 21.2311Z" fill="white"/>
</mask>
<g mask="url(#mask2_106_504)">
<path d="M19.7794 21.2311H177.979V278.374H19.7794V21.2311Z" fill="white"/>
</g>
</g>
<path d="M145.066 198.032C141.964 196.76 142.44 195.624 134.713 192.025C127.853 188.828 111.576 195.493 104.984 172.846C95.562 140.484 125.749 115.054 160.787 126.909C167.94 129.328 189.371 143.713 186.226 169.461C184.603 182.759 175.716 194.168 163.747 197.852C158.305 199.527 151.572 200.699 145.066 198.032Z" fill="#E1D7F7"/>
<path d="M131.118 181.955H117.036V153.488H131.118V181.955Z" fill="white"/>
<path d="M131.118 152.292H117.036V123.827H131.118V152.292Z" fill="white"/>
<path d="M146.318 181.955H132.235V153.488H146.318V181.955Z" fill="white"/>
<path d="M146.318 152.292H132.235V123.827H146.318V152.292Z" fill="white"/>
<path d="M161.518 181.955H147.435V153.488H161.518V181.955Z" fill="white"/>
<path d="M161.518 152.292H147.435V123.827H161.518V152.292Z" fill="white"/>
<path d="M159.549 140.263C159.205 140.157 159.093 139.948 158.845 139.866C156.979 139.25 154.31 140.556 153.235 141.325C150.703 143.139 150 146.349 149.525 148.527C148.727 152.173 149.252 155.109 149.369 155.723C149.76 157.778 150.565 162.006 154.113 164.455C157.06 166.49 160.211 166.13 161.179 166.02C162.341 165.886 164.03 165.671 165.701 164.338C166.249 163.902 167.787 162.557 168.473 160.22C169.207 157.723 168.852 155.541 168.338 153.857C167.779 152.022 166.511 150.972 165.436 148.223C164.701 146.338 165.261 143.597 161.887 141.115C160.532 140.121 160.127 140.439 159.549 140.263Z" fill="#512618"/>
<path d="M152.846 141.84C152.407 142.115 151.978 142.43 151.607 142.815C151.235 143.197 150.892 143.622 150.601 144.083C150.011 145.003 149.596 146.04 149.273 147.089C149.113 147.615 148.975 148.146 148.848 148.676C148.783 148.937 148.723 149.21 148.666 149.481C148.635 149.616 148.613 149.752 148.588 149.889L148.516 150.299C148.348 151.398 148.273 152.512 148.304 153.626C148.321 154.182 148.361 154.739 148.429 155.292C148.464 155.569 148.505 155.846 148.556 156.121L148.595 156.327L148.635 156.527C148.661 156.661 148.69 156.796 148.72 156.929C148.948 158.003 149.247 159.075 149.673 160.093C150.095 161.11 150.643 162.075 151.326 162.913C152.008 163.75 152.819 164.462 153.724 164.97C152.919 164.299 152.209 163.525 151.639 162.648C151.064 161.778 150.611 160.826 150.264 159.833C150.088 159.337 149.942 158.829 149.809 158.316C149.682 157.801 149.57 157.282 149.473 156.755L149.4 156.359L149.364 156.16L149.33 155.965C149.287 155.708 149.252 155.447 149.225 155.184C149.165 154.659 149.13 154.129 149.116 153.599C149.107 153.335 149.108 153.07 149.108 152.804C149.109 152.672 149.114 152.54 149.118 152.406C149.12 152.274 149.127 152.142 149.135 152.01C149.156 151.478 149.216 150.951 149.277 150.424L149.334 150.031C149.352 149.9 149.37 149.769 149.396 149.638C149.446 149.378 149.487 149.118 149.543 148.851C149.651 148.323 149.757 147.798 149.885 147.281C150.138 146.249 150.461 145.238 150.94 144.306C151.169 143.832 151.459 143.398 151.77 142.979L152.016 142.673C152.102 142.574 152.193 142.482 152.281 142.386L152.415 142.24C152.461 142.196 152.509 142.153 152.556 142.108L152.846 141.84Z" fill="#512618"/>
<path d="M166.481 164.434C166.956 164.088 167.396 163.676 167.788 163.214C168.186 162.757 168.528 162.241 168.817 161.693C169.107 161.143 169.333 160.548 169.491 159.938C169.654 159.33 169.759 158.703 169.806 158.067C169.852 157.433 169.841 156.792 169.773 156.159C169.704 155.524 169.58 154.901 169.416 154.291C169.373 154.139 169.331 153.988 169.285 153.837L169.212 153.613C169.19 153.538 169.159 153.46 169.131 153.384C169.022 153.075 168.885 152.782 168.738 152.498C168.439 151.935 168.092 151.426 167.763 150.926C167.429 150.43 167.109 149.937 166.82 149.424C166.746 149.298 166.677 149.168 166.607 149.039L166.503 148.844L166.405 148.647C166.339 148.515 166.273 148.382 166.213 148.248L166.121 148.046L166.074 147.944C166.061 147.912 166.049 147.88 166.036 147.848C165.825 147.339 165.703 146.751 165.558 146.152C165.486 145.852 165.412 145.548 165.322 145.245C165.282 145.093 165.226 144.943 165.178 144.793C165.131 144.641 165.068 144.495 165.009 144.346C164.77 143.756 164.451 143.202 164.071 142.705C163.866 142.471 163.675 142.224 163.447 142.019L163.282 141.861C163.227 141.807 163.173 141.754 163.112 141.708L162.758 141.423C162.643 141.324 162.515 141.245 162.392 141.161L162.021 140.912C161.767 140.755 161.507 140.608 161.232 140.492C160.958 140.377 160.667 140.289 160.372 140.267C160.076 140.242 159.793 140.297 159.507 140.246C159.644 140.296 159.79 140.318 159.933 140.335C160.077 140.35 160.219 140.366 160.355 140.398C160.632 140.455 160.891 140.569 161.137 140.711C161.384 140.854 161.62 141.018 161.849 141.195L162.185 141.471C162.297 141.564 162.41 141.654 162.511 141.758L162.824 142.058C162.878 142.106 162.926 142.161 162.974 142.215L163.115 142.378C163.315 142.587 163.476 142.829 163.651 143.057C163.967 143.538 164.226 144.056 164.418 144.605C164.614 145.153 164.74 145.73 164.86 146.327C164.98 146.923 165.091 147.547 165.327 148.172C165.342 148.211 165.355 148.252 165.371 148.289L165.417 148.396L165.51 148.611C165.57 148.755 165.638 148.896 165.707 149.036L165.808 149.246L165.913 149.455C165.984 149.592 166.056 149.732 166.133 149.866C166.434 150.409 166.766 150.929 167.101 151.431C167.438 151.933 167.769 152.42 168.043 152.924C168.177 153.175 168.303 153.43 168.4 153.695C168.426 153.762 168.452 153.826 168.476 153.896L168.546 154.107C168.592 154.248 168.637 154.388 168.679 154.53C168.848 155.097 168.978 155.676 169.065 156.26C169.148 156.846 169.185 157.438 169.17 158.031C169.155 158.625 169.089 159.217 168.976 159.801C168.861 160.387 168.694 160.954 168.464 161.501C168.238 162.05 167.951 162.573 167.616 163.063C167.451 163.31 167.27 163.547 167.079 163.775C166.892 164.006 166.69 164.223 166.481 164.434Z" fill="#512618"/>
<path d="M145.107 181.87C144.694 181.008 143.909 180.615 142.483 179.902C141.707 179.514 141.701 179.543 140.789 179.216C138.41 178.359 136.641 176.582 135.772 175.486C135.552 175.21 135.385 174.896 135.251 174.564C135.207 174.451 135.153 174.348 135.098 174.258C134.701 173.611 134.04 173.471 132.716 173.187C131.993 173.031 129.676 172.719 128.908 173.425C128.533 173.77 128.926 174.653 129.198 175.092C129.571 175.686 130.076 175.949 130.556 176.19C130.944 176.384 131.321 176.51 131.657 176.589C132.223 176.722 132.747 177.013 133.177 177.43C135.083 179.28 134.561 179.633 137.517 183.443C140.333 187.07 141.897 186.788 142.714 186.717C142.879 186.702 143.442 186.638 143.975 186.272C145.219 185.418 145.783 183.276 145.107 181.87Z" fill="#EC7D40"/>
<path d="M142.445 187.219C146.121 187.155 150.012 184.195 151.164 180.905C151.182 180.852 151.261 180.867 151.307 180.836C151.482 181.699 151.508 182.748 151.634 184.073C151.685 184.602 151.73 185.06 151.772 185.46C151.673 186.031 151.503 186.634 151.243 187.271C151.108 187.603 151.015 187.869 150.965 188.081H171.377C171.197 186.613 170.319 185.223 169.438 183.28C168.868 182.019 168.326 180.828 167.987 179.49C167.873 178.642 167.757 177.809 167.635 176.995C167.604 176.059 167.678 175.028 167.895 173.856C168.464 170.772 171.81 165.929 169.741 162.116C169.003 160.757 167.516 161.28 163.26 159.915C162.799 159.768 159.072 157.857 156.077 158.812C154.484 159.321 153.238 159.817 151.608 160.002C151.377 160.027 149.057 160.735 147.808 162.616C144.053 168.276 142.919 175.978 141.871 178.046C140.111 177.535 138.86 177.74 138.112 178.149C136.76 178.888 136.091 180.535 136.067 180.834C135.976 182.062 136.264 182.885 136.455 183.33C137.385 185.496 140.221 187.258 142.445 187.219Z" fill="#FCCC44"/>
<path d="M145.856 131.179H123.731C122.288 131.179 121.117 132.431 121.117 133.975V145.099C121.117 146.643 122.288 147.894 123.731 147.894H139.893L142.872 150.808V147.894H145.856C147.299 147.894 148.469 146.643 148.469 145.099V133.975C148.469 132.431 147.299 131.179 145.856 131.179Z" fill="#FFBCB0"/>
<path d="M139.493 144.193C139.493 144.534 139.236 144.809 138.917 144.809C138.601 144.809 138.342 144.534 138.342 144.193C138.342 143.854 138.601 143.578 138.917 143.578C139.236 143.578 139.493 143.854 139.493 144.193Z" fill="#D87E77"/>
<path d="M141.879 144.193C141.879 144.533 141.621 144.808 141.303 144.808C140.986 144.808 140.728 144.533 140.728 144.193C140.728 143.854 140.986 143.578 141.303 143.578C141.621 143.578 141.879 143.854 141.879 144.193Z" fill="#D87E77"/>
<path d="M144.263 144.193C144.263 144.534 144.006 144.809 143.688 144.809C143.37 144.809 143.113 144.534 143.113 144.193C143.113 143.854 143.37 143.578 143.688 143.578C144.006 143.578 144.263 143.854 144.263 144.193Z" fill="#D87E77"/>
<path d="M144.236 135.957H130.983C130.665 135.957 130.405 135.68 130.405 135.338C130.405 134.997 130.665 134.72 130.983 134.72H144.236C144.555 134.72 144.813 134.997 144.813 135.338C144.813 135.68 144.555 135.957 144.236 135.957Z" fill="white"/>
<path d="M144.236 138.909H124.958C124.64 138.909 124.381 138.633 124.381 138.29C124.381 137.95 124.64 137.673 124.958 137.673H144.236C144.556 137.673 144.813 137.95 144.813 138.29C144.813 138.633 144.556 138.909 144.236 138.909Z" fill="white"/>
<path d="M144.236 141.862H124.958C124.64 141.862 124.381 141.585 124.381 141.245C124.381 140.903 124.64 140.626 124.958 140.626H144.236C144.556 140.626 144.813 140.903 144.813 141.245C144.813 141.585 144.556 141.862 144.236 141.862Z" fill="white"/>
<path d="M136.642 144.815H124.958C124.64 144.815 124.38 144.538 124.38 144.197C124.38 143.855 124.64 143.578 124.958 143.578H136.642C136.96 143.578 137.22 143.855 137.22 144.197C137.22 144.538 136.96 144.815 136.642 144.815Z" fill="white"/>
<path d="M173.262 171.484C173.907 171.977 174.423 172.518 174.759 173.322C175.096 174.13 175.563 174.466 175.735 175.587C175.923 176.821 176.475 177.334 176.811 178.249C176.946 178.611 178.206 182.174 176.648 184.76C176.496 185.012 175.35 186.595 173.62 186.877C173.328 186.924 172.462 187.026 171.143 186.38C168.22 184.952 167.007 183.766 166.103 180.761C166.103 180.761 165.544 176.864 166.496 172.857C166.605 172.395 167.103 171.896 167.473 171.47C167.656 171.26 170.632 169.482 173.262 171.484Z" fill="#FCCC44"/>
<path d="M165.673 161.358C165.827 161.202 166.205 161.337 166.429 161.509C166.699 161.718 166.795 162.021 166.852 162.212C166.981 162.639 167.016 162.789 167.122 163.458C167.17 163.76 167.221 164.082 167.329 164.095C167.424 164.106 167.514 163.879 167.691 163.427C168.02 162.593 168.138 161.63 168.269 160.423C168.503 158.264 168.681 157.672 168.951 157.373C169.012 157.308 169.193 157.109 169.37 157.162C169.486 157.196 169.548 157.324 169.556 157.342C169.621 157.483 169.569 157.63 169.572 157.685C169.587 158.028 169.619 157.491 169.8 157.216C169.847 157.145 170.02 156.883 170.285 156.885C170.42 156.886 170.585 156.957 170.65 157.095C170.721 157.244 170.639 157.415 170.632 157.477C170.554 158.13 170.646 158.191 170.611 160.149C170.599 160.678 170.529 161.056 170.58 161.067C170.619 161.074 170.759 160.07 170.734 159.723C170.704 159.337 170.656 158.698 170.993 158.337C171.011 158.316 171.282 158.029 171.516 158.118C171.629 158.162 171.689 158.273 171.703 158.299C171.812 158.504 171.749 158.746 171.728 158.833C171.686 159.002 171.701 159.491 171.729 160.473C171.747 161.066 171.45 162.641 171.517 162.888C171.534 162.945 171.564 163.055 171.633 163.073C171.745 163.1 171.882 162.867 172.04 162.593C172.46 161.858 172.672 161.491 172.766 161.297C172.88 161.057 172.994 160.807 173.231 160.548C173.393 160.372 173.534 160.276 173.682 160.297C173.701 160.298 173.81 160.313 173.866 160.401C173.942 160.519 173.975 160.807 173.568 161.714C173.189 162.559 173.098 162.636 172.885 163.16C172.762 163.462 172.794 163.43 172.569 164.053C172.28 164.85 172.245 164.852 172.058 165.377C171.68 166.434 171.178 167.868 171.078 168.174C171.006 168.397 170.852 168.925 170.859 169.636C170.867 170.672 171.202 170.814 171.036 171.19C170.747 171.848 169.499 171.931 168.669 171.693C168.331 171.597 167.694 171.401 167.468 169.543C167.381 168.838 167.265 168.557 167.164 168.338C167.016 168.021 166.392 166.882 166.243 166.096C166.126 165.486 166.07 164.996 166.036 164.696C165.968 164.069 165.987 163.982 165.908 163.405C165.82 162.758 165.755 162.383 165.755 162.383C165.63 161.658 165.562 161.468 165.673 161.358Z" fill="#EC7D40"/>
<path d="M162.282 146.975C161.724 151.006 161.583 151.841 161.511 154.554C161.413 158.34 161.862 159.324 161.479 160.634C161.028 162.178 159.854 162.968 157.854 163.017C156.472 163.05 155.258 161.868 155.191 160.609C155.042 157.703 154.913 156.157 154.429 153.74C153.893 151.058 153.698 149.305 154.463 147.987C155.912 145.491 162.527 145.21 162.282 146.975Z" fill="#EC7D40"/>
<path d="M152.004 145.064C151.413 146.687 151.568 147.636 151.713 148.303C151.781 148.615 151.922 149.082 151.889 149.762C151.869 150.154 151.803 150.424 151.763 150.612C151.564 151.558 151.62 152.417 151.742 152.997C151.981 154.146 153.424 157.653 154.516 158.319C154.965 158.591 155.398 158.654 155.746 158.673C156.549 158.717 157.206 158.495 157.61 158.32C160.131 157.226 161.202 154.281 161.328 153.919C161.557 153.266 161.646 152.757 161.726 152.294C162.084 150.196 163.466 147.801 161.926 144.836C161.479 143.972 158.961 140.662 154.404 142.449C153.333 142.869 152.464 143.801 152.004 145.064Z" fill="#F79556"/>
<path d="M158.888 141.356C158.888 141.356 158.819 141.374 158.75 141.405C158.319 141.603 157.876 142.418 157.71 143.463C157.628 143.978 157.62 144.359 157.668 144.85C157.889 147.174 160.532 147.424 161.223 149.688C161.808 151.601 162.496 150.624 162.737 149.883C163.784 146.683 164.204 144.151 160.048 141.559C159.787 141.395 159.198 141.278 158.888 141.356Z" fill="#512618"/>
<path d="M158.02 141.146C157.581 140.948 154.849 139.951 152.092 143.138C150.551 144.919 150.77 147.445 150.838 148.402C150.89 149.149 151.36 149.615 151.442 149.619C151.551 149.624 151.011 148.113 152.877 146.649C153.522 146.145 154.455 145.645 155.801 145.217C157.288 144.741 157.809 143.666 157.928 143.534C158.335 143.085 158.905 142.179 158.606 141.594C158.483 141.354 158.258 141.253 158.02 141.146Z" fill="#512618"/>
<path d="M161.323 149.611C161.441 149.492 161.983 148.946 162.476 149.127C162.948 149.298 163.248 149.844 163.332 150.291C163.506 151.223 163.231 152.694 162.484 153.413C162.334 153.558 162.037 153.836 161.661 153.798C161.309 153.764 161.074 153.469 160.987 153.359C160.292 152.484 160.375 150.562 161.323 149.611Z" fill="#F79556"/>
<path d="M156.838 155.739C156.876 155.683 156.845 155.605 156.781 155.595C156.506 155.554 155.84 155.469 155.072 155.487C154.549 155.499 154.049 155.604 153.841 155.651C153.786 155.664 153.758 155.727 153.782 155.782C153.907 156.061 154.323 156.796 155.258 156.764C156.099 156.733 156.647 156.029 156.838 155.739Z" fill="#D65B5B"/>
<path d="M153.66 149.175C153.608 149.006 153.516 148.861 153.41 148.736C153.303 148.608 153.176 148.501 153.037 148.413C152.756 148.234 152.412 148.213 152.095 148.228C152.015 148.234 151.935 148.235 151.857 148.252L151.739 148.27C151.699 148.28 151.655 148.291 151.615 148.302C151.451 148.357 151.308 148.448 151.185 148.549C150.938 148.759 150.763 149.022 150.586 149.257L150.62 149.303C150.748 149.217 150.856 149.115 150.973 149.026C151.089 148.939 151.208 148.86 151.33 148.8C151.451 148.739 151.574 148.695 151.694 148.684L151.782 148.679L151.881 148.681C151.947 148.68 152.012 148.691 152.077 148.7C152.141 148.707 152.204 148.726 152.267 148.741C152.328 148.766 152.39 148.784 152.448 148.812C152.568 148.861 152.685 148.911 152.811 148.95L153.194 149.079C153.328 149.127 153.465 149.174 153.621 149.217L153.66 149.175Z" fill="#512618"/>
<path d="M159.766 148.517C159.485 148.266 159.151 148.079 158.797 147.939C158.44 147.802 158.049 147.743 157.654 147.765C157.555 147.768 157.457 147.784 157.356 147.791C157.256 147.805 157.158 147.823 157.055 147.843C156.859 147.889 156.669 147.98 156.506 148.108C156.181 148.364 155.924 148.72 155.847 149.156L155.902 149.203C156.277 149.046 156.568 148.894 156.863 148.768C157.01 148.704 157.146 148.633 157.286 148.556C157.358 148.52 157.429 148.483 157.502 148.448C157.577 148.42 157.653 148.388 157.731 148.37C157.888 148.332 158.049 148.302 158.214 148.298C158.379 148.285 158.549 148.291 158.718 148.31C159.058 148.342 159.398 148.442 159.729 148.583L159.766 148.517Z" fill="#512618"/>
<path d="M158.411 150.409C158.401 150.509 158.093 150.78 157.249 150.693C156.873 150.654 156.507 150.515 156.525 150.313C156.542 150.121 156.815 149.794 157.144 149.771C157.715 149.727 158.429 150.207 158.411 150.409Z" fill="#E6E6E6"/>
<path d="M157.779 150.115C157.611 149.572 156.715 149.7 156.854 150.428C156.992 151.16 158.045 150.987 157.779 150.115Z" fill="#512618"/>
<path d="M156.427 150.456C156.532 150.359 156.632 150.28 156.734 150.237C156.836 150.192 156.934 150.178 157.038 150.179C157.242 150.181 157.466 150.241 157.701 150.299C157.936 150.359 158.184 150.426 158.453 150.453C158.588 150.466 158.729 150.472 158.876 150.441C158.948 150.426 159.022 150.399 159.087 150.358C159.153 150.314 159.206 150.25 159.231 150.181C159.165 150.207 159.105 150.216 159.048 150.211C158.989 150.202 158.936 150.192 158.88 150.171C158.77 150.134 158.659 150.085 158.546 150.033C158.32 149.935 158.081 149.832 157.819 149.765C157.559 149.702 157.267 149.661 156.966 149.757C156.818 149.805 156.672 149.899 156.577 150.028C156.48 150.157 156.432 150.309 156.427 150.456Z" fill="#512618"/>
<path d="M153.443 150.534C153.435 150.636 153.165 150.915 152.438 150.839C152.116 150.805 151.974 150.619 151.993 150.414C152.011 150.221 152.077 149.937 152.36 149.908C152.854 149.857 153.463 150.331 153.443 150.534Z" fill="#E6E6E6"/>
<path d="M152.917 150.352C152.777 149.894 152.022 150.001 152.139 150.616C152.255 151.232 153.142 151.086 152.917 150.352Z" fill="#512618"/>
<path d="M151.72 150.516C151.818 150.463 151.904 150.412 151.989 150.378C152.073 150.345 152.15 150.327 152.222 150.325C152.364 150.321 152.5 150.37 152.667 150.438C152.829 150.503 153.009 150.59 153.222 150.638C153.328 150.661 153.445 150.676 153.565 150.65C153.685 150.624 153.797 150.549 153.846 150.444C153.735 150.462 153.65 150.442 153.573 150.409C153.498 150.376 153.425 150.328 153.348 150.278C153.196 150.178 153.032 150.063 152.829 149.981C152.729 149.94 152.617 149.905 152.496 149.896C152.376 149.886 152.244 149.901 152.128 149.955C152.011 150.008 151.915 150.095 151.847 150.192C151.779 150.292 151.739 150.402 151.72 150.516Z" fill="#512618"/>
<path d="M133.824 178.919C133.842 178.916 133.785 179.172 133.97 179.27C134.576 179.597 135.806 178.766 136.026 178.588C136.563 178.155 137.429 177.313 137.241 176.831C137.185 176.686 136.98 176.625 136.999 176.597C137.026 176.562 137.193 176.497 137.545 176.832C138.476 177.717 139.072 178.255 139.145 178.72C139.202 179.094 139.155 179.418 139.023 179.646C138.537 180.478 137.815 180.967 137.411 181.194C137.05 181.397 136.474 181.721 135.999 181.48C135.867 181.414 135.799 181.332 135.708 181.237C134.831 180.33 134.218 180.353 133.861 179.631C133.613 179.124 133.8 178.923 133.824 178.919Z" fill="#E69601"/>
<path d="M144.918 175.683H132.129L124.437 155.828H137.321L144.918 175.683Z" fill="#282444"/>
<path d="M171.007 186.165C170.864 186.112 170.721 186.055 170.578 185.998C170.437 185.941 170.295 185.881 170.154 185.823C169.871 185.702 169.591 185.575 169.313 185.437C169.035 185.3 168.761 185.152 168.495 184.987C168.226 184.821 167.966 184.636 167.721 184.428C167.66 184.373 167.599 184.322 167.539 184.265L167.451 184.182L167.365 184.095C167.251 183.98 167.143 183.855 167.038 183.728C166.83 183.472 166.651 183.191 166.49 182.902C166.33 182.613 166.194 182.309 166.072 182.003C165.951 181.696 165.846 181.385 165.749 181.072L165.744 181.056L165.743 181.044C165.727 180.96 165.717 180.887 165.705 180.809C165.695 180.731 165.684 180.654 165.674 180.578C165.656 180.425 165.639 180.272 165.627 180.119C165.603 179.813 165.583 179.507 165.575 179.201C165.568 178.894 165.568 178.588 165.577 178.282C165.581 178.129 165.587 177.977 165.596 177.824C165.605 177.671 165.614 177.518 165.627 177.366C165.651 177.062 165.684 176.759 165.727 176.457C165.766 176.155 165.818 175.855 165.874 175.557C165.905 175.408 165.933 175.259 165.968 175.112L166.02 174.889L166.075 174.67C166.112 174.523 166.155 174.377 166.195 174.233C166.238 174.088 166.283 173.945 166.33 173.802C166.288 174.102 166.244 174.4 166.209 174.699L166.183 174.923L166.16 175.148C166.142 175.297 166.13 175.447 166.114 175.596C166.09 175.895 166.066 176.194 166.051 176.493C166.042 176.642 166.036 176.792 166.029 176.941C166.025 177.091 166.02 177.24 166.017 177.39C166.004 177.987 166.014 178.583 166.047 179.179C166.065 179.475 166.086 179.771 166.116 180.066C166.131 180.213 166.147 180.361 166.166 180.507C166.175 180.581 166.186 180.653 166.196 180.725C166.208 180.796 166.22 180.871 166.231 180.937L166.225 180.907C166.316 181.211 166.414 181.51 166.526 181.802C166.637 182.094 166.761 182.378 166.901 182.65C167.04 182.924 167.2 183.184 167.378 183.428C167.557 183.67 167.757 183.896 167.974 184.106C168.407 184.526 168.912 184.876 169.426 185.205C169.686 185.371 169.948 185.529 170.213 185.688L170.611 185.926C170.742 186.005 170.876 186.083 171.007 186.165Z" fill="#E69601"/>
<path d="M151.592 183.323C151.556 183.141 151.524 182.96 151.489 182.778L151.392 182.233L151.368 182.097L151.341 181.962L151.286 181.69L151.179 181.149C151.17 181.105 151.163 181.06 151.152 181.015L151.122 180.881L151.06 180.613C151.018 180.436 150.983 180.257 150.938 180.08L150.799 179.551L150.765 179.421C150.753 179.376 150.742 179.333 150.726 179.29L150.647 179.031C150.592 178.859 150.544 178.683 150.479 178.518L150.388 178.265C150.357 178.181 150.329 178.095 150.294 178.014L150.19 177.768C150.153 177.686 150.124 177.603 150.083 177.522L149.97 177.281L149.913 177.16C149.894 177.12 149.873 177.081 149.852 177.041C149.769 176.882 149.69 176.724 149.604 176.564L149.347 176.08C149.304 175.999 149.261 175.917 149.221 175.832L149.097 175.582C149.077 175.54 149.057 175.497 149.039 175.454L148.982 175.323L148.869 175.063L148.77 174.796C148.739 174.706 148.704 174.618 148.675 174.528C148.621 174.345 148.565 174.163 148.513 173.98L148.387 173.426C148.365 173.337 148.351 173.234 148.332 173.138C148.319 173.041 148.304 172.943 148.297 172.846C148.262 172.457 148.265 172.071 148.288 171.693C148.299 171.504 148.316 171.316 148.334 171.13C148.355 170.943 148.375 170.757 148.4 170.572C148.499 169.833 148.626 169.109 148.723 168.381C148.82 167.655 148.891 166.925 148.822 166.185C148.846 166.274 148.87 166.363 148.887 166.455L148.916 166.591L148.938 166.731C148.953 166.822 148.961 166.915 148.974 167.009C148.981 167.1 148.991 167.194 148.996 167.287C149.022 167.661 149.022 168.037 149.008 168.409C148.982 169.156 148.908 169.895 148.856 170.626C148.829 170.992 148.808 171.355 148.801 171.715C148.797 171.896 148.801 172.076 148.805 172.254C148.814 172.43 148.823 172.607 148.846 172.779C148.851 172.822 148.856 172.866 148.864 172.907L148.883 173.037C148.901 173.12 148.913 173.202 148.936 173.29L149.066 173.811L149.221 174.32C149.278 174.487 149.343 174.651 149.403 174.817L149.507 175.062L149.56 175.183C149.577 175.223 149.595 175.263 149.614 175.304C149.694 175.464 149.766 175.624 149.851 175.785L150.098 176.272C150.181 176.433 150.261 176.603 150.34 176.77C150.361 176.813 150.382 176.853 150.4 176.896L150.457 177.026L150.568 177.284C150.607 177.369 150.637 177.458 150.67 177.546L150.769 177.811C150.889 178.167 151 178.526 151.085 178.892L151.151 179.165C151.163 179.211 151.172 179.256 151.181 179.302L151.207 179.441L151.312 179.991C151.329 180.083 151.338 180.176 151.352 180.269L151.391 180.546L151.428 180.823C151.441 180.914 151.453 181.006 151.46 181.099L151.511 181.656L151.533 181.932L151.546 182.072L151.551 182.211L151.576 182.767C151.581 182.953 151.589 183.138 151.592 183.323Z" fill="#E69601"/>
<path d="M181.617 189.552H110.289C109.593 189.552 109.029 188.949 109.029 188.204C109.029 187.458 109.593 186.855 110.289 186.855H181.617C182.313 186.855 182.878 187.458 182.878 188.204C182.878 188.949 182.313 189.552 181.617 189.552Z" fill="#312553"/>
<path d="M167.281 169.362C167.299 169.37 167.121 169.554 167.226 169.746C167.577 170.376 169.043 170.386 169.322 170.363C169.998 170.308 171.162 170.096 171.249 169.578C171.275 169.422 171.13 169.249 171.162 169.238C171.202 169.223 171.377 169.265 171.506 169.754C171.847 171.049 172.081 171.853 171.906 172.29C171.764 172.642 171.56 172.889 171.332 173.006C170.495 173.43 169.632 173.426 169.173 173.384C168.764 173.347 168.111 173.287 167.827 172.806C167.75 172.672 167.734 172.564 167.704 172.43C167.421 171.149 166.887 170.811 166.952 169.989C166.998 169.415 167.26 169.352 167.281 169.362Z" fill="#E69601"/>
<path d="M153.847 140.911L153.873 140.887C153.99 140.774 154.646 140.182 156.154 140.167C159.915 140.129 162.702 143.578 162.702 148.092L161.9 148.263C161.9 144.224 159.045 140.513 155.833 140.468C154.655 140.453 154.084 140.738 153.847 140.914V140.911Z" fill="#7764A6"/>
<path d="M163.857 150.75C163.857 151.75 163.447 153.736 163.099 154.024C162.676 154.373 162.047 154.223 161.943 154.179C161.33 153.928 160.867 152.644 160.867 150.75C160.867 148.854 161.3 147.459 161.943 147.318C162.005 147.305 162.853 147.074 163.193 147.559C163.749 148.352 163.857 149.633 163.857 150.75Z" fill="#AE9AE3"/>
<path d="M163.876 150.75C163.876 152.645 163.396 154.181 162.801 154.181C162.206 154.181 161.724 152.645 161.724 150.75C161.724 148.855 162.206 147.32 162.801 147.32C163.396 147.32 163.876 148.855 163.876 150.75Z" fill="#7764A6"/>
<path d="M163.78 150.75C163.78 152.401 163.371 153.739 162.866 153.739C162.362 153.739 161.953 152.401 161.953 150.75C161.953 149.1 162.362 147.762 162.866 147.762C163.371 147.762 163.78 149.1 163.78 150.75Z" fill="#FCCC44"/>
<path d="M151.931 149.894C152.02 149.391 151.843 149.008 151.798 148.83C151.689 148.416 151.661 147.892 151.708 147.318C151.129 147.591 150.74 148.925 150.729 150.701C150.717 152.595 151.172 153.882 151.785 154.139C151.828 154.157 151.968 154.196 152.146 154.207C151.848 152.864 151.679 151.319 151.931 149.894Z" fill="#7764A6"/>
<path d="M144.726 175.889H131.938L124.245 156.032H137.129L144.726 175.889Z" fill="#AE9AE3"/>
<path d="M128.054 172.477C127.983 172.247 127.863 172.281 127.779 172.017C127.77 171.988 127.655 171.601 127.833 171.254C127.974 170.982 128.137 171.034 128.28 170.742C128.382 170.536 128.324 170.459 128.42 170.205C128.509 169.975 128.635 169.832 128.765 169.685C128.95 169.477 129.289 169.084 129.847 168.896C130.37 168.719 131.695 169.005 131.969 169.29C132.017 169.338 132.129 169.454 132.149 169.633C132.178 169.87 132.029 170.048 132.017 170.06C131.923 170.167 131.803 170.212 131.593 170.245C131.096 170.324 130.962 170.099 130.575 170.162C130.244 170.216 129.923 170.479 129.934 170.548C129.944 170.614 130.256 170.594 130.544 170.598C131.139 170.605 131.879 170.863 133.357 171.375C133.553 171.444 133.877 171.56 134.039 171.87C134.22 172.212 133.994 172.483 133.994 172.523C133.991 172.598 134.212 172.6 134.385 172.775C134.508 172.898 134.557 173.045 134.565 173.117C134.629 173.671 134.314 173.72 134.205 173.856C134.108 173.978 134.16 174.08 134.072 174.284C134.072 174.284 134.008 174.433 133.846 174.594C133.574 174.861 133.11 174.784 132.497 174.813C132.297 174.822 131.758 174.85 131.151 175.031C130.584 175.201 130.547 175.327 130.101 175.384C129.811 175.422 129.358 175.475 128.988 175.184C128.902 175.117 128.628 174.902 128.619 174.607C128.615 174.459 128.68 174.404 128.643 174.28C128.592 174.11 128.436 174.094 128.259 173.92C128.244 173.904 128.054 173.714 127.984 173.458C127.872 173.048 128.171 172.86 128.054 172.477Z" fill="#F79556"/>
<path d="M128.987 172.334C129.169 172.244 129.367 172.197 129.563 172.156C129.761 172.121 129.962 172.098 130.162 172.091C130.57 172.078 130.96 172.127 131.355 172.172C131.747 172.222 132.138 172.291 132.525 172.376C132.912 172.462 133.3 172.561 133.672 172.715C132.878 172.676 132.097 172.599 131.317 172.497L130.734 172.418C130.54 172.389 130.349 172.365 130.157 172.347C129.771 172.318 129.382 172.298 128.987 172.334Z" fill="#EC7D40"/>
<path d="M128.979 173.868C129.36 173.679 129.765 173.551 130.178 173.472C130.28 173.45 130.384 173.432 130.49 173.418C130.595 173.404 130.704 173.394 130.808 173.389C131.019 173.379 131.23 173.382 131.439 173.389C131.856 173.405 132.27 173.454 132.682 173.521C133.092 173.592 133.505 173.679 133.899 173.831C133.482 173.813 133.07 173.797 132.659 173.775L131.426 173.715C131.222 173.703 131.017 173.699 130.814 173.697C130.713 173.696 130.615 173.697 130.514 173.703L130.209 173.724C129.801 173.756 129.395 173.809 128.979 173.868Z" fill="#EC7D40"/>
<path d="M129.292 182.611C128.902 183.583 128.087 184.25 127.484 184.579C127.691 183.536 127.857 182.259 127.923 180.92C128.089 180.827 128.318 180.766 128.632 180.827C128.927 180.884 129.143 181.042 129.273 181.3C129.48 181.713 129.428 182.269 129.292 182.611ZM129.764 181.016C129.552 180.596 129.196 180.327 128.731 180.238C128.421 180.177 128.159 180.205 127.946 180.27C127.954 179.977 127.956 179.682 127.952 179.389C127.95 179.344 127.917 179.308 127.875 179.308L122.163 179.309C122.123 179.309 122.088 179.346 122.088 179.389C122.043 182.507 122.656 185.645 123.173 186.721C123.199 186.774 123.25 186.809 123.306 186.809L126.735 186.807C126.791 186.807 126.841 186.774 126.867 186.72C127.019 186.405 127.178 185.916 127.326 185.3C128.046 185.022 129.26 184.209 129.805 182.846C129.999 182.361 130.061 181.607 129.764 181.016Z" fill="#ED1C24"/>
<path d="M154.821 168.34C154.821 169.07 154.821 172.049 154.821 172.049L150.2 172.224C150.2 172.224 150.282 169.095 150.282 168.34C150.282 167.522 151.299 166.859 152.552 166.859C153.806 166.859 154.821 167.522 154.821 168.34Z" fill="#E1D7F7"/>
<path d="M154.938 170.871C154.938 170.009 153.868 169.406 152.546 169.406C151.224 169.406 150.153 170.009 150.153 170.871L150.072 173.128L154.949 173.077L154.938 170.871Z" fill="#ED1C24"/>
<path d="M154.981 171.519C154.981 170.642 153.891 169.929 152.546 169.929C151.202 169.929 150.112 170.642 150.112 171.519L150.03 173.814L154.991 173.763L154.981 171.519Z" fill="#4D4D4D"/>
<path d="M147.397 186.433C147.397 186.775 147.138 187.051 146.819 187.051C146.5 187.051 146.241 186.775 146.241 186.433C146.241 186.092 146.5 185.816 146.819 185.816C147.138 185.816 147.397 186.092 147.397 186.433Z" fill="#1A1A1A"/>
<path d="M146.483 186.714C148.574 184.595 150.664 182.476 152.755 180.357Z" fill="#1A1A1A"/>
<path d="M146.71 186.97L146.257 186.458L152.529 180.101L152.982 180.613L146.71 186.97Z" fill="#1A1A1A"/>
<path d="M158.532 186.714C156.442 184.595 154.351 182.476 152.26 180.357Z" fill="#1A1A1A"/>
<path d="M158.305 186.97L152.033 180.613L152.487 180.101L158.759 186.458L158.305 186.97Z" fill="#1A1A1A"/>
<path d="M157.629 186.433C157.629 186.775 157.888 187.051 158.207 187.051C158.527 187.051 158.785 186.775 158.785 186.433C158.785 186.092 158.527 185.816 158.207 185.816C157.888 185.816 157.629 186.092 157.629 186.433Z" fill="#1A1A1A"/>
<path d="M151.93 186.433C151.93 186.775 152.189 187.051 152.508 187.051C152.826 187.051 153.085 186.775 153.085 186.433C153.085 186.092 152.826 185.816 152.508 185.816C152.189 185.816 151.93 186.092 151.93 186.433Z" fill="#1A1A1A"/>
<path d="M155.006 173.896C155.006 174.799 153.885 175.53 152.5 175.53C151.117 175.53 149.996 174.799 149.996 173.896C149.996 172.992 151.117 172.26 152.5 172.26C153.885 172.26 155.006 172.992 155.006 173.896Z" fill="#333333"/>
<path d="M153.821 174.697C153.821 175.396 153.821 177.522 153.821 177.522H151.181C151.181 177.522 151.181 175.478 151.181 174.697C151.181 173.917 151.772 173.286 152.502 173.286C153.23 173.286 153.821 173.917 153.821 174.697Z" fill="#4D4D4D"/>
<path d="M153.821 177.522C153.821 178.304 153.23 178.935 152.502 178.935C151.772 178.935 151.181 178.304 151.181 177.522C151.181 176.743 151.772 176.11 152.502 176.11C153.23 176.11 153.821 176.743 153.821 177.522Z" fill="#333333"/>
<path d="M152.838 177.877C152.838 177.681 152.69 177.522 152.508 177.522C152.326 177.522 152.177 177.681 152.177 177.877H152.176V186.97H152.835V177.903C152.835 177.893 152.838 177.885 152.838 177.877Z" fill="#1A1A1A"/>
<path d="M117.418 162.082H111.756C111.508 162.082 111.305 162.299 111.305 162.565V166.167C111.305 166.433 111.508 166.65 111.756 166.65H113.393L115.177 167.964L115.171 166.65H117.418C117.668 166.65 117.869 166.433 117.869 166.167V162.565C117.869 162.299 117.668 162.082 117.418 162.082Z" fill="#AE9AE3"/>
<path d="M114.144 163.498H113.196C112.793 163.498 112.469 163.846 112.469 164.277C112.469 164.541 112.591 164.774 112.779 164.915V165.494L113.189 165.056C113.192 165.056 113.195 165.056 113.196 165.056H114.144C114.545 165.056 114.871 164.707 114.871 164.277C114.871 163.846 114.545 163.498 114.144 163.498Z" fill="white"/>
<path d="M116.266 165.062C116.191 165.062 116.131 164.998 116.131 164.917V163.922L115.895 164.105C115.835 164.152 115.751 164.137 115.707 164.073C115.662 164.007 115.677 163.917 115.736 163.871L116.187 163.525C116.227 163.493 116.282 163.488 116.327 163.514C116.373 163.539 116.4 163.587 116.4 163.641V164.917C116.4 164.998 116.34 165.062 116.266 165.062Z" fill="white"/>
<path d="M174.822 141.893H169.324C169.055 141.893 168.839 142.125 168.839 142.411V146.279C168.839 146.566 169.055 146.798 169.324 146.798H171.081L172.065 148.264L172.992 146.798H174.822C175.089 146.798 175.306 146.566 175.306 146.279V142.411C175.306 142.125 175.089 141.893 174.822 141.893Z" fill="#AE9AE3"/>
<path d="M171.062 143.366C170.341 143.366 169.756 143.791 169.756 144.316C169.756 144.633 169.971 144.914 170.299 145.088V145.694L170.728 145.234C170.836 145.254 170.946 145.266 171.062 145.266C171.782 145.266 172.367 144.84 172.367 144.316C172.367 143.791 171.782 143.366 171.062 143.366Z" fill="white"/>
<path d="M173.084 142.991C173.805 142.991 174.389 143.417 174.389 143.941C174.389 144.26 174.175 144.541 173.845 144.713V145.32L173.416 144.861C173.31 144.882 173.198 144.891 173.084 144.891C172.362 144.891 171.777 144.466 171.777 143.941C171.777 143.417 172.362 142.991 173.084 142.991Z" fill="white"/>
<path d="M171.778 143.94C171.778 143.416 172.363 142.99 173.082 142.99C173.399 142.99 173.69 143.072 173.916 143.208C173.68 143.033 173.351 142.926 172.986 142.926C172.267 142.926 171.681 143.35 171.681 143.876C171.681 144.17 171.865 144.432 172.154 144.606C171.92 144.435 171.778 144.2 171.778 143.94Z" fill="#AE9AE3"/>
<path d="M179.271 151.099H173.931C173.593 151.099 173.32 151.392 173.32 151.754V155.423C173.32 155.785 173.593 156.078 173.931 156.078H174.423C174.462 156.078 174.498 156.097 174.521 156.131L174.519 157.416C174.568 157.49 174.67 157.488 174.716 157.413L176.388 156.135C176.41 156.099 176.448 156.078 176.488 156.078H179.271C179.61 156.078 179.884 155.785 179.884 155.423V151.754C179.884 151.392 179.61 151.099 179.271 151.099Z" fill="white"/>
<path d="M178.193 154.392C178.108 154.392 178.039 154.319 178.039 154.228V153.09L177.769 153.299C177.7 153.352 177.604 153.335 177.553 153.262C177.504 153.186 177.519 153.084 177.588 153.031L178.104 152.634C178.15 152.598 178.211 152.594 178.263 152.622C178.315 152.65 178.348 152.707 178.348 152.768V154.228C178.348 154.319 178.279 154.392 178.193 154.392Z" fill="#E30613"/>
<path d="M176.94 153.077C176.94 152.75 176.697 152.427 176.397 152.427H176.345C176.123 152.427 175.901 152.57 175.8 152.773C175.788 152.794 175.759 152.794 175.75 152.773C175.649 152.57 175.425 152.427 175.205 152.427H175.15C174.851 152.427 174.609 152.75 174.609 153.077C174.609 153.951 175.502 154.481 175.744 154.609H175.805C176.045 154.481 176.94 153.951 176.94 153.077Z" fill="#E30613"/>
<path d="M112.815 159.149H107.554C107.275 159.149 107.047 158.907 107.047 158.608V155.281C107.047 154.981 107.275 154.739 107.554 154.739H112.815C113.095 154.739 113.322 154.981 113.322 155.281V158.608C113.322 158.907 113.095 159.149 112.815 159.149Z" fill="#FCCC44"/>
<path d="M111.457 156.925L112.986 155.288C113.039 155.232 113.039 155.141 112.986 155.085C112.934 155.028 112.848 155.028 112.795 155.085L111.195 156.797C111.184 156.804 111.175 156.811 111.167 156.819C111.159 156.828 111.153 156.837 111.146 156.849L110.481 157.561C110.318 157.735 110.052 157.735 109.889 157.561L107.575 155.085C107.521 155.028 107.437 155.028 107.384 155.085C107.331 155.141 107.331 155.232 107.384 155.288L108.914 156.925L107.384 158.561C107.331 158.618 107.331 158.708 107.384 158.765C107.41 158.793 107.445 158.807 107.48 158.807C107.514 158.807 107.549 158.793 107.575 158.765L109.103 157.128L109.698 157.764C109.833 157.908 110.009 157.979 110.184 157.979C110.362 157.979 110.537 157.908 110.671 157.764L111.266 157.128L112.795 158.765C112.821 158.793 112.856 158.807 112.891 158.807C112.925 158.807 112.96 158.793 112.986 158.765C113.039 158.708 113.039 158.618 112.986 158.561L111.457 156.925Z" fill="white"/>
<path d="M124.163 174.852C124.503 173.732 125.49 173.487 125.409 172.511C125.371 172.055 125.085 171.655 125.174 171.592C125.253 171.533 125.541 171.828 125.688 172.006C126.285 172.725 126.722 174.134 126.289 175.404C125.919 176.49 125.324 176.368 125.066 177.676C124.941 178.311 125.109 178.905 125.044 178.916C124.983 178.927 123.479 177.102 124.163 174.852Z" fill="#FCCC44"/>
<path d="M53.5225 198.032C50.4196 196.76 50.895 195.624 43.1697 192.025C36.3081 188.828 20.0328 195.493 13.4401 172.846C4.01856 140.485 34.2053 115.054 69.2432 126.909C76.3957 129.328 97.8259 143.712 94.6828 169.461C93.0593 182.759 84.1729 194.168 72.2031 197.852C66.7612 199.527 60.0282 200.699 53.5225 198.032Z" fill="#E1D7F7"/>
<path d="M42.5059 181.955H28.4243V153.488H42.5059V181.955Z" fill="white"/>
<path d="M42.5059 152.292H28.4243V123.827H42.5059V152.292Z" fill="white"/>
<path d="M57.7059 181.955H43.6243V153.488H57.7059V181.955Z" fill="white"/>
<path d="M57.7059 152.292H43.6243V123.827H57.7059V152.292Z" fill="white"/>
<path d="M72.9057 181.955H58.8241V153.488H72.9057V181.955Z" fill="white"/>
<path d="M72.9057 152.292H58.8241V123.827H72.9057V152.292Z" fill="white"/>
<path d="M85.9341 147.382H80.4362C80.1687 147.382 79.9518 147.615 79.9518 147.901V151.769C79.9518 152.054 80.1687 152.287 80.4362 152.287H82.1948L83.178 153.754L84.1041 152.287H85.9341C86.2016 152.287 86.4198 152.054 86.4198 151.769V147.901C86.4198 147.615 86.2016 147.382 85.9341 147.382Z" fill="#AE9AE3"/>
<path d="M82.1739 148.855C81.4531 148.855 80.8687 149.28 80.8687 149.805C80.8687 150.122 81.083 150.403 81.4129 150.576V151.184L81.8415 150.723C81.948 150.744 82.0597 150.755 82.1739 150.755C82.8948 150.755 83.4805 150.33 83.4805 149.805C83.4805 149.28 82.8948 148.855 82.1739 148.855Z" fill="white"/>
<path d="M84.1963 148.481C84.9171 148.481 85.5029 148.907 85.5029 149.431C85.5029 149.75 85.2873 150.029 84.9587 150.203V150.809L84.5288 150.351C84.4223 150.37 84.3106 150.381 84.1963 150.381C83.4755 150.381 82.891 149.956 82.891 149.431C82.891 148.907 83.4755 148.481 84.1963 148.481Z" fill="white"/>
<path d="M82.8909 149.43C82.8909 148.905 83.4754 148.48 84.1962 148.48C84.5131 148.48 84.804 148.562 85.03 148.698C84.7924 148.523 84.4638 148.414 84.1001 148.414C83.378 148.414 82.7948 148.84 82.7948 149.364C82.7948 149.659 82.9779 149.922 83.2676 150.096C83.0338 149.925 82.8909 149.688 82.8909 149.43Z" fill="#AE9AE3"/>
<path d="M90.385 157.373H85.0443C84.7066 157.373 84.4313 157.666 84.4313 158.028V161.696C84.4313 162.057 84.7066 162.351 85.0443 162.351H85.5353C85.5742 162.351 85.6106 162.372 85.634 162.405L85.6314 163.69C85.6807 163.762 85.782 163.761 85.8288 163.687L87.5003 162.408C87.5224 162.373 87.5601 162.351 87.6004 162.351H90.385C90.724 162.351 90.998 162.057 90.998 161.696V158.028C90.998 157.666 90.724 157.373 90.385 157.373Z" fill="white"/>
<path d="M89.3058 160.666C89.2213 160.666 89.1525 160.593 89.1525 160.501V159.365L88.8811 159.572C88.8122 159.626 88.7161 159.608 88.6654 159.534C88.6161 159.461 88.6317 159.358 88.7018 159.305L89.2161 158.908C89.2629 158.872 89.3252 158.867 89.3772 158.896C89.4278 158.924 89.4603 158.981 89.4603 159.042V160.501C89.4603 160.593 89.3915 160.666 89.3058 160.666Z" fill="#E30613"/>
<path d="M88.0524 159.349C88.0524 159.022 87.8095 158.701 87.5108 158.701H87.4576C87.2368 158.701 87.0134 158.843 86.9121 159.046C86.9017 159.068 86.8731 159.068 86.8614 159.046C86.7614 158.843 86.538 158.701 86.3172 158.701H86.264C85.9639 158.701 85.7211 159.022 85.7211 159.349C85.7211 160.226 86.6159 160.755 86.8575 160.882H86.9173C87.1588 160.755 88.0524 160.226 88.0524 159.349Z" fill="#E30613"/>
<path d="M25.0487 153.555H19.3872C19.1378 153.555 18.9365 153.771 18.9365 154.038V157.639C18.9365 157.906 19.1378 158.121 19.3872 158.121H21.0237L22.807 159.436L22.8031 158.121H25.0487C25.2981 158.121 25.5007 157.906 25.5007 157.639V154.038C25.5007 153.771 25.2981 153.555 25.0487 153.555Z" fill="#AE9AE3"/>
<path d="M21.7758 154.969H20.8277C20.4263 154.969 20.1003 155.319 20.1003 155.748C20.1003 156.013 20.2224 156.246 20.4108 156.387V156.967L20.8212 156.527C20.8238 156.527 20.8251 156.529 20.8277 156.529H21.7758C22.1771 156.529 22.5031 156.18 22.5031 155.748C22.5031 155.319 22.1771 154.969 21.7758 154.969Z" fill="white"/>
<path d="M23.8966 156.533C23.8226 156.533 23.7616 156.469 23.7616 156.39V155.395L23.5252 155.577C23.4654 155.625 23.381 155.609 23.3381 155.544C23.294 155.48 23.3083 155.39 23.368 155.344L23.8187 154.997C23.859 154.965 23.9135 154.961 23.959 154.985C24.0031 155.01 24.0317 155.06 24.0317 155.114V156.39C24.0317 156.469 23.972 156.533 23.8966 156.533Z" fill="white"/>
<path d="M30.3582 146.26H24.5123C24.2019 146.26 23.95 145.99 23.95 145.658V141.961C23.95 141.628 24.2019 141.359 24.5123 141.359H30.3582C30.67 141.359 30.9219 141.628 30.9219 141.961V145.658C30.9219 145.99 30.67 146.26 30.3582 146.26Z" fill="#FCCC44"/>
<path d="M28.849 143.787L30.5479 141.969C30.6063 141.907 30.6063 141.805 30.5479 141.742C30.4894 141.68 30.3946 141.68 30.3361 141.742L28.5568 143.647C28.5464 143.654 28.536 143.66 28.5269 143.67C28.5178 143.68 28.5113 143.691 28.5048 143.702L27.7645 144.494C27.584 144.688 27.2879 144.687 27.1073 144.494L24.5357 141.742C24.4772 141.68 24.3824 141.68 24.324 141.742C24.2655 141.805 24.2655 141.907 24.324 141.969L26.0228 143.787L24.324 145.605C24.2655 145.669 24.2655 145.769 24.324 145.833C24.3526 145.864 24.3915 145.879 24.4292 145.879C24.4682 145.879 24.5058 145.864 24.5357 145.833L26.2345 144.014L26.8956 144.72C27.0437 144.88 27.2398 144.96 27.4359 144.96C27.632 144.96 27.8282 144.88 27.9762 144.72L28.6373 144.014L30.3361 145.833C30.3647 145.864 30.4037 145.879 30.4426 145.879C30.4803 145.879 30.5193 145.864 30.5479 145.833C30.6063 145.769 30.6063 145.669 30.5479 145.605L28.849 143.787Z" fill="white"/>
<path d="M51.7846 161.139C52.3327 160.922 53.4483 162.573 53.8756 163.217C55.9537 166.349 55.9355 168.156 57.7604 172.169C58.915 174.708 59.5306 176.062 60.7489 177.764C61.5983 178.952 62.0542 179.691 62.8738 180.864C63.705 182.052 64.4193 185.093 62.5413 186.578C61.323 187.542 59.6969 187.346 58.8111 187.228C54.5432 186.66 51.4521 180.506 50.3961 177.894C49.2597 175.085 48.9986 170.256 49.5428 167.055C49.8416 165.295 50.365 161.699 51.7846 161.139Z" fill="#1E1735"/>
<path d="M30.1699 187.639H50.417C52.4872 184.853 51.0365 181.916 53.2951 166.717C53.4704 165.537 53.738 163.505 52.6977 161.761C52.1392 160.825 50.0013 158.897 44.9282 157.764C42.7306 157.273 41.9241 157.238 38.2056 157.124C38.2056 157.124 35.2171 156.965 30.1374 158.564C26.3748 159.747 26.9554 162.287 26.9995 162.719C28.5607 177.987 28.3594 184.198 30.1699 187.639Z" fill="#282444"/>
<path d="M57.124 181.013C57.7773 180.219 58.4345 179.53 59.9931 178.752C60.8399 178.327 65.4247 175.941 67.1157 174.262C67.3871 173.993 67.7482 173.729 67.895 173.368C67.943 173.244 68.0015 173.131 68.0612 173.034C68.495 172.327 69.2185 172.173 70.664 171.863C71.4537 171.693 73.9864 171.352 74.8254 172.123C75.2345 172.498 74.8072 173.465 74.5072 173.945C74.1007 174.594 73.5487 174.881 73.0253 175.144C72.5992 175.357 72.1888 175.493 71.8213 175.58C71.2017 175.725 70.6303 176.158 70.1614 176.612C68.0781 178.633 68.647 178.907 65.4169 183.07C62.3413 187.034 60.6321 186.951 59.7398 186.873C59.5593 186.856 57.9981 186.785 57.4162 186.386C56.0564 185.453 55.6525 182.798 57.124 181.013Z" fill="#EC7D40"/>
<path d="M23.976 186.728C23.1291 186.529 22.607 185.874 22.607 185.874C21.9355 185.03 22.0083 183.888 22.0394 183.391C22.6057 174.338 22.1161 174.073 23.2291 169.42C23.2291 169.42 23.8318 167.352 26.7697 161.263C27.0229 160.74 27.5749 159.63 28.4971 159.49C29.3348 159.362 30.0699 160.095 30.3271 160.353C31.6727 161.696 32.4117 164.096 31.9766 170.764C31.6259 176.121 31.4207 178.855 29.9232 181.588C28.4958 184.194 25.8826 187.175 23.976 186.728Z" fill="#282444"/>
<path d="M30.327 160.451C30.4101 160.525 30.492 160.6 30.5751 160.675C30.653 160.754 30.7271 160.839 30.805 160.922C30.8439 160.961 30.8777 161.007 30.9115 161.053L31.0141 161.191C31.0868 161.278 31.144 161.379 31.2063 161.476L31.2972 161.622C31.3297 161.671 31.3518 161.725 31.3791 161.775C31.4297 161.879 31.4856 161.982 31.5336 162.088C31.6206 162.302 31.718 162.516 31.7869 162.739C32.0791 163.628 32.2363 164.555 32.3246 165.482C32.3519 165.712 32.3648 165.945 32.3804 166.176C32.396 166.408 32.4116 166.64 32.4168 166.871C32.4233 167.103 32.4324 167.336 32.4363 167.568L32.4376 168.262C32.4402 168.494 32.4324 168.725 32.4259 168.956L32.4064 169.648L32.3324 171.031L32.2363 172.404C32.1999 172.863 32.1622 173.32 32.1207 173.779C32.035 174.694 31.9323 175.614 31.7804 176.528C31.6297 177.441 31.4258 178.351 31.1258 179.227C30.8206 180.101 30.4257 180.938 29.9231 181.686C30.2855 180.849 30.5803 179.994 30.7816 179.115C30.9946 178.238 31.1128 177.34 31.2102 176.439C31.3037 175.536 31.37 174.628 31.4284 173.717L31.6011 170.975L31.6843 169.61C31.7038 169.156 31.7323 168.7 31.744 168.247C31.7804 167.337 31.7817 166.43 31.7518 165.526C31.7167 164.623 31.6453 163.721 31.444 162.85C31.4024 162.629 31.3336 162.419 31.2726 162.203C31.2375 162.098 31.1972 161.995 31.1596 161.89C31.1388 161.839 31.1219 161.785 31.0985 161.735L31.031 161.583C30.8491 161.178 30.6141 160.796 30.327 160.451Z" fill="#1E1735"/>
<path d="M58.1604 175.674H70.9095L78.5776 155.88H65.7324L58.1604 175.674Z" fill="#282444"/>
<path d="M48.9753 151.074C49.0948 152.117 49.7598 154.129 50.1573 154.383C50.6391 154.687 51.2768 154.445 51.3794 154.387C51.9886 154.039 52.3172 152.638 52.0912 150.665C51.8639 148.69 51.2469 147.295 50.5586 147.236C50.4923 147.231 49.5819 147.107 49.2858 147.659C48.8013 148.56 48.8429 149.911 48.9753 151.074Z" fill="#AE9AE3"/>
<path d="M48.9546 151.077C49.1806 153.052 49.8676 154.586 50.4859 154.505C51.1067 154.424 51.4249 152.757 51.1976 150.783C50.9716 148.808 50.2858 147.274 49.6663 147.355C49.0468 147.437 48.7286 149.103 48.9546 151.077Z" fill="#282444"/>
<path d="M36.3445 158.544C36.1977 157.315 36.8497 156.915 37.5277 154.11C38.4511 150.289 38.394 146.921 38.1524 144.814C38.1173 144.509 38.8382 144.661 39.9123 145.405C40.989 146.153 42.9619 147.773 43.9152 150.804C45.1582 154.755 44.5477 160.626 41.754 161.454C39.7123 162.059 36.5744 160.469 36.3445 158.544Z" fill="#EC7D40"/>
<path d="M40.9747 152.836C40.9747 152.836 40.5396 153.405 40.0954 153.116C39.3421 152.623 39.1382 151.236 39.0914 150.943C39.0304 150.555 38.8901 149.456 39.4629 148.919C40.2811 148.154 40.5577 149.281 40.7084 149.249C40.863 149.218 40.9864 148.862 40.9318 148.562C40.8526 148.122 40.4214 147.964 40.0759 147.687C39.2576 147.031 38.9979 145.763 39.0174 145.029C39.0537 143.654 40.1058 142.729 40.5227 142.363C42.528 140.602 45.2088 141.196 45.8374 141.336C46.5543 141.495 48.2519 141.872 49.5559 143.481C50.5546 144.713 51.1144 146.003 51.3456 147.195C51.5807 148.402 51.5833 150.024 51.0248 151.021C50.9352 151.181 50.4858 152.463 50.4858 152.903C50.4858 152.903 50.6131 153.773 50.4118 154.886C49.9702 157.331 48.8038 159.009 48.6467 159.232C47.8869 160.308 47.4245 160.506 47.1401 160.582C46.9972 160.621 46.5387 160.722 45.7646 160.433C45.0581 160.17 41.6851 158.419 41.1175 155.449C40.9331 154.481 40.9747 152.836 40.9747 152.836Z" fill="#F79556"/>
<path d="M45.8737 157.871C46.3075 157.715 46.9465 157.78 47.6128 157.558C48.2583 157.342 48.2505 157.103 48.5025 157.277C48.5817 157.331 48.7765 157.652 49.0324 157.865C49.0895 157.914 49.1493 157.946 49.1947 157.989C49.2428 158.035 49.2402 158.111 49.1909 158.156C48.9311 158.391 47.9973 158.906 46.4751 158.366C46.3634 158.326 46.0685 158.18 45.8659 158.079C45.7802 158.038 45.7841 157.903 45.8737 157.871ZM51.2417 143.635C49.7909 141.801 47.9674 140.834 47.5141 140.622C44.6321 139.272 41.3656 139.352 40.8694 140.343C40.8097 140.462 40.6811 140.813 40.3369 141.071C39.9421 141.368 39.5745 141.307 39.2953 141.373C38.3017 141.608 37.5211 143.688 37.7718 145.521C38.09 147.844 39.5563 149.097 40.8551 149.626C41.3136 149.812 41.5617 150.342 41.4396 150.85C41.2474 151.648 40.9175 152.711 40.2915 154.077C39.2979 156.248 42.2773 160.166 42.9098 160.808C43.3332 161.238 44.4061 162.141 45.8789 162.558C46.6738 162.782 47.2946 162.861 47.7154 162.481C49.2142 161.131 49.3623 158.465 49.3025 158.118C49.2974 158.093 49.3013 158.068 49.3129 158.047C49.4558 157.782 49.6039 157.486 49.7441 157.163C49.7597 157.129 49.7584 157.086 49.7402 157.053C49.5402 156.686 49.261 156.413 48.8454 156.245C47.77 155.805 46.5153 156.274 45.7711 156.99C45.3607 157.385 44.6957 157.398 44.284 157.006C43.2631 156.036 42.4773 154.499 42.3786 152.157C42.2436 148.967 43.554 146.983 44.51 146.612C44.6554 146.555 44.7126 146.694 45.0022 146.876C45.7269 147.332 46.3841 147.458 47.0829 147.59C47.3193 147.634 50.2572 147.95 51.3079 146.871C51.8573 146.305 52.1599 147.14 52.2534 147.075C52.3924 146.978 52.5028 145.232 51.2417 143.635Z" fill="#1E1735"/>
<path d="M48.9622 151.982C48.7752 152.039 48.5791 152.04 48.3843 151.992C48.1869 151.946 47.9985 151.83 47.8583 151.73C47.7855 151.675 47.7323 151.654 47.6777 151.609C47.6505 151.59 47.6193 151.576 47.5907 151.558C47.5608 151.54 47.5349 151.516 47.5011 151.503C47.379 151.431 47.2361 151.377 47.0829 151.35C46.9283 151.324 46.7673 151.312 46.6023 151.314C46.4374 151.309 46.2685 151.32 46.0984 151.33L45.5789 151.36C45.4035 151.37 45.2256 151.374 45.049 151.345L45.0515 151.28C45.3866 151.228 45.71 151.108 46.0477 151.008C46.3867 150.912 46.7387 150.826 47.1192 150.829C47.3089 150.832 47.5076 150.84 47.7089 150.896C47.8089 150.924 47.9076 150.969 47.9998 151.024C48.0869 151.083 48.183 151.157 48.2414 151.221C48.3648 151.356 48.4531 151.465 48.57 151.577C48.6856 151.687 48.8233 151.791 48.9739 151.918L48.9622 151.982Z" fill="#1E1735"/>
<path d="M48.1141 152.555C47.879 152.488 47.6933 152.51 47.4985 152.552C47.3024 152.593 47.092 152.654 46.8569 152.676C46.6244 152.701 46.3633 152.677 46.1335 152.57C45.9036 152.465 45.7152 152.284 45.597 152.063C45.8334 152.124 46.0321 152.179 46.2296 152.199C46.4244 152.22 46.6114 152.209 46.8166 152.189C47.0205 152.171 47.2439 152.139 47.4907 152.168C47.5504 152.174 47.6128 152.186 47.6738 152.207C47.7349 152.221 47.7946 152.253 47.8518 152.282C47.9076 152.313 47.957 152.36 48.0037 152.401C48.0479 152.449 48.0843 152.504 48.1141 152.555Z" fill="#1E1735"/>
<path d="M39.2108 150.32L40.1317 150.394C39.6135 145.875 42.3423 141.392 45.9374 140.921C46.7504 140.813 47.5609 140.894 48.3518 141.161C48.3817 141.171 48.3999 141.129 48.3752 141.111L48.1687 140.958C48.0232 140.851 47.87 140.754 47.7076 140.677C47.0998 140.388 46.4075 140.37 45.523 140.487C41.4318 141.023 38.6316 145.27 39.2108 150.32Z" fill="#7764A6"/>
<path d="M38.6615 152.428C38.781 153.472 39.446 155.486 39.8434 155.737C40.3253 156.042 40.963 155.8 41.0656 155.741C41.6747 155.394 42.0033 153.993 41.776 152.02C41.5501 150.045 40.9318 148.649 40.2448 148.591C40.1785 148.586 39.2681 148.462 38.9706 149.014C38.4862 149.915 38.5277 151.266 38.6615 152.428Z" fill="#AE9AE3"/>
<path d="M38.6407 152.433C38.8667 154.406 39.5525 155.942 40.172 155.86C40.7915 155.779 41.111 154.113 40.8838 152.138C40.6578 150.163 39.972 148.629 39.3525 148.709C38.7329 148.791 38.4147 150.458 38.6407 152.433Z" fill="#7764A6"/>
<path d="M38.7407 152.419C38.9381 154.139 39.5239 155.477 40.0499 155.409C40.5759 155.339 40.8422 153.889 40.6447 152.168C40.4473 150.449 39.8616 149.11 39.3356 149.179C38.8095 149.249 38.5433 150.7 38.7407 152.419Z" fill="#FCCC44"/>
<path d="M58.3513 175.88H71.1004L78.7685 156.085H65.9246L58.3513 175.88Z" fill="#AE9AE3"/>
<path d="M75.3877 172.165C75.5072 171.914 75.6384 171.977 75.7774 171.689C75.7916 171.657 75.9865 171.237 75.8397 170.806C75.7241 170.469 75.528 170.497 75.4124 170.137C75.3306 169.881 75.4072 169.804 75.3384 169.496C75.276 169.216 75.1552 169.028 75.0292 168.836C74.85 168.564 74.5279 168.05 73.9214 167.732C73.3486 167.432 71.7861 167.509 71.4264 167.783C71.3627 167.832 71.2173 167.943 71.164 168.144C71.0926 168.409 71.2354 168.642 71.2458 168.658C71.3354 168.797 71.4666 168.871 71.6991 168.948C72.2563 169.134 72.4472 168.899 72.8797 169.043C73.2499 169.167 73.5759 169.529 73.5512 169.605C73.5291 169.679 73.1758 169.598 72.8434 169.548C72.1615 169.445 71.2731 169.601 69.4963 169.913C69.2613 169.955 68.8716 170.027 68.6352 170.351C68.3729 170.71 68.5872 171.062 68.582 171.108C68.5716 171.194 68.3183 171.156 68.0923 171.322C67.9326 171.44 67.8508 171.6 67.83 171.682C67.6676 172.304 68.0183 172.418 68.1209 172.594C68.2144 172.751 68.1365 172.859 68.2027 173.108C68.2027 173.108 68.2521 173.291 68.4131 173.505C68.6794 173.863 69.2236 173.861 69.9197 174.009C70.1483 174.058 70.7601 174.19 71.4264 174.511C72.0459 174.81 72.0693 174.962 72.5693 175.11C72.8953 175.208 73.4057 175.352 73.8759 175.09C73.985 175.028 74.3344 174.832 74.3928 174.497C74.4214 174.329 74.3565 174.254 74.4188 174.119C74.5045 173.932 74.6864 173.943 74.9175 173.778C74.937 173.764 75.1851 173.582 75.3072 173.301C75.502 172.853 75.1903 172.58 75.3877 172.165Z" fill="#F79556"/>
<path d="M74.3436 171.828C74.15 171.69 73.9305 171.599 73.7123 171.516C73.4915 171.439 73.2669 171.375 73.037 171.329C72.5733 171.238 72.1174 171.222 71.6589 171.199C71.2018 171.183 70.7446 171.19 70.2874 171.213C69.8289 171.241 69.3704 171.281 68.9185 171.389C69.8328 171.491 70.7394 171.547 71.6485 171.578L72.3291 171.596C72.5577 171.599 72.7798 171.608 73.0019 171.622C73.4487 171.661 73.8968 171.711 74.3436 171.828Z" fill="#EC7D40"/>
<path d="M74.1007 173.585C73.6981 173.297 73.2539 173.076 72.7941 172.906C72.6785 172.863 72.5629 172.821 72.446 172.788C72.3278 172.751 72.2057 172.719 72.0863 172.693C71.846 172.643 71.6044 172.607 71.3654 172.575C70.8836 172.516 70.4017 172.494 69.9186 172.494C69.438 172.498 68.9522 172.522 68.4756 172.622C68.9561 172.681 69.4302 172.739 69.9056 172.79L71.3252 172.952C71.5615 172.977 71.7953 173.009 72.0278 173.045C72.1447 173.063 72.2564 173.082 72.3707 173.109L72.7175 173.19C73.1786 173.302 73.6357 173.439 74.1007 173.585Z" fill="#EC7D40"/>
<path d="M23.6382 185.978C23.1187 184.941 23.8811 183.467 24.2356 182.782C24.3278 182.603 25.3734 180.654 27.5229 180.065C28.1567 179.891 28.7633 179.868 30.4361 180.144C33.1026 180.583 35.0819 181.22 35.217 181.263C39.1056 182.51 40.3304 182.063 42.089 182.063C44.3307 182.063 45.5256 181.423 46.2724 181.583C46.5712 181.647 46.8946 182.248 47.1699 182.542C47.8842 183.307 47.8492 184.23 47.1699 184.941C46.679 185.454 45.8997 185.978 44.6294 186.059C42.3903 186.2 37.7159 186.565 31.7804 186.859C25.1539 187.184 24.0421 186.791 23.6382 185.978Z" fill="#F79556"/>
<path d="M52.7198 168.217C53.0419 168.86 54.3615 171.483 54.3615 171.483L50.3689 173.981C50.3689 173.981 49.0572 171.183 48.7221 170.518C48.3597 169.796 48.961 168.697 50.065 168.062C51.1677 167.427 52.3574 167.497 52.7198 168.217Z" fill="#E1D7F7"/>
<path d="M53.9432 170.386C53.5614 169.626 52.3522 169.64 51.1885 170.309C50.0235 170.98 49.3468 172.052 49.7286 172.811L50.656 174.841L54.929 172.323L53.9432 170.386Z" fill="#ED1C24"/>
<path d="M54.2666 170.935C53.8783 170.162 52.6042 170.088 51.4196 170.77C50.2351 171.451 49.5909 172.631 49.9793 173.402L50.9235 175.466L55.2706 172.906L54.2666 170.935Z" fill="#808080"/>
<path d="M55.342 173.016C55.7407 173.811 55.0783 175.024 53.8601 175.725C52.6405 176.426 51.3287 176.35 50.93 175.554C50.5286 174.759 51.1936 173.546 52.4106 172.845C53.6302 172.144 54.942 172.22 55.342 173.016Z" fill="#4D4D4D"/>
<path d="M54.6537 174.322C54.9628 174.937 55.9044 176.81 55.9044 176.81L53.5783 178.149C53.5783 178.149 52.673 176.348 52.3275 175.661C51.9821 174.974 52.2236 174.117 52.8652 173.747C53.5069 173.377 54.3082 173.635 54.6537 174.322Z" fill="#808080"/>
<path d="M55.9044 176.81C56.2499 177.497 56.0096 178.354 55.3667 178.724C54.7251 179.094 53.9238 178.836 53.5783 178.149C53.2328 177.462 53.4731 176.606 54.116 176.236C54.7576 175.866 55.559 176.124 55.9044 176.81Z" fill="#4D4D4D"/>
<path d="M48.7831 186.635C50.8742 184.515 52.9639 182.397 55.055 180.277Z" fill="#4D4D4D"/>
<path d="M49.0104 186.891L48.5558 186.378L54.8277 180.021L55.2823 180.535L49.0104 186.891Z" fill="#808080"/>
<path d="M60.8321 186.635C58.741 184.515 56.65 182.397 54.5602 180.277Z" fill="#4D4D4D"/>
<path d="M60.6048 186.891L54.3329 180.535L54.7862 180.021L61.0581 186.378L60.6048 186.891Z" fill="#808080"/>
<path d="M59.9294 186.354C59.9294 186.695 60.1879 186.972 60.5074 186.972C60.8256 186.972 61.0841 186.695 61.0841 186.354C61.0841 186.012 60.8256 185.736 60.5074 185.736C60.1879 185.736 59.9294 186.012 59.9294 186.354Z" fill="#4D4D4D"/>
<path d="M55.1368 177.798C55.1368 177.601 54.99 177.443 54.8069 177.443C54.625 177.443 54.477 177.601 54.477 177.798H54.4744V186.891H55.1342V177.824C55.1355 177.814 55.1368 177.806 55.1368 177.798Z" fill="#808080"/>
<path d="M49.6961 186.354C49.6961 186.695 49.4377 186.972 49.1195 186.972C48.8 186.972 48.5415 186.695 48.5415 186.354C48.5415 186.012 48.8 185.736 49.1195 185.736C49.4377 185.736 49.6961 186.012 49.6961 186.354Z" fill="#4D4D4D"/>
<path d="M54.229 186.354C54.229 186.695 54.4888 186.972 54.807 186.972C55.1265 186.972 55.3849 186.695 55.3849 186.354C55.3849 186.012 55.1265 185.736 54.807 185.736C54.4888 185.736 54.229 186.012 54.229 186.354Z" fill="#4D4D4D"/>
<path d="M43.2853 182.542C43.4944 182.227 43.3216 182.291 45.3763 181.423C46.6323 180.894 47.5596 180.308 47.7674 180.144C47.9713 179.984 48.2402 179.742 48.6636 179.665C49.1169 179.582 49.4741 179.664 49.7091 179.727C50.9053 180.047 51.4288 180.092 52.1002 180.464C52.873 180.894 53.5939 181.743 54.3407 182.222C54.3407 182.222 54.7602 182.493 55.0875 183.022C55.1875 183.181 55.255 183.329 55.2368 183.501C55.2174 183.702 55.0888 183.882 54.9394 183.981C54.7212 184.123 54.5134 184.054 54.49 184.141C54.4718 184.212 54.6043 184.28 54.7888 184.461C54.955 184.621 55.1511 184.813 55.2368 185.099C55.3265 185.396 55.2719 185.666 55.2368 185.739C54.9394 186.379 54.49 186.219 54.49 186.219C54.49 186.219 54.6394 187.019 53.5939 187.019C53.3666 187.019 53.1782 186.834 52.9964 186.859C52.8964 186.871 52.6977 187.339 51.8015 187.177C51.2067 187.072 49.9169 186.401 48.9623 186.059C48.5428 185.909 48.0882 185.75 47.4687 185.739C46.9141 185.73 46.6855 185.846 46.2725 185.899C46.0621 185.927 44.284 186.13 43.4346 184.941C42.8956 184.186 42.7943 183.28 43.2853 182.542Z" fill="#F79556"/>
<path d="M54.1913 183.981C53.7912 183.82 53.4276 183.597 53.0678 183.372C52.7093 183.142 52.3638 182.896 52.0262 182.639C51.6859 182.379 51.3677 182.113 51.0313 181.866C50.6975 181.611 50.3533 181.371 50.0078 181.104C50.4273 181.186 50.8261 181.343 51.2092 181.54C51.5937 181.736 51.9508 181.991 52.2859 182.248C52.9613 182.768 53.6029 183.33 54.1913 183.981Z" fill="#EC7D40"/>
<path d="M54.3406 186.059C53.9081 185.736 53.4873 185.422 53.06 185.111C52.8444 184.958 52.6314 184.8 52.4184 184.64L51.7846 184.172C51.3599 183.857 50.9351 183.542 50.5169 183.216C50.0948 182.894 49.6805 182.564 49.261 182.222C49.7675 182.386 50.2429 182.633 50.7027 182.899C51.1637 183.165 51.6079 183.46 52.0391 183.777C52.2547 183.937 52.4664 184.101 52.6729 184.277C52.8769 184.451 53.0795 184.628 53.2743 184.817C53.6665 185.188 54.0393 185.596 54.3406 186.059Z" fill="#EC7D40"/>
<path d="M48.3649 183.661C48.8026 183.753 49.2234 183.905 49.6312 184.088C50.0403 184.269 50.4352 184.486 50.8144 184.728C51.1937 184.972 51.5573 185.241 51.8989 185.543C52.2418 185.841 52.5652 186.168 52.847 186.539C52.4483 186.323 52.073 186.086 51.6989 185.849C51.3235 185.616 50.9547 185.376 50.5845 185.14L49.474 184.421C49.1026 184.179 48.7298 183.935 48.3649 183.661Z" fill="#EC7D40"/>
<path d="M90.0747 189.552H18.7457C18.0495 189.552 17.4858 188.948 17.4858 188.204C17.4858 187.458 18.0495 186.855 18.7457 186.855H90.0747C90.7695 186.855 91.3345 187.458 91.3345 188.204C91.3345 188.948 90.7695 189.552 90.0747 189.552Z" fill="#312553"/>
<path d="M77.7191 174.102C78.1269 172.761 79.3089 172.469 79.2115 171.299C79.1647 170.756 78.8231 170.277 78.9283 170.201C79.0244 170.131 79.3686 170.483 79.5452 170.694C80.2583 171.557 80.7817 173.243 80.2635 174.761C79.8206 176.062 79.1075 175.916 78.7997 177.482C78.6504 178.241 78.8504 178.952 78.7738 178.964C78.6997 178.978 76.8996 176.795 77.7191 174.102Z" fill="#FCCC44"/>
<path d="M83.4676 183.34C83.4689 182.223 82.9156 181.279 82.2584 181.277C81.9727 181.277 81.7051 181.457 81.4947 181.752L81.4895 184.921C81.6986 185.218 81.9662 185.397 82.2532 185.397C82.9091 185.398 83.465 184.457 83.4676 183.34ZM84.1352 183.341C84.1339 184.058 83.9507 184.736 83.6208 185.251C83.452 185.514 83.2533 185.723 83.0286 185.87C82.7844 186.03 82.5233 186.112 82.2519 186.112C81.9856 186.111 81.7285 186.031 81.4882 185.876L81.4869 186.685C81.4869 186.76 81.4298 186.821 81.3596 186.821L75.815 186.812C75.7449 186.812 75.6877 186.75 75.6877 186.674L75.6981 179.657C75.6981 179.582 75.7553 179.521 75.8267 179.521L81.37 179.53C81.4414 179.53 81.4973 179.592 81.4973 179.667L81.496 180.798C81.7363 180.642 81.9934 180.564 82.2597 180.564C82.5311 180.564 82.7922 180.647 83.0364 180.809C83.2598 180.957 83.4585 181.166 83.626 181.429C83.9559 181.945 84.1352 182.624 84.1352 183.341Z" fill="#E30613"/>
<path d="M57.1838 128.627H78.7595C80.1674 128.627 81.3077 129.848 81.3077 131.354V142.203C81.3077 143.709 80.1674 144.929 78.7595 144.929H62.9985L60.0931 147.77V144.929H57.1838C55.7758 144.929 54.6355 143.709 54.6355 142.203V131.354C54.6355 129.848 55.7758 128.627 57.1838 128.627Z" fill="#AE9AE3"/>
<path d="M72.555 141.32C72.555 141.652 72.3031 141.919 71.9939 141.919C71.6835 141.919 71.4329 141.652 71.4329 141.32C71.4329 140.989 71.6835 140.719 71.9939 140.719C72.3031 140.719 72.555 140.989 72.555 141.32Z" fill="#1E1735"/>
<path d="M74.8812 141.32C74.8812 141.652 74.6292 141.919 74.3201 141.919C74.0097 141.919 73.759 141.652 73.759 141.32C73.759 140.989 74.0097 140.719 74.3201 140.719C74.6292 140.719 74.8812 140.989 74.8812 141.32Z" fill="#1E1735"/>
<path d="M77.2074 141.32C77.2074 141.652 76.9567 141.919 76.6463 141.919C76.3359 141.919 76.0852 141.652 76.0852 141.32C76.0852 140.989 76.3359 140.719 76.6463 140.719C76.9567 140.719 77.2074 140.989 77.2074 141.32Z" fill="#1E1735"/>
<path d="M77.1801 133.286H64.257C63.9453 133.286 63.6934 133.016 63.6934 132.684C63.6934 132.352 63.9453 132.08 64.257 132.08H77.1801C77.4918 132.08 77.7438 132.352 77.7438 132.684C77.7438 133.016 77.4918 133.286 77.1801 133.286Z" fill="white"/>
<path d="M77.1801 136.167H58.3812C58.0695 136.167 57.8175 135.897 57.8175 135.563C57.8175 135.231 58.0695 134.961 58.3812 134.961H77.1801C77.4918 134.961 77.7437 135.231 77.7437 135.563C77.7437 135.897 77.4918 136.167 77.1801 136.167Z" fill="white"/>
<path d="M77.1801 139.046H58.3812C58.0695 139.046 57.8175 138.776 57.8175 138.443C57.8175 138.111 58.0695 137.841 58.3812 137.841H77.1801C77.4918 137.841 77.7437 138.111 77.7437 138.443C77.7437 138.776 77.4918 139.046 77.1801 139.046Z" fill="white"/>
<path d="M69.7743 141.926H58.3812C58.0695 141.926 57.8175 141.656 57.8175 141.324C57.8175 140.99 58.0695 140.72 58.3812 140.72H69.7743C70.086 140.72 70.338 140.99 70.338 141.324C70.338 141.656 70.086 141.926 69.7743 141.926Z" fill="white"/>
<mask id="mask3_106_504" style="mask-type:luminance" maskUnits="userSpaceOnUse" x="89" y="229" width="19" height="19">
<path d="M89.7733 229H107.063V247.247H89.7733V229Z" fill="white"/>
</mask>
<g mask="url(#mask3_106_504)">
<path d="M98.3182 229.144C93.6698 229.144 89.8967 233.184 89.8967 238.162C89.8967 243.14 93.6698 247.18 98.3182 247.18C102.967 247.18 106.74 243.14 106.74 238.162C106.74 233.171 102.967 229.144 98.3182 229.144ZM101.285 239L97.1726 241.188C96.6362 241.476 95.9232 241.439 95.9232 240.576V235.711C95.9232 234.81 96.6012 234.797 97.1726 235.098L101.285 237.299C101.998 237.686 102.021 238.612 101.285 239Z" fill="white"/>
</g>
<path d="M72.5525 233.572V242.753H74.176V239.963C74.176 239.475 74.3851 239.201 74.7592 239.462L79.0465 242.503C79.3141 242.69 79.5595 242.791 79.7933 242.74C80.0154 242.703 80.1674 242.478 80.1674 242.027L80.1557 234.284C80.1557 233.397 79.5245 233.472 79.0348 233.81L74.7475 236.849C74.3734 237.112 74.1643 236.824 74.1643 236.348V233.559L72.5525 233.572Z" fill="white"/>
<path d="M123.312 233.572V236.361C123.312 236.836 123.103 237.124 122.729 236.861L118.442 233.822C117.952 233.472 117.321 233.409 117.321 234.297V242.039C117.321 242.49 117.485 242.703 117.695 242.753C117.929 242.79 118.174 242.703 118.442 242.515L122.729 239.475C123.103 239.213 123.312 239.5 123.312 239.975V242.765H124.936V233.584L123.312 233.572Z" fill="white"/>
<path d="M135.647 237.337C135.998 237.337 136.29 237.037 136.29 236.649C136.29 236.06 136.686 235.573 137.189 235.573H144.069V235.985C144.069 236.148 144.15 236.298 144.279 236.386C144.408 236.473 144.57 236.473 144.698 236.386L146.521 235.286C146.661 235.21 146.743 235.048 146.743 234.885C146.743 234.722 146.661 234.572 146.521 234.484L144.698 233.384C144.57 233.309 144.408 233.309 144.279 233.384C144.15 233.472 144.069 233.61 144.069 233.785V234.196H137.189C135.986 234.196 135.016 235.286 135.016 236.636C135.016 237.037 135.296 237.337 135.647 237.337Z" fill="white"/>
<path d="M146.158 238.963C145.809 238.963 145.517 239.263 145.517 239.65C145.517 240.238 145.154 240.726 144.698 240.726H137.855V240.313C137.855 240.151 137.773 240 137.645 239.913C137.516 239.825 137.352 239.825 137.224 239.9L135.39 240.977C135.25 241.052 135.168 241.201 135.168 241.376C135.168 241.539 135.25 241.689 135.378 241.777L137.189 242.903C137.259 242.939 137.329 242.964 137.399 242.964C137.469 242.964 137.539 242.939 137.609 242.903C137.738 242.816 137.82 242.678 137.82 242.515V242.09H144.675C145.832 242.09 146.766 241.002 146.766 239.65C146.801 239.263 146.509 238.963 146.158 238.963Z" fill="white"/>
<path d="M61.3386 241.002L59.4242 239.85C59.2839 239.763 59.1202 239.775 58.9917 239.85C58.8514 239.938 58.7813 240.088 58.7813 240.251V240.701C58.3254 240.689 57.9747 240.464 57.5903 239.975C57.1227 239.401 56.7369 238.75 56.3161 238.024C56.7369 237.362 57.1227 236.774 57.5669 236.26C57.9513 235.811 58.3254 235.611 58.7929 235.598V236.048C58.7929 236.21 58.8748 236.361 59.0034 236.448C59.1436 236.536 59.2956 236.536 59.4359 236.448L61.3503 235.298C61.4906 235.21 61.5724 235.06 61.5724 234.897C61.5724 234.735 61.4906 234.572 61.3503 234.497L59.4359 233.347C59.2956 233.259 59.1319 233.272 59.0034 233.347C58.8631 233.434 58.7929 233.584 58.7929 233.747V234.196C57.9396 234.221 57.2513 234.572 56.6084 235.311C56.2356 235.736 55.92 236.185 55.5576 236.724C55.394 236.448 55.2303 236.16 55.0667 235.886L55.0082 235.799C54.6355 235.198 54.2264 234.522 53.3029 234.297C52.5093 234.11 50.8858 234.173 50.1027 234.209C49.7416 234.221 49.461 234.547 49.4727 234.935C49.4844 235.311 49.787 235.623 50.1494 235.611C50.7573 235.586 52.3808 235.523 53.0237 235.674C53.4081 235.761 53.5834 236.023 53.9107 236.573L53.9692 236.661C54.238 237.099 54.4952 237.562 54.7511 237.999C54.5069 238.4 54.2497 238.813 53.9809 239.213L53.9224 239.301C53.6185 239.763 53.4315 240.038 53.0237 240.126C52.3808 240.263 50.7573 240.201 50.126 240.188C49.7637 240.188 49.4727 240.489 49.461 240.864C49.4494 241.251 49.7299 241.576 50.1027 241.589C50.465 241.601 51.0144 241.626 51.5625 241.626C52.3457 241.626 52.9068 241.589 53.2795 241.514C54.1913 241.313 54.6121 240.689 54.9849 240.138L55.0433 240.063C55.207 239.825 55.3589 239.587 55.5109 239.351C55.8265 239.888 56.1772 240.426 56.585 240.939C57.2279 241.739 57.9176 242.127 58.7696 242.152V242.603C58.7696 242.765 58.8514 242.916 58.98 243.002C59.0501 243.039 59.1202 243.064 59.2021 243.064C59.2722 243.064 59.354 243.039 59.4125 243.002L61.3269 241.852C61.4672 241.764 61.549 241.614 61.549 241.451C61.5607 241.238 61.4789 241.089 61.3386 241.002Z" fill="white"/>
<mask id="mask4_106_504" style="mask-type:luminance" maskUnits="userSpaceOnUse" x="142" y="203" width="6" height="7">
<path d="M142.307 203.491H147.627V209.061H142.307V203.491Z" fill="white"/>
</mask>
<g mask="url(#mask4_106_504)">
<path d="M143.016 206.805L144.22 208.193L144.232 208.206L144.897 208.869C144.979 208.957 145.108 208.944 145.178 208.857L146.848 206.793L146.86 206.78L147.012 206.555L147.035 206.517C147.561 205.78 147.479 204.678 146.86 204.066C146.287 203.491 145.446 203.528 144.909 204.142C144.64 203.854 144.302 203.703 143.963 203.703C143.566 203.691 143.168 203.866 142.877 204.242C142.316 204.929 142.34 206.043 142.911 206.705L143.016 206.805Z" fill="white"/>
</g>
<path d="M148.109 213.309H89.1251C88.7991 212.346 87.9225 211.645 86.9068 211.645C85.8781 211.645 85.0144 212.334 84.6871 213.309H49.4142C48.97 213.309 48.6077 213.697 48.6077 214.172C48.6077 214.648 48.97 215.035 49.4142 215.035H84.6871C85.0144 215.999 85.8898 216.698 86.9068 216.698C87.9341 216.698 88.7991 216.011 89.1251 215.035H148.109C148.553 215.035 148.916 214.648 148.916 214.172C148.916 213.697 148.553 213.309 148.109 213.309Z" fill="white"/>
<path d="M50.0442 220.638H49.6598V218C49.5663 218.1 49.4494 218.188 49.2974 218.288C49.1455 218.388 49.0052 218.449 48.8883 218.499V218.1C49.0987 217.987 49.2974 217.862 49.4494 217.7C49.613 217.549 49.7299 217.399 49.7871 217.249H50.0326V220.638H50.0442Z" fill="white"/>
<path d="M51.2482 218.674V218.2H51.6911V218.674H51.2482ZM51.2482 220.638V220.164H51.6911V220.638H51.2482Z" fill="white"/>
<path d="M53.4899 220.638V219.839H52.1235V219.463L53.56 217.286H53.8756V219.463H54.2964V219.839H53.8756V220.638H53.4899ZM53.4899 219.463V217.95L52.5093 219.463H53.4899Z" fill="white"/>
<path d="M54.7511 219.864L55.1251 219.826C55.1602 220.014 55.2186 220.152 55.3005 220.238C55.394 220.326 55.4992 220.363 55.6395 220.363C55.7563 220.363 55.8616 220.338 55.9551 220.275C56.0486 220.213 56.1187 220.139 56.1772 220.039C56.2356 219.939 56.2824 219.814 56.3161 219.638C56.3512 219.476 56.3746 219.3 56.3746 219.138C56.3746 219.125 56.3746 219.088 56.3746 219.05C56.2928 219.188 56.1888 219.288 56.0603 219.376C55.9317 219.463 55.7797 219.501 55.6278 219.501C55.3706 219.501 55.1485 219.401 54.9615 219.2C54.7861 219 54.6926 218.737 54.6926 218.401C54.6926 218.063 54.7861 217.787 54.9732 217.574C55.1602 217.362 55.394 217.261 55.6862 217.261C55.8966 217.261 56.0836 217.324 56.2473 217.437C56.4213 217.549 56.5499 217.725 56.6317 217.937C56.7253 218.15 56.7603 218.474 56.7603 218.887C56.7603 219.313 56.7136 219.663 56.6317 219.914C56.5499 220.164 56.4096 220.363 56.2473 220.501C56.072 220.638 55.8732 220.701 55.6395 220.701C55.394 220.701 55.1953 220.626 55.0316 220.476C54.8797 220.338 54.7861 220.127 54.7511 219.864ZM56.3278 218.376C56.3278 218.138 56.2707 217.95 56.1538 217.812C56.0369 217.675 55.8966 217.599 55.733 217.599C55.5576 217.599 55.4174 217.675 55.2888 217.825C55.1602 217.975 55.1018 218.175 55.1018 218.413C55.1018 218.625 55.1602 218.8 55.2888 218.937C55.4057 219.075 55.5576 219.138 55.733 219.138C55.9083 219.138 56.0603 219.075 56.1772 218.937C56.2707 218.8 56.3278 218.612 56.3278 218.376Z" fill="white"/>
<path d="M142.223 220.638V219.839H140.857V219.463L142.293 217.286H142.609V219.463H143.028V219.839H142.609V220.638H142.223ZM142.223 219.463V217.95L141.241 219.463H142.223Z" fill="white"/>
<path d="M143.648 218.674V218.2H144.092V218.674H143.648ZM143.648 220.638V220.164H144.092V220.638H143.648Z" fill="white"/>
<path d="M146.113 220.638H145.727V218C145.634 218.1 145.517 218.188 145.365 218.288C145.213 218.388 145.072 218.449 144.956 218.499V218.1C145.178 217.987 145.365 217.862 145.517 217.7C145.68 217.549 145.797 217.399 145.856 217.249H146.101V220.638H146.113Z" fill="white"/>
<mask id="mask5_106_504" style="mask-type:luminance" maskUnits="userSpaceOnUse" x="146" y="217" width="4" height="4">
<path d="M146.962 217.25H149.168V220.811H146.962V217.25Z" fill="white"/>
</mask>
<g mask="url(#mask5_106_504)">
<path d="M147.093 218.988C147.093 218.587 147.128 218.275 147.21 218.025C147.292 217.787 147.397 217.599 147.549 217.462C147.701 217.324 147.887 217.261 148.121 217.261C148.284 217.261 148.436 217.299 148.565 217.374C148.694 217.449 148.799 217.549 148.881 217.687C148.962 217.825 149.032 217.987 149.079 218.188C149.126 218.388 149.149 218.65 149.149 218.988C149.149 219.388 149.114 219.701 149.032 219.939C148.962 220.177 148.845 220.363 148.694 220.501C148.542 220.638 148.355 220.701 148.121 220.701C147.817 220.701 147.584 220.588 147.409 220.351C147.199 220.077 147.093 219.613 147.093 218.988ZM147.491 218.988C147.491 219.538 147.549 219.914 147.678 220.089C147.793 220.275 147.945 220.363 148.121 220.363C148.296 220.363 148.448 220.275 148.565 220.089C148.682 219.901 148.752 219.538 148.752 218.988C148.752 218.438 148.694 218.063 148.565 217.887C148.436 217.712 148.296 217.612 148.109 217.612C147.934 217.612 147.793 217.687 147.69 217.85C147.561 218.05 147.491 218.426 147.491 218.988Z" fill="white"/>
</g>
<path d="M70.4489 41.0338H73.8037C75.2622 41.0338 76.7221 41.433 77.8403 42.5637C78.9586 43.6945 79.7028 45.5569 79.7028 48.3511C79.7028 51.1439 78.9586 52.9729 77.8403 54.1036C76.7221 55.2344 75.2622 55.7003 73.8037 55.7003V65.4766H70.4489V41.0338ZM73.8037 52.0424C74.8284 52.0424 75.4804 51.8421 75.8532 51.2774C76.2259 50.7447 76.3181 49.8462 76.3181 48.4832C76.3181 47.1202 76.2259 46.1563 75.8532 45.5569C75.4804 44.9588 74.8284 44.6931 73.8037 44.6931V52.0424Z" fill="white"/>
<path d="M90.291 41.0338V60.4556C90.2611 61.4529 90.0741 62.35 89.7325 63.1149C89.4532 63.7811 89.0181 64.4126 88.3973 64.9119C87.7765 65.4432 86.9375 65.7422 85.8192 65.7422C84.7022 65.7422 83.832 65.4432 83.2112 64.9119C82.5904 64.4126 82.1864 63.7811 81.9072 63.1149C81.5656 62.35 81.3786 61.4529 81.3474 60.4556V41.0338H84.7022V60.4556C84.7022 61.1538 84.8568 61.6184 85.1672 61.9842C85.323 62.1511 85.5399 62.2512 85.8192 62.2512C86.4101 62.2512 86.6894 61.852 86.8141 61.3527C86.9063 61.1204 86.9375 60.8214 86.9375 60.4556V41.0338H90.291Z" fill="white"/>
<path d="M92.7429 65.4766V41.0338H95.6938C97.681 41.0338 99.233 41.433 100.259 42.465C101.284 43.4956 101.811 45.0909 101.811 47.5193C101.811 48.6835 101.718 49.5472 101.376 50.3455C101.034 51.1439 100.507 51.8087 99.7305 52.5737C100.57 53.073 101.19 54.0035 101.686 55.5668C101.936 56.3318 102.059 57.329 102.059 58.5599C102.059 60.3889 101.749 62.0175 100.972 63.2818C100.197 64.5461 98.8616 65.3764 96.8731 65.4766H92.7429ZM96.0977 51.1105C96.377 51.1105 97.029 51.1439 97.5875 50.7447C98.1472 50.3455 98.581 49.5472 98.581 47.8518C98.581 46.1563 98.1472 45.358 97.5875 44.9588C97.029 44.5596 96.377 44.593 96.0977 44.593V51.1105ZM96.0977 61.9188C96.377 61.9188 97.029 61.9842 97.5875 61.553C98.1472 61.1204 98.581 60.1552 98.581 58.1607C98.581 56.1649 98.1472 55.201 97.5875 54.7684C97.029 54.3359 96.377 54.4026 96.0977 54.4026V61.9188Z" fill="white"/>
<path d="M104.045 41.0338H107.4V62.1511H111.841V65.4766H104.045V41.0338Z" fill="white"/>
<path d="M113.205 41.0338H116.56V65.4766H113.205V41.0338Z" fill="white"/>
<path d="M127.769 57.0968V60.4556C127.738 61.4529 127.552 62.35 127.211 63.115C126.93 63.7812 126.496 64.4126 125.874 64.9119C125.253 65.4432 124.415 65.7423 123.297 65.7423C122.179 65.7423 121.31 65.4432 120.689 64.9119C120.067 64.4126 119.664 63.7812 119.384 63.115C119.042 62.35 118.857 61.4529 118.825 60.4556V46.0562C118.857 45.0909 119.042 44.1938 119.384 43.4289C119.664 42.7641 120.067 42.0992 120.689 41.5999C121.31 41.1006 122.179 40.7682 123.297 40.7682C124.415 40.7682 125.253 41.1006 125.874 41.5999C126.496 42.0992 126.93 42.7641 127.211 43.4289C127.552 44.1938 127.738 45.0909 127.769 46.0562V49.4151H124.632V46.0562C124.632 45.3914 124.478 44.9254 124.136 44.5263C123.98 44.3594 123.701 44.2606 123.36 44.2606C122.77 44.2606 122.489 44.7252 122.335 45.1577C122.241 45.4247 122.21 45.7238 122.179 46.0562V60.4556C122.21 61.1539 122.397 61.6184 122.708 61.9842C122.862 62.1511 123.08 62.2512 123.36 62.2512C124.074 62.2512 124.353 61.8521 124.508 61.3527C124.601 61.1205 124.632 60.8214 124.632 60.4556V57.0968H127.769Z" fill="white"/>
<path d="M63.854 79.6028C63.854 78.8044 63.8228 77.9059 63.6059 77.2077C63.389 76.5429 63.0474 76.077 62.5188 76.077C61.6499 76.1104 61.3694 77.0756 61.3694 78.5054C61.3694 79.3357 61.711 80.2008 62.2084 81.1313C62.7058 82.0632 63.3578 83.027 64.0098 84.0591C64.7852 85.2886 65.5619 86.5528 66.1529 87.7824C66.7425 89.0133 67.1465 90.2775 67.1465 91.6072C67.1465 93.2373 66.8971 94.7658 66.1827 95.8966C65.4684 97.0273 64.3203 97.7589 62.4876 97.7589C60.3446 97.7589 59.1341 96.8952 58.451 95.5642C57.7678 94.2345 57.6119 92.4723 57.6119 90.6433L60.9044 90.3109C60.9044 91.3415 60.9356 92.3722 61.1836 93.1371C61.4005 93.9355 61.7733 94.4668 62.4876 94.4668C63.4812 94.4668 63.854 93.336 63.854 91.7741C63.854 90.9757 63.4812 90.0439 62.9851 89.08C62.7058 88.6141 62.4253 88.1148 62.1149 87.6168C61.4629 86.6196 60.7485 85.4888 60.003 84.2579C59.2588 83.027 58.699 81.7642 58.3575 80.4665C58.1717 79.835 58.0782 79.1702 58.0782 78.5054C58.0782 77.1744 58.3575 75.7446 59.0718 74.6472C59.7861 73.5832 60.8732 72.8182 62.4565 72.7848C64.4748 72.7515 65.6554 73.6499 66.3074 74.9462C66.9594 76.2773 67.1465 77.9059 67.1465 79.2704L63.854 79.6028Z" fill="white"/>
<path d="M68.9453 73.0505H72.3001C73.7587 73.0505 75.2185 73.4497 76.3368 74.5805C77.4551 75.7112 78.1993 77.5736 78.1993 80.3678C78.1993 83.1606 77.4551 84.9896 76.3368 86.1203C75.2185 87.2511 73.7587 87.717 72.3001 87.717V97.4933H68.9453V73.0505ZM72.3001 84.0591C73.3249 84.0591 73.9769 83.8588 74.3496 83.2941C74.7224 82.7614 74.8146 81.863 74.8146 80.4999C74.8146 79.1369 74.7224 78.173 74.3496 77.5736C73.9769 76.9755 73.3249 76.7099 72.3001 76.7099V84.0591Z" fill="white"/>
<path d="M79.875 73.0505H87.5457V76.7418H83.2298V83.1606H86.3352V87.0842H83.2298V93.802H87.5457V97.4933H79.875V73.0505Z" fill="white"/>
<path d="M88.4761 97.4933L91.9231 73.0505H96.0221L99.4691 97.4933H96.2092L95.587 92.5057H92.3582L91.7374 97.4933H88.4761ZM94.1596 80.9992L94.0661 80.3678H93.8791L93.7869 80.9992L92.8232 88.7143H95.1221L94.1596 80.9992Z" fill="white"/>
<path d="M104.375 73.0505V81.5973H104.498L104.654 81.1981L107.449 73.0505H110.709L107.635 81.0994L111.113 97.4933H107.852L105.523 86.8519L105.431 86.3526H105.337L105.15 86.8519L104.375 88.8478V97.4933H101.02V73.0505H104.375Z" fill="white"/>
<path d="M112.664 73.0505H116.019V97.4933H112.664V73.0505Z" fill="white"/>
<path d="M122.042 84.7573L121.763 83.6265H121.576V97.4933H118.501V73.0505H121.483L124.743 85.7879L125.023 86.9187H125.21V73.0505H128.284V97.4933H125.303L122.042 84.7573Z" fill="white"/>
<path d="M136.139 81.8309V78.0728C136.139 77.408 136.015 76.942 135.704 76.5429C135.548 76.376 135.3 76.2772 135.021 76.2772C134.431 76.2772 134.152 76.7418 134.027 77.1743C133.934 77.4414 133.903 77.7404 133.903 78.0728V92.7713C133.903 93.4695 134.059 93.9354 134.369 94.3012C134.524 94.4667 134.742 94.5669 135.021 94.5669C135.611 94.5669 135.89 94.1677 136.015 93.6684C136.108 93.4361 136.139 93.1371 136.139 92.7713V88.3484H134.804V85.3219H139.493V97.4932H137.506L137.102 96.3291C136.481 97.1608 135.579 97.7589 134.494 97.7589C133.407 97.7589 132.661 97.4598 132.101 96.9285C131.543 96.4292 131.17 95.7978 130.922 95.1316C130.643 94.3666 130.518 93.4695 130.549 92.4723V78.0728C130.58 77.1075 130.766 76.2104 131.108 75.4455C131.388 74.7807 131.791 74.1158 132.413 73.6165C133.034 73.1172 133.903 72.7848 135.021 72.7848C136.139 72.7848 136.977 73.1172 137.598 73.6165C138.22 74.1158 138.654 74.7807 138.934 75.4455C139.276 76.2104 139.462 77.1075 139.493 78.0728V81.8309H136.139Z" fill="white"/>
</g>
<defs>
<clipPath id="clip0_106_504">
<rect width="198" height="300" fill="white"/>
</clipPath>
</defs>
</svg>
