<svg xmlns="http://www.w3.org/2000/svg" viewBox="0 0 198 300" xmlns:v="https://vecta.io/nano"><style><![CDATA[.B{stroke-width:2}.C{stroke:gray}.D{stroke:#ccf}.E{stroke:#ffb380}.F{stroke:#4d4d80}.G{stroke:#80ccb3}.H{stroke:#705637}.I{stroke:#803300}.J{stroke:#cc8080}.K{stroke:#bca2b6}.L{stroke:#808033}.M{stroke:#0b704a}.N{stroke:#004d33}.O{stroke:#8aa397}.P{stroke:#70a26a}.Q{stroke:#7a794e}.R{stroke:#ef8937}.S{stroke:#0b2317}.T{stroke:#efd5b6}.U{stroke:#577097}.V{stroke:#4d99b3}]]></style><g fill="none" class="B"><path vector-effect="non-scaling-stroke" d="M38.88 14.07a.78.78 0 0 0-.78-.78h-.58a.78.78 0 0 0-.78.78v11.02a.78.78 0 0 0 .78.78h.58a.78.78 0 0 0 .78-.78V14.07m8.92 3.63l-4.89-4.19a1.16 1.16 0 0 0-1.91.88v10.62q0 .91.9.83l.42-.04q.94-.08.94-1.03l-.01-7.25q0-1.03.76-.33l3.56 3.26q.69.64.69 1.57l-.01 3.2a.64.63 86.1 0 0 .72.63l.78-.12q.64-.09.64-.73l-.03-10.74a.95.94-87.6 0 0-.85-.93l-.48-.04q-.75-.08-.76.68l-.03 3.53q-.01.57-.44.2m9.46-1.86a.43.43 0 0 1 .43-.43l2.43.03a.43.43 0 0 0 .43-.36l.2-1.2a.43.43 0 0 0-.42-.5l-8.51.01a.43.43 0 0 0-.4.59l.53 1.29a.43.43 0 0 0 .46.26l2.1-.27a.43.43 0 0 1 .48.43l.03 9.77a.43.43 0 0 0 .47.43l1.37-.13a.43.43 0 0 0 .39-.43l.01-9.49m6.93.04a.42.42 0 0 1 .42-.38l4.72.01a.42.42 0 0 0 .42-.42l-.01-1.3a.42.42 0 0 0-.42-.42l-6.91.02a.42.42 0 0 0-.42.42l.03 11.52a.42.42 0 0 0 .42.42h7.09a.42.42 0 0 0 .42-.44l-.04-1.18a.42.42 0 0 0-.43-.41l-4.94.05a.42.42 0 0 1-.42-.42l.01-2.94a.42.42 0 0 1 .42-.42h4.66a.42.42 0 0 0 .42-.42v-1.08a.42.42 0 0 0-.41-.42l-4.78-.09a.42.42 0 0 1-.41-.46l.16-1.64m9.87 5.77a.55.55 0 0 1 1.03-.25l2.12 3.73q.37.65 1.12.63l.7-.02q.85-.02.46-.77l-1.66-3.24q-.23-.46.14-.81c2.11-1.97 2.54-6.52-1.07-7.31q-2.11-.47-4.68-.12-.47.06-.47.53l-.01 10.72q-.01 1.02 1 1.06l.43.02a.76.76 0 0 0 .79-.74l.1-3.43m15.26.93c-7.55 6.63-8.68-12.07-.3-6.27q.56.39.99-.14l.36-.45a.72.71 44.7 0 0-.01-.9q-1.17-1.4-3.12-1.51c-5.5-.31-7.49 4.79-5.77 9.24 1.45 3.78 5.7 4.33 8.78 2.05q.83-.61.29-1.48l-.25-.39a.64.64 0 0 0-.97-.15m10.81-9.26a.83.83 0 0 0-1 .81l.01 7.79a1.81 1.81 0 0 1-1.56 1.79l-.62.08a1.88 1.88 0 0 1-2.14-1.83l-.1-7.77q-.02-.9-.92-.89h-.45q-.79.01-.77.8l.14 8.59a3.3 3.3 0 0 0 3.21 3.25l1.15.04a4.06 4.05-89.1 0 0 4.18-4.06v-7.57q0-.79-.78-.96l-.35-.07m5.91 10.43a.43.43 0 0 1-.43-.43l.03-9.6a.43.43 0 0 0-.47-.43l-1.27.12a.43.43 0 0 0-.39.43l-.02 11.48a.43.43 0 0 0 .43.43h6.41a.43.43 0 0 0 .42-.49l-.16-1.14a.43.43 0 0 0-.42-.37h-4.13m8.02-8.41a.43.43 0 0 1 .44.43v9.54a.43.43 0 0 0 .42.43l1.27.03a.43.43 0 0 0 .44-.43l-.02-9.53a.43.43 0 0 1 .44-.43l2.53.04a.43.43 0 0 0 .43-.37l.17-1.16a.43.43 0 0 0-.42-.49l-8.35-.04a.43.43 0 0 0-.43.45l.04 1.2a.43.43 0 0 0 .45.42l2.59-.09m11.03 8.35a1.68 1.67-86.7 0 1-1.46-1.65l-.02-8.02a.63.63 0 0 0-.59-.63l-.97-.08q-.69-.05-.69.65l.08 8.26a3.83 3.83 0 0 0 4.29 3.77l1.17-.14a3.5 3.5 0 0 0 3.08-3.39l.21-8.22q.03-.98-.96-.97l-.44.01q-.92.01-.93.93l-.05 7.77a1.81 1.81 0 0 1-2.04 1.79l-.68-.08m9.22-1.08q.68-2.65 1.94-.11l1.31 2.62a1.57 1.56-17 0 0 1.63.86l.4-.06q.58-.09.41-.65-.62-1.95-1.9-3.57a.58.57 50.7 0 1 .07-.78q2.82-2.49 1.39-5.35c-1.26-2.52-4.37-2.47-6.8-2.14q-.5.07-.5.58v11.04q0 .8.79.73l.7-.06a.74.74 0 0 0 .67-.86q-.27-1.61-.11-2.25m14.34.68l.59 1.75q.25.76 1.05.73l.54-.02q.83-.03.57-.82l-2.97-8.89q-2.08-6.23-4.23-.02-1.05 3.04-2.9 8-.25.69-.21 1.25a.82.81 62.7 0 0 1.44.46q.89-1.07 1.22-2.42a.74.73-82.9 0 1 .71-.56h3.44a.79.79 0 0 1 .75.54m6.79.48a.43.43 0 0 1-.43-.43l-.04-9.72a.43.43 0 0 0-.47-.42l-1.27.12a.43.43 0 0 0-.39.43l.04 11.57a.43.43 0 0 0 .43.43h6.25a.43.43 0 0 0 .43-.43l-.02-1.17a.43.43 0 0 0-.43-.43l-4.1.05" class="P"/><path vector-effect="non-scaling-stroke" d="M92.176 69.34a18.27 17.16 89.7 0 0 17.064-18.36A18.27 17.16 89.7 0 0 91.984 32.8 18.27 17.16 89.7 0 0 74.92 51.16a18.27 17.16 89.7 0 0 17.256 18.18M48.72 44.26q.21-.6.42 0l8.55 23.8a.92.9 79.8 0 0 .85.6h2.45q.48 0 .61-.46l10.07-34.46q.07-.24-.19-.24l-3.75-.01a.4.39-82.3 0 0-.38.29l-7.42 26.19q-.42 1.46-.93.03l-8.7-24.25q-1.4-3.9-2.77.01l-8.63 24.7q-.33.96-.61-.02l-7.74-26.69a.32.31 82.8 0 0-.3-.24l-3.76-.06a.26.25-7.7 0 0-.25.32l10.24 34.4q.14.44.59.45l2.61.02q.5 0 .67-.47l8.37-23.91m71.78 10.62l6.1-.02a1.1 1.1 0 0 1 .97.58l6.68 12.3q.48.88 1.48.88l2.73.02q.91.01.47-.79l-7.08-12.97q-.26-.49.24-.71c7.97-3.51 9.24-14.92 1.76-19.16-4.3-2.43-12.2-1.54-17.61-1.5q-.49 0-.49.49v34.24a.37.37 0 0 0 .37.37l3.36.04a.39.39 0 0 0 .39-.39V55.5q0-.62.63-.62m29.37-2.03a.35.35 0 0 1 .35-.35h3.73a.35.35 0 0 1 .28.15l11.22 15.81a.35.35 0 0 0 .28.15l4.42.03a.35.35 0 0 0 .28-.56L157.99 50.6a.35.35 0 0 1 0-.4l11.36-16.14a.35.35 0 0 0-.28-.55l-4.36-.02a.35.35 0 0 0-.28.15l-10.14 14.58a.35.35 0 0 1-.28.15l-3.79.01a.35.35 0 0 1-.35-.35l.01-14.19a.35.35 0 0 0-.35-.35l-3.43.01a.35.35 0 0 0-.35.35v34.41a.35.35 0 0 0 .35.35l3.42.04a.35.35 0 0 0 .35-.35V52.85m-49.096 63.69a18.26 17.15 89.8 0 0 17.086-18.32 18.26 17.15 89.8 0 0-17.214-18.2A18.26 17.15 89.8 0 0 83.56 98.34a18.26 17.15 89.8 0 0 17.214 18.2m-59.644-9.92c-.64 7.64-15.02 6.99-14.94-1.15a.47.47 0 0 0-.47-.47h-3.25q-.47 0-.47.47c.02 13.28 20.81 14.62 23.27 2.77 3.19-15.36-17.75-9.64-18.58-17.64-.79-7.59 12.68-8.81 13.88-.21q.04.25.3.25l3.39-.04q.26 0 .25-.26c-.23-13.21-20.73-13.41-21.79-1.57-1.33 14.8 19.27 7.52 18.41 17.85m124.93-5.44c3.32 1.11 4.79 4.74 3.01 7.58-3.34 5.33-14.43 3.92-14.36-3.27a.48.48 0 0 0-.48-.48l-3.27-.01q-.49 0-.48.49c.08 12.85 20.13 14.76 23.11 3.32 1.81-6.93-1.93-10.42-7.91-12.31-3.17-1.01-9.01-1.66-10.3-4.95-2.81-7.16 12.06-11.07 13.72-1.15q.04.26.3.26l3.33-.03q.3 0 .29-.3c-.4-13.59-21.43-13.24-21.87-.94-.33 9.19 8.5 9.66 14.91 11.79m-109.94-.96a.35.35 0 0 1 .35-.35h16.06a.35.35 0 0 1 .35.35v15.29a.35.35 0 0 0 .35.35l3.42.04a.35.35 0 0 0 .35-.35V80.94a.35.35 0 0 0-.36-.35l-3.43.06a.35.35 0 0 0-.34.35l.01 14.29a.35.35 0 0 1-.35.35l-16.06-.01a.35.35 0 0 1-.35-.35l.02-14.3a.35.35 0 0 0-.35-.35h-3.44a.35.35 0 0 0-.35.35v34.54a.35.35 0 0 0 .35.35l3.43.01a.35.35 0 0 0 .35-.35l-.01-15.31m72.88 3.04c3.52-.03 7.75.34 10.73-.61 6.71-2.16 8.9-10.82 5.77-16.42-4.17-7.45-13.9-5.68-20.91-5.59a.24.23-90 0 0-.23.24v34.61q0 .37.38.38l3.41.01q.35 0 .35-.35v-11.76q0-.51.5-.51" class="H"/><path vector-effect="non-scaling-stroke" d="M143.55 140.44l.07.99a.59.59 0 0 1-.88.55q-7.15-4.07-14.58-1.81" class="Q"/><path vector-effect="non-scaling-stroke" d="M128.16 140.17q-11.77-6.19-25.7-3.91-2.83.46-5.69.9-.64.09-.58.55" class="K"/><path vector-effect="non-scaling-stroke" d="M96.19 137.71q-2.22-1.82-4.69-1.72-3.89.17-4.91 4.16" class="H"/><path vector-effect="non-scaling-stroke" d="M86.59 140.15q-8.86 1.57-16.54 7" class="K"/><path vector-effect="non-scaling-stroke" d="M70.05 147.15l-.36-4.15q-.05-.52-.52-.73-1.77-.77-2.31-2.72-.04-.18-.22-.18h-.26a.2.2 0 0 0-.13.36q.71.59.86 1.52.05.31-.09.46-.18.18-.56.14" class="H"/><path vector-effect="non-scaling-stroke" d="M66.46 141.85q-1.03-.34-.88.01" class="R"/><path vector-effect="non-scaling-stroke" d="M65.58 141.86l-2.14-2.34q-.25-.27-.23.09.02.28.28.51.23.2.16.51-.07.32-.31.54-.35.33-.77.11-.84-.41-1.42-1.15a.8.79-15.6 0 0-.52-.29q-.51-.06-.61.28-.16.52-.7.52-.78 0-1.38-.47-.35-.26-.67.05l-.38.39a.65.65 0 0 1-.46.19q-1.03-.02-1.48-.6-.43-.55-.81.04l-.3.46q-.34.53-.9.24l-1.41-.71q-.37-.19-.4.23-.01.2.02.42a.48.48 0 0 1-.81.4q-3.15-3.13-4.81.42" class="P"/><path vector-effect="non-scaling-stroke" d="M45.53 141.7q-.89.24-1.41.8-.36.38-.25.89.88 4.4 1.05 8.85.06 1.43.65 2.66.2.41.23.87l.71 8.97" class="R"/><path vector-effect="non-scaling-stroke" d="M46.51 164.74q-11.62-1.01-21.67 4.36c-3.75 2.01-7.11 5.76-6.42 10.22 1.5 9.59 17.83 12.41 25.34 12.47" class="P"/><path vector-effect="non-scaling-stroke" d="M43.76 191.79q-.96 17.67 6.7 33.49.11.22.77.65" class="K"/><path vector-effect="non-scaling-stroke" d="M51.23 225.93l.38 1.18a1.94 1.94 0 0 1-1.77 2.53l-3.27.12a1.26 1.25 1.3 0 0-1.21 1.15l-1.81 23.1a2.28 2.27 2.5 0 0 2.25 2.45q12.77.11 25.57.01c3.1-.02 5.59.4 5.46-3.87" class="Q"/><path stroke="#997f7d" vector-effect="non-scaling-stroke" d="M76.83 252.6q2.55-.45 5.27.37"/><path vector-effect="non-scaling-stroke" d="M82.1 252.97q2.2 1.29 4.39 1.83 18.75 4.62 36.68-2.06" class="K"/><path vector-effect="non-scaling-stroke" d="M123.17 252.74q.4.57-.13 1.06a1.15 1.15 0 0 0 .21 1.85q1.31.74 2.26.61 7.63-1.06 6.52-4.02" class="H"/><path vector-effect="non-scaling-stroke" d="M132.03 252.24q5.22.3 5.9-2.85" class="T"/><path vector-effect="non-scaling-stroke" d="M137.93 249.39l.17 1.81" class="H"/><path vector-effect="non-scaling-stroke" d="M138.1 251.2l-.48 3.9q-.22 1.77 1.56 1.69l2.66-.13q1.83-.08 1.48-1.88-.5-2.57-1.97-5.05" class="Q"/><path vector-effect="non-scaling-stroke" d="M141.35 249.73q-.31-.77-1.58-.6" class="H"/><path vector-effect="non-scaling-stroke" d="M139.77 249.13q1.32-.01 1.16-.8" class="T"/><path vector-effect="non-scaling-stroke" d="M140.93 248.33q.36-.14.59-.33.23-.19.28-.58.43-3.36.49-6.53" class="H"/><path vector-effect="non-scaling-stroke" d="M142.29 240.89q1.96-1.25 3.18-3.11" class="K"/><path vector-effect="non-scaling-stroke" d="M145.47 237.78l2.69 2.73q1.54 1.58 3.02-.07l1.93-2.15q1.49-1.66-.02-3.31l-3.4-3.72" class="R"/><path vector-effect="non-scaling-stroke" d="M149.69 231.26q1.1-1.26 1.42-2.56" class="K"/><path vector-effect="non-scaling-stroke" d="M151.11 228.7c7.32.5 16.16-.75 22.51-4.64 6.08-3.73 8.57-10.75 2.39-15.86-5.89-4.86-13.25-6.12-20.81-6.69" class="R"/><path vector-effect="non-scaling-stroke" d="M155.2 201.51q.04-10.57-4.51-19.86" class="K"/><path vector-effect="non-scaling-stroke" d="M150.69 181.65l-.26-3.41" class="H"/><path vector-effect="non-scaling-stroke" d="M150.43 178.24c-2.26-5.49-8.5-2.98-7.62 2.52.3 1.86 2.45 2.62 1.85 5.28" class="T"/><path vector-effect="non-scaling-stroke" d="M144.66 186.04q-.57-2.35-1.87-4.16-.31-.42-.28-.94c.14-3.16-.15-4.9 3.21-6.23q.48-.19.13-.56l-5.2-5.42" class="K"/><path vector-effect="non-scaling-stroke" d="M140.65 168.73c9.12-5.83 10.71-15.92 4.21-24.72" class="H"/><path vector-effect="non-scaling-stroke" d="M144.86 144.01q.02-.53.34-.69.2-.1.62.07c2.09.85 3.98-1.39 5.02-2.91q.48-.69-.35-.74l-.46-.03q-.44-.02-.74-.34l-1.21-1.26" class="Q"/><path vector-effect="non-scaling-stroke" d="M148.08 138.11q-.92-.27-1.1-1.95-.12-1.03-.89-.34c-1.12 1-3.38 2.78-2.54 4.62" class="P"/><path vector-effect="non-scaling-stroke" d="M148.08 138.11q-.51.12-.46.48" class="M"/><path vector-effect="non-scaling-stroke" d="M147.62 138.59l-2.63 2.65" class="G"/><path vector-effect="non-scaling-stroke" d="M144.99 141.24q-.59-.99-1.44-.8" class="M"/><path vector-effect="non-scaling-stroke" d="M144.86 144.01q-.02-.58-1.09-.31" class="S"/><path vector-effect="non-scaling-stroke" d="M143.77 143.7l.84-.98a.04.04 0 0 0 0-.06l-.2-.17a.29.27-44.9 0 0-.37.01l-2.76 2.61" class="O"/><path vector-effect="non-scaling-stroke" d="M141.28 145.11q-.15-.55.24-1.21.25-.44-.13-.77c-6.15-5.29-15.61-3.43-19.67 3.38q-3.76 6.3-1.47 13.71" class="M"/><path vector-effect="non-scaling-stroke" d="M120.25 160.22q-.22.11-.35.36" class="S"/><path vector-effect="non-scaling-stroke" d="M119.9 160.58q-2.36-6.4.5-12.76m24.59-6.58q-.04.33.1.54a.51.51 0 0 0 .85-.02q.77-1.24 1.91-2.16.38-.29.1-.69-.12-.18-.33-.32" class="O"/><path vector-effect="non-scaling-stroke" d="M109.07 155.42q1.17-.54 1.16-1.92-.03-2.45-1.06-5.32" class="C"/><path vector-effect="non-scaling-stroke" d="M129.84 169.77l1.29 12.25" class="D"/><g class="C"><path vector-effect="non-scaling-stroke" d="M131.13 182.02q.18 2.25-.67 3.31-.28.34-.35.77l-.36 2.16"/><path vector-effect="non-scaling-stroke" d="M129.75 188.26q-.23.2-.23.5.01.51.51.65 1.65.47 1.82 2.25a.03.03 0 0 0 .03.03l.26-.06a.28.26-11.6 0 0 .21-.3q-.26-1.57-1.61-2.09c-.53-.2-.83-.49-.99-.98"/><path vector-effect="non-scaling-stroke" d="M129.75 188.26q.42-.92 1.76-1.22 1.27-.63 2 .51a.07.06-57.5 0 0 .12-.03q.02-.13.05-.26.05-.25.3-.24l.51.01a.48.47-73.7 0 1 .39.72q-.55.89-.26 1.78"/></g><path vector-effect="non-scaling-stroke" d="M134.62 189.53q0 .12-.01.23" class="D"/><path vector-effect="non-scaling-stroke" d="M134.61 189.76l.31 2.47q.06.52-.44.7-1.58.56-3.35-.57" class="C"/><path vector-effect="non-scaling-stroke" d="M131.13 192.36q-2.58.27-5.25.61c-3.49.46-7 1.65-10.56 2.42" class="G"/><path vector-effect="non-scaling-stroke" d="M115.32 195.39q-1.28-.54-2.09-2.04" class="E"/><path vector-effect="non-scaling-stroke" d="M113.23 193.35l8.39-.28q.98-.03.96-1.01v-.44a.63.63 0 0 0-.63-.62l-11.02.01" class="D"/><path vector-effect="non-scaling-stroke" d="M110.93 191.01l-5.85-5.91" class="E"/><path vector-effect="non-scaling-stroke" d="M105.08 185.1q-.12-.18-.23-.36" class="C"/><path vector-effect="non-scaling-stroke" d="M104.85 184.74l13.04-.09a.9.9 0 0 0 .89-.91v-.33q-.01-1.17-1.17-1.15l-15.19.17" class="D"/><path vector-effect="non-scaling-stroke" d="M102.42 182.43q-2.66-1.2-5.69-4.23" class="C"/><path vector-effect="non-scaling-stroke" d="M96.73 178.2l18.68-.17" class="D"/><path vector-effect="non-scaling-stroke" d="M115.41 178.03q4.44 5.7 8.63 1.75c2.26-2.14 2.68-5.55.89-8.04-3.5-4.89-9.78-1.51-9.88 4.11" class="C"/><path vector-effect="non-scaling-stroke" d="M115.05 175.85l-21.07.07" class="D"/><path vector-effect="non-scaling-stroke" d="M93.98 175.92l-6.54-5.15a.77.77 0 0 0-.9-.03q-.78.54-.19 1.49.95 1.54 2.26 3.35" class="C"/><path vector-effect="non-scaling-stroke" d="M88.61 175.58l-9.12.17a.89.89 0 0 0-.87.95l.02.33q.08 1.18 1.26 1.17l10.53-.11" class="D"/><path vector-effect="non-scaling-stroke" d="M90.43 178.09l3.15 4.1" class="C"/><path vector-effect="non-scaling-stroke" d="M93.58 182.19l-13.5-.02a.81.81 0 0 0-.82.84l.01.38q.04 1.22 1.25 1.21l14.71-.08" class="D"/><path vector-effect="non-scaling-stroke" d="M95.23 184.52l4.62 6.03" class="C"/><path vector-effect="non-scaling-stroke" d="M99.85 190.55l-18.51.32q-1.2.02-1.13 1.21l.03.43a.86.86 0 0 0 .86.81l21.48.01" class="D"/><path vector-effect="non-scaling-stroke" d="M102.58 193.33q1.56 1.12 2.72 3.79" class="E"/><path vector-effect="non-scaling-stroke" d="M105.3 197.12l-23.45.01a.99.98 1.6 0 0-.98.92l-.01.27q-.09 1.29 1.21 1.29l22.25.04q.57 0 1-.37.92-.78 1.84-1.14" class="D"/><path vector-effect="non-scaling-stroke" d="M107.16 198.14l6.96 7.11" class="E"/><path vector-effect="non-scaling-stroke" d="M114.12 205.25l-31.57-.01a.93.93 0 0 0-.93.93v.29a1.17 1.16.2 0 0 1.16 1.16l33.53.04" class="D"/><path vector-effect="non-scaling-stroke" d="M116.31 207.66q1.88 1.31 3.4 3.92" class="E"/><path vector-effect="non-scaling-stroke" d="M119.71 211.58l-36.68.05a.78.77 4.8 0 0-.77.64q-.12.72.26 1.22a1.2 1.19 71.2 0 0 .95.47l38.48-.11" class="D"/><path vector-effect="non-scaling-stroke" d="M121.95 213.85l3.83 3.45" class="E"/><path vector-effect="non-scaling-stroke" d="M125.78 217.3q.32 1.72-.03 2.98" class="C"/><path vector-effect="non-scaling-stroke" d="M125.75 220.28l-41.45-.02q-1.2 0-1.21 1.2v.33a.96.96 0 0 0 .96.96l41.79-.02" class="D"/><path vector-effect="non-scaling-stroke" d="M125.84 222.73l.04 11.66" class="C"/><path vector-effect="non-scaling-stroke" d="M125.88 234.39l-40.25.09a.96.95 89.1 0 0-.95.99c.04 1.04.63 1.52 1.67 1.52q19.72.05 39.65-.05" class="D"/><path vector-effect="non-scaling-stroke" d="M126 236.94l1.92 10.33a1.28 1.27-3.4 0 0 1.18 1.04l1.74.09q.68.04.45.68l-.21.63q-.21.62-.79.3l-1.6-.89a1.03 1.03 0 0 0-1.35.32q-1.5 2.17-3.8 3.17" class="C"/><path vector-effect="non-scaling-stroke" d="M123.54 252.61q-1.62-.47-3.25-.16" class="D"/><path stroke="#a9a9c6" vector-effect="non-scaling-stroke" d="M120.29 252.45q-.54-.39-1.04-.37c-7.15.3-15.38-.29-21.34-.29q-10.5.01-21.16-.01"/><path vector-effect="non-scaling-stroke" d="M76.75 251.78l-2.16-10.53" class="O"/><path vector-effect="non-scaling-stroke" d="M74.59 241.25q1.29-1.08 5.09-.52a.66.66 0 0 0 .75-.72l-.65-6.76a1.11 1.1 86.9 0 0-1.11-1l-5.73.06" class="D"/><path vector-effect="non-scaling-stroke" d="M72.94 232.31c-2.08-4.4-7.76-.77-7.64-5.82" class="O"/><path vector-effect="non-scaling-stroke" d="M65.3 226.49q-.78-.88-.98-1.74c-.78-3.25-.43-7.31-.74-10.32q-1.35-12.72-2.68-25.65-.07-.69.56-.99 5.01-2.35 7.49-7.29.23-.46.68-.72c1.69-.98 2.22-3.69 3.1-5.03q.27-.41-.21-.53l-.77-.2q-.35-.09-.51.24l-1.22 2.52a.49.48 50.5 0 1-.9-.09q-.51-1.86-1.72-3.33a.31.31 0 0 1 .24-.5l4.84.01a.65.62-26.5 0 1 .36.11q.25.17.39.41.3.52.42-.07.2-1.03-.92-1.04-2.63-.02-5.32-.11-.46-.01-.84-.28l-5.03-3.54q-.29-.21-.02-.43.11-.1.28-.16m79.48-22.65l-3.12 3.4q-.16.17.01.32l.18.18a.29.28 42.8 0 0 .4-.01l3.64-3.8" class="G"/><path vector-effect="non-scaling-stroke" d="M142.39 145.2q.06.48.77.29.49-.14.77.29c5.86 8.91 1.89 22.83-10.17 23.52-6.44.36-11.38-3.25-13.51-9.08" class="N"/><path vector-effect="non-scaling-stroke" d="M143.77 143.7l-1.38 1.5" class="C"/><path vector-effect="non-scaling-stroke" d="M128.16 140.17q-5.87 3.18-7.76 7.65" class="U"/><path vector-effect="non-scaling-stroke" d="M120.4 147.82l-10.71-.11" class="D"/><path vector-effect="non-scaling-stroke" d="M109.69 147.71c.11-3.72-2.03-3.36-5.03-3.38q-2.59-.02-5.3.29" class="F"/><path vector-effect="non-scaling-stroke" d="M99.36 144.62q.43-.17-.52-.04" class="J"/><path vector-effect="non-scaling-stroke" d="M98.84 144.58c-.88-1.36-.24-3.38-1.51-4.74q-.23-1.19-1.14-2.13m44.46 31.02c-3.9 1.59-7.04 1.21-10.81 1.04" class="F"/><path vector-effect="non-scaling-stroke" d="M129.84 169.77q-7.13-2.24-9.94-9.19" class="C"/><path vector-effect="non-scaling-stroke" d="M70.05 147.15q.19-.39.18.4" class="F"/><path vector-effect="non-scaling-stroke" d="M70.23 147.55l2.08 19.13a.9.89 86.8 0 1-.88.99l-9.63.09" class="C"/><path vector-effect="non-scaling-stroke" d="M61.8 167.76q-.11-.28-.6-.39" class="N"/><path vector-effect="non-scaling-stroke" d="M61.2 167.37l9.71-.03a.92.92 0 0 0 .91-1.03l-2.36-19.99" class="C"/><path vector-effect="non-scaling-stroke" d="M69.46 146.32l-.1-2.62q-.02-.5-.33-.9-.46-.6-1.24-.42-.51.12-.94-.17-.24-.16-.39-.36" class="I"/><path vector-effect="non-scaling-stroke" d="M65.3 226.49q-1.3 3.5-3.75 3.14" class="M"/><path vector-effect="non-scaling-stroke" d="M61.55 229.63q-.21-1.22 0-2.51" class="V"/><path vector-effect="non-scaling-stroke" d="M61.55 227.12l1.92-.28q.44-.07.32-.49-.59-2.19-2.81-2.29" class="L"/><path vector-effect="non-scaling-stroke" d="M60.98 224.06l-3.46-33.85q-.04-.44-.48-.35l-6.65 1.44q-.54.12-.61.66-1.08 8.28.33 16.56.04.18-.16.22h-.01q-.22.04-.26-.18-1.58-8.16-.5-16.36.12-.84-.73-.73l-1.79.24q-.8.11-.86.91-.52 7.68.03 10.62 1 5.43 2.05 10.84.04.21-.17.25h-.01q-.21.04-.26-.17-.31-1.57-.74-3.11c-.51-1.79-.5-3.88-1.12-5.79-1.15-3.54-.54-9.18-.52-12.98q0-.54-.54-.52l-.76.03" class="V"/><path vector-effect="non-scaling-stroke" d="M99.36 144.62q3.01.28 7.14.02 3.11-.2 2.78 3.83" class="I"/><path vector-effect="non-scaling-stroke" d="M109.28 148.47q-.05-.14-.11-.29" class="E"/><path vector-effect="non-scaling-stroke" d="M109.17 148.18q.73 4.43-.1 7.24" class="I"/><path vector-effect="non-scaling-stroke" d="M109.07 155.42l-30.42.02a1.77 1.76-2.7 0 1-1.76-1.6l-.58-6.17" class="E"/><path vector-effect="non-scaling-stroke" d="M144.66 186.04q-.01.88.28 1.27" class="F"/><path vector-effect="non-scaling-stroke" d="M144.94 187.31q.59 1.48 1.43 1.82 1.19.47 1.97-1.39" class="D"/><g class="F"><path vector-effect="non-scaling-stroke" d="M148.34 187.74q.43-.67.25-1.91"/><path vector-effect="non-scaling-stroke" d="M148.59 185.83q.53-2.29 2.1-4.18"/></g><path vector-effect="non-scaling-stroke" d="M155.2 201.51q-1.33.42-2.48-.1" class="J"/><path vector-effect="non-scaling-stroke" d="M152.72 201.41l-.06-2.84q-.01-.15-.17-.14h0q-.16.01-.15.16l.08 2.92" class="F"/><path vector-effect="non-scaling-stroke" d="M152.42 201.51l-4.47.39" class="J"/><path vector-effect="non-scaling-stroke" d="M147.95 201.9q.1-1.79-1.09-3.54c-2.76-4.05-5.14-7.59-10.86-6.07" class="V"/><path vector-effect="non-scaling-stroke" d="M136 192.29q-1.07-.87-1.39-2.53m.01-.23c2.36-2.38 3.96-4.97-.41-6.54q-1.44-.52-3.08-.97" class="F"/><path vector-effect="non-scaling-stroke" d="M131.51 187.04q-.13-.72.77-.81.25-.02.21-.27-.03-.15-.11-.27-.31-.46-.71-.08l-.91.88q-.46.43.17.49l.58.06m4.49 5.25q-3.15 2.91-4.87.07" class="N"/><path vector-effect="non-scaling-stroke" d="M115.41 178.03l-.36-2.18" class="F"/><path vector-effect="non-scaling-stroke" d="M109.69 147.71l-.41.76" class="C"/><path vector-effect="non-scaling-stroke" d="M110.93 191.01q.81 1.55 2.3 2.34" class="J"/><path vector-effect="non-scaling-stroke" d="M115.32 195.39q.3.03.35.76" class="L"/><path vector-effect="non-scaling-stroke" d="M115.67 196.15q2.9 3 3.83 3.81.29.25.96.15" class="E"/><path vector-effect="non-scaling-stroke" d="M120.46 200.11q.23.29.6.5" class="L"/><path vector-effect="non-scaling-stroke" d="M121.06 200.61q-.13.14-.24.25-.25.23-.01.47l4.88 4.86" class="E"/><path vector-effect="non-scaling-stroke" d="M125.69 206.19l3.82 4.22q.37.42.75 0 5.76-6.31 14.6-7.95" class="L"/><path vector-effect="non-scaling-stroke" d="M144.86 202.46q1.5.03 2.68-.44" class="E"/><path vector-effect="non-scaling-stroke" d="M147.54 202.02q.51-.48.41-.12" class="L"/><path vector-effect="non-scaling-stroke" d="M152.42 201.51q-.33-.19.3-.1" class="I"/><path vector-effect="non-scaling-stroke" d="M151.11 228.7l-3.47-.37q-.7-.08-.22.44l2.27 2.49m-4.22 6.52l-3.31-3.42" class="J"/><path vector-effect="non-scaling-stroke" d="M142.16 234.36l-7.95-8" class="I"/><path vector-effect="non-scaling-stroke" d="M134.21 226.36l-2.05-2.23" class="E"/><path vector-effect="non-scaling-stroke" d="M132.16 224.13l-6.38-6.83" class="I"/><path vector-effect="non-scaling-stroke" d="M121.95 213.85q-1.49-2.64-2.24-2.27m-3.4-3.92l-2.19-2.41m-6.96-7.11q-.11-.11-.39-.19" class="J"/><path vector-effect="non-scaling-stroke" d="M106.77 197.95q-.51-.36-.11-.98.25-.39.04-.81l-.81-1.55a.4.4 0 0 0-.74.08q-.28.98.57 1.56.33.23.34.64 0 .27-.27.4" class="E"/><path vector-effect="non-scaling-stroke" d="M105.79 197.29q-.59-.62-.49-.17m-2.72-3.79l-2.56-2.88m-13.33-45.96q-4.24-.1-8.4-.02-1.48.03-1.92.74-.54.88-.06 2.46" class="J"/><path vector-effect="non-scaling-stroke" d="M76.31 147.67l-6.08-.12" class="D"/><path vector-effect="non-scaling-stroke" d="M132.16 224.13l-.13 28.11" class="C"/><path vector-effect="non-scaling-stroke" d="M123.17 252.74q.14.43.37-.13m2.46-15.67l-.12-2.55m-.04-11.66l-.09-2.45" class="F"/><path stroke="#7676c6" vector-effect="non-scaling-stroke" d="M120.29 252.45q-.26.43-.54.42c-10.71-.17-21.43.18-32.13-.16q-2.71-.08-5.52.26"/><path vector-effect="non-scaling-stroke" d="M72.94 232.31l1.65 8.94" class="U"/><path stroke="#344c5e" vector-effect="non-scaling-stroke" d="M76.75 251.78q.26.42.08.82"/><path vector-effect="non-scaling-stroke" d="M147.54 202.02l-.41-.4q-.36-.35-.78-.08l-1.49.92m-19.17 3.73q.63-2.31.49-4.59-.03-.41-.43-.46l-4.69-.53m-.6-.5l2.54.23q1.03.09.73-.89l-1.2-4.04q-.32-1.05-1.37-.76l-5.49 1.5" class="G"/><path vector-effect="non-scaling-stroke" d="M93.98 175.92l2.75 2.28m5.69 4.23q1.15 1.69 2.43 2.31" class="F"/><path vector-effect="non-scaling-stroke" d="M105.08 185.1q-1.85 3.58-5.06 5.35" class="I"/><path vector-effect="non-scaling-stroke" d="M100.02 190.45q.28-.01-.17.1m-4.62-6.03q-.91-1.73-1.65-2.33m-3.15-4.1q-1.01-1.9-1.82-2.51" class="F"/><path vector-effect="non-scaling-stroke" d="M97.33 139.84q-2.54-3.76-6.08-3.36c-4.09.46-4.5 3.79-4.06 7.38q.46 3.75.52 7.35a1.1 1.09-.5 0 0 1.1 1.07l9.18-.04a.66.66 0 0 0 .65-.74l-1.31-11.66m1.51 4.74q-.63 3.3.36 6.44a1.32 1.31 81.1 0 1-1.25 1.72l-9.03.02a1.64 1.63-2.5 0 1-1.63-1.49l-.6-6.78" class="I"/><path vector-effect="non-scaling-stroke" d="M86.69 144.49l-.1-4.34" class="F"/><path vector-effect="non-scaling-stroke" d="M69.46 146.32l-23.47.02a.45.45 0 0 0-.45.5l1.91 17.36" class="E"/><path vector-effect="non-scaling-stroke" d="M47.45 164.2q-.36.03-.94.54" class="L"/><path vector-effect="non-scaling-stroke" d="M61.2 167.37c-.78.06-1.46.16-2.24-.13q-4.83-1.79-9.96-2.37-.92-.11-1.55-.67" class="G"/><path vector-effect="non-scaling-stroke" d="M60.98 224.06l-6.83.15a1.58 1.58 0 0 0-1.51 1.27l-.09.43a.8.79-83.5 0 0 .75.95l8.25.26" class="J"/><path vector-effect="non-scaling-stroke" d="M61.55 229.63l-6.72.11q-2.3.04-2.24-2.26.03-1.24-1.36-1.55" class="U"/><g class="C"><path vector-effect="non-scaling-stroke" d="M148.34 187.74q-.19-2.09-3.4-.43m5.49-9.07c.21 3.16-2.06 4.82-1.84 7.59"/><path vector-effect="non-scaling-stroke" d="M148.59 185.83q-2.09 1.13-3.93.21"/></g><path vector-effect="non-scaling-stroke" d="M106.77 197.95q-.54-.05-.98-.66" class="D"/><path vector-effect="non-scaling-stroke" d="M142.16 234.36l.13 6.53" class="F"/><path vector-effect="non-scaling-stroke" d="M140.93 248.33l-1.8-.28a.52.51 20.6 0 0-.51.23q-.25.39.12.7.36.3 1.03.15" class="C"/><path vector-effect="non-scaling-stroke" d="M141.35 249.73q-.22.57-.51.55" class="S"/><path vector-effect="non-scaling-stroke" d="M140.84 250.28q-.79-.54-1.71-.36-.55.1-.51.66l.02.38" class="N"/><path vector-effect="non-scaling-stroke" d="M138.64 250.96q-.1.19-.54.24" class="S"/><path vector-effect="non-scaling-stroke" d="M134.21 226.36c.49 4 2.71 8.17 2.93 11.13q.44 5.83.79 11.9" class="C"/><path vector-effect="non-scaling-stroke" d="M65.58 141.86q-1.08 1.14-3.23.7-.39-.08-.59.26-.09.15-.22.26-.29.22-.45-.11-.37-.78-1.01-1.33-.55-.48-.63.25-.11.94-1.01 1.4-.5.26-.55-.3-.05-.44-.35-.83-.3-.39-.79-.39l-6.1-.07q-.51-.01-.92.29-.42.31-.77-.03-.34-.34-.83-.33l-2.6.07" class="L"/><path vector-effect="non-scaling-stroke" d="M138.64 250.96l-.32 4.07q-.02.24.23.24l3.71-.01a.26.26 0 0 0 .26-.29q-.27-2.54-1.68-4.69" class="M"/><path vector-effect="non-scaling-stroke" d="M36.88 151.55a.32.32 0 0 1-.42 0l-.96-.87a.322.322 0 0 0-.46.45l.85.97a.32.32 0 0 1 0 .42l-.87.96a.322.322 0 0 0 .45.46l.97-.85a.32.32 0 0 1 .42 0l.96.87a.322.322 0 0 0 .46-.45l-.85-.97a.32.32 0 0 1 0-.42l.87-.96a.322.322 0 0 0-.45-.46l-.97.85M145.1 172q-.04.19-.17.33-.05.04.01.05.03 0 .08 0 .12 0 .17-.11.87-1.77.39-3.77-.26-1.1-.2.03.08 1.52-.28 3.47m7.86 1.91q.61-.59-.22-.37-.93.25-1.25 1.28-.25.77.33.2l1.14-1.11m-128.18 32.8q-.27.67.26 1.18a.58.57-66.3 0 0 .97-.38l.04-.51a.66.66 0 0 0-1.27-.29m4.53.59a.74.74 0 1 0-1.48 0 .74.74 0 1 0 1.48 0m2.16-.81a.74.74 0 0 0-.04 1.47q.23.01.45-.02a.59.57 84.9 0 0 .48-.59q-.03-.87-.89-.86m-6.482 4.821a.81.68 121.4 0 0 1.002-.337.81.68 121.4 0 0-.158-1.046.81.68 121.4 0 0-1.002.337.81.68 121.4 0 0 .158 1.046M28.15 210q-.65.67.18 1.34a.51.51 0 0 0 .67-.03q.44-.42.15-1.12a.61.61 0 0 0-1-.19m4.103 1.19a.78.69 43.8 0 0-.085-1.038.78.69 43.8 0 0-1.041-.042.78.69 43.8 0 0 .085 1.038.78.69 43.8 0 0 1.041.042m135.297 24.67a.34.34 0 0 1-.44-.01l-1.02-.93a.34.34 0 0 0-.49.47l.88 1.06a.34.34 0 0 1-.01.44l-.93 1.02a.34.34 0 0 0 .47.49l1.06-.88a.34.34 0 0 1 .44.01l1.02.93a.34.34 0 0 0 .49-.47l-.88-1.06a.34.34 0 0 1 .01-.44l.93-1.02a.34.34 0 0 0-.47-.49l-1.06.88" class="H"/><path vector-effect="non-scaling-stroke" d="M74.02 16.06L74 18.8a.63.63 0 0 0 .63.63h.3a2.55 1.88.4 0 0 2.56-1.86v-.24a2.55 1.88.4 0 0-2.54-1.9h-.3a.63.63 0 0 0-.63.63m60.32-.22l.02 3.26a.34.34 0 0 0 .34.34l1.15-.01a2.03 1.82-.3 0 0 2.02-1.83v-.3a2.03 1.82-.3 0 0-2.04-1.81l-1.15.01a.34.34 0 0 0-.34.34m13.39 4.57l-1.14-3.65q-.26-.82-.54-.01l-1.21 3.42q-.17.49.34.48h2.37q.25 0 .18-.24" class="P"/><path vector-effect="non-scaling-stroke" d="M92.197 64.99a13.92 12.96 89.6 0 0 12.863-14.01 13.92 12.96 89.6 0 0-13.057-13.83 13.92 12.96 89.6 0 0-12.862 14.01 13.92 12.96 89.6 0 0 13.056 13.83m27.683-27.15l-.02 12.7a.21.21 0 0 0 .21.21l7.9.01a6.59 6.3.1 0 0 6.6-6.29v-.52a6.59 6.3.1 0 0-6.58-6.31l-7.9-.01a.21.21 0 0 0-.21.21m-19.053 74.35a13.91 12.95 89.6 0 0 12.853-14 13.91 12.95 89.6 0 0-13.047-13.819 13.91 12.95 89.6 0 0-12.853 14 13.91 12.95 89.6 0 0 13.047 13.819m27.643-26.8v13.22a.4.4 0 0 0 .4.4h7.14a6.88 6.74 90 0 0 6.74-6.88v-.26a6.88 6.74-90 0 0-6.74-6.88h-7.14a.4.4 0 0 0-.4.4" class="H"/><path vector-effect="non-scaling-stroke" d="M93.673 143.892a2.3 2.05 54.9 0 0 .355-3.06 2.3 2.05 54.9 0 0-3-.703 2.3 2.05 54.9 0 0-.355 3.06 2.3 2.05 54.9 0 0 3 .703" class="J"/><path vector-effect="non-scaling-stroke" d="M146.68 142.17q-.52.06-.58.43a.37.37 0 0 0 .41.43q.92-.11 1.48-.81a.31.31 0 0 0-.31-.5q-.58.14-1 .45" class="M"/><path vector-effect="non-scaling-stroke" d="M137.46 151.17q-.72.72-.29 1.65c1.79 3.82-2.4 8.72-6.11 6.59-5.6-3.23-1.75-12.04 4.21-9.04a.69.69 0 0 0 .87-.2l2.21-2.94a.54.53 35.8 0 0-.13-.76c-10.06-6.87-19.38 7.55-11.88 15.37 3.42 3.56 9.38 4.09 12.93.4q5.36-5.57 1.49-12.99-.49-.93-1.23-.18l-2.07 2.1" class="G"/><path vector-effect="non-scaling-stroke" d="M135.21 151.59l-2.23 2.86q-.29.38.15.21 2.04-.77 2.57-2.82.35-1.34-.49-.25" class="N"/><path vector-effect="non-scaling-stroke" d="M67.22 143.91q.25-.15.37-.45.03-.09-.03-.15-.03-.04-.06-.07-.05-.05-.11.02-.64.82-1.63 1.12-.22.06-.02.17.81.45 1.16-.3.11-.22.32-.34m-4.22.21q-.17-.04-.25.13-.3.63-.13.63h.31q.25 0 .42-.17l.87-.88q.18-.17-.07-.16-.44.03-.8.36-.15.14-.35.09" class="L"/><path vector-effect="non-scaling-stroke" d="M48.44 152.93a.63.63 0 0 0 .63.56h2.74a.63.63 0 0 0 .62-.72l-.43-3.13a.63.63 0 0 0-.66-.54l-2.62.14a.63.63 0 0 0-.59.69l.31 3" class="D"/><path vector-effect="non-scaling-stroke" d="M53.55 152.95a.58.58 0 0 0 .58.55h2.86a.58.58 0 0 0 .58-.64l-.31-3.22a.58.58 0 0 0-.58-.52l-2.72-.01a.58.58 0 0 0-.58.61l.17 3.23" class="G"/><path vector-effect="non-scaling-stroke" d="M62.45 149.77a.68.68 0 0 0-.67-.61l-2.55-.05a.68.68 0 0 0-.69.73l.23 3.02a.68.68 0 0 0 .68.63l2.59.01a.68.68 0 0 0 .68-.74l-.27-2.99m1.59 3.13a.68.68 0 0 0 .67.59l2.64.02a.68.68 0 0 0 .68-.77l-.37-2.95a.68.68 0 0 0-.65-.59l-2.66-.11a.68.68 0 0 0-.7.77l.39 3.04m-14.95 5.63a.58.58 0 0 0 .54.52l2.82.14a.58.58 0 0 0 .6-.64l-.36-3.29a.58.58 0 0 0-.59-.52l-2.79.05a.58.58 0 0 0-.57.64l.35 3.1m5.2.04a.58.58 0 0 0 .55.52l2.82.12a.58.58 0 0 0 .6-.65l-.4-3.35a.58.58 0 0 0-.6-.51l-2.75.14a.58.58 0 0 0-.55.64l.33 3.09m5.23-.16a.78.78 0 0 0 .74.67l2.38.1a.78.78 0 0 0 .81-.88l-.38-2.88a.78.78 0 0 0-.78-.68l-2.4.04a.78.78 0 0 0-.76.89l.39 2.74m5.11.12a.68.68 0 0 0 .69.62l2.62-.02a.68.68 0 0 0 .67-.75l-.31-3.02a.68.68 0 0 0-.68-.62l-2.59.02a.68.68 0 0 0-.67.75l.27 3.02m-13.84 6.45a1.71 1.71 0 0 0 2.8-1.5l-.29-2.53q-.06-.54-.6-.54l-2.62.01q-.52 0-.62.52-.45 2.54 1.33 4.04m4.14-.82a.68.68 0 0 0 .68.59l2.54-.01a.68.68 0 0 0 .67-.74l-.26-3.01a.68.68 0 0 0-.68-.62h-2.67a.68.68 0 0 0-.68.77l.4 3.02m5.34-3.74a.58.58 0 0 0-.57.65l.4 3.17a.58.58 0 0 0 .57.51l2.81-.02a.58.58 0 0 0 .57-.64l-.35-3.2a.58.58 0 0 0-.59-.52l-2.84.05m45.27 1.03l-26.3-.03q-1.11 0-1.03 1.1l.09 1.21q.08 1.14 1.22 1.14l26.72-.01" class="D"/><path vector-effect="non-scaling-stroke" d="M106.24 164.86q2.08 5.33 7.67 3.38 2.9-1.01 3.45-3.88c1.04-5.43-4.43-9.81-9.24-6.14q-.14.11-.03.26l.01.01q.11.14.25.03c3.92-2.89 9.16.14 8.9 4.48-.45 7.27-11.56 7.71-10.57-1.14q.06-.52-.47-.47l-.67.06" class="C"/><path vector-effect="non-scaling-stroke" d="M106.24 164.86q.62-2.18-.7-3.41" class="F"/><path vector-effect="non-scaling-stroke" d="M111.28 161.74l.06-.41q.05-.37.41-.3l.96.2a.4.4 0 0 0 .36-.68q-.51-.5-1.18-.79-.47-.2-.74.23l-1.08 1.71a.67.67 0 0 0 .23.94l1.68.94q.61.34.16.88l-.16.2q-.23.28-.56.13-.34-.16-.56-.41a.32.32 0 0 0-.56.21q-.04 1.29.39 1.4a2.17 2.17 0 0 0 2.59-2.9q-.27-.64-1.7-.93a.38.37 9.7 0 1-.3-.42" class="G"/><path vector-effect="non-scaling-stroke" d="M74.18 179.26a1.29 1.29 0 0 1-1.28 1.53q-1.57-.02-3.4-.23-.02 0-.02.02l-.02.26q-.02.28.25.28l3.47.04a1.53 1.52 84.2 0 0 1.5-1.84l-.9-4.34q-.03-.13-.27-.08h0q-.15.04-.1.33l.77 4.03m-6.87 9.65l.04 5.68a1.58 1.58 0 0 0 1.6 1.56l4.95-.04a1.99 1.85 89.5 0 0 1.83-2.01l-.04-4.86a1.99 1.85 89.5 0 0-1.87-1.97l-4.95.04a1.58 1.58 0 0 0-1.56 1.6m9.4 14.27a1.48 1.48 0 0 0-1.47-1.3l-5.34-.01a1.48 1.48 0 0 0-1.48 1.66l.73 5.89a1.48 1.48 0 0 0 1.47 1.3l5.35.02a1.48 1.48 0 0 0 1.47-1.67l-.73-5.89" class="C"/><path vector-effect="non-scaling-stroke" d="M70.97 224.68a1.19 1.19 0 0 0 1.18 1.07h5.49a1.19 1.19 0 0 0 1.19-1.3l-.58-6.12a1.19 1.19 0 0 0-1.18-1.08l-5.52-.01a1.19 1.19 0 0 0-1.18 1.31l.6 6.13m37.67 2.702a1.23 1.23 0 0 0-1.228-1.232l-22.44-.039a1.23 1.23 0 0 0-1.232 1.228v.04a1.23 1.23 0 0 0 1.228 1.232l22.44.039a1.23 1.23 0 0 0 1.232-1.228v-.04m16.13 14.698a1.24 1.24 0 0 0-1.24-1.24h-37a1.24 1.24 0 0 0-1.24 1.24v.06a1.24 1.24 0 0 0 1.24 1.24h37a1.24 1.24 0 0 0 1.24-1.24v-.06" class="D"/><g class="G"><path vector-effect="non-scaling-stroke" d="M64.21 173.79l1.56.74q.24.11.34-.12l.11-.24a.47.46 25.4 0 0-.22-.61c-2.85-1.39-5.48-2.17-8.38-3.88q-4.38-2.59-9.55-3.18-.69-.08-.14.35 1.86 1.44 4.34 1.24 1.11-.09.06.89a.64.62 27 0 1-.56.17q-11.06-2.04-21 .72-5.22 1.44-6.93 3.22c-14.77 15.32 31.2 21.25 40.06 10.31q4.14-5.11-.07-9.05-1.61-1.51.38-.56"/><path vector-effect="non-scaling-stroke" d="M28.95 185.58q11.98 4 24.01 1.85c3.58-.64 8.89-2.43 10.95-5.49q2.52-3.74-.56-7.01-2.32-2.48-4.17-3.08c-9.93-3.22-21.47-3.97-31.34.01-8.76 3.53-6.82 11.07 1.11 13.72"/></g><path vector-effect="non-scaling-stroke" d="M139.98 174.45q.18.14.39.25a.25.25 0 0 0 .32-.35q-.55-.92-1.54-1.04a.12.12 0 0 0-.11.19l.2.27q.13.18.74.68" class="F"/><g class="G"><path vector-effect="non-scaling-stroke" d="M29.03 179.52q.48-.25 1.59 1.56a.36.36 0 0 0 .65-.1l.98-3.96a.31.3 77.1 0 0-.49-.31q-.69.59-.75 1.53a.63.62-22.6 0 1-.17.4q-.12.11-.27.18a.35.35 0 0 1-.49-.27l-.18-1.15a.42.41-37.7 0 0-.79-.1q-.41.94-.08 2.22"/><path vector-effect="non-scaling-stroke" d="M29.03 179.52q-1.16-.96-1.35-2.51a.29.29 0 0 0-.34-.26l-.26.05q-.39.06-.33.45.28 2 .92 3.21.94 1.74 1.32-.2.01-.06.04-.74m8.12-.57a2.24 2.24 0 0 0-4.48 0 2.24 2.24 0 0 0 4.48 0m2.1-.9q.72-.12.58-.85-.1-.54-.64-.5l-.92.07q-.68.06-.48.71.43 1.41.06 2.82a.36.36 0 0 0 .45.43l1.41-.43q.54-.17.42-.72-.09-.41-.75-.81-.97-.59-.13-.72m7.27-.61q.5.23.96.56.53.38.53-.27v-.44a.57.57 0 0 0-.68-.55q-1.6.33-3.26.11a1.64 1.64 0 0 0-1.84 1.91q.18 1.08 1.02 1.8a.38.38 0 0 0 .63-.32q-.06-.69-.27-1.73-.14-.73.57-1.2.71-.48.8.37l.08.72q.06.58.62.75.49.15.7-.37.17-.41-.04-.79-.07-.12-.15-.22-.59-.75.33-.33m2.951 3.71a2.21.55 90.5 0 0 .569-2.205 2.21.55 90.5 0 0-.531-2.215 2.21.55 90.5 0 0-.569 2.205 2.21.55 90.5 0 0 .531 2.215m1.929-4.1c-.74.95-.93 2.92-.06 3.88a.39.38-66.7 0 0 .67-.27l-.05-3.42q-.01-.89-.56-.19m5.78 1.92a2.2 2.2 0 0 0-4.4 0 2.2 2.2 0 0 0 4.4 0m1.36 1.55l1.92-1.38a1.1 1.1 0 0 0 .18-1.61q-.94-1.1-2.38-.76-.59.14-.44.72.34 1.27 0 2.54-.34 1.26.72.49m-17.07-1.78l.21-1.28q.11-.63-.46-.34-.72.38-1.23.99a.45.45 0 0 0 .22.72l.79.25q.42.13.31.55-.15.56-.33.63-1.87.7.13.76.72.02.98-.91.08-.3-.07-.57-.07-.14-.22-.2-.4-.17-.33-.6m4.66 1.42q-.93-.06-1.74.45-.51.33.1.37l2.33.17q.51.03.87-.34.74-.77.32-1.76-.19-.44-.6-.2-.45.25-.55.74-.12.6-.73.57"/></g><path vector-effect="non-scaling-stroke" d="M120.427 180.868a5.48 5.04 91.6 0 0 5.191-5.337 5.48 5.04 91.6 0 0-4.885-5.619 5.48 5.04 91.6 0 0-5.191 5.337 5.48 5.04 91.6 0 0 4.885 5.619" class="C"/><path vector-effect="non-scaling-stroke" d="M119.68 176.06q.64.18 1.19.6.53.42.84-.18.39-.77 1.1-1.13a1.11 1.1 83.6 0 0 .59-.74q.44-1.88-.44-1.23-.18.13-.3.39-.45.95-1.14 1.78-.35.43-.8.1l-.86-.62q-.45-.32-.84.07-.9.9-1.46 2.05a.22.22 0 0 0 .32.27q.59-.39.93-1 .29-.52.87-.36" class="O"/><path vector-effect="non-scaling-stroke" d="M94.85 177.43a1.06 1.06 0 0 0-1.48.16l-.83 1.01a1.06 1.06 0 0 0-.03 1.3l7.05 9.49a1.06 1.06 0 0 0 1.66.06l2.78-3.3a1.06 1.06 0 0 0-.15-1.51l-9-7.21" class="C"/><path vector-effect="non-scaling-stroke" d="M35.11 180.319a1.38 1.2 80 0 0 .942-1.567 1.38 1.2 80 0 0-1.421-1.151 1.38 1.2 80 0 0-.942 1.567 1.38 1.2 80 0 0 1.421 1.151m20.94-1.729a.97.97 0 0 0-.97-.97h-.28a.97.97 0 0 0-.97.97v.78a.97.97 0 0 0 .97.97h.28a.97.97 0 0 0 .97-.97v-.78" class="G"/><path vector-effect="non-scaling-stroke" d="M165.66 206.63a.06.06 0 0 1-.08.05q-12.69-2.57-23.3-.02-6.23 1.49-8.2 3.66c-6.41 7.1.87 12.17 7.16 14q12.6 3.68 25.64.3c5.77-1.49 12.68-6.51 7.7-13.02q-.46-.61.3-.67.58-.05 1.4.61.13.11.23-.03l.21-.27a.49.49 0 0 0-.22-.76c-2.63-1.02-5.02-1.81-7.57-3.35q-4.65-2.81-9.17-3.46-3.05-.44-.26.87.85.4 2.58.48a1.58 1.55 64 0 1 .87.31q1.1.83 2.43.88.11 0 .18.08.12.15.1.34" class="E"/><path vector-effect="non-scaling-stroke" d="M121.88 205.86l6.95 7.3q.11.11.28-.06l.01-.01q.17-.16.05-.29l-7.02-7.2q-.08-.08-.19.02v.01q-.16.15-.08.23" class="I"/><path vector-effect="non-scaling-stroke" d="M75.223 188.994a1.42 1.42 0 0 0-1.445-1.395l-4.719.082a1.42 1.42 0 0 0-1.395 1.445l.093 5.299a1.42 1.42 0 0 0 1.445 1.395l4.719-.082a1.42 1.42 0 0 0 1.395-1.445l-.093-5.299" class="C"/><path vector-effect="non-scaling-stroke" d="M70.81 191.99l-.74-1.4a.48.47 74.6 0 0-.43-.25l-.25.01a.36.36 0 0 0-.36.4q.26 2.27 1.72 4.01.42.49.79-.03 1.81-2.52 2.62-5.5.12-.44-.34-.44l-.33.01a.85.83 11.7 0 0-.75.48l-1.32 2.7q-.29.61-.61.01" class="G"/><path vector-effect="non-scaling-stroke" d="M139.94 202.335a1.4.27 63.7 0 0-.378-1.375 1.4.27 63.7 0 0-.862-1.135 1.4.27 63.7 0 0 .378 1.375 1.4.27 63.7 0 0 .862 1.136" class="N"/><path vector-effect="non-scaling-stroke" d="M69.63 209.37a1.2 1.2 0 0 0 1.19 1.03l4.97.01a1.2 1.2 0 0 0 1.19-1.37l-.79-5.57a1.2 1.2 0 0 0-1.18-1.03l-4.97-.02a1.2 1.2 0 0 0-1.2 1.37l.79 5.58" class="F"/><g class="E"><path vector-effect="non-scaling-stroke" d="M175.548 215.974a21.57 9.55.7 0 0-21.452-9.813 21.57 9.55.7 0 0-21.685 9.286 21.57 9.55.7 0 0 21.452 9.813 21.57 9.55.7 0 0 21.685-9.286"/><path vector-effect="non-scaling-stroke" d="M140.77 210.96q-.19-.31-.5-.52a.35.35 0 0 0-.54.3l.03 3.8q.01.56.55.65.9.17 1.85 0a1.74 1.74 0 0 0 .19-3.38l-.79-.23q-.52-.15-.79-.62m8.92 2.2l2.25-1.17a.27.27 0 0 0 .12-.36l-.08-.16a1.79 1.41 62.6 0 0-2.08-.94l-.23.12a1.79 1.41 62.6 0 0-.43 2.23l.08.16a.27.27 0 0 0 .37.12m-4.18 6.26l1.24 1.91q.14.22.39.14l.36-.11q.35-.11.09-.37-2-1.97-.01-3.76a.3.3 0 0 0-.3-.5q-.97.37-1.5 1.24-.22.37-.54.09-.8-.69-.27-1.59 1.62-2.74 2.15-4.74a.24.24 0 0 0-.34-.28q-.91.46-.82 1.48.02.16-.06.31-.08.16-.22.22-.31.12-.47-.17-.33-.61-.32-1.31a.39.39 0 0 0-.77-.09q-.26 1.19.39 2.04.28.38.17.85-.76 3.23-.28 6.55 0 .02.02.03l.27.05q.25.04.27-.22l.11-1.66q.04-.72.44-.11m10.53-4.77l.12-2.28a.73.73 0 0 0-.69-.76l-.94-.06a1.77 1.75-86.9 0 0-1.84 1.68l-.01.2a1.77 1.75-86.9 0 0 1.65 1.86l.94.05a.73.73 0 0 0 .77-.69m2.93-1.95l.19 2.46q.01.16.17.17l.29.01q.05 0 .08-.16l.42-2.41q.07-.41.45-.23l.3.14a.32.32 0 0 1 .17.35q-.22 1.08.13 1.98.33.84.61-.02.4-1.26.17-2.61a.74.73 85.7 0 0-.71-.62l-3.55-.1a.66.65.9 0 0-.68.65v2.71a.32.32 0 0 0 .62.13q.45-1.05.4-2.2a.22.2 80.3 0 1 .13-.2l.53-.22q.26-.11.28.17m7.073-.154a.97.97 0 0 0-.967-.973l-1.2-.004a.97.97 0 0 0-.973.967l-.006 1.74a.97.97 0 0 0 .967.973l1.2.004a.97.97 0 0 0 .973-.967l.006-1.74m2.247.484l.43-.77q.4-.73-.44-.74-.41 0-.75.16-.55.24-.54.84l.06 2.43a.33.33 0 0 0 .64.08l.55-1.88a1 .66-33.7 0 1 .05-.12m-18.03 1.15l-.74-.19a.45.44-15 0 0-.43.74q1.4 1.44 3.18-.38a.73.73 0 0 0 .12-.87q-.16-.3-.38-.43-.29-.18-.58-.01-.53.3-.57.7-.05.58-.6.44m1.65 4.32c-1.28-1.43-3.68-.93-3.91 1.32a1.53 1.53 0 0 0 1.69 1.68l3.38-.38a.43.42 81.3 0 0 .37-.51q-.27-1.31.73-2.16.52-.44-.16-.5-.86-.06-1.42.55-.34.37-.68 0m6.23 2.06l.06-2.14q.02-.55-.53-.55l-2.4-.01a.34.34 0 0 0-.33.43q.24.86.03 1.74a1.16 1.16 0 0 0 1.11 1.43l1.11.01a.94.93-88.5 0 0 .95-.91m3.87-1.51a.52.51-51.4 0 1 .94-.11q.51.92.14 1.87-.12.31.2.4l.46.12q.22.07.27-.16.3-1.34-.02-2.67-.13-.57-.72-.58l-3.53-.02q-.6-.01-.63.6l-.11 2.63a.2.19-88.6 0 0 .19.21l.3.01a.31.31 0 0 0 .31-.35q-.13-1.06.25-2.07a.48.48 0 0 1 .92.11l.14 1.21a1.26.1 83.9 0 0 .21 1.13q.09.09.35-.08.23-.14.19-.4-.12-.95.14-1.85"/><path vector-effect="non-scaling-stroke" d="M142.21 213.33q-.11-.42-.4-.74-.45-.48-.88.01-.58.66-.14 1.36.17.27.49.34.5.1.77-.25.26-.32.16-.72m12.265 1.06a.96.83 89.1 0 0 .815-.973.96.83 89.1 0 0-.845-.947.96.83 89.1 0 0-.815.973.96.83 89.1 0 0 .845.947m10.655-1.41q-.01-.21-.1-.3a.72.59 45.8 0 0-.97-.11l-.31.32a.85.85 0 0 0 .23 1.33q.82.43 1.1-.13.2-.4.09-.81-.04-.16-.04-.3"/></g><path vector-effect="non-scaling-stroke" d="M130.06 242.5l-2.53-5.63q-.04-.1-.13-.03l-.21.14q-.09.06-.05.16l2.42 5.33q.11.24.21.21l.25-.08q.08-.03.04-.1" class="C"/><path vector-effect="non-scaling-stroke" d="M127.59 252.38l-.39-.65q-.27-.47-.71-.17l-2.49 1.67a1.18 1.17 51.6 0 0-.2 1.79q.77.8 1.92.37l5.74-2.09q.5-.24.35-.78l-.28-1.06q-.16-.57-.74-.72-1.16-.31-2.26-.64-.34-.11-.58-.04-.32.08-.54.29-.41.39-.01.79.45.43.51 1.14.07.77-.32.1" class="N"/><path vector-effect="non-scaling-stroke" d="M150.96 219.4q-.45-.64-1.24-.67-.82-.02-.81.81l.01.33q.02.58.6.59l3.04.03a.36.36 0 0 0 .35-.27l.07-.29q.08-.33-.22-.48-.5-.25-.95.08a.6.6 0 0 1-.85-.13m5.32 1.11a.43.42-39 0 0 .53.05q.55-.38.58-1.14a.74.74 0 0 0-1.36-.45q-.53.77.25 1.54" class="E"/><path vector-effect="non-scaling-stroke" d="M60.39 241.37q.17 1.19.71 1.82.29.34.73.34l3.44-.05a.58.57 80.9 0 0 .54-.75l-.39-1.25q-.17-.56-.75-.65-2.32-.37-4.31.26" class="O"/><path stroke="#8a5617" vector-effect="non-scaling-stroke" d="M60.36 241.09l-9-.93a.44.44 0 0 0-.48.52c.62 3.12 3.05 12.09 1.84 14.63a.56.56 0 0 0 .51.8l20.28-.01a2.83 2.82 84.7 0 0 2.77-3.35l-3.81-19.95a3.04 3.03 84.6 0 0-2.98-2.47l-20.02-.06a.51.51 0 0 0-.43.78q1.46 2.29 1.46 4.96c0 1.24.52 1.74.76 2.73q.39 1.53 1.97 1.53h12.44q.33 0 .34.33l.07 2.92a.32.32 0 0 1-.32.33l-4.44.05q-.48.01-.73-.4-.82-1.33-.2-2.13"/><path vector-effect="non-scaling-stroke" d="M60.36 241.09q.01.14.03.28" class="E"/><path vector-effect="non-scaling-stroke" d="M45.74 239.68q-1.22.67-.95 2.07c.7 3.71-.11 8.35-.6 12.41a1.09 1.09 0 0 0 .39.97c1.97 1.64 3.9-.03 5.81.56a1.84 1.84 0 0 0 2.36-2.12q-1.38-6.98-2.37-13.87c-.22-1.5-.84-3.07-.96-4.77-.12-1.63-.56-2.65-1.25-3.98a1.07 1.07 0 0 0-1.79-.15q-.35.45-.31 1.13c.15 2.18-.02 4.19.34 6.36a1.33 1.32 71 0 1-.67 1.39" class="M"/><path vector-effect="non-scaling-stroke" d="M67.25 240.5l4.62.21q.2.01.2-.22h0q-.01-.15-.07-.15l-4.75-.11q-.18-.01-.18.05v.01q-.02.2.18.21" class="I"/></g><g fill="#dfab6d"><path d="M8.62 0h180.62q7.21 1.58 8.76 8.62v282.62q-1.59 7.22-8.62 8.76H8.51q-7.03-1.78-8.51-8.62V8.51Q1.8 1.49 8.62 0zm30.26 14.07a.78.78 0 0 0-.78-.78h-.58a.78.78 0 0 0-.78.78v11.02a.78.78 0 0 0 .78.78h.58a.78.78 0 0 0 .78-.78V14.07zm8.92 3.63l-4.89-4.19a1.16 1.16 0 0 0-1.91.88v10.62q0 .91.9.83l.42-.04q.94-.08.94-1.03l-.01-7.25q0-1.03.76-.33l3.56 3.26q.69.64.69 1.57l-.01 3.2a.64.63 86.1 0 0 .72.63l.78-.12q.64-.09.64-.73l-.03-10.74a.95.94-87.6 0 0-.85-.93l-.48-.04q-.75-.08-.76.68l-.03 3.53q-.01.57-.44.2zm9.46-1.86a.43.43 0 0 1 .43-.43l2.43.03a.43.43 0 0 0 .43-.36l.2-1.2a.43.43 0 0 0-.42-.5l-8.51.01a.43.43 0 0 0-.4.59l.53 1.29a.43.43 0 0 0 .46.26l2.1-.27a.43.43 0 0 1 .48.43l.03 9.77a.43.43 0 0 0 .47.43l1.37-.13a.43.43 0 0 0 .39-.43l.01-9.49zm6.93.04a.42.42 0 0 1 .42-.38l4.72.01a.42.42 0 0 0 .42-.42l-.01-1.3a.42.42 0 0 0-.42-.42l-6.91.02a.42.42 0 0 0-.42.42l.03 11.52a.42.42 0 0 0 .42.42h7.09a.42.42 0 0 0 .42-.44l-.04-1.18a.42.42 0 0 0-.43-.41l-4.94.05a.42.42 0 0 1-.42-.42l.01-2.94a.42.42 0 0 1 .42-.42h4.66a.42.42 0 0 0 .42-.42v-1.08a.42.42 0 0 0-.41-.42l-4.78-.09a.42.42 0 0 1-.41-.46l.16-1.64zm9.87 5.77a.55.55 0 0 1 1.03-.25l2.12 3.73q.37.65 1.12.63l.7-.02q.85-.02.46-.77l-1.66-3.24q-.23-.46.14-.81c2.11-1.97 2.54-6.52-1.07-7.31q-2.11-.47-4.68-.12-.47.06-.47.53l-.01 10.72q-.01 1.02 1 1.06l.43.02a.76.76 0 0 0 .79-.74l.1-3.43zm15.26.93c-7.55 6.63-8.68-12.07-.3-6.27q.56.39.99-.14l.36-.45a.72.71 44.7 0 0-.01-.9q-1.17-1.4-3.12-1.51c-5.5-.31-7.49 4.79-5.77 9.24 1.45 3.78 5.7 4.33 8.78 2.05q.83-.61.29-1.48l-.25-.39a.64.64 0 0 0-.97-.15zm10.81-9.26a.83.83 0 0 0-1 .81l.01 7.79a1.81 1.81 0 0 1-1.56 1.79l-.62.08a1.88 1.88 0 0 1-2.14-1.83l-.1-7.77q-.02-.9-.92-.89h-.45q-.79.01-.77.8l.14 8.59a3.3 3.3 0 0 0 3.21 3.25l1.15.04a4.06 4.05-89.1 0 0 4.18-4.06v-7.57q0-.79-.78-.96l-.35-.07zm5.91 10.43a.43.43 0 0 1-.43-.43l.03-9.6a.43.43 0 0 0-.47-.43l-1.27.12a.43.43 0 0 0-.39.43l-.02 11.48a.43.43 0 0 0 .43.43h6.41a.43.43 0 0 0 .42-.49l-.16-1.14a.43.43 0 0 0-.42-.37h-4.13zm8.02-8.41a.43.43 0 0 1 .44.43v9.54a.43.43 0 0 0 .42.43l1.27.03a.43.43 0 0 0 .44-.43l-.02-9.53a.43.43 0 0 1 .44-.43l2.53.04a.43.43 0 0 0 .43-.37l.17-1.16a.43.43 0 0 0-.42-.49l-8.35-.04a.43.43 0 0 0-.43.45l.04 1.2a.43.43 0 0 0 .45.42l2.59-.09zm11.03 8.35a1.68 1.67-86.7 0 1-1.46-1.65l-.02-8.02a.63.63 0 0 0-.59-.63l-.97-.08q-.69-.05-.69.65l.08 8.26a3.83 3.83 0 0 0 4.29 3.77l1.17-.14a3.5 3.5 0 0 0 3.08-3.39l.21-8.22q.03-.98-.96-.97l-.44.01q-.92.01-.93.93l-.05 7.77a1.81 1.81 0 0 1-2.04 1.79l-.68-.08zm9.22-1.08q.68-2.65 1.94-.11l1.31 2.62a1.57 1.56-17 0 0 1.63.86l.4-.06q.58-.09.41-.65-.62-1.95-1.9-3.57a.58.57 50.7 0 1 .07-.78q2.82-2.49 1.39-5.35c-1.26-2.52-4.37-2.47-6.8-2.14q-.5.07-.5.58v11.04q0 .8.79.73l.7-.06a.74.74 0 0 0 .67-.86q-.27-1.61-.11-2.25zm14.34.68l.59 1.75q.25.76 1.05.73l.54-.02q.83-.03.57-.82l-2.97-8.89q-2.08-6.23-4.23-.02-1.05 3.04-2.9 8-.25.69-.21 1.25a.82.81 62.7 0 0 1.44.46q.89-1.07 1.22-2.42a.74.73-82.9 0 1 .71-.56h3.44a.79.79 0 0 1 .75.54zm6.79.48a.43.43 0 0 1-.43-.43l-.04-9.72a.43.43 0 0 0-.47-.42l-1.27.12a.43.43 0 0 0-.39.43l.04 11.57a.43.43 0 0 0 .43.43h6.25a.43.43 0 0 0 .43-.43l-.02-1.17a.43.43 0 0 0-.43-.43l-4.1.05zM92.176 69.34a18.27 17.16 89.7 0 0 17.064-18.36A18.27 17.16 89.7 0 0 91.984 32.8 18.27 17.16 89.7 0 0 74.92 51.16a18.27 17.16 89.7 0 0 17.256 18.18zM48.72 44.26q.21-.6.42 0l8.55 23.8a.92.9 79.8 0 0 .85.6h2.45q.48 0 .61-.46l10.07-34.46q.07-.24-.19-.24l-3.75-.01a.4.39-82.3 0 0-.38.29l-7.42 26.19q-.42 1.46-.93.03l-8.7-24.25q-1.4-3.9-2.77.01l-8.63 24.7q-.33.96-.61-.02l-7.74-26.69a.32.31 82.8 0 0-.3-.24l-3.76-.06a.26.25-7.7 0 0-.25.32l10.24 34.4q.14.44.59.45l2.61.02q.5 0 .67-.47l8.37-23.91zm71.78 10.62l6.1-.02a1.1 1.1 0 0 1 .97.58l6.68 12.3q.48.88 1.48.88l2.73.02q.91.01.47-.79l-7.08-12.97q-.26-.49.24-.71c7.97-3.51 9.24-14.92 1.76-19.16-4.3-2.43-12.2-1.54-17.61-1.5q-.49 0-.49.49v34.24a.37.37 0 0 0 .37.37l3.36.04a.39.39 0 0 0 .39-.39V55.5q0-.62.63-.62zm29.37-2.03a.35.35 0 0 1 .35-.35h3.73a.35.35 0 0 1 .28.15l11.22 15.81a.35.35 0 0 0 .28.15l4.42.03a.35.35 0 0 0 .28-.56L157.99 50.6a.35.35 0 0 1 0-.4l11.36-16.14a.35.35 0 0 0-.28-.55l-4.36-.02a.35.35 0 0 0-.28.15l-10.14 14.58a.35.35 0 0 1-.28.15l-3.79.01a.35.35 0 0 1-.35-.35l.01-14.19a.35.35 0 0 0-.35-.35l-3.43.01a.35.35 0 0 0-.35.35v34.41a.35.35 0 0 0 .35.35l3.42.04a.35.35 0 0 0 .35-.35V52.85zm-49.096 63.69a18.26 17.15 89.8 0 0 17.086-18.32 18.26 17.15 89.8 0 0-17.214-18.2A18.26 17.15 89.8 0 0 83.56 98.34a18.26 17.15 89.8 0 0 17.214 18.2zm-59.644-9.92c-.64 7.64-15.02 6.99-14.94-1.15a.47.47 0 0 0-.47-.47h-3.25q-.47 0-.47.47c.02 13.28 20.81 14.62 23.27 2.77 3.19-15.36-17.75-9.64-18.58-17.64-.79-7.59 12.68-8.81 13.88-.21q.04.25.3.25l3.39-.04q.26 0 .25-.26c-.23-13.21-20.73-13.41-21.79-1.57-1.33 14.8 19.27 7.52 18.41 17.85zm124.93-5.44c3.32 1.11 4.79 4.74 3.01 7.58-3.34 5.33-14.43 3.92-14.36-3.27a.48.48 0 0 0-.48-.48l-3.27-.01q-.49 0-.48.49c.08 12.85 20.13 14.76 23.11 3.32 1.81-6.93-1.93-10.42-7.91-12.31-3.17-1.01-9.01-1.66-10.3-4.95-2.81-7.16 12.06-11.07 13.72-1.15q.04.26.3.26l3.33-.03q.3 0 .29-.3c-.4-13.59-21.43-13.24-21.87-.94-.33 9.19 8.5 9.66 14.91 11.79zm-109.94-.96a.35.35 0 0 1 .35-.35h16.06a.35.35 0 0 1 .35.35v15.29a.35.35 0 0 0 .35.35l3.42.04a.35.35 0 0 0 .35-.35V80.94a.35.35 0 0 0-.36-.35l-3.43.06a.35.35 0 0 0-.34.35l.01 14.29a.35.35 0 0 1-.35.35l-16.06-.01a.35.35 0 0 1-.35-.35l.02-14.3a.35.35 0 0 0-.35-.35h-3.44a.35.35 0 0 0-.35.35v34.54a.35.35 0 0 0 .35.35l3.43.01a.35.35 0 0 0 .35-.35l-.01-15.31zm72.88 3.04c3.52-.03 7.75.34 10.73-.61 6.71-2.16 8.9-10.82 5.77-16.42-4.17-7.45-13.9-5.68-20.91-5.59a.24.23-90 0 0-.23.24v34.61q0 .37.38.38l3.41.01q.35 0 .35-.35v-11.76q0-.51.5-.51zm14.55 37.18l.07.99a.59.59 0 0 1-.88.55q-7.15-4.07-14.58-1.81-11.77-6.19-25.7-3.91-2.83.46-5.69.9-.64.09-.58.55-2.22-1.82-4.69-1.72-3.89.17-4.91 4.16-8.86 1.57-16.54 7l-.36-4.15q-.05-.52-.52-.73-1.77-.77-2.31-2.72-.04-.18-.22-.18h-.26a.2.2 0 0 0-.13.36q.71.59.86 1.52.05.31-.09.46-.18.18-.56.14-1.03-.34-.88.01l-2.14-2.34q-.25-.27-.23.09.02.28.28.51.23.2.16.51-.07.32-.31.54-.35.33-.77.11-.84-.41-1.42-1.15a.8.79-15.6 0 0-.52-.29q-.51-.06-.61.28-.16.52-.7.52-.78 0-1.38-.47-.35-.26-.67.05l-.38.39a.65.65 0 0 1-.46.19q-1.03-.02-1.48-.6-.43-.55-.81.04l-.3.46q-.34.53-.9.24l-1.41-.71q-.37-.19-.4.23-.01.2.02.42a.48.48 0 0 1-.81.4q-3.15-3.13-4.81.42-.89.24-1.41.8-.36.38-.25.89.88 4.4 1.05 8.85.06 1.43.65 2.66.2.41.23.87l.71 8.97q-11.62-1.01-21.67 4.36c-3.75 2.01-7.11 5.76-6.42 10.22 1.5 9.59 17.83 12.41 25.34 12.47q-.96 17.67 6.7 33.49.11.22.77.65l.38 1.18a1.94 1.94 0 0 1-1.77 2.53l-3.27.12a1.26 1.25 1.3 0 0-1.21 1.15l-1.81 23.1a2.28 2.27 2.5 0 0 2.25 2.45q12.77.11 25.57.01c3.1-.02 5.59.4 5.46-3.87q2.55-.45 5.27.37 2.2 1.29 4.39 1.83 18.75 4.62 36.68-2.06.4.57-.13 1.06a1.15 1.15 0 0 0 .21 1.85q1.31.74 2.26.61 7.63-1.06 6.52-4.02 5.22.3 5.9-2.85l.17 1.81-.48 3.9q-.22 1.77 1.56 1.69l2.66-.13q1.83-.08 1.48-1.88-.5-2.57-1.97-5.05-.31-.77-1.58-.6 1.32-.01 1.16-.8.36-.14.59-.33.23-.19.28-.58.43-3.36.49-6.53 1.96-1.25 3.18-3.11l2.69 2.73q1.54 1.58 3.02-.07l1.93-2.15q1.49-1.66-.02-3.31l-3.4-3.72q1.1-1.26 1.42-2.56c7.32.5 16.16-.75 22.51-4.64 6.08-3.73 8.57-10.75 2.39-15.86-5.89-4.86-13.25-6.12-20.81-6.69q.04-10.57-4.51-19.86l-.26-3.41c-2.26-5.49-8.5-2.98-7.62 2.52.3 1.86 2.45 2.62 1.85 5.28q-.57-2.35-1.87-4.16-.31-.42-.28-.94c.14-3.16-.15-4.9 3.21-6.23q.48-.19.13-.56l-5.2-5.42c9.12-5.83 10.71-15.92 4.21-24.72q.02-.53.34-.69.2-.1.62.07c2.09.85 3.98-1.39 5.02-2.91q.48-.69-.35-.74l-.46-.03q-.44-.02-.74-.34l-1.21-1.26q-.92-.27-1.1-1.95-.12-1.03-.89-.34c-1.12 1-3.38 2.78-2.54 4.62zM36.88 151.55a.32.32 0 0 1-.42 0l-.96-.87a.322.322 0 0 0-.46.45l.85.97a.32.32 0 0 1 0 .42l-.87.96a.322.322 0 0 0 .45.46l.97-.85a.32.32 0 0 1 .42 0l.96.87a.322.322 0 0 0 .46-.45l-.85-.97a.32.32 0 0 1 0-.42l.87-.96a.322.322 0 0 0-.45-.46l-.97.85zM145.1 172q-.04.19-.17.33-.05.04.01.05.03 0 .08 0 .12 0 .17-.11.87-1.77.39-3.77-.26-1.1-.2.03.08 1.52-.28 3.47zm7.86 1.91q.61-.59-.22-.37-.93.25-1.25 1.28-.25.77.33.2l1.14-1.11zm-128.18 32.8q-.27.67.26 1.18a.58.57-66.3 0 0 .97-.38l.04-.51a.66.66 0 0 0-1.27-.29zm4.53.59a.74.74 0 1 0-1.48 0 .74.74 0 1 0 1.48 0zm2.16-.81a.74.74 0 0 0-.04 1.47q.23.01.45-.02a.59.57 84.9 0 0 .48-.59q-.03-.87-.89-.86zm-6.482 4.821a.81.68 121.4 0 0 1.002-.337.81.68 121.4 0 0-.158-1.046.81.68 121.4 0 0-1.002.337.81.68 121.4 0 0 .158 1.046zM28.15 210q-.65.67.18 1.34a.51.51 0 0 0 .67-.03q.44-.42.15-1.12a.61.61 0 0 0-1-.19zm4.103 1.19a.78.69 43.8 0 0-.085-1.038.78.69 43.8 0 0-1.041-.042.78.69 43.8 0 0 .085 1.038.78.69 43.8 0 0 1.041.042zm135.297 24.67a.34.34 0 0 1-.44-.01l-1.02-.93a.34.34 0 0 0-.49.47l.88 1.06a.34.34 0 0 1-.01.44l-.93 1.02a.34.34 0 0 0 .47.49l1.06-.88a.34.34 0 0 1 .44.01l1.02.93a.34.34 0 0 0 .49-.47l-.88-1.06a.34.34 0 0 1 .01-.44l.93-1.02a.34.34 0 0 0-.47-.49l-1.06.88zM74.02 16.06a.63.63 0 0 1 .63-.63h.3a2.55 1.88.4 0 1 2.54 1.9v.24a2.55 1.88.4 0 1-2.56 1.86h-.3a.63.63 0 0 1-.63-.63l.02-2.74zm60.32-.22a.34.34 0 0 1 .34-.34l1.15-.01a2.03 1.82-.3 0 1 2.04 1.81v.3a2.03 1.82-.3 0 1-2.02 1.83l-1.15.01a.34.34 0 0 1-.34-.34l-.02-3.26zm12.25.92l1.14 3.65q.07.24-.18.24h-2.37q-.51.01-.34-.48l1.21-3.42q.28-.81.54.01z"/><ellipse cx="0" cy="0" transform="matrix(.006981 .999976 -.999976 .006981 92.1 51.07)" rx="13.92" ry="12.96"/><path d="M119.88 37.84a.21.21 0 0 1 .21-.21l7.9.01a6.59 6.3.1 0 1 6.58 6.31v.52a6.59 6.3.1 0 1-6.6 6.29l-7.9-.01a.21.21 0 0 1-.21-.21l.02-12.7z"/><ellipse cx="0" cy="0" transform="matrix(.006981 .999976 -.999976 .006981 100.73 98.28)" rx="13.91" ry="12.95"/><path d="M128.47 85.39a.4.4 0 0 1 .4-.4h7.14a6.88 6.74 90 0 1 6.74 6.88v.26a6.88 6.74 90 0 1-6.74 6.88h-7.14a.4.4 0 0 1-.4-.4V85.39z"/></g><path d="M92.176 69.34A18.27 17.16 89.7 0 1 74.92 51.16 18.27 17.16 89.7 0 1 91.984 32.8a18.27 17.16 89.7 0 1 17.255 18.18 18.27 17.16 89.7 0 1-17.063 18.36zm.021-4.35a13.92 12.96 89.6 0 0 12.863-14.01 13.92 12.96 89.6 0 0-13.057-13.83 13.92 12.96 89.6 0 0-12.862 14.01 13.92 12.96 89.6 0 0 13.056 13.83zM48.72 44.26l-8.37 23.91q-.17.47-.67.47l-2.61-.02q-.45-.01-.59-.45l-10.24-34.4a.26.25-7.7 0 1 .25-.32l3.76.06a.32.31 82.8 0 1 .3.24l7.74 26.69q.28.98.61.02l8.63-24.7q1.37-3.91 2.77-.01L59 60q.51 1.43.93-.03l7.42-26.19a.4.39-82.3 0 1 .38-.29l3.75.01q.26 0 .19.24L61.6 68.2q-.13.46-.61.46h-2.45a.92.9 79.8 0 1-.85-.6l-8.55-23.8q-.21-.6-.42 0zm71.15 11.24v12.76a.39.39 0 0 1-.39.39l-3.36-.04a.37.37 0 0 1-.37-.37V34q0-.49.49-.49c5.41-.04 13.31-.93 17.61 1.5 7.48 4.24 6.21 15.65-1.76 19.16q-.5.22-.24.71l7.08 12.97q.44.8-.47.79l-2.73-.02q-1 0-1.48-.88l-6.68-12.3a1.1 1.1 0 0 0-.97-.58l-6.1.02q-.63 0-.63.62zm.01-17.66l-.02 12.7a.21.21 0 0 0 .21.21l7.9.01a6.59 6.3.1 0 0 6.6-6.29v-.52a6.59 6.3.1 0 0-6.58-6.31l-7.9-.01a.21.21 0 0 0-.21.21zm29.99 15.01V68.3a.35.35 0 0 1-.35.35l-3.42-.04a.35.35 0 0 1-.35-.35V33.85a.35.35 0 0 1 .35-.35l3.43-.01a.35.35 0 0 1 .35.35l-.01 14.19a.35.35 0 0 0 .35.35l3.79-.01a.35.35 0 0 0 .28-.15l10.14-14.58a.35.35 0 0 1 .28-.15l4.36.02a.35.35 0 0 1 .28.55L157.99 50.2a.35.35 0 0 0 0 .4l12.44 17.48a.35.35 0 0 1-.28.56l-4.42-.03a.35.35 0 0 1-.28-.15l-11.22-15.81a.35.35 0 0 0-.28-.15h-3.73a.35.35 0 0 0-.35.35zm-49.096 63.69a18.26 17.15 89.8 0 1-17.214-18.2 18.26 17.15 89.8 0 1 17.086-18.32 18.26 17.15 89.8 0 1 17.214 18.2 18.26 17.15 89.8 0 1-17.086 18.32zm.053-4.35a13.91 12.95 89.6 0 0 12.853-14 13.91 12.95 89.6 0 0-13.047-13.819 13.91 12.95 89.6 0 0-12.853 14 13.91 12.95 89.6 0 0 13.047 13.819zm-59.697-5.57c.86-10.33-19.74-3.05-18.41-17.85 1.06-11.84 21.56-11.64 21.79 1.57q.01.26-.25.26l-3.39.04q-.26 0-.3-.25c-1.2-8.6-14.67-7.38-13.88.21.83 8 21.77 2.28 18.58 17.64-2.46 11.85-23.25 10.51-23.27-2.77q0-.47.47-.47h3.25a.47.47 0 0 1 .47.47c-.08 8.14 14.3 8.79 14.94 1.15zm127.94 2.14c1.78-2.84.31-6.47-3.01-7.58-6.41-2.13-15.24-2.6-14.91-11.79.44-12.3 21.47-12.65 21.87.94q.01.3-.29.3l-3.33.03q-.26 0-.3-.26c-1.66-9.92-16.53-6.01-13.72 1.15 1.29 3.29 7.13 3.94 10.3 4.95 5.98 1.89 9.72 5.38 7.91 12.31-2.98 11.44-23.03 9.53-23.11-3.32q-.01-.49.48-.49l3.27.01a.48.48 0 0 1 .48.48c-.07 7.19 11.02 8.6 14.36 3.27zm-112.95-8.54l.01 15.31a.35.35 0 0 1-.35.35l-3.43-.01a.35.35 0 0 1-.35-.35V80.98a.35.35 0 0 1 .35-.35h3.44a.35.35 0 0 1 .35.35l-.02 14.3a.35.35 0 0 0 .35.35l16.06.01a.35.35 0 0 0 .35-.35L72.87 81a.35.35 0 0 1 .34-.35l3.43-.06a.35.35 0 0 1 .36.35v34.61a.35.35 0 0 1-.35.35l-3.42-.04a.35.35 0 0 1-.35-.35v-15.29a.35.35 0 0 0-.35-.35H56.47a.35.35 0 0 0-.35.35zm72.38 3.55v11.76q0 .35-.35.35l-3.41-.01q-.38-.01-.38-.38V80.88a.24.23-90 0 1 .23-.24c7.01-.09 16.74-1.86 20.91 5.59 3.13 5.6.94 14.26-5.77 16.42-2.98.95-7.21.58-10.73.61q-.5 0-.5.51zm-.03-18.38v13.22a.4.4 0 0 0 .4.4h7.14a6.88 6.74 90 0 0 6.74-6.88v-.26a6.88 6.74-90 0 0-6.74-6.88h-7.14a.4.4 0 0 0-.4.4zm-32.28 52.32q.91.94 1.14 2.13-2.54-3.76-6.08-3.36c-4.09.46-4.5 3.79-4.06 7.38q.46 3.75.52 7.35a1.1 1.09-.5 0 0 1.1 1.07l9.18-.04a.66.66 0 0 0 .65-.74l-1.31-11.66c1.27 1.36.63 3.38 1.51 4.74q-.63 3.3.36 6.44a1.32 1.31 81.1 0 1-1.25 1.72l-9.03.02a1.64 1.63-2.5 0 1-1.63-1.49l-.6-6.78-.1-4.34q1.02-3.99 4.91-4.16 2.47-.1 4.69 1.72zm-26.14 9.44q.19-.39.18.4l2.08 19.13a.9.89 86.8 0 1-.88.99l-9.63.09q-.11-.28-.6-.39l9.71-.03a.92.92 0 0 0 .91-1.03l-2.36-19.99-.1-2.62q-.02-.5-.33-.9-.46-.6-1.24-.42-.51.12-.94-.17-.24-.16-.39-.36.38.04.56-.14.14-.15.09-.46-.15-.93-.86-1.52a.2.2 0 0 1 .13-.36h.26q.18 0 .22.18.54 1.95 2.31 2.72.47.21.52.73l.36 4.15zm73.72-3.45q1.07-.27 1.09.31c6.5 8.8 4.91 18.89-4.21 24.72-3.9 1.59-7.04 1.21-10.81 1.04q-7.13-2.24-9.94-9.19.13-.25.35-.36c2.13 5.83 7.07 9.44 13.51 9.08 12.06-.69 16.03-14.61 10.17-23.52q-.28-.43-.77-.29-.71.19-.77-.29l1.38-1.5zm-34.08 4.01l-.41.76q.33-4.03-2.78-3.83-4.13.26-7.14-.02 2.71-.31 5.3-.29c3 .02 5.14-.34 5.03 3.38z"/><path d="M109.17 148.18q1.03 2.87 1.06 5.32.01 1.38-1.16 1.92.83-2.81.1-7.24zm-72.29 3.37l.97-.85a.322.322 0 0 1 .45.46l-.87.96a.32.32 0 0 0 0 .42l.85.97a.322.322 0 0 1-.46.45l-.96-.87a.32.32 0 0 0-.42 0l-.97.85a.322.322 0 0 1-.45-.46l.87-.96a.32.32 0 0 0 0-.42l-.85-.97a.322.322 0 0 1 .46-.45l.96.87a.32.32 0 0 0 .42 0zm98.82.29q-.53 2.05-2.57 2.82-.44.17-.15-.21l2.23-2.86q.84-1.09.49.25zm-29.46 13.02q.62-2.18-.7-3.41l.67-.06q.53-.05.47.47c-.99 8.85 10.12 8.41 10.57 1.14.26-4.34-4.98-7.37-8.9-4.48q-.14.11-.25-.03l-.01-.01q-.11-.15.03-.26c4.81-3.67 10.28.71 9.24 6.14q-.55 2.87-3.45 3.88-5.59 1.95-7.67-3.38zM145.1 172q.36-1.95.28-3.47-.06-1.13.2-.03.48 2-.39 3.77-.05.11-.17.11-.05 0-.08 0-.06-.01-.01-.05.13-.14.17-.33zm-29.69 6.03l-.36-2.18c.1-5.62 6.38-9 9.88-4.11 1.79 2.49 1.37 5.9-.89 8.04q-4.19 3.95-8.63-1.75zm5.017 2.838a5.48 5.04 91.6 0 0 5.191-5.337 5.48 5.04 91.6 0 0-4.885-5.619 5.48 5.04 91.6 0 0-5.191 5.337 5.48 5.04 91.6 0 0 4.885 5.619zM93.98 175.92l2.75 2.28q3.03 3.03 5.69 4.23 1.15 1.69 2.43 2.31.11.18.23.36-1.85 3.58-5.06 5.35.28-.01-.17.1l-4.62-6.03q-.91-1.73-1.65-2.33l-3.15-4.1q-1.01-1.9-1.82-2.51-1.31-1.81-2.26-3.35-.59-.95.19-1.49a.77.77 0 0 1 .9.03l6.54 5.15zm.87 1.51a1.06 1.06 0 0 0-1.48.16l-.83 1.01a1.06 1.06 0 0 0-.03 1.3l7.05 9.49a1.06 1.06 0 0 0 1.66.06l2.78-3.3a1.06 1.06 0 0 0-.15-1.51l-9-7.21zm44.39-3.66l-.2-.27a.12.12 0 0 1 .11-.19q.99.12 1.54 1.04a.25.25 0 0 1-.32.35q-.21-.11-.39-.25-.61-.5-.74-.68zm13.72.14l-1.14 1.11q-.58.57-.33-.2.32-1.03 1.25-1.28.83-.22.22.37zm-78.78 5.35l-.77-4.03q-.05-.29.1-.33h0q.24-.05.27.08l.9 4.34a1.53 1.52 84.2 0 1-1.5 1.84l-3.47-.04q-.27 0-.25-.28l.02-.26q0-.02.02-.02 1.83.21 3.4.23a1.29 1.29 0 0 0 1.28-1.53zm76.25-1.02l.26 3.41q-1.57 1.89-2.1 4.18c-.22-2.77 2.05-4.43 1.84-7.59zm-15.81 11.29q-.29-.89.26-1.78a.48.47-73.7 0 0-.39-.72l-.51-.01q-.25-.01-.3.24-.03.13-.05.26a.07.06-57.5 0 1-.12.03q-.73-1.14-2-.51-.13-.72.77-.81.25-.02.21-.27-.03-.15-.11-.27-.31-.46-.71-.08l-.91.88q-.46.43.17.49l.58.06q-1.34.3-1.76 1.22l.36-2.16q.07-.43.35-.77.85-1.06.67-3.31 1.64.45 3.08.97c4.37 1.57 2.77 4.16.41 6.54z"/><path d="M148.59 185.83q.18 1.24-.25 1.91-.19-2.09-3.4-.43-.29-.39-.28-1.27 1.84.92 3.93-.21zm-81.28 3.08a1.58 1.58 0 0 1 1.56-1.6l4.95-.04a1.99 1.85 89.5 0 1 1.87 1.97l.04 4.86a1.99 1.85 89.5 0 1-1.83 2.01l-4.95.04a1.58 1.58 0 0 1-1.6-1.56l-.04-5.68zm7.913.084a1.42 1.42 0 0 0-1.445-1.395l-4.719.082a1.42 1.42 0 0 0-1.395 1.445l.093 5.299a1.42 1.42 0 0 0 1.445 1.395l4.719-.082a1.42 1.42 0 0 0 1.395-1.445l-.093-5.299zm54.527-.734c.16.49.46.78.99.98q1.35.52 1.61 2.09a.28.26-11.6 0 1-.21.3l-.26.06a.03.03 0 0 1-.03-.03q-.17-1.78-1.82-2.25-.5-.14-.51-.65 0-.3.23-.5zm4.86 1.5q.32 1.66 1.39 2.53-3.15 2.91-4.87.07 1.77 1.13 3.35.57.5-.18.44-.7l-.31-2.47zm18.11 11.65q-.63-.09-.3.1l-.08-2.92q-.01-.15.15-.16h0q.16-.01.17.14l.06 2.84z"/><ellipse cx="0" cy="0" transform="matrix(.443071 .896486 -.896486 .443071 139.32 201.08)" rx="1.4" ry=".27"/><path d="M76.71 203.18l.73 5.89a1.48 1.48 0 0 1-1.47 1.67l-5.35-.02a1.48 1.48 0 0 1-1.47-1.3l-.73-5.89a1.48 1.48 0 0 1 1.48-1.66l5.34.01a1.48 1.48 0 0 1 1.47 1.3zm-7.08 6.19a1.2 1.2 0 0 0 1.19 1.03l4.97.01a1.2 1.2 0 0 0 1.19-1.37l-.79-5.57a1.2 1.2 0 0 0-1.18-1.03l-4.97-.02a1.2 1.2 0 0 0-1.2 1.37l.79 5.58zm52.25-3.51q-.08-.08.08-.23v-.01q.11-.1.19-.02l7.02 7.2q.12.13-.05.29l-.01.01q-.17.17-.28.06l-6.95-7.3zm-97.1.85a.66.66 0 0 1 1.27.29l-.04.51a.58.57-66.3 0 1-.97.38q-.53-.51-.26-1.18z"/><circle cx="28.57" cy="207.3" r=".74"/><path d="M31.47 206.49q.86-.01.89.86a.59.57 84.9 0 1-.48.59q-.22.03-.45.02a.74.74 0 0 1 .04-1.47z"/><ellipse cx="0" cy="0" transform="matrix(-.52101 .853551 -.853551 -.52101 25.41 210.62)" rx=".81" ry=".68"/><path d="M28.15 210a.61.61 0 0 1 1 .19q.29.7-.15 1.12a.51.51 0 0 1-.67.03q-.83-.67-.18-1.34z"/><ellipse cx="0" cy="0" transform="matrix(.72176 .692143 -.692143 .72176 31.69 210.65)" rx=".78" ry=".69"/><path d="M125.78 217.3l6.38 6.83-.13 28.11q1.11 2.96-6.52 4.02-.95.13-2.26-.61a1.15 1.15 0 0 1-.21-1.85q.53-.49.13-1.06.14.43.37-.13 2.3-1 3.8-3.17a1.03 1.03 0 0 1 1.35-.32l1.6.89q.58.32.79-.3l.21-.63q.23-.64-.45-.68l-1.74-.09a1.28 1.27-3.4 0 1-1.18-1.04L126 236.94l-.12-2.55-.04-11.66-.09-2.45q.35-1.26.03-2.98zm4.28 25.2l-2.53-5.63q-.04-.1-.13-.03l-.21.14q-.09.06-.05.16l2.42 5.33q.11.24.21.21l.25-.08q.08-.03.04-.1zm-2.47 9.88l-.39-.65q-.27-.47-.71-.17l-2.49 1.67a1.18 1.17 51.6 0 0-.2 1.79q.77.8 1.92.37l5.74-2.09q.5-.24.35-.78l-.28-1.06q-.16-.57-.74-.72-1.16-.31-2.26-.64-.34-.11-.58-.04-.32.08-.54.29-.41.39-.01.79.45.43.51 1.14.07.77-.32.1zm14.57-18.02l.13 6.53q-.06 3.17-.49 6.53-.05.39-.28.58-.23.19-.59.33l-1.8-.28a.52.51 20.6 0 0-.51.23q-.25.39.12.7.36.3 1.03.15 1.27-.17 1.58.6-.22.57-.51.55-.79-.54-1.71-.36-.55.1-.51.66l.02.38q-.1.19-.54.24l-.17-1.81q-.35-6.07-.79-11.9c-.22-2.96-2.44-7.13-2.93-11.13l7.95 8zm25.39 1.5l1.06-.88a.34.34 0 0 1 .47.49l-.93 1.02a.34.34 0 0 0-.01.44l.88 1.06a.34.34 0 0 1-.49.47l-1.02-.93a.34.34 0 0 0-.44-.01l-1.06.88a.34.34 0 0 1-.47-.49l.93-1.02a.34.34 0 0 0 .01-.44l-.88-1.06a.34.34 0 0 1 .49-.47l1.02.93a.34.34 0 0 0 .44.01zm-100.3 4.64q-.2-.01-.18-.21v-.01q0-.06.18-.05l4.75.11q.06 0 .07.15h0q0 .23-.2.22l-4.62-.21z"/><g fill="#fff"><path d="M147.62 138.59q.21.14.33.32.28.4-.1.69-1.14.92-1.91 2.16a.51.51 0 0 1-.85.02q-.14-.21-.1-.54l2.63-2.65zm-3.85 5.11l-1.38 1.5-3.64 3.8a.29.28 42.8 0 1-.4.01l-.18-.18q-.17-.15-.01-.32l3.12-3.4 2.76-2.61a.29.27-44.9 0 1 .37-.01l.2.17a.04.04 0 0 1 0 .06l-.84.98zm-6.31 7.47l2.07-2.1q.74-.75 1.23.18 3.87 7.42-1.49 12.99c-3.55 3.69-9.51 3.16-12.93-.4-7.5-7.82 1.82-22.24 11.88-15.37a.54.53 35.8 0 1 .13.76l-2.21 2.94a.69.69 0 0 1-.87.2c-5.96-3-9.81 5.81-4.21 9.04 3.71 2.13 7.9-2.77 6.11-6.59q-.43-.93.29-1.65zm-68-4.85l2.36 19.99a.92.92 0 0 1-.91 1.03l-9.71.03c-.78.06-1.46.16-2.24-.13q-4.83-1.79-9.96-2.37-.92-.11-1.55-.67l-1.91-17.36a.45.45 0 0 1 .45-.5l23.47-.02zm-21.02 6.61a.63.63 0 0 0 .63.56h2.74a.63.63 0 0 0 .62-.72l-.43-3.13a.63.63 0 0 0-.66-.54l-2.62.14a.63.63 0 0 0-.59.69l.31 3zm5.11.02a.58.58 0 0 0 .58.55h2.86a.58.58 0 0 0 .58-.64l-.31-3.22a.58.58 0 0 0-.58-.52l-2.72-.01a.58.58 0 0 0-.58.61l.17 3.23zm8.9-3.18a.68.68 0 0 0-.67-.61l-2.55-.05a.68.68 0 0 0-.69.73l.23 3.02a.68.68 0 0 0 .68.63l2.59.01a.68.68 0 0 0 .68-.74l-.27-2.99zm1.59 3.13a.68.68 0 0 0 .67.59l2.64.02a.68.68 0 0 0 .68-.77l-.37-2.95a.68.68 0 0 0-.65-.59l-2.66-.11a.68.68 0 0 0-.7.77l.39 3.04zm-14.95 5.63a.58.58 0 0 0 .54.52l2.82.14a.58.58 0 0 0 .6-.64l-.36-3.29a.58.58 0 0 0-.59-.52l-2.79.05a.58.58 0 0 0-.57.64l.35 3.1zm5.2.04a.58.58 0 0 0 .55.52l2.82.12a.58.58 0 0 0 .6-.65l-.4-3.35a.58.58 0 0 0-.6-.51l-2.75.14a.58.58 0 0 0-.55.64l.33 3.09zm5.23-.16a.78.78 0 0 0 .74.67l2.38.1a.78.78 0 0 0 .81-.88l-.38-2.88a.78.78 0 0 0-.78-.68l-2.4.04a.78.78 0 0 0-.76.89l.39 2.74zm5.11.12a.68.68 0 0 0 .69.62l2.62-.02a.68.68 0 0 0 .67-.75l-.31-3.02a.68.68 0 0 0-.68-.62l-2.59.02a.68.68 0 0 0-.67.75l.27 3.02zm-13.84 6.45a1.71 1.71 0 0 0 2.8-1.5l-.29-2.53q-.06-.54-.6-.54l-2.62.01q-.52 0-.62.52-.45 2.54 1.33 4.04zm4.14-.82a.68.68 0 0 0 .68.59l2.54-.01a.68.68 0 0 0 .67-.74l-.26-3.01a.68.68 0 0 0-.68-.62h-2.67a.68.68 0 0 0-.68.77l.4 3.02zm5.34-3.74a.58.58 0 0 0-.57.65l.4 3.17a.58.58 0 0 0 .57.51l2.81-.02a.58.58 0 0 0 .57-.64l-.35-3.2a.58.58 0 0 0-.59-.52l-2.84.05zm9.96-12.87l6.08.12.58 6.17a1.77 1.76-2.7 0 0 1.76 1.6l30.42-.02q1.17-.54 1.16-1.92-.03-2.45-1.06-5.32.06.15.11.29l.41-.76 10.71.11q-2.86 6.36-.5 12.76 2.81 6.95 9.94 9.19l1.29 12.25q.18 2.25-.67 3.31-.28.34-.35.77l-.36 2.16q-.23.2-.23.5.01.51.51.65 1.65.47 1.82 2.25a.03.03 0 0 0 .03.03l.26-.06a.28.26-11.6 0 0 .21-.3q-.26-1.57-1.61-2.09c-.53-.2-.83-.49-.99-.98q.42-.92 1.76-1.22 1.27-.63 2 .51a.07.06-57.5 0 0 .12-.03q.02-.13.05-.26.05-.25.3-.24l.51.01a.48.47-73.7 0 1 .39.72q-.55.89-.26 1.78 0 .12-.01.23l.31 2.47q.06.52-.44.7-1.58.56-3.35-.57-2.58.27-5.25.61c-3.49.46-7 1.65-10.56 2.42q-1.28-.54-2.09-2.04l8.39-.28q.98-.03.96-1.01v-.44a.63.63 0 0 0-.63-.62l-11.02.01-5.85-5.91q-.12-.18-.23-.36l13.04-.09a.9.9 0 0 0 .89-.91v-.33q-.01-1.17-1.17-1.15l-15.19.17q-2.66-1.2-5.69-4.23l18.68-.17q4.44 5.7 8.63 1.75c2.26-2.14 2.68-5.55.89-8.04-3.5-4.89-9.78-1.51-9.88 4.11l-21.07.07-6.54-5.15a.77.77 0 0 0-.9-.03q-.78.54-.19 1.49.95 1.54 2.26 3.35l-9.12.17a.89.89 0 0 0-.87.95l.02.33q.08 1.18 1.26 1.17l10.53-.11 3.15 4.1-13.5-.02a.81.81 0 0 0-.82.84l.01.38q.04 1.22 1.25 1.21l14.71-.08 4.62 6.03-18.51.32q-1.2.02-1.13 1.21l.03.43a.86.86 0 0 0 .86.81l21.48.01q1.56 1.12 2.72 3.79l-23.45.01a.99.98 1.6 0 0-.98.92l-.01.27q-.09 1.29 1.21 1.29l22.25.04q.57 0 1-.37.92-.78 1.84-1.14l6.96 7.11-31.57-.01a.93.93 0 0 0-.93.93v.29a1.17 1.16.2 0 0 1.16 1.16l33.53.04q1.88 1.31 3.4 3.92l-36.68.05a.78.77 4.8 0 0-.77.64q-.12.72.26 1.22a1.2 1.19 71.2 0 0 .95.47l38.48-.11 3.83 3.45q.32 1.72-.03 2.98l-41.45-.02q-1.2 0-1.21 1.2v.33a.96.96 0 0 0 .96.96l41.79-.02.04 11.66-40.25.09a.96.95 89.1 0 0-.95.99c.04 1.04.63 1.52 1.67 1.52q19.72.05 39.65-.05l1.92 10.33a1.28 1.27-3.4 0 0 1.18 1.04l1.74.09q.68.04.45.68l-.21.63q-.21.62-.79.3l-1.6-.89a1.03 1.03 0 0 0-1.35.32q-1.5 2.17-3.8 3.17-1.62-.47-3.25-.16-.54-.39-1.04-.37c-7.15.3-15.38-.29-21.34-.29q-10.5.01-21.16-.01l-2.16-10.53q1.29-1.08 5.09-.52a.66.66 0 0 0 .75-.72l-.65-6.76a1.11 1.1 86.9 0 0-1.11-1l-5.73.06c-2.08-4.4-7.76-.77-7.64-5.82q-.78-.88-.98-1.74c-.78-3.25-.43-7.31-.74-10.32q-1.35-12.72-2.68-25.65-.07-.69.56-.99 5.01-2.35 7.49-7.29.23-.46.68-.72c1.69-.98 2.22-3.69 3.1-5.03q.27-.41-.21-.53l-.77-.2q-.35-.09-.51.24l-1.22 2.52a.49.48 50.5 0 1-.9-.09q-.51-1.86-1.72-3.33a.31.31 0 0 1 .24-.5l4.84.01a.65.62-26.5 0 1 .36.11q.25.17.39.41.3.52.42-.07.2-1.03-.92-1.04-2.63-.02-5.32-.11-.46-.01-.84-.28l-5.03-3.54q-.29-.21-.02-.43.11-.1.28-.16l9.63-.09a.9.89 86.8 0 0 .88-.99l-2.08-19.13zm35.31 13.9l-26.3-.03q-1.11 0-1.03 1.1l.09 1.21q.08 1.14 1.22 1.14l26.72-.01q2.08 5.33 7.67 3.38 2.9-1.01 3.45-3.88c1.04-5.43-4.43-9.81-9.24-6.14q-.14.11-.03.26l.01.01q.11.14.25.03c3.92-2.89 9.16.14 8.9 4.48-.45 7.27-11.56 7.71-10.57-1.14q.06-.52-.47-.47l-.67.06zm5.74.29l.06-.41q.05-.37.41-.3l.96.2a.4.4 0 0 0 .36-.68q-.51-.5-1.18-.79-.47-.2-.74.23l-1.08 1.71a.67.67 0 0 0 .23.94l1.68.94q.61.34.16.88l-.16.2q-.23.28-.56.13-.34-.16-.56-.41a.32.32 0 0 0-.56.21q-.04 1.29.39 1.4a2.17 2.17 0 0 0 2.59-2.9q-.27-.64-1.7-.93a.38.37 9.7 0 1-.3-.42zm-37.1 17.52a1.29 1.29 0 0 1-1.28 1.53q-1.57-.02-3.4-.23-.02 0-.02.02l-.02.26q-.02.28.25.28l3.47.04a1.53 1.52 84.2 0 0 1.5-1.84l-.9-4.34q-.03-.13-.27-.08h0q-.15.04-.1.33l.77 4.03zm-6.87 9.65l.04 5.68a1.58 1.58 0 0 0 1.6 1.56l4.95-.04a1.99 1.85 89.5 0 0 1.83-2.01l-.04-4.86a1.99 1.85 89.5 0 0-1.87-1.97l-4.95.04a1.58 1.58 0 0 0-1.56 1.6zm9.4 14.27a1.48 1.48 0 0 0-1.47-1.3l-5.34-.01a1.48 1.48 0 0 0-1.48 1.66l.73 5.89a1.48 1.48 0 0 0 1.47 1.3l5.35.02a1.48 1.48 0 0 0 1.47-1.67l-.73-5.89zm-5.74 21.5a1.19 1.19 0 0 0 1.18 1.07h5.49a1.19 1.19 0 0 0 1.19-1.3l-.58-6.12a1.19 1.19 0 0 0-1.18-1.08l-5.52-.01a1.19 1.19 0 0 0-1.18 1.31l.6 6.13zm37.67 2.702a1.23 1.23 0 0 0-1.228-1.232l-22.44-.039a1.23 1.23 0 0 0-1.232 1.228v.04a1.23 1.23 0 0 0 1.228 1.232l22.44.039a1.23 1.23 0 0 0 1.232-1.228v-.04zm16.13 14.698a1.24 1.24 0 0 0-1.24-1.24h-37a1.24 1.24 0 0 0-1.24 1.24v.06a1.24 1.24 0 0 0 1.24 1.24h37a1.24 1.24 0 0 0 1.24-1.24v-.06zm-60.56-68.29q-1.99-.95-.38.56 4.21 3.94.07 9.05c-8.86 10.94-54.83 5.01-40.06-10.31q1.71-1.78 6.93-3.22 9.94-2.76 21-.72a.64.62 27 0 0 .56-.17q1.05-.98-.06-.89-2.48.2-4.34-1.24-.55-.43.14-.35 5.17.59 9.55 3.18c2.9 1.71 5.53 2.49 8.38 3.88a.47.46 25.4 0 1 .22.61l-.11.24q-.1.23-.34.12l-1.56-.74zm-35.26 11.79q11.98 4 24.01 1.85c3.58-.64 8.89-2.43 10.95-5.49q2.52-3.74-.56-7.01-2.32-2.48-4.17-3.08c-9.93-3.22-21.47-3.97-31.34.01-8.76 3.53-6.82 11.07 1.11 13.72z"/><path d="M120.427 180.868a5.48 5.04 91.6 0 1-4.885-5.619 5.48 5.04 91.6 0 1 5.191-5.337 5.48 5.04 91.6 0 1 4.885 5.619 5.48 5.04 91.6 0 1-5.191 5.337zm-.747-4.808q.64.18 1.19.6.53.42.84-.18.39-.77 1.1-1.13a1.11 1.1 83.6 0 0 .59-.74q.44-1.88-.44-1.23-.18.13-.3.39-.45.95-1.14 1.78-.35.43-.8.1l-.86-.62q-.45-.32-.84.07-.9.9-1.46 2.05a.22.22 0 0 0 .32.27q.59-.39.93-1 .29-.52.87-.36zm30.75 2.18c.21 3.16-2.06 4.82-1.84 7.59q-2.09 1.13-3.93.21c.6-2.66-1.55-3.42-1.85-5.28-.88-5.5 5.36-8.01 7.62-2.52zm-121.4 1.28q-.03.68-.04.74-.38 1.94-1.32.2-.64-1.21-.92-3.21-.06-.39.33-.45l.26-.05a.29.29 0 0 1 .34.26q.19 1.55 1.35 2.51z"/><path d="M29.03 179.52q-.33-1.28.08-2.22a.42.41-37.7 0 1 .79.1l.18 1.15a.35.35 0 0 0 .49.27q.15-.07.27-.18a.63.62-22.6 0 0 .17-.4q.06-.94.75-1.53a.31.3 77.1 0 1 .49.31l-.98 3.96a.36.36 0 0 1-.65.1q-1.11-1.81-1.59-1.56zm8.12-.57a2.24 2.24 0 0 1-4.48 0 2.24 2.24 0 0 1 4.48 0zm-2.04 1.369a1.38 1.2 80 0 0 .942-1.567 1.38 1.2 80 0 0-1.421-1.151 1.38 1.2 80 0 0-.942 1.567 1.38 1.2 80 0 0 1.421 1.151zm4.27-1.549q.66.4.75.81.12.55-.42.72l-1.41.43a.36.36 0 0 1-.45-.43q.37-1.41-.06-2.82-.2-.65.48-.71l.92-.07q.54-.04.64.5.14.73-.58.85-.84.13.13.72zm6.81-1q.08.1.15.22.21.38.04.79-.21.52-.7.37-.56-.17-.62-.75l-.08-.72q-.09-.85-.8-.37-.71.47-.57 1.2.21 1.04.27 1.73a.38.38 0 0 1-.63.32q-.84-.72-1.02-1.8a1.64 1.64 0 0 1 1.84-1.91q1.66.22 3.26-.11a.57.57 0 0 1 .68.55v.44q0 .65-.53.27-.46-.33-.96-.56-.92-.42-.33.33z"/><ellipse cx="0" cy="0" transform="matrix(-.008727 .999962 -.999962 -.008727 49.49 178.94)" rx="2.21" ry=".55"/><path d="M51.34 180.93c-.87-.96-.68-2.93.06-3.88q.55-.7.56.19l.05 3.42a.39.38-66.7 0 1-.67.27zm5.84-1.96a2.2 2.2 0 0 1-4.4 0 2.2 2.2 0 0 1 4.4 0zm-1.13-.38a.97.97 0 0 0-.97-.97h-.28a.97.97 0 0 0-.97.97v.78a.97.97 0 0 0 .97.97h.28a.97.97 0 0 0 .97-.97v-.78zm4.41.55l-1.92 1.38q-1.06.77-.72-.49.34-1.27 0-2.54-.15-.58.44-.72 1.44-.34 2.38.76a1.1 1.1 0 0 1-.18 1.61zm-18.66.2q.15.06.22.2.15.27.07.57-.26.93-.98.91-2-.06-.13-.76.18-.07.33-.63.11-.42-.31-.55l-.79-.25a.45.45 0 0 1-.22-.72q.51-.61 1.23-.99.57-.29.46.34l-.21 1.28q-.07.43.33.6zm53.05-1.91l9 7.21a1.06 1.06 0 0 1 .15 1.51l-2.78 3.3a1.06 1.06 0 0 1-1.66-.06l-7.05-9.49a1.06 1.06 0 0 1 .03-1.3l.83-1.01a1.06 1.06 0 0 1 1.48-.16zm-47.99 2.16q.1-.49.55-.74.41-.24.6.2.42.99-.32 1.76-.36.37-.87.34l-2.33-.17q-.61-.04-.1-.37.81-.51 1.74-.45.61.03.73-.57zm101.48 8.15q-.78 1.86-1.97 1.39-.84-.34-1.43-1.82 3.21-1.66 3.4.43zm-73.024 6.554a1.42 1.42 0 0 1-1.395 1.445l-4.719.082a1.42 1.42 0 0 1-1.445-1.395l-.093-5.299a1.42 1.42 0 0 1 1.395-1.445l4.719-.082a1.42 1.42 0 0 1 1.445 1.395l.093 5.299zm-4.506-2.304l-.74-1.4a.48.47 74.6 0 0-.43-.25l-.25.01a.36.36 0 0 0-.36.4q.26 2.27 1.72 4.01.42.49.79-.03 1.81-2.52 2.62-5.5.12-.44-.34-.44l-.33.01a.85.83 11.7 0 0-.75.48l-1.32 2.7q-.29.61-.61.01zm35.96 5.96q-.54-.05-.98-.66.27-.13.27-.4-.01-.41-.34-.64-.85-.58-.57-1.56a.4.4 0 0 1 .74-.08l.81 1.55q.21.42-.04.81-.4.62.11.98zm13.69 2.16q-.67.1-.96-.15-.93-.81-3.83-3.81l5.49-1.5q1.05-.29 1.37.76l1.2 4.04q.3.98-.73.89l-2.54-.23zm.6.5l4.69.53q.4.05.43.46.14 2.28-.49 4.59l-4.88-4.86q-.24-.24.01-.47.11-.11.24-.25zm26.48 1.41q-1.18.47-2.68.44l1.49-.92q.42-.27.78.08l.41.4zm18.12 4.61q.02-.19-.1-.34-.07-.08-.18-.08-1.33-.05-2.43-.88a1.58 1.55 64 0 0-.87-.31q-1.73-.08-2.58-.48-2.79-1.31.26-.87 4.52.65 9.17 3.46c2.55 1.54 4.94 2.33 7.57 3.35a.49.49 0 0 1 .22.76l-.21.27q-.1.14-.23.03-.82-.66-1.4-.61-.76.06-.3.67c4.98 6.51-1.93 11.53-7.7 13.02q-13.04 3.38-25.64-.3c-6.29-1.83-13.57-6.9-7.16-14q1.97-2.17 8.2-3.66 10.61-2.55 23.3.02a.06.06 0 0 0 .08-.05zm9.888 9.344a21.57 9.55.7 0 0-21.452-9.813 21.57 9.55.7 0 0-21.685 9.286 21.57 9.55.7 0 0 21.452 9.813 21.57 9.55.7 0 0 21.685-9.286zm-33.988-4.394l.79.23a1.74 1.74 0 0 1-.19 3.38q-.95.17-1.85 0-.54-.09-.55-.65l-.03-3.8a.35.35 0 0 1 .54-.3q.31.21.5.52.27.47.79.62zm.65 1.75q-.11-.42-.4-.74-.45-.48-.88.01-.58.66-.14 1.36.17.27.49.34.5.1.77-.25.26-.32.16-.72zm7.48-.17a.27.27 0 0 1-.37-.12l-.08-.16a1.79 1.41 62.6 0 1 .43-2.23l.23-.12a1.79 1.41 62.6 0 1 2.08.94l.08.16a.27.27 0 0 1-.12.36l-2.25 1.17zm-4.62 6.37l-.11 1.66q-.02.26-.27.22l-.27-.05q-.02-.01-.02-.03-.48-3.32.28-6.55.11-.47-.17-.85-.65-.85-.39-2.04a.39.39 0 0 1 .77.09q-.01.7.32 1.31.16.29.47.17.14-.06.22-.22.08-.15.06-.31-.09-1.02.82-1.48a.24.24 0 0 1 .34.28q-.53 2-2.15 4.74-.53.9.27 1.59.32.28.54-.09.53-.87 1.5-1.24a.3.3 0 0 1 .3.5q-1.99 1.79.01 3.76.26.26-.09.37l-.36.11q-.25.08-.39-.14l-1.24-1.91q-.4-.61-.44.11zm10.97-4.88a.73.73 0 0 1-.77.69l-.94-.05a1.77 1.75-86.9 0 1-1.65-1.86l.01-.2a1.77 1.75-86.9 0 1 1.84-1.68l.94.06a.73.73 0 0 1 .69.76l-.12 2.28zm-1.565-.26a.96.83 89.1 0 0 .815-.973.96.83 89.1 0 0-.845-.947.96.83 89.1 0 0-.815.973.96.83 89.1 0 0 .845.947zm4.495-1.69q-.02-.28-.28-.17l-.53.22a.22.2 80.3 0 0-.13.2q.05 1.15-.4 2.2a.32.32 0 0 1-.62-.13v-2.71a.66.65.9 0 1 .68-.65l3.55.1a.74.73 85.7 0 1 .71.62q.23 1.35-.17 2.61-.28.86-.61.02-.35-.9-.13-1.98a.32.32 0 0 0-.17-.35l-.3-.14q-.38-.18-.45.23l-.42 2.41q-.03.16-.08.16l-.29-.01q-.16-.01-.17-.17l-.19-2.46zm7.067 1.586a.97.97 0 0 1-.973.967l-1.2-.004a.97.97 0 0 1-.967-.973l.006-1.74a.97.97 0 0 1 .973-.967l1.2.004a.97.97 0 0 1 .967.973l-.006 1.74zm-.907-1.306q-.01-.21-.1-.3a.72.59 45.8 0 0-.97-.11l-.31.32a.85.85 0 0 0 .23 1.33q.82.43 1.1-.13.2-.4.09-.81-.04-.16-.04-.3zm3.11.17l-.55 1.88a.33.33 0 0 1-.64-.08l-.06-2.43q-.01-.6.54-.84.34-.16.75-.16.84.01.44.74l-.43.77a1 .66-33.7 0 0-.05.12zm-17.38.59q.04-.4.57-.7.29-.17.58.01.22.13.38.43a.73.73 0 0 1-.12.87q-1.78 1.82-3.18.38a.45.44-15 0 1 .43-.74l.74.19q.55.14.6-.44zm1.73 4.76q.56-.61 1.42-.55.68.06.16.5-1 .85-.73 2.16a.43.42 81.3 0 1-.37.51l-3.38.38a1.53 1.53 0 0 1-1.69-1.68c.23-2.25 2.63-2.75 3.91-1.32q.34.37.68 0zm-1.63.9q-.45-.64-1.24-.67-.82-.02-.81.81l.01.33q.02.58.6.59l3.04.03a.36.36 0 0 0 .35-.27l.07-.29q.08-.33-.22-.48-.5-.25-.95.08a.6.6 0 0 1-.85-.13zm7.18 1.16a.94.93-88.5 0 1-.95.91l-1.11-.01a1.16 1.16 0 0 1-1.11-1.43q.21-.88-.03-1.74a.34.34 0 0 1 .33-.43l2.4.01q.55 0 .53.55l-.06 2.14zm-1.86-.05a.43.42-39 0 0 .53.05q.55-.38.58-1.14a.74.74 0 0 0-1.36-.45q-.53.77.25 1.54zm5.73-1.46q-.26.9-.14 1.85.04.26-.19.4-.26.17-.35.08a1.26.1 83.9 0 1-.21-1.13l-.14-1.21a.48.48 0 0 0-.92-.11q-.38 1.01-.25 2.07a.31.31 0 0 1-.31.35l-.3-.01a.2.19-88.6 0 1-.19-.21l.11-2.63q.03-.61.63-.6l3.53.02q.59.01.72.58.32 1.33.02 2.67-.05.23-.27.16l-.46-.12q-.32-.09-.2-.4.37-.95-.14-1.87a.52.51-51.4 0 0-.94.11zm-29.85 5.08l2.05 2.23c.49 4 2.71 8.17 2.93 11.13q.44 5.83.79 11.9-.68 3.15-5.9 2.85l.13-28.11zm-4.63 12.74l2.53 5.63q.04.07-.04.1l-.25.08q-.1.03-.21-.21l-2.42-5.33q-.04-.1.05-.16l.21-.14q.09-.07.13.03zm-67.14 4.5q-.02-.14-.03-.28 1.99-.63 4.31-.26.58.09.75.65l.39 1.25a.58.57 80.9 0 1-.54.75l-3.44.05q-.44 0-.73-.34-.54-.63-.71-1.82zm80.54 6.96q.16.79-1.16.8-.67.15-1.03-.15-.37-.31-.12-.7a.52.51 20.6 0 1 .51-.23l1.8.28z"/></g><g fill="#096"><rect x="36.74" y="13.29" width="2.14" height="12.58" rx=".78"/><path d="M48.24 17.5l.03-3.53q.01-.76.76-.68l.48.04a.95.94-87.6 0 1 .85.93L50.39 25q0 .64-.64.73l-.78.12a.64.63 86.1 0 1-.72-.63l.01-3.2q0-.93-.69-1.57l-3.56-3.26q-.76-.7-.76.33l.01 7.25q0 .95-.94 1.03l-.42.04q-.9.08-.9-.83V14.39a1.16 1.16 0 0 1 1.91-.88l4.89 4.19q.43.37.44-.2zm9.02-1.66l-.01 9.49a.43.43 0 0 1-.39.43l-1.37.13a.43.43 0 0 1-.47-.43l-.03-9.77a.43.43 0 0 0-.48-.43l-2.1.27a.43.43 0 0 1-.46-.26l-.53-1.29a.43.43 0 0 1 .4-.59l8.51-.01a.43.43 0 0 1 .42.5l-.2 1.2a.43.43 0 0 1-.43.36l-2.43-.03a.43.43 0 0 0-.43.43zm6.93.04l-.16 1.64a.42.42 0 0 0 .41.46l4.78.09a.42.42 0 0 1 .41.42v1.08a.42.42 0 0 1-.42.42h-4.66a.42.42 0 0 0-.42.42l-.01 2.94a.42.42 0 0 0 .42.42l4.94-.05a.42.42 0 0 1 .43.41l.04 1.18a.42.42 0 0 1-.42.44h-7.09a.42.42 0 0 1-.42-.42l-.03-11.52a.42.42 0 0 1 .42-.42l6.91-.02a.42.42 0 0 1 .42.42l.01 1.3a.42.42 0 0 1-.42.42l-4.72-.01a.42.42 0 0 0-.42.38zm9.87 5.77l-.1 3.43a.76.76 0 0 1-.79.74l-.43-.02q-1.01-.04-1-1.06l.01-10.72q0-.47.47-.53 2.57-.35 4.68.12c3.61.79 3.18 5.34 1.07 7.31q-.37.35-.14.81l1.66 3.24q.39.75-.46.77l-.7.02q-.75.02-1.12-.63l-2.12-3.73a.55.55 0 0 0-1.03.25zm-.04-5.59L74 18.8a.63.63 0 0 0 .63.63h.3a2.55 1.88.4 0 0 2.56-1.86v-.24a2.55 1.88.4 0 0-2.54-1.9h-.3a.63.63 0 0 0-.63.63zm15 .25c-8.38-5.8-7.25 12.9.3 6.27a.64.64 0 0 1 .97.15l.25.39q.54.87-.29 1.48c-3.08 2.28-7.33 1.73-8.78-2.05-1.72-4.45.27-9.55 5.77-9.24q1.95.11 3.12 1.51a.72.71 44.7 0 1 .01.9l-.36.45q-.43.53-.99.14zm11.11-2.99l.35.07q.78.17.78.96v7.57a4.06 4.05-89.1 0 1-4.18 4.06l-1.15-.04a3.3 3.3 0 0 1-3.21-3.25l-.14-8.59q-.02-.79.77-.8h.45q.9-.01.92.89l.1 7.77a1.88 1.88 0 0 0 2.14 1.83l.62-.08a1.81 1.81 0 0 0 1.56-1.79l-.01-7.79a.83.83 0 0 1 1-.81zm5.91 10.43h4.13a.43.43 0 0 1 .42.37l.16 1.14a.43.43 0 0 1-.42.49h-6.41a.43.43 0 0 1-.43-.43l.02-11.48a.43.43 0 0 1 .39-.43l1.27-.12a.43.43 0 0 1 .47.43l-.03 9.6a.43.43 0 0 0 .43.43zm8.02-8.41l-2.59.09a.43.43 0 0 1-.45-.42l-.04-1.2a.43.43 0 0 1 .43-.45l8.35.04a.43.43 0 0 1 .42.49l-.17 1.16a.43.43 0 0 1-.43.37l-2.53-.04a.43.43 0 0 0-.44.43l.02 9.53a.43.43 0 0 1-.44.43l-1.27-.03a.43.43 0 0 1-.42-.43v-9.54a.43.43 0 0 0-.44-.43zm11.03 8.35l.68.08a1.81 1.81 0 0 0 2.04-1.79l.05-7.77q.01-.92.93-.93l.44-.01q.99-.01.96.97l-.21 8.22a3.5 3.5 0 0 1-3.08 3.39l-1.17.14a3.83 3.83 0 0 1-4.29-3.77l-.08-8.26q0-.7.69-.65l.97.08a.63.63 0 0 1 .59.63l.02 8.02a1.68 1.67-86.7 0 0 1.46 1.65zm9.22-1.08q-.16.64.11 2.25a.74.74 0 0 1-.67.86l-.7.06q-.79.07-.79-.73V14.01q0-.51.5-.58c2.43-.33 5.54-.38 6.8 2.14q1.43 2.86-1.39 5.35a.58.57 50.7 0 0-.07.78q1.28 1.62 1.9 3.57.17.56-.41.65l-.4.06a1.57 1.56-17 0 1-1.63-.86l-1.31-2.62q-1.26-2.54-1.94.11zm.03-6.77l.02 3.26a.34.34 0 0 0 .34.34l1.15-.01a2.03 1.82-.3 0 0 2.02-1.83v-.3a2.03 1.82-.3 0 0-2.04-1.81l-1.15.01a.34.34 0 0 0-.34.34zm13.56 6.91h-3.44a.74.73-82.9 0 0-.71.56q-.33 1.35-1.22 2.42a.82.81 62.7 0 1-1.44-.46q-.04-.56.21-1.25 1.85-4.96 2.9-8 2.15-6.21 4.23.02l2.97 8.89q.26.79-.57.82l-.54.02q-.8.03-1.05-.73l-.59-1.75a.79.79 0 0 0-.75-.54zm-.17-2.34l-1.14-3.65q-.26-.82-.54-.01l-1.21 3.42q-.17.49.34.48h2.37q.25 0 .18-.24zm7.71 3.36l4.1-.05a.43.43 0 0 1 .43.43l.02 1.17a.43.43 0 0 1-.43.43h-6.25a.43.43 0 0 1-.43-.43l-.04-11.57a.43.43 0 0 1 .39-.43l1.27-.12a.43.43 0 0 1 .47.42l.04 9.72a.43.43 0 0 0 .43.43zm-7.36 114.34q-.51.12-.46.48l-2.63 2.65q-.59-.99-1.44-.8c-.84-1.84 1.42-3.62 2.54-4.62q.77-.69.89.34.18 1.68 1.1 1.95zm-82.5 3.75q-1.08 1.14-3.23.7-.39-.08-.59.26-.09.15-.22.26-.29.22-.45-.11-.37-.78-1.01-1.33-.55-.48-.63.25-.11.94-1.01 1.4-.5.26-.55-.3-.05-.44-.35-.83-.3-.39-.79-.39l-6.1-.07q-.51-.01-.92.29-.42.31-.77-.03-.34-.34-.83-.33l-2.6.07q1.66-3.55 4.81-.42a.48.48 0 0 0 .81-.4q-.03-.22-.02-.42.03-.42.4-.23l1.41.71q.56.29.9-.24l.3-.46q.38-.59.81-.04.45.58 1.48.6a.65.65 0 0 0 .46-.19l.38-.39q.32-.31.67-.05.6.47 1.38.47.54 0 .7-.52.1-.34.61-.28a.8.79-15.6 0 1 .52.29q.58.74 1.42 1.15.42.22.77-.11.24-.22.31-.54.07-.31-.16-.51-.26-.23-.28-.51-.02-.36.23-.09l2.14 2.34zm75.7 3.25l-3.12 3.4q-.16.17.01.32l.18.18a.29.28 42.8 0 0 .4-.01l3.64-3.8q.06.48.77.29.49-.14.77.29c5.86 8.91 1.89 22.83-10.17 23.52-6.44.36-11.38-3.25-13.51-9.08q-2.29-7.41 1.47-13.71c4.06-6.81 13.52-8.67 19.67-3.38q.38.33.13.77-.39.66-.24 1.21zm-3.82 6.06q-.72.72-.29 1.65c1.79 3.82-2.4 8.72-6.11 6.59-5.6-3.23-1.75-12.04 4.21-9.04a.69.69 0 0 0 .87-.2l2.21-2.94a.54.53 35.8 0 0-.13-.76c-10.06-6.87-19.38 7.55-11.88 15.37 3.42 3.56 9.38 4.09 12.93.4q5.36-5.57 1.49-12.99-.49-.93-1.23-.18l-2.07 2.1zm-2.25.42l-2.23 2.86q-.29.38.15.21 2.04-.77 2.57-2.82.35-1.34-.49-.25zm11.47-9.42q.42-.31 1-.45a.31.31 0 0 1 .31.5q-.56.7-1.48.81a.37.37 0 0 1-.41-.43q.06-.37.58-.43zm-79.78 2.08q-.35.75-1.16.3-.2-.11.02-.17.99-.3 1.63-1.12.06-.07.11-.02.03.03.06.07.06.06.03.15-.12.3-.37.45-.21.12-.32.34zm-3.55-.22q.36-.33.8-.36.25-.01.07.16l-.87.88q-.17.17-.42.17h-.31q-.17 0 .13-.63.08-.17.25-.13.2.05.35-.09zm-9.8 8.92l-.17-3.23a.58.58 0 0 1 .58-.61l2.72.01a.58.58 0 0 1 .58.52l.31 3.22a.58.58 0 0 1-.58.64h-2.86a.58.58 0 0 1-.58-.55zm58.03 9.21q1.43.29 1.7.93a2.17 2.17 0 0 1-2.59 2.9q-.43-.11-.39-1.4a.32.32 0 0 1 .56-.21q.22.25.56.41.33.15.56-.13l.16-.2q.45-.54-.16-.88l-1.68-.94a.67.67 0 0 1-.23-.94l1.08-1.71q.27-.43.74-.23.67.29 1.18.79a.4.4 0 0 1-.36.68l-.96-.2q-.36-.07-.41.3l-.06.41a.38.37 9.7 0 0 .3.42zm-64.13 2.04q.63.56 1.55.67 5.13.58 9.96 2.37c.78.29 1.46.19 2.24.13q.49.11.6.39-.17.06-.28.16-.27.22.02.43l5.03 3.54q.38.27.84.28 2.69.09 5.32.11 1.12.01.92 1.04-.12.59-.42.07-.14-.24-.39-.41a.65.62-26.5 0 0-.36-.11l-4.84-.01a.31.31 0 0 0-.24.5q1.21 1.47 1.72 3.33a.49.48 50.5 0 0 .9.09l1.22-2.52q.16-.33.51-.24l.77.2q.48.12.21.53c-.88 1.34-1.41 4.05-3.1 5.03q-.45.26-.68.72-2.48 4.94-7.49 7.29-.63.3-.56.99 1.33 12.93 2.68 25.65c.31 3.01-.04 7.07.74 10.32q.2.86.98 1.74-1.3 3.5-3.75 3.14-.21-1.22 0-2.51l1.92-.28q.44-.07.32-.49-.59-2.19-2.81-2.29l-3.46-33.85q-.04-.44-.48-.35l-6.65 1.44q-.54.12-.61.66-1.08 8.28.33 16.56.04.18-.16.22h-.01q-.22.04-.26-.18-1.58-8.16-.5-16.36.12-.84-.73-.73l-1.79.24q-.8.11-.86.91-.52 7.68.03 10.62 1 5.43 2.05 10.84.04.21-.17.25h-.01q-.21.04-.26-.17-.31-1.57-.74-3.11c-.51-1.79-.5-3.88-1.12-5.79-1.15-3.54-.54-9.18-.52-12.98q0-.54-.54-.52l-.76.03c-7.51-.06-23.84-2.88-25.34-12.47-.69-4.46 2.67-8.21 6.42-10.22q10.05-5.37 21.67-4.36.58-.51.94-.54zm16.76 9.59l1.56.74q.24.11.34-.12l.11-.24a.47.46 25.4 0 0-.22-.61c-2.85-1.39-5.48-2.17-8.38-3.88q-4.38-2.59-9.55-3.18-.69-.08-.14.35 1.86 1.44 4.34 1.24 1.11-.09.06.89a.64.62 27 0 1-.56.17q-11.06-2.04-21 .72-5.22 1.44-6.93 3.22c-14.77 15.32 31.2 21.25 40.06 10.31q4.14-5.11-.07-9.05-1.61-1.51.38-.56z"/><path d="M28.95 185.58c-7.93-2.65-9.87-10.19-1.11-13.72 9.87-3.98 21.41-3.23 31.34-.01q1.85.6 4.17 3.08 3.08 3.27.56 7.01c-2.06 3.06-7.37 4.85-10.95 5.49q-12.03 2.15-24.01-1.85zm.08-6.06q.48-.25 1.59 1.56a.36.36 0 0 0 .65-.1l.98-3.96a.31.3 77.1 0 0-.49-.31q-.69.59-.75 1.53a.63.62-22.6 0 1-.17.4q-.12.11-.27.18a.35.35 0 0 1-.49-.27l-.18-1.15a.42.41-37.7 0 0-.79-.1q-.41.94-.08 2.22-1.16-.96-1.35-2.51a.29.29 0 0 0-.34-.26l-.26.05q-.39.06-.33.45.28 2 .92 3.21.94 1.74 1.32-.2.01-.06.04-.74zm8.12-.57a2.24 2.24 0 0 0-4.48 0 2.24 2.24 0 0 0 4.48 0zm2.1-.9q.72-.12.58-.85-.1-.54-.64-.5l-.92.07q-.68.06-.48.71.43 1.41.06 2.82a.36.36 0 0 0 .45.43l1.41-.43q.54-.17.42-.72-.09-.41-.75-.81-.97-.59-.13-.72zm7.27-.61q.5.23.96.56.53.38.53-.27v-.44a.57.57 0 0 0-.68-.55q-1.6.33-3.26.11a1.64 1.64 0 0 0-1.84 1.91q.18 1.08 1.02 1.8a.38.38 0 0 0 .63-.32q-.06-.69-.27-1.73-.14-.73.57-1.2.71-.48.8.37l.08.72q.06.58.62.75.49.15.7-.37.17-.41-.04-.79-.07-.12-.15-.22-.59-.75.33-.33zm2.951 3.71a2.21.55 90.5 0 0 .569-2.205 2.21.55 90.5 0 0-.531-2.215 2.21.55 90.5 0 0-.569 2.205 2.21.55 90.5 0 0 .531 2.215zm1.929-4.1c-.74.95-.93 2.92-.06 3.88a.39.38-66.7 0 0 .67-.27l-.05-3.42q-.01-.89-.56-.19zm5.78 1.92a2.2 2.2 0 0 0-4.4 0 2.2 2.2 0 0 0 4.4 0zm1.36 1.55l1.92-1.38a1.1 1.1 0 0 0 .18-1.61q-.94-1.1-2.38-.76-.59.14-.44.72.34 1.27 0 2.54-.34 1.26.72.49zm-17.07-1.78l.21-1.28q.11-.63-.46-.34-.72.38-1.23.99a.45.45 0 0 0 .22.72l.79.25q.42.13.31.55-.15.56-.33.63-1.87.7.13.76.72.02.98-.91.08-.3-.07-.57-.07-.14-.22-.2-.4-.17-.33-.6zm4.66 1.42q-.93-.06-1.74.45-.51.33.1.37l2.33.17q.51.03.87-.34.74-.77.32-1.76-.19-.44-.6-.2-.45.25-.55.74-.12.6-.73.57z"/><ellipse cx="0" cy="0" transform="matrix(.173648 .984808 -.984808 .173648 34.87 178.96)" rx="1.38" ry="1.2"/><rect x="53.83" y="177.62" width="2.22" height="2.72" rx=".97"/><path d="M131.51 187.04l-.58-.06q-.63-.06-.17-.49l.91-.88q.4-.38.71.08.08.12.11.27.04.25-.21.27-.9.09-.77.81zm-60.09 4.94l1.32-2.7a.85.83 11.7 0 1 .75-.48l.33-.01q.46 0 .34.44-.81 2.98-2.62 5.5-.37.52-.79.03-1.46-1.74-1.72-4.01a.36.36 0 0 1 .36-.4l.25-.01a.48.47 74.6 0 1 .43.25l.74 1.4q.32.6.61-.01zm76.53 9.92q.1-.36-.41.12l-.41-.4q-.36-.35-.78-.08l-1.49.92q-8.84 1.64-14.6 7.95-.38.42-.75 0l-3.82-4.22q.63-2.31.49-4.59-.03-.41-.43-.46l-4.69-.53q-.37-.21-.6-.5l2.54.23q1.03.09.73-.89l-1.2-4.04q-.32-1.05-1.37-.76l-5.49 1.5q-.05-.73-.35-.76c3.56-.77 7.07-1.96 10.56-2.42q2.67-.34 5.25-.61 1.72 2.84 4.87-.07c5.72-1.52 8.1 2.02 10.86 6.07q1.19 1.75 1.09 3.54zm-8.01.435a1.4.27 63.7 0 0-.378-1.375 1.4.27 63.7 0 0-.862-1.135 1.4.27 63.7 0 0 .378 1.375 1.4.27 63.7 0 0 .862 1.136zm-94.2 37.345a1.33 1.32 71 0 0 .67-1.39c-.36-2.17-.19-4.18-.34-6.36q-.04-.68.31-1.13a1.07 1.07 0 0 1 1.79.15c.69 1.33 1.13 2.35 1.25 3.98.12 1.7.74 3.27.96 4.77q.99 6.89 2.37 13.87a1.84 1.84 0 0 1-2.36 2.12c-1.91-.59-3.84 1.08-5.81-.56a1.09 1.09 0 0 1-.39-.97c.49-4.06 1.3-8.7.6-12.41q-.27-1.4.95-2.07zm82.17 12.6q-.06-.71-.51-1.14-.4-.4.01-.79.22-.21.54-.29.24-.07.58.04 1.1.33 2.26.64.58.15.74.72l.28 1.06q.15.54-.35.78c-1.91.91-3.79 1.36-5.74 2.09q-1.15.43-1.92-.37a1.18 1.17 51.6 0 1 .2-1.79l2.49-1.67q.44-.3.71.17l.39.65q.39.67.32-.1zm12.93-2q1.41 2.15 1.68 4.69a.26.26 0 0 1-.26.29l-3.71.01q-.25 0-.23-.24l.32-4.07-.02-.38q-.04-.56.51-.66.92-.18 1.71.36z"/></g><g fill="#99f"><path d="M128.16 140.17q-5.87 3.18-7.76 7.65l-10.71-.11c.11-3.72-2.03-3.36-5.03-3.38q-2.59-.02-5.3.29.43-.17-.52-.04c-.88-1.36-.24-3.38-1.51-4.74q-.23-1.19-1.14-2.13-.06-.46.58-.55 2.86-.44 5.69-.9 13.93-2.28 25.7 3.91z"/><ellipse cx="0" cy="0" transform="matrix(.575005 .81815 -.81815 .575005 92.35 142.01)" rx="2.3" ry="2.05"/><path d="M86.59 140.15l.1 4.34q-4.24-.1-8.4-.02-1.48.03-1.92.74-.54.88-.06 2.46l-6.08-.12q.01-.79-.18-.4 7.68-5.43 16.54-7zm-38.15 12.78l-.31-3a.63.63 0 0 1 .59-.69l2.62-.14a.63.63 0 0 1 .66.54l.43 3.13a.63.63 0 0 1-.62.72h-2.74a.63.63 0 0 1-.63-.56zm14.01-3.16l.27 2.99a.68.68 0 0 1-.68.74l-2.59-.01a.68.68 0 0 1-.68-.63l-.23-3.02a.68.68 0 0 1 .69-.73l2.55.05a.68.68 0 0 1 .67.61zm1.59 3.13l-.39-3.04a.68.68 0 0 1 .7-.77l2.66.11a.68.68 0 0 1 .65.59l.37 2.95a.68.68 0 0 1-.68.77l-2.64-.02a.68.68 0 0 1-.67-.59zm-14.95 5.63l-.35-3.1a.58.58 0 0 1 .57-.64l2.79-.05a.58.58 0 0 1 .59.52l.36 3.29a.58.58 0 0 1-.6.64l-2.82-.14a.58.58 0 0 1-.54-.52zm5.2.04l-.33-3.09a.58.58 0 0 1 .55-.64l2.75-.14a.58.58 0 0 1 .6.51l.4 3.35a.58.58 0 0 1-.6.65l-2.82-.12a.58.58 0 0 1-.55-.52zm5.23-.16l-.39-2.74a.78.78 0 0 1 .76-.89l2.4-.04a.78.78 0 0 1 .78.68l.38 2.88a.78.78 0 0 1-.81.88l-2.38-.1a.78.78 0 0 1-.74-.67zm5.11.12l-.27-3.02a.68.68 0 0 1 .67-.75l2.59-.02a.68.68 0 0 1 .68.62l.31 3.02a.68.68 0 0 1-.67.75l-2.62.02a.68.68 0 0 1-.69-.62zm-13.84 6.45q-1.78-1.5-1.33-4.04.1-.52.62-.52l2.62-.01q.54 0 .6.54l.29 2.53a1.71 1.71 0 0 1-2.8 1.5zm4.14-.82l-.4-3.02a.68.68 0 0 1 .68-.77h2.67a.68.68 0 0 1 .68.62l.26 3.01a.68.68 0 0 1-.67.74l-2.54.01a.68.68 0 0 1-.68-.59zm5.34-3.74l2.84-.05a.58.58 0 0 1 .59.52l.35 3.2a.58.58 0 0 1-.57.64l-2.81.02a.58.58 0 0 1-.57-.51l-.4-3.17a.58.58 0 0 1 .57-.65zm45.27 1.03q1.32 1.23.7 3.41l-26.72.01q-1.14 0-1.22-1.14l-.09-1.21q-.08-1.1 1.03-1.1l26.3.03zm35.11 7.28l5.2 5.42q.35.37-.13.56c-3.36 1.33-3.07 3.07-3.21 6.23q-.03.52.28.94 1.3 1.81 1.87 4.16-.01.88.28 1.27.59 1.48 1.43 1.82 1.19.47 1.97-1.39.43-.67.25-1.91.53-2.29 2.1-4.18 4.55 9.29 4.51 19.86-1.33.42-2.48-.1l-.06-2.84q-.01-.15-.17-.14h0q-.16.01-.15.16l.08 2.92-4.47.39q.1-1.79-1.09-3.54c-2.76-4.05-5.14-7.59-10.86-6.07q-1.07-.87-1.39-2.53.01-.11.01-.23c2.36-2.38 3.96-4.97-.41-6.54q-1.44-.52-3.08-.97l-1.29-12.25c3.77.17 6.91.55 10.81-1.04zm-.67 5.72q.18.14.39.25a.25.25 0 0 0 .32-.35q-.55-.92-1.54-1.04a.12.12 0 0 0-.11.19l.2.27q.13.18.74.68zm-51.37 1.13q.81.61 1.82 2.51l-10.53.11q-1.18.01-1.26-1.17l-.02-.33a.89.89 0 0 1 .87-.95l9.12-.17zm26.44.27l.36 2.18-18.68.17-2.75-2.28 21.07-.07zm-21.47 6.34q.74.6 1.65 2.33l-14.71.08q-1.21.01-1.25-1.21l-.01-.38a.81.81 0 0 1 .82-.84l13.5.02zm11.27 2.55q-1.28-.62-2.43-2.31l15.19-.17q1.16-.02 1.17 1.15v.33a.9.9 0 0 1-.89.91l-13.04.09zm-43.87 39.32l-6.83.15a1.58 1.58 0 0 0-1.51 1.27l-.09.43a.8.79-83.5 0 0 .75.95l8.25.26q-.21 1.29 0 2.51l-6.72.11q-2.3.04-2.24-2.26.03-1.24-1.36-1.55-.66-.43-.77-.65-7.66-15.82-6.7-33.49l.76-.03q.54-.02.54.52c-.02 3.8-.63 9.44.52 12.98.62 1.91.61 4 1.12 5.79q.43 1.54.74 3.11.05.21.26.17h.01q.21-.04.17-.25-1.05-5.41-2.05-10.84-.55-2.94-.03-10.62.06-.8.86-.91l1.79-.24q.85-.11.73.73-1.08 8.2.5 16.36.04.22.26.18h.01q.2-.04.16-.22-1.41-8.28-.33-16.56.07-.54.61-.66l6.65-1.44q.44-.09.48.35l3.46 33.85zm38.87-33.51q.45-.11.17-.1l2.56 2.88-21.48-.01a.86.86 0 0 1-.86-.81l-.03-.43q-.07-1.19 1.13-1.21l18.51-.32zm13.38 2.8q-1.49-.79-2.3-2.34l11.02-.01a.63.63 0 0 1 .63.62v.44q.02.98-.96 1.01l-8.39.28zm-7.93 3.77q-.1-.45.49.17.44.61.98.66.28.08.39.19-.92.36-1.84 1.14-.43.37-1 .37l-22.25-.04q-1.3 0-1.21-1.29l.01-.27a.99.98 1.6 0 1 .98-.92l23.45-.01zm-35.67 12.25l-.79-5.58a1.2 1.2 0 0 1 1.2-1.37l4.97.02a1.2 1.2 0 0 1 1.18 1.03l.79 5.57a1.2 1.2 0 0 1-1.19 1.37l-4.97-.01a1.2 1.2 0 0 1-1.19-1.03zm44.49-4.12l2.19 2.41-33.53-.04a1.17 1.16.2 0 1-1.16-1.16v-.29a.93.93 0 0 1 .93-.93l31.57.01zm5.59 6.33q.75-.37 2.24 2.27l-38.48.11a1.2 1.19 71.2 0 1-.95-.47q-.38-.5-.26-1.22a.78.77 4.8 0 1 .77-.64l36.68-.05zm-48.74 13.1l-.6-6.13a1.19 1.19 0 0 1 1.18-1.31l5.52.01a1.19 1.19 0 0 1 1.18 1.08l.58 6.12a1.19 1.19 0 0 1-1.19 1.3h-5.49a1.19 1.19 0 0 1-1.18-1.07zm54.78-4.4l.09 2.45-41.79.02a.96.96 0 0 1-.96-.96v-.33q.01-1.2 1.21-1.2l41.45.02z"/><rect x="-12.45" y="-1.25" transform="matrix(.999998 .001745 -.001745 .999998 96.19 227.38)" width="24.9" height="2.5" rx="1.23"/><path d="M151.11 228.7q-.32 1.3-1.42 2.56l-2.27-2.49q-.48-.52.22-.44l3.47.37zm-76.52 12.55l-1.65-8.94 5.73-.06a1.11 1.1 86.9 0 1 1.11 1l.65 6.76a.66.66 0 0 1-.75.72q-3.8-.56-5.09.52zm51.29-6.86l.12 2.55q-19.93.1-39.65.05c-1.04 0-1.63-.48-1.67-1.52a.96.95 89.1 0 1 .95-.99l40.25-.09zm16.28-.03l3.31 3.42q-1.22 1.86-3.18 3.11l-.13-6.53z"/><rect x="85.29" y="240.84" width="39.48" height="2.54" rx="1.24"/><path d="M123.54 252.61q-.23.56-.37.13-17.93 6.68-36.68 2.06-2.19-.54-4.39-1.83 2.81-.34 5.52-.26c10.7.34 21.42-.01 32.13.16q.28.01.54-.42 1.63-.31 3.25.16z"/></g><g fill="#f60"><path d="M97.33 139.84l1.31 11.66a.66.66 0 0 1-.65.74l-9.18.04a1.1 1.09-.5 0 1-1.1-1.07q-.06-3.6-.52-7.35c-.44-3.59-.03-6.92 4.06-7.38q3.54-.4 6.08 3.36zm-3.657 4.052a2.3 2.05 54.9 0 0 .355-3.06 2.3 2.05 54.9 0 0-3-.703 2.3 2.05 54.9 0 0-.355 3.06 2.3 2.05 54.9 0 0 3 .703zM45.53 141.7l2.6-.07q.49-.01.83.33.35.34.77.03.41-.3.92-.29l6.1.07q.49 0 .79.39.3.39.35.83.05.56.55.3.9-.46 1.01-1.4.08-.73.63-.25.64.55 1.01 1.33.16.33.45.11.13-.11.22-.26.2-.34.59-.26 2.15.44 3.23-.7-.15-.35.88-.01.15.2.39.36.43.29.94.17.78-.18 1.24.42.31.4.33.9l.1 2.62-23.47.02a.45.45 0 0 0-.45.5l1.91 17.36q-.36.03-.94.54l-.71-8.97q-.03-.46-.23-.87-.59-1.23-.65-2.66-.17-4.45-1.05-8.85-.11-.51.25-.89.52-.56 1.41-.8zm21.69 2.21q.25-.15.37-.45.03-.09-.03-.15-.03-.04-.06-.07-.05-.05-.11.02-.64.82-1.63 1.12-.22.06-.02.17.81.45 1.16-.3.11-.22.32-.34zm-4.22.21q-.17-.04-.25.13-.3.63-.13.63h.31q.25 0 .42-.17l.87-.88q.18-.17-.07-.16-.44.03-.8.36-.15.14-.35.09zm23.69.37l.6 6.78a1.64 1.63-2.5 0 0 1.63 1.49l9.03-.02a1.32 1.31 81.1 0 0 1.25-1.72q-.99-3.14-.36-6.44.95-.13.52.04 3.01.28 7.14.02 3.11-.2 2.78 3.83-.05-.14-.11-.29.73 4.43-.1 7.24l-30.42.02a1.77 1.76-2.7 0 1-1.76-1.6l-.58-6.17q-.48-1.58.06-2.46.44-.71 1.92-.74 4.16-.08 8.4.02zm18.39 40.61l5.85 5.91q.81 1.55 2.3 2.34.81 1.5 2.09 2.04.3.03.35.76 2.9 3 3.83 3.81.29.25.96.15.23.29.6.5-.13.14-.24.25-.25.23-.01.47l4.88 4.86 3.82 4.22q.37.42.75 0 5.76-6.31 14.6-7.95 1.5.03 2.68-.44.51-.48.41-.12l4.47-.39q-.33-.19.3-.1 1.15.52 2.48.1c7.56.57 14.92 1.83 20.81 6.69 6.18 5.11 3.69 12.13-2.39 15.86-6.35 3.89-15.19 5.14-22.51 4.64l-3.47-.37q-.7-.08-.22.44l2.27 2.49 3.4 3.72q1.51 1.65.02 3.31l-1.93 2.15q-1.48 1.65-3.02.07l-2.69-2.73-3.31-3.42-7.95-8-2.05-2.23-6.38-6.83-3.83-3.45q-1.49-2.64-2.24-2.27-1.52-2.61-3.4-3.92l-2.19-2.41-6.96-7.11q-.11-.11-.39-.19-.51-.36-.11-.98.25-.39.04-.81l-.81-1.55a.4.4 0 0 0-.74.08q-.28.98.57 1.56.33.23.34.64 0 .27-.27.4-.59-.62-.49-.17-1.16-2.67-2.72-3.79l-2.56-2.88q3.21-1.77 5.06-5.35zm60.58 21.53a.06.06 0 0 1-.08.05q-12.69-2.57-23.3-.02-6.23 1.49-8.2 3.66c-6.41 7.1.87 12.17 7.16 14q12.6 3.68 25.64.3c5.77-1.49 12.68-6.51 7.7-13.02q-.46-.61.3-.67.58-.05 1.4.61.13.11.23-.03l.21-.27a.49.49 0 0 0-.22-.76c-2.63-1.02-5.02-1.81-7.57-3.35q-4.65-2.81-9.17-3.46-3.05-.44-.26.87.85.4 2.58.48a1.58 1.55 64 0 1 .87.31q1.1.83 2.43.88.11 0 .18.08.12.15.1.34zm-43.78-.77l6.95 7.3q.11.11.28-.06l.01-.01q.17-.16.05-.29l-7.02-7.2q-.08-.08-.19.02v.01q-.16.15-.08.23zm53.668 10.114a21.57 9.55.7 0 1-21.685 9.286 21.57 9.55.7 0 1-21.452-9.813 21.57 9.55.7 0 1 21.685-9.286 21.57 9.55.7 0 1 21.452 9.813zm-34.778-5.013q-.19-.31-.5-.52a.35.35 0 0 0-.54.3l.03 3.8q.01.56.55.65.9.17 1.85 0a1.74 1.74 0 0 0 .19-3.38l-.79-.23q-.52-.15-.79-.62zm8.92 2.2l2.25-1.17a.27.27 0 0 0 .12-.36l-.08-.16a1.79 1.41 62.6 0 0-2.08-.94l-.23.12a1.79 1.41 62.6 0 0-.43 2.23l.08.16a.27.27 0 0 0 .37.12zm-4.18 6.26l1.24 1.91q.14.22.39.14l.36-.11q.35-.11.09-.37-2-1.97-.01-3.76a.3.3 0 0 0-.3-.5q-.97.37-1.5 1.24-.22.37-.54.09-.8-.69-.27-1.59 1.62-2.74 2.15-4.74a.24.24 0 0 0-.34-.28q-.91.46-.82 1.48.02.16-.06.31-.08.16-.22.22-.31.12-.47-.17-.33-.61-.32-1.31a.39.39 0 0 0-.77-.09q-.26 1.19.39 2.04.28.38.17.85-.76 3.23-.28 6.55 0 .02.02.03l.27.05q.25.04.27-.22l.11-1.66q.04-.72.44-.11zm10.53-4.77l.12-2.28a.73.73 0 0 0-.69-.76l-.94-.06a1.77 1.75-86.9 0 0-1.84 1.68l-.01.2a1.77 1.75-86.9 0 0 1.65 1.86l.94.05a.73.73 0 0 0 .77-.69zm2.93-1.95l.19 2.46q.01.16.17.17l.29.01q.05 0 .08-.16l.42-2.41q.07-.41.45-.23l.3.14a.32.32 0 0 1 .17.35q-.22 1.08.13 1.98.33.84.61-.02.4-1.26.17-2.61a.74.73 85.7 0 0-.71-.62l-3.55-.1a.66.65.9 0 0-.68.65v2.71a.32.32 0 0 0 .62.13q.45-1.05.4-2.2a.22.2 80.3 0 1 .13-.2l.53-.22q.26-.11.28.17zm7.073-.154a.97.97 0 0 0-.967-.973l-1.2-.004a.97.97 0 0 0-.973.967l-.006 1.74a.97.97 0 0 0 .967.973l1.2.004a.97.97 0 0 0 .973-.967l.006-1.74zm2.247.484l.43-.77q.4-.73-.44-.74-.41 0-.75.16-.55.24-.54.84l.06 2.43a.33.33 0 0 0 .64.08l.55-1.88a1 .66-33.7 0 1 .05-.12zm-18.03 1.15l-.74-.19a.45.44-15 0 0-.43.74q1.4 1.44 3.18-.38a.73.73 0 0 0 .12-.87q-.16-.3-.38-.43-.29-.18-.58-.01-.53.3-.57.7-.05.58-.6.44zm1.65 4.32c-1.28-1.43-3.68-.93-3.91 1.32a1.53 1.53 0 0 0 1.69 1.68l3.38-.38a.43.42 81.3 0 0 .37-.51q-.27-1.31.73-2.16.52-.44-.16-.5-.86-.06-1.42.55-.34.37-.68 0zm6.23 2.06l.06-2.14q.02-.55-.53-.55l-2.4-.01a.34.34 0 0 0-.33.43q.24.86.03 1.74a1.16 1.16 0 0 0 1.11 1.43l1.11.01a.94.93-88.5 0 0 .95-.91zm3.87-1.51a.52.51-51.4 0 1 .94-.11q.51.92.14 1.87-.12.31.2.4l.46.12q.22.07.27-.16.3-1.34-.02-2.67-.13-.57-.72-.58l-3.53-.02q-.6-.01-.63.6l-.11 2.63a.2.19-88.6 0 0 .19.21l.3.01a.31.31 0 0 0 .31-.35q-.13-1.06.25-2.07a.48.48 0 0 1 .92.11l.14 1.21a1.26.1 83.9 0 0 .21 1.13q.09.09.35-.08.23-.14.19-.4-.12-.95.14-1.85zm-19.8-5.721q.1.4-.16.72-.27.35-.77.25-.32-.07-.49-.34-.44-.7.14-1.36.43-.49.88-.01.29.32.4.74z"/><ellipse cx="0" cy="0" transform="matrix(.015707 .999877 -.999877 .015707 154.46 213.43)" rx=".96" ry=".83"/><path d="M165.17 213.28q.11.41-.09.81-.28.56-1.1.13a.85.85 0 0 1-.23-1.33l.31-.32a.72.59 45.8 0 1 .97.11q.09.09.1.3 0 .14.04.3zm-13.36 6.25q.45-.33.95-.08.3.15.22.48l-.07.29a.36.36 0 0 1-.35.27l-3.04-.03q-.58-.01-.6-.59l-.01-.33q-.01-.83.81-.81.79.03 1.24.67a.6.6 0 0 0 .85.13zm4.47.98q-.78-.77-.25-1.54a.74.74 0 0 1 1.36.45q-.03.76-.58 1.14a.43.42-39 0 1-.53-.05zm-95.3 3.55q2.22.1 2.81 2.29.12.42-.32.49l-1.92.28-8.25-.26a.8.79-83.5 0 1-.75-.95l.09-.43a1.58 1.58 0 0 1 1.51-1.27l6.83-.15zm-.62 17.03q.01.14.03.28-.62.8.2 2.13.25.41.73.4l4.44-.05a.32.32 0 0 0 .32-.33l-.07-2.92q-.01-.33-.34-.33H53.23q-1.58 0-1.97-1.53c-.24-.99-.76-1.49-.76-2.73q0-2.67-1.46-4.96a.51.51 0 0 1 .43-.78l20.02.06a3.04 3.03 84.6 0 1 2.98 2.47l3.81 19.95a2.83 2.82 84.7 0 1-2.77 3.35l-20.28.01a.56.56 0 0 1-.51-.8c1.21-2.54-1.22-11.51-1.84-14.63a.44.44 0 0 1 .48-.52l9 .93zm6.89-.59l4.62.21q.2.01.2-.22h0q-.01-.15-.07-.15l-4.75-.11q-.18-.01-.18.05v.01q-.02.2.18.21z"/></g><path d="M148.08 138.11l1.21 1.26q.3.32.74.34l.46.03q.83.05.35.74c-1.04 1.52-2.93 3.76-5.02 2.91q-.42-.17-.62-.07-.32.16-.34.69-.02-.58-1.09-.31l.84-.98a.04.04 0 0 0 0-.06l-.2-.17a.29.27-44.9 0 0-.37.01l-2.76 2.61q-.15-.55.24-1.21.25-.44-.13-.77c-6.15-5.29-15.61-3.43-19.67 3.38q-3.76 6.3-1.47 13.71-.22.11-.35.36-2.36-6.4.5-12.76 1.89-4.47 7.76-7.65 7.43-2.26 14.58 1.81a.59.59 0 0 0 .88-.55l-.07-.99q.85-.19 1.44.8-.04.33.1.54a.51.51 0 0 0 .85-.02q.77-1.24 1.91-2.16.38-.29.1-.69-.12-.18-.33-.32-.05-.36.46-.48zm-1.4 4.06q-.52.06-.58.43a.37.37 0 0 0 .41.43q.92-.11 1.48-.81a.31.31 0 0 0-.31-.5q-.58.14-1 .45zm-27.87 34.25q-.34.61-.93 1a.22.22 0 0 1-.32-.27q.56-1.15 1.46-2.05.39-.39.84-.07l.86.62q.45.33.8-.1.69-.83 1.14-1.78.12-.26.3-.39.88-.65.44 1.23a1.11 1.1 83.6 0 1-.59.74q-.71.36-1.1 1.13-.31.6-.84.18-.55-.42-1.19-.6-.58-.16-.87.36zm-67.58 49.51q1.39.31 1.36 1.55-.06 2.3 2.24 2.26l6.72-.11q2.45.36 3.75-3.14c-.12 5.05 5.56 1.42 7.64 5.82l1.65 8.94 2.16 10.53q.26.42.08.82c.13 4.27-2.36 3.85-5.46 3.87q-12.8.1-25.57-.01a2.28 2.27 2.5 0 1-2.25-2.45l1.81-23.1a1.26 1.25 1.3 0 1 1.21-1.15l3.27-.12a1.94 1.94 0 0 0 1.77-2.53l-.38-1.18zm9.16 15.44q.17 1.19.71 1.82.29.34.73.34l3.44-.05a.58.57 80.9 0 0 .54-.75l-.39-1.25q-.17-.56-.75-.65-2.32-.37-4.31.26l-9-.93a.44.44 0 0 0-.48.52c.62 3.12 3.05 12.09 1.84 14.63a.56.56 0 0 0 .51.8l20.28-.01a2.83 2.82 84.7 0 0 2.77-3.35l-3.81-19.95a3.04 3.03 84.6 0 0-2.98-2.47l-20.02-.06a.51.51 0 0 0-.43.78q1.46 2.29 1.46 4.96c0 1.24.52 1.74.76 2.73q.39 1.53 1.97 1.53h12.44q.33 0 .34.33l.07 2.92a.32.32 0 0 1-.32.33l-4.44.05q-.48.01-.73-.4-.82-1.33-.2-2.13zm-14.65-1.69q-1.22.67-.95 2.07c.7 3.71-.11 8.35-.6 12.41a1.09 1.09 0 0 0 .39.97c1.97 1.64 3.9-.03 5.81.56a1.84 1.84 0 0 0 2.36-2.12q-1.38-6.98-2.37-13.87c-.22-1.5-.84-3.07-.96-4.77-.12-1.63-.56-2.65-1.25-3.98a1.07 1.07 0 0 0-1.79-.15q-.35.45-.31 1.13c.15 2.18-.02 4.19.34 6.36a1.33 1.32 71 0 1-.67 1.39zm95.61 10.05q1.47 2.48 1.97 5.05.35 1.8-1.48 1.88l-2.66.13q-1.78.08-1.56-1.69l.48-3.9q.44-.05.54-.24l-.32 4.07q-.02.24.23.24l3.71-.01a.26.26 0 0 0 .26-.29q-.27-2.54-1.68-4.69.29.02.51-.55z" fill="#15462e"/><path fill="#52528d" d="M76.75 251.78q10.66.02 21.16.01c5.96 0 14.19.59 21.34.29q.5-.02 1.04.37-.26.43-.54.42c-10.71-.17-21.43.18-32.13-.16q-2.71-.08-5.52.26-2.72-.82-5.27-.37.18-.4-.08-.82z"/></svg>