<svg width="33" height="32" viewBox="0 0 33 32" fill="none" xmlns="http://www.w3.org/2000/svg">
<path d="M0.247351 31.5248V26.0528L1.39935 25.6688C5.04735 23.8128 7.12735 20.7408 7.63935 16.4528L7.73535 14.9168H0.727351V0.804771H14.6474V13.5728C14.6474 16.9648 13.9434 19.9408 12.5354 22.5008C9.65535 27.6208 5.55935 30.6288 0.247351 31.5248ZM18.1034 31.5248V26.0528L19.2554 25.6688C22.9034 23.8128 24.9834 20.7408 25.4954 16.4528L25.5914 14.9168H18.5834V0.804771H32.5034V13.5728C32.5034 16.9648 31.7994 19.9408 30.3914 22.5008C27.5114 27.6208 23.4154 30.6288 18.1034 31.5248Z" fill="black"/>
</svg>
