<svg width="86" height="64" viewBox="0 0 86 64" fill="none" xmlns="http://www.w3.org/2000/svg">
<path d="M37.927 45.0862C38.3312 61.2682 19.1316 69.0713 7.81003 59.3131C1.26295 53.6713 -0.381071 43.8336 0.663807 35.5493C2.9049 17.7924 15.6487 4.13694 32.5015 0.671511C32.584 0.654477 32.6697 0.666856 32.7446 0.706637C32.8195 0.746418 32.8792 0.811267 32.9141 0.890652L36.1005 8.04924C36.1454 8.14965 36.1503 8.2643 36.1142 8.36843C36.0781 8.47255 36.0039 8.55779 35.9077 8.60569C35.3811 8.86923 34.8117 9.15426 34.1994 9.46077C28.1499 12.4858 23.676 18.2092 22.5171 25.125C22.4908 25.2854 22.5012 25.501 22.5482 25.7717C22.5606 25.8448 22.6007 25.8927 22.6684 25.9157C23.4956 26.1864 24.4555 26.3754 25.1645 26.6182C31.6328 28.8483 36.5089 34.4643 37.7362 41.4575C37.8378 42.0418 37.8731 42.7573 37.9664 43.4104C38.0576 44.0334 37.9125 44.5018 37.927 45.0862Z" fill="#E5B981"/>
<path d="M78.6005 59.8717C70.8779 65.5715 59.5356 64.8131 53.3285 56.9133C49.9182 52.5756 48.382 47.2045 48.1809 41.6702C47.76 30.0557 52.5573 18.7399 60.6779 10.8723C66.0972 5.62368 72.9884 2.15825 80.2839 0.675826C80.3607 0.660447 80.4401 0.671973 80.5096 0.708569C80.5791 0.745165 80.6347 0.804728 80.6674 0.877778L83.9348 8.16528C83.9635 8.22895 83.967 8.3017 83.9445 8.3677C83.9219 8.43369 83.8752 8.48758 83.8145 8.51762C83.1553 8.84705 82.4739 9.19438 81.7704 9.55961C75.7976 12.6577 71.4688 18.2243 70.3057 25.1143C70.2587 25.3922 70.2463 25.6263 70.2684 25.8168C70.2767 25.8985 70.3202 25.9472 70.399 25.9629C76.0809 27.1489 80.3503 30.2018 83.2071 35.1217C87.9692 43.3288 86.151 54.2965 78.6005 59.8717Z" fill="#E5B981"/>
</svg>
