<svg width="133" height="21" viewBox="0 0 133 21" fill="none" xmlns="http://www.w3.org/2000/svg">
<path d="M20.7699 7.61066L14.3355 6.67554L11.4592 0.844304C11.3806 0.684648 11.2514 0.555403 11.0917 0.476842C10.6913 0.279173 10.2047 0.443897 10.0045 0.844304L7.1282 6.67554L0.693829 7.61066C0.516434 7.636 0.354244 7.71963 0.230067 7.84634C0.0799446 8.00064 -0.0027798 8.20823 7.13278e-05 8.42349C0.00292246 8.63875 0.0911158 8.84407 0.245272 8.99434L4.90063 13.5331L3.80078 19.9422C3.77499 20.0912 3.79148 20.2446 3.8484 20.3848C3.90532 20.525 4.00038 20.6464 4.1228 20.7353C4.24522 20.8242 4.3901 20.8771 4.54102 20.8878C4.69194 20.8986 4.84286 20.8668 4.97665 20.7962L10.7319 17.7703L16.4871 20.7962C16.6442 20.8798 16.8267 20.9077 17.0015 20.8773C17.4425 20.8013 17.739 20.3831 17.6629 19.9422L16.5631 13.5331L21.2184 8.99434C21.3452 8.87017 21.4288 8.70798 21.4541 8.53058C21.5226 8.08709 21.2134 7.67655 20.7699 7.61066Z" fill="#FECB1C"/>
<path d="M49.3426 7.60955L42.9083 6.67442L40.0319 0.84319C39.9534 0.683534 39.8241 0.554289 39.6645 0.475728C39.2641 0.278059 38.7775 0.442784 38.5773 0.84319L35.701 6.67442L29.2666 7.60955C29.0892 7.63489 28.927 7.71852 28.8028 7.84523C28.6527 7.99953 28.57 8.20712 28.5728 8.42238C28.5757 8.63764 28.6639 8.84296 28.818 8.99323L33.4734 13.532L32.3735 19.941C32.3477 20.0901 32.3642 20.2435 32.4212 20.3837C32.4781 20.5238 32.5731 20.6453 32.6956 20.7342C32.818 20.8231 32.9629 20.8759 33.1138 20.8867C33.2647 20.8975 33.4156 20.8657 33.5494 20.7951L39.3046 17.7692L45.0598 20.7951C45.2169 20.8787 45.3994 20.9066 45.5743 20.8762C46.0152 20.8001 46.3117 20.382 46.2357 19.941L45.1358 13.532L49.7912 8.99323C49.9179 8.86905 50.0015 8.70686 50.0269 8.52947C50.0953 8.08598 49.7861 7.67544 49.3426 7.60955Z" fill="#FECB1C"/>
<path d="M76.9149 7.60955L70.4805 6.67442L67.6042 0.84319C67.5256 0.683534 67.3964 0.554289 67.2367 0.475728C66.8363 0.278059 66.3498 0.442784 66.1496 0.84319L63.2732 6.67442L56.8388 7.60955C56.6615 7.63489 56.4993 7.71852 56.3751 7.84523C56.225 7.99953 56.1422 8.20712 56.1451 8.42238C56.1479 8.63764 56.2361 8.84296 56.3903 8.99323L61.0456 13.532L59.9458 19.941C59.92 20.0901 59.9365 20.2435 59.9934 20.3837C60.0503 20.5238 60.1454 20.6453 60.2678 20.7342C60.3902 20.8231 60.5351 20.8759 60.686 20.8867C60.837 20.8975 60.9879 20.8657 61.1217 20.7951L66.8769 17.7692L72.6321 20.7951C72.7892 20.8787 72.9717 20.9066 73.1465 20.8762C73.5875 20.8001 73.884 20.382 73.808 19.941L72.7081 13.532L77.3635 8.99323C77.4902 8.86905 77.5738 8.70686 77.5991 8.52947C77.6676 8.08598 77.3584 7.67544 76.9149 7.60955Z" fill="#FECB1C"/>
<path d="M104.487 7.60955L98.053 6.67442L95.1767 0.84319C95.0981 0.683534 94.9689 0.554289 94.8092 0.475728C94.4088 0.278059 93.9223 0.442784 93.7221 0.84319L90.8457 6.67442L84.4114 7.60955C84.234 7.63489 84.0718 7.71852 83.9476 7.84523C83.7975 7.99953 83.7147 8.20712 83.7176 8.42238C83.7205 8.63764 83.8086 8.84296 83.9628 8.99323L88.6182 13.532L87.5183 19.941C87.4925 20.0901 87.509 20.2435 87.5659 20.3837C87.6228 20.5238 87.7179 20.6453 87.8403 20.7342C87.9627 20.8231 88.1076 20.8759 88.2586 20.8867C88.4095 20.8975 88.5604 20.8657 88.6942 20.7951L94.4494 17.7692L100.205 20.7951C100.362 20.8787 100.544 20.9066 100.719 20.8762C101.16 20.8001 101.456 20.382 101.38 19.941L100.281 13.532L104.936 8.99323C105.063 8.86905 105.146 8.70686 105.172 8.52947C105.24 8.08598 104.931 7.67544 104.487 7.60955Z" fill="#FECB1C"/>
<path d="M125.305 6.83194L125.388 6.99987L125.574 7.0268L132.007 7.96177C132.007 7.96179 132.007 7.96182 132.007 7.96185C132.259 7.99959 132.429 8.23113 132.391 8.47517L132.391 8.47911C132.377 8.57737 132.331 8.66817 132.259 8.73857C132.259 8.73868 132.259 8.7388 132.259 8.73891L127.604 13.277L127.47 13.4077L127.501 13.5922L128.601 20.0013L128.601 20.0015C128.644 20.2478 128.478 20.4825 128.23 20.5253L128.23 20.5254C128.131 20.5425 128.029 20.5264 127.944 20.4807L127.942 20.4799L122.187 17.454L122.021 17.3669L121.855 17.454L116.1 20.4799L116.1 20.4802C116.025 20.5198 115.94 20.5375 115.856 20.5315C115.771 20.5255 115.69 20.4959 115.621 20.4461C115.553 20.3963 115.5 20.3282 115.468 20.2497C115.436 20.1712 115.427 20.0853 115.441 20.0017L115.441 20.0013L116.541 13.5922L116.573 13.4077L116.439 13.277L111.783 8.73827L111.783 8.73825C111.697 8.65386 111.647 8.53855 111.645 8.41766C111.644 8.29699 111.69 8.18061 111.774 8.094C111.845 8.02238 111.935 7.97608 112.033 7.96205L112.034 7.96193L118.469 7.0268L118.654 6.99987L118.737 6.83194L121.612 1.00244C121.612 1.0022 121.613 1.00197 121.613 1.00173C121.726 0.776026 122 0.684747 122.223 0.795024L122.224 0.795228C122.313 0.839087 122.385 0.911271 122.429 1.0004L122.429 1.00071L125.305 6.83194ZM116.266 20.7951L122.021 17.7692L111.519 7.84523C111.369 7.99953 111.287 8.20712 111.289 8.42238C111.292 8.63764 111.38 8.84296 111.535 8.99323L116.19 13.532L115.09 19.941C115.064 20.0901 115.081 20.2435 115.138 20.3837C115.195 20.5238 115.29 20.6453 115.412 20.7342C115.535 20.8231 115.679 20.8759 115.83 20.8867C115.981 20.8975 116.132 20.8657 116.266 20.7951Z" stroke="#FECB1C" stroke-width="0.712169"/>
</svg>
